<svg width="124" height="28" viewBox="0 0 124 28" fill="none" xmlns="http://www.w3.org/2000/svg">
<path d="M0.938904 8.51053V19.4895C0.938904 20.1882 1.31096 20.8353 1.9177 21.1847L11.4195 26.6713C12.0262 27.0207 12.7703 27.0207 13.377 26.6713L22.8788 21.1847C23.4855 20.8353 23.8576 20.1882 23.8576 19.4895V8.51053C23.8576 7.81182 23.4855 7.16466 22.8788 6.8153L13.377 1.3287C12.7703 0.979342 12.0262 0.979342 11.4195 1.3287L1.9177 6.8153C1.31668 7.16466 0.938904 7.81182 0.938904 8.51053Z" fill="#213147"/>
<path d="M14.476 16.1277L13.1194 19.8446C13.0793 19.9477 13.0793 20.0622 13.1194 20.1653L15.4491 26.5625L18.145 25.0047L14.911 16.1277C14.8366 15.9215 14.5504 15.9215 14.476 16.1277Z" fill="#12AAFF"/>
<path d="M17.1892 9.8736C17.1148 9.66742 16.8286 9.66742 16.7542 9.8736L15.3976 13.5905C15.3575 13.6936 15.3575 13.8081 15.3976 13.9112L19.2155 24.3862L21.9115 22.8284L17.1892 9.8736Z" fill="#12AAFF"/>
<path d="M12.3981 1.73532C12.4668 1.73532 12.5297 1.75251 12.5927 1.78687L22.8729 7.72591C22.9931 7.79464 23.0675 7.92064 23.0675 8.05809V19.9362C23.0675 20.0736 22.9931 20.1996 22.8729 20.2684L12.5927 26.2131C12.5354 26.2475 12.4668 26.2647 12.3981 26.2647C12.3294 26.2647 12.2664 26.2475 12.2035 26.2131L1.92897 20.2741C1.80877 20.2054 1.73436 20.0794 1.73436 19.9419V8.05809C1.73436 7.92064 1.80877 7.79464 1.92897 7.72591L12.2092 1.78687C12.2664 1.75251 12.3351 1.73532 12.3981 1.73532ZM12.3981 0C12.0317 0 11.6654 0.0973614 11.3391 0.286357L1.05893 6.2254C0.4064 6.60339 0 7.30211 0 8.05809V19.9362C0 20.6922 0.4064 21.3966 1.05893 21.7746L11.3391 27.7136C11.6654 27.9026 12.0317 28 12.3981 28C12.7644 28 13.1307 27.9026 13.457 27.7136L23.7372 21.7746C24.3955 21.3966 24.7962 20.6979 24.7962 19.9362V8.05809C24.7962 7.30211 24.3898 6.59767 23.7372 6.21968L13.4627 0.286357C13.1307 0.0973614 12.7644 0 12.3981 0Z" fill="#9DCCED"/>
<path d="M5.60364 24.3976L6.54809 21.8089L8.44844 23.3896L6.67402 25.0161L5.60364 24.3976Z" fill="#213147"/>
<path d="M11.5341 7.21048H8.92974C8.73512 7.21048 8.55768 7.33075 8.49472 7.51402L2.90814 22.8398L5.60412 24.3976L11.7574 7.51975C11.8089 7.37084 11.7001 7.21048 11.5341 7.21048Z" fill="white"/>
<path d="M16.0958 7.21046H13.4914C13.2968 7.21046 13.1194 7.33073 13.0564 7.514L6.67419 25.0162L9.37017 26.5739L16.3133 7.52546C16.3706 7.37082 16.2561 7.21046 16.0958 7.21046Z" fill="white"/>
<path d="M36.738 10.4073C37.0383 10.4073 37.2986 10.4674 37.5055 10.5943C37.7124 10.7211 37.9192 10.9615 38.1194 11.3221L42.0835 18.5202C42.1236 18.6003 42.1302 18.6671 42.1102 18.7205C42.0902 18.7739 42.0301 18.8006 41.9367 18.8006H40.4151C40.2817 18.8006 40.1882 18.7472 40.1415 18.647L39.294 17.1046H33.6682L32.8407 18.647C32.7873 18.7539 32.6939 18.8006 32.5671 18.8006H31.0121C30.9053 18.8006 30.8453 18.7739 30.8253 18.7205C30.8052 18.6671 30.8119 18.6003 30.852 18.5202L34.7827 11.3221C34.9829 10.9615 35.1764 10.7211 35.3699 10.5943C35.5635 10.4674 35.7837 10.4073 36.0373 10.4073H36.738ZM34.409 15.7024H38.5332L36.6312 12.1901C36.5979 12.1367 36.5578 12.1033 36.4978 12.1033H36.4244C36.371 12.1033 36.3243 12.13 36.2909 12.1901L34.409 15.7024Z" fill="#213147"/>
<path d="M50.7926 10.4072C51.7136 10.4072 52.3676 10.6142 52.768 11.0281C53.1684 11.4421 53.3686 12.0564 53.3686 12.8711V13.5522C53.3686 14.2399 53.2285 14.7808 52.9482 15.1814C52.6679 15.582 52.2141 15.8358 51.5801 15.9493L53.6289 18.4867C53.6689 18.5267 53.6823 18.5868 53.6623 18.6669C53.6489 18.7471 53.5822 18.7871 53.4687 18.7871H51.9271C51.8204 18.7871 51.7536 18.7738 51.7136 18.7537C51.6735 18.727 51.6335 18.687 51.5935 18.6335L49.6982 16.1429H45.8275V18.5267C45.8275 18.7003 45.7408 18.7871 45.5672 18.7871H44.2726C44.0857 18.7871 43.999 18.7003 43.999 18.5267V10.7611C43.999 10.5207 44.1191 10.4005 44.3593 10.4005H50.7926V10.4072ZM45.8342 14.6806H50.4189C50.826 14.6806 51.113 14.5938 51.2798 14.4202C51.4466 14.2466 51.5334 13.9795 51.5334 13.6189V13.1181C51.5334 12.7576 51.4466 12.4905 51.2798 12.3169C51.113 12.1432 50.826 12.0564 50.4189 12.0564H45.9877C45.8809 12.0564 45.8342 12.1032 45.8342 12.2033V14.6806Z" fill="#213147"/>
<path d="M63.3855 10.4072C64.2063 10.4072 64.7936 10.5741 65.1406 10.9013C65.4876 11.2285 65.6611 11.7226 65.6611 12.3836V12.9579C65.6611 13.6256 65.4075 14.1331 64.8937 14.4803C65.4409 14.8008 65.7212 15.3149 65.7212 16.0227V16.7172C65.7212 17.0377 65.6878 17.3248 65.6144 17.5785C65.541 17.8323 65.4276 18.0526 65.2607 18.2329C65.0939 18.4132 64.8803 18.5534 64.6067 18.6469C64.3331 18.7404 63.9994 18.7938 63.599 18.7938H56.485C56.2448 18.7938 56.1246 18.6736 56.1246 18.4332V10.7611C56.1246 10.5207 56.2448 10.4005 56.485 10.4005H63.3855V10.4072ZM57.9599 13.8927H62.8716C63.272 13.8927 63.5389 13.8326 63.6858 13.7124C63.8326 13.5922 63.8993 13.4186 63.8993 13.1849V12.7776C63.8993 12.5305 63.8326 12.3502 63.6924 12.2301C63.5523 12.1165 63.3254 12.0564 63.0184 12.0564H58.12C58.0132 12.0564 57.9665 12.1099 57.9665 12.21V13.8927H57.9599ZM57.9599 15.1948V16.9776C57.9599 17.0844 58.0132 17.1312 58.1134 17.1312H63.0251C63.3454 17.1312 63.5723 17.0711 63.7058 16.9576C63.8392 16.844 63.9127 16.6571 63.9127 16.4033V15.9493C63.9127 15.7022 63.8393 15.5153 63.6924 15.3884C63.5456 15.2615 63.272 15.1948 62.8716 15.1948H57.9599Z" fill="#213147"/>
<path d="M70.1858 10.4072C70.3593 10.4072 70.4461 10.494 70.4461 10.6676V18.5267C70.4461 18.7003 70.3593 18.7871 70.1858 18.7871H68.8912C68.7043 18.7871 68.6176 18.7003 68.6176 18.5267V10.6676C68.6176 10.494 68.711 10.4072 68.8912 10.4072H70.1858Z" fill="#213147"/>
<path d="M82.7319 10.4072C82.9187 10.4072 83.0055 10.494 83.0055 10.6676V11.8428C83.0055 12.0297 82.9121 12.1165 82.7319 12.1165H78.9747V18.5267C78.9747 18.7003 78.8879 18.7871 78.7144 18.7871H77.4064C77.2329 18.7871 77.1461 18.7003 77.1461 18.5267V12.1165H73.3889C73.2021 12.1165 73.1153 12.0231 73.1153 11.8428V10.6676C73.1153 10.494 73.2087 10.4072 73.3889 10.4072H82.7319Z" fill="#213147"/>
<path d="M92.2019 10.4072C93.1228 10.4072 93.7768 10.6142 94.1772 11.0281C94.5777 11.4421 94.7779 12.0564 94.7779 12.8711V13.5522C94.7779 14.2399 94.6377 14.7808 94.3574 15.1814C94.0771 15.582 93.6233 15.8358 92.9893 15.9493L95.0381 18.4867C95.0782 18.5267 95.0915 18.5868 95.0715 18.6669C95.0581 18.7471 94.9914 18.7871 94.878 18.7871H93.3364C93.2296 18.7871 93.1629 18.7738 93.1228 18.7537C93.0828 18.727 93.0427 18.687 93.0027 18.6335L91.1074 16.1429H87.2368V18.5267C87.2368 18.7003 87.15 18.7871 86.9765 18.7871H85.6818C85.495 18.7871 85.4082 18.7003 85.4082 18.5267V10.7611C85.4082 10.5207 85.5283 10.4005 85.7686 10.4005H92.2019V10.4072ZM87.2501 14.6806H91.8348C92.2419 14.6806 92.5289 14.5938 92.6957 14.4202C92.8625 14.2466 92.9493 13.9795 92.9493 13.6189V13.1181C92.9493 12.7576 92.8625 12.4905 92.6957 12.3169C92.5289 12.1432 92.2419 12.0564 91.8348 12.0564H87.4036C87.2968 12.0564 87.2501 12.1032 87.2501 12.2033V14.6806Z" fill="#213147"/>
<path d="M98.9354 10.4072C99.1089 10.4072 99.1957 10.494 99.1957 10.6676V15.4485C99.1957 15.769 99.2224 16.0361 99.2758 16.2431C99.3292 16.4568 99.4159 16.6237 99.536 16.7439C99.6562 16.8708 99.8163 16.9576 100.023 17.0043C100.23 17.0577 100.484 17.0844 100.797 17.0844H104.114C104.428 17.0844 104.681 17.0577 104.888 17.0043C105.095 16.9509 105.255 16.8641 105.375 16.7439C105.496 16.617 105.582 16.4501 105.629 16.2431C105.676 16.0294 105.702 15.769 105.702 15.4485V10.6676C105.702 10.494 105.789 10.4072 105.963 10.4072H107.271C107.444 10.4072 107.531 10.494 107.531 10.6676V15.6288C107.531 16.203 107.471 16.6905 107.351 17.0978C107.231 17.4984 107.037 17.8256 106.77 18.0793C106.503 18.3331 106.156 18.5134 105.729 18.6269C105.302 18.7404 104.788 18.7938 104.181 18.7938H100.731C100.123 18.7938 99.6095 18.7404 99.189 18.6269C98.7686 18.5134 98.4216 18.3331 98.1546 18.0793C97.8877 17.8256 97.6941 17.4984 97.5673 17.0978C97.4406 16.6971 97.3805 16.203 97.3805 15.6288V10.6676C97.3805 10.494 97.4739 10.4072 97.6541 10.4072H98.9354Z" fill="#213147"/>
<path d="M112.676 10.4072C112.85 10.4072 113.003 10.4205 113.13 10.4406C113.257 10.4673 113.37 10.5073 113.464 10.5808C113.557 10.6475 113.644 10.741 113.724 10.8545C113.797 10.9681 113.877 11.1216 113.958 11.3153L116.447 17.0644C116.48 17.1378 116.534 17.1712 116.614 17.1712H116.76C116.841 17.1712 116.894 17.1378 116.927 17.0644L119.417 11.3153C119.497 11.1216 119.577 10.9681 119.65 10.8545C119.723 10.741 119.81 10.6475 119.91 10.5808C120.004 10.514 120.117 10.4673 120.237 10.4406C120.364 10.4138 120.511 10.4072 120.684 10.4072H121.966C122.38 10.4072 122.66 10.5006 122.807 10.6876C122.953 10.8746 123.02 11.1951 123.02 11.6491V18.5267C123.02 18.7003 122.927 18.7871 122.747 18.7871H121.525C121.352 18.7871 121.265 18.7003 121.265 18.5267V12.2768C121.265 12.1967 121.232 12.1566 121.172 12.1566H121.065C120.985 12.1566 120.931 12.19 120.911 12.2501L118.482 17.6186C118.389 17.8323 118.289 18.0192 118.189 18.1661C118.088 18.313 117.982 18.4332 117.868 18.5334C117.755 18.6269 117.621 18.7003 117.475 18.7404C117.328 18.7805 117.154 18.8005 116.954 18.8005H116.38C116.18 18.8005 116.006 18.7805 115.86 18.7404C115.713 18.7003 115.579 18.6336 115.466 18.5334C115.352 18.4399 115.239 18.313 115.145 18.1661C115.045 18.0192 114.945 17.839 114.852 17.6186L112.436 12.2501C112.409 12.1833 112.363 12.1566 112.282 12.1566H112.176C112.109 12.1566 112.082 12.1967 112.082 12.2768V18.5334C112.082 18.707 111.996 18.7938 111.822 18.7938H110.601C110.414 18.7938 110.327 18.707 110.327 18.5334V11.6558C110.327 11.2018 110.401 10.8813 110.541 10.6943C110.688 10.5073 110.968 10.4138 111.388 10.4138H112.676V10.4072Z" fill="#213147"/>
</svg>
