<svg width="131" height="27" viewBox="0 0 131 27" fill="none" xmlns="http://www.w3.org/2000/svg">
<path d="M35.3727 8.63708H36.7938L40.7711 17.871H38.8928L38.0325 15.7585H34.0281L33.1926 17.871H31.3525L35.3704 8.63708H35.3727ZM37.4604 14.3486L36.0393 10.592L34.5912 14.3486H37.4604Z" fill="#ffffff"/>
<path d="M42.5346 8.63708H44.4264L46.9444 15.6143L49.5389 8.63708H51.3136L47.584 17.871H46.1629L42.5369 8.63708H42.5346Z" fill="#ffffff"/>
<path d="M57.1873 8.63708H58.6084L62.5857 17.871H60.7074L59.8471 15.7585H55.8427L55.0071 17.871H53.1694L57.1873 8.63708ZM59.2728 14.3486L57.8516 10.592L56.4035 14.3486H59.2728Z" fill="#ffffff"/>
<path d="M66.2208 8.63708H67.8649V16.3846H71.7905V17.871H66.2208V8.63708Z" fill="#ffffff"/>
<path d="M78.5807 8.63708H80.0018L83.9791 17.871H82.1008L81.2405 15.7585H77.2361L76.4006 17.871H74.5605L78.5784 8.63708H78.5807ZM80.6662 14.3486L79.2451 10.592L77.7969 14.3486H80.6662Z" fill="#ffffff"/>
<path d="M87.6141 8.63708H89.7919L94.2647 15.4972H94.2918V8.63708H95.9359V17.871H93.8503L89.2852 10.7879H89.2604V17.871H87.6163V8.63708H87.6141Z" fill="#ffffff"/>
<path d="M106.942 10.8014C106.602 10.4365 106.273 10.1933 105.951 10.0717C105.638 9.95006 105.321 9.88925 104.999 9.88925C104.521 9.88925 104.087 9.97708 103.695 10.1505C103.312 10.3149 102.981 10.5514 102.704 10.8554C102.427 11.1505 102.208 11.4996 102.051 11.8982C101.902 12.2991 101.83 12.7292 101.83 13.1887C101.83 13.6842 101.904 14.1414 102.051 14.558C102.208 14.9747 102.424 15.3373 102.704 15.6413C102.983 15.9453 103.312 16.1841 103.695 16.3597C104.087 16.5332 104.521 16.621 104.999 16.621C105.373 16.621 105.733 16.5332 106.082 16.3597C106.438 16.1773 106.769 15.8913 107.073 15.4994L108.429 16.4656C108.012 17.0399 107.503 17.4565 106.902 17.7178C106.303 17.9791 105.663 18.1097 104.985 18.1097C104.271 18.1097 103.616 17.9971 103.017 17.7696C102.424 17.5354 101.913 17.2088 101.479 16.7922C101.053 16.3665 100.717 15.8575 100.474 15.2652C100.231 14.6729 100.109 14.0175 100.109 13.2968C100.109 12.5761 100.231 11.8892 100.474 11.2878C100.717 10.6798 101.053 10.1618 101.479 9.7361C101.913 9.31044 102.427 8.98387 103.017 8.75866C103.616 8.52443 104.273 8.40732 104.985 8.40732C105.611 8.40732 106.19 8.51993 106.719 8.7474C107.258 8.96586 107.758 9.33972 108.219 9.86898L106.94 10.8081L106.942 10.8014Z" fill="#ffffff"/>
<path d="M112.143 8.63708H113.787V12.3149H118.104V8.63708H119.748V17.871H118.104V13.8013H113.787V17.871H112.143V8.63708Z" fill="#ffffff"/>
<path d="M124.419 8.63708H130.536V10.1235H126.063V12.3937H130.302V13.8801H126.063V16.3846H130.773V17.871H124.421V8.63708H124.419Z" fill="#ffffff"/>
<path d="M13.245 26.4901C20.5601 26.4901 26.4901 20.5601 26.4901 13.245C26.4901 5.93 20.5601 0 13.245 0C5.93 0 0 5.93 0 13.245C0 20.5601 5.93 26.4901 13.245 26.4901Z" fill="#D34F49"/>
<path fill-rule="evenodd" clip-rule="evenodd" d="M9.2429 19.2471H6.1349C5.39844 19.2471 5.02908 19.2471 4.80837 19.1052C4.56964 18.9521 4.41875 18.6931 4.40298 18.4093C4.38721 18.148 4.56964 17.8282 4.93449 17.1886L11.7383 5.2701C12.1077 4.62148 12.2946 4.29716 12.5288 4.17555C12.7833 4.04492 13.0851 4.04492 13.3396 4.17555C13.5761 4.29491 13.7608 4.61922 14.1324 5.26785L15.7021 8.00649C15.9724 8.4772 16.1075 8.71368 16.1661 8.96141C16.2314 9.23167 16.2314 9.5132 16.1661 9.78571C16.1075 10.0334 15.9724 10.2699 15.7021 10.7429L11.6347 17.8598C11.3622 18.3372 11.2248 18.5782 11.0379 18.7561C10.8329 18.9498 10.5875 19.0939 10.3172 19.175C10.0694 19.2493 9.79243 19.2493 9.24065 19.2493L9.2429 19.2471Z" fill="white"/>
<path fill-rule="evenodd" clip-rule="evenodd" d="M20.3282 19.247H16.7247C15.9815 19.247 15.6099 19.247 15.3892 19.1029C15.1504 18.9475 14.9995 18.6862 14.986 18.4025C14.9725 18.139 15.1595 17.8169 15.5333 17.1773L17.3305 14.0918C17.6999 13.459 17.8846 13.1414 18.1188 13.022C18.3711 12.8937 18.6706 12.8937 18.9228 13.022C19.1571 13.1414 19.3417 13.4567 19.7133 14.0896L21.5173 17.175C21.8935 17.8169 22.0804 18.139 22.0669 18.4025C22.0534 18.6862 21.9025 18.9475 21.6637 19.1052C21.443 19.2493 21.0692 19.2493 20.3259 19.2493L20.3282 19.247Z" fill="white"/>
</svg>
