<svg width="81" height="22" viewBox="0 0 81 22" fill="none" xmlns="http://www.w3.org/2000/svg">
<path fill-rule="evenodd" clip-rule="evenodd" d="M21.1946 10.596C21.1946 16.4487 16.4426 21.1921 10.579 21.1921C4.71549 21.1921 0.452671 16.9205 0 11.4858H14.0328V9.70436H0C0.452671 4.26961 5.01598 0 10.579 0C16.4426 0 21.1946 4.74337 21.1946 10.596ZM60.5539 19.272C64.2331 19.272 66.6448 17.2903 66.6448 14.3052C66.6448 11.5358 64.8283 10.2205 62.0834 9.76791L59.6467 9.36156C57.784 9.05149 56.5415 8.23879 56.5415 6.44775C56.5415 4.6567 57.9265 3.24698 60.5539 3.24698C63.1814 3.24698 64.4238 4.5373 64.5663 6.37456H66.4059C66.2634 3.93836 64.3988 1.766 60.5771 1.766C56.7554 1.766 54.7251 3.89214 54.7251 6.519C54.7251 9.31341 56.6128 10.6037 59.1921 11.0332L61.6519 11.4145C63.7053 11.7727 64.8533 12.6085 64.8533 14.3765C64.8533 16.4545 63.1582 17.791 60.5771 17.791C57.9959 17.791 56.2295 16.5007 56.0869 14.3052H54.2724C54.4149 17.1709 56.6128 19.272 60.5539 19.272ZM33.4341 18.9369H26.7461V2.12421H33.1953C36.0384 2.12421 38.0205 3.79585 38.0205 6.47086C38.0205 8.40441 36.9226 9.69473 35.1543 10.1242V10.1954C37.2558 10.6018 38.5464 12.0346 38.5464 14.2802C38.5464 17.169 36.4198 18.9369 33.4341 18.9369ZM32.9564 9.50407C34.9867 9.50407 36.2291 8.40633 36.2291 6.68655V6.44775C36.2291 4.72796 34.9867 3.65334 32.9564 3.65334H28.5376V9.50407H32.9564ZM33.1721 17.4078C35.3931 17.4078 36.755 16.1906 36.755 14.3264V14.0876C36.755 12.154 35.37 10.9831 33.1471 10.9831H28.5376V17.4078H33.1721ZM53.0146 18.9369H51.1037L49.6706 14.3745H42.9826L41.5494 18.9369H39.7349L45.2536 2.12421H47.4265L53.0165 18.9369H53.0146ZM46.421 3.9634H46.2784L43.4603 12.8705H49.2179L46.4229 3.9634H46.421ZM69.3358 18.9369V2.12421H80.1325V3.67645H71.1272V9.45592H79.4159V10.985H71.1272V17.3846H80.1325V18.9369H69.3358Z" fill="#0A0B0D"/>
</svg>
