<svg width="88" height="22" viewBox="0 0 88 22" fill="none" xmlns="http://www.w3.org/2000/svg">
<path d="M30.5583 22C28.8332 22 27.1708 21.3759 26.1985 19.722H25.6338V21.5319H21.7131V0H25.6338V7.83263H26.1985C27.202 6.11631 29.084 5.461 30.7778 5.461C35.012 5.461 37.8666 8.8312 37.8666 13.5745C37.8666 18.4113 34.7298 22 30.5583 22ZM29.7114 18.505C32.1266 18.505 33.8517 16.539 33.8517 13.7305C33.8517 10.922 32.0951 8.95602 29.7114 8.95602C27.3589 8.95602 25.6338 10.8284 25.6338 13.7305C25.6338 16.6326 27.3589 18.505 29.7114 18.505ZM45.1119 22C42.1008 22 39.6544 20.1901 39.6544 17.2255C39.6544 13.7305 42.3518 12.6071 45.6137 12.2638L50.2245 11.7958V10.922C50.2245 9.58014 49.1268 8.64397 47.1822 8.64397C45.3314 8.64397 44.265 9.45533 43.92 10.6723H40.1561C40.5325 7.70779 43.0104 5.461 47.1822 5.461C51.1968 5.461 53.863 7.39574 53.863 11.1716V18.7858C53.863 19.7532 53.9569 21.095 54.0199 21.4695V21.5319H50.256C50.2245 21.0014 50.2245 20.5021 50.2245 19.9716H49.66C48.6877 21.5319 46.9938 22 45.1119 22ZM46.1784 19.0667C48.7504 19.0667 50.2245 17.1319 50.2245 15.166V14.3858L46.7743 14.7915C44.6413 15.0411 43.6063 15.6652 43.6063 17.0383C43.6063 18.3177 44.6728 19.0667 46.1784 19.0667ZM63.2725 22C59.3206 22 56.4978 20.034 56.0584 16.9447H59.9165C60.3556 18.3177 61.7984 18.9106 63.304 18.9106C64.841 18.9106 66.0956 18.2553 66.0956 17.1007C66.0956 15.9461 64.9037 15.634 63.2725 15.3532L61.6104 15.0724C58.4736 14.5418 56.529 13.2312 56.529 10.4227C56.529 7.36453 59.2264 5.461 62.9591 5.461C66.5973 5.461 69.0125 7.14611 69.6712 10.0794H65.9073C65.4682 8.92483 64.3078 8.45673 62.9903 8.45673C61.3906 8.45673 60.3556 9.14325 60.3556 10.1106C60.3556 11.1092 61.171 11.4213 62.8649 11.7021L64.5273 11.983C67.5697 12.4823 69.8907 13.7305 69.8907 16.7574C69.8907 20.0653 67.1306 22 63.2725 22ZM79.7083 22C74.8779 22 71.6787 18.7234 71.6787 13.6993C71.6787 8.76881 75.0663 5.461 79.7395 5.461C84.6326 5.461 87.4557 9.08086 87.4557 13.8553V14.5418H75.5053C75.6934 17.1319 77.5127 18.661 79.7083 18.661C81.5276 18.661 82.6253 18.0369 83.1585 16.9447H87.1732C86.3577 19.878 83.4407 22 79.7083 22ZM83.6291 11.9518C83.3154 9.86098 81.653 8.64397 79.7083 8.64397C77.6695 8.64397 75.9444 9.8298 75.568 11.9518H83.6291Z" fill="#0A0B0D"/>
<path d="M0.940971 21.532C0.313656 21.532 0 21.2199 0 20.5958V6.86527C0 6.24117 0.313656 5.92912 0.940971 5.92912H14.7419C15.3692 5.92912 15.6828 6.24117 15.6828 6.86527V20.5958C15.6828 21.2199 15.3692 21.532 14.7419 21.532H0.940971Z" fill="#0000FF"/>
</svg>
