<svg width="117" height="16" viewBox="0 0 117 16" fill="none" xmlns="http://www.w3.org/2000/svg">
<path d="M22.7887 15.6646C22.0316 15.6646 21.2715 15.6427 20.5239 15.5924C19.7355 15.539 18.9502 15.4291 18.1775 15.2657V1.8532C18.812 1.73069 19.5187 1.64902 20.2789 1.5862C21.0359 1.52338 21.7427 1.49511 22.3992 1.49511C23.2818 1.49511 24.0891 1.55793 24.8272 1.68986C25.5654 1.81236 26.1999 2.0291 26.7339 2.33378C27.2679 2.64161 27.6857 3.04053 27.9841 3.54311C28.2825 4.04569 28.4364 4.66135 28.4364 5.38694C28.4364 6.49261 27.9024 7.3627 26.8376 8.00034C27.7202 8.32702 28.3139 8.78876 28.6311 9.35416C28.9484 9.92898 29.1117 10.5729 29.1117 11.2891C29.1117 12.7434 28.5777 13.8302 27.5223 14.559C26.4481 15.3066 24.8838 15.6646 22.7887 15.6646ZM21.2118 7.08942H22.729C23.6933 7.08942 24.3686 6.96692 24.7895 6.72191C25.1979 6.47691 25.4052 6.07798 25.4052 5.53457C25.4052 4.97231 25.1916 4.58282 24.7707 4.35666C24.3404 4.1305 23.7153 4.01742 22.8954 4.01742C22.6285 4.01742 22.3426 4.01742 22.0348 4.02684C21.727 4.03626 21.46 4.04883 21.215 4.0771C21.2118 4.0771 21.2118 7.08942 21.2118 7.08942ZM21.2118 9.46724V13.0418C21.438 13.0732 21.683 13.0921 21.95 13.1046C22.217 13.1172 22.5122 13.1266 22.8326 13.1266C23.7655 13.1266 24.5131 12.9947 25.0879 12.7277C25.6628 12.4607 25.9486 11.9707 25.9486 11.2514C25.9486 10.6169 25.713 10.1551 25.2324 9.88815C24.7518 9.61173 24.0639 9.4798 23.1719 9.4798H21.215V9.46724H21.2118ZM33.547 1.95685C33.547 2.50026 33.3742 2.9306 33.013 3.24785C32.6643 3.5651 32.2434 3.71901 31.7628 3.71901C31.3011 3.7253 30.855 3.55882 30.5127 3.24785C30.164 2.9306 29.9787 2.50969 29.9787 1.95685C29.9787 1.41344 30.1514 0.983109 30.5127 0.665857C30.855 0.358028 31.3011 0.188408 31.7628 0.194691C32.2246 0.188408 32.6706 0.354887 33.013 0.665857C33.3711 0.983109 33.547 1.41344 33.547 1.95685ZM33.2611 15.4919H30.2896V4.98802H33.2611V15.4919ZM34.86 2.37462L37.8315 1.89403V4.98802H41.4061V7.46635H37.8315V11.154C37.8315 11.7791 37.9445 12.2817 38.1581 12.6492C38.3717 13.0167 38.8241 13.2114 39.49 13.2114C39.8198 13.2083 40.1496 13.18 40.4731 13.1203C40.7904 13.0638 41.1014 12.9821 41.4061 12.8753L41.827 15.1903C41.4375 15.3474 41.0354 15.4762 40.6271 15.5704C40.1873 15.6741 39.6533 15.7337 39.0094 15.7337C38.199 15.7337 37.5236 15.6207 36.9896 15.4071C36.4557 15.1935 36.0253 14.8856 35.7081 14.4836C35.3908 14.0941 35.1647 13.6135 35.0421 13.0607C34.9102 12.4513 34.8443 11.8294 34.8474 11.2074V2.37462H34.86ZM41.8301 10.2431C41.8238 9.51436 41.9495 8.78876 42.1976 8.10086C42.4301 7.45065 42.7913 6.85384 43.2625 6.34812C43.7242 5.84554 44.2959 5.45605 44.9618 5.16078C45.6277 4.86238 46.3847 4.72103 47.236 4.72103C47.7982 4.72103 48.3102 4.77128 48.772 4.87494C49.2369 4.97546 49.6892 5.11995 50.1258 5.30527L49.5101 7.68309C49.2086 7.57315 48.9008 7.47892 48.5866 7.40667C48.2191 7.32186 47.8453 7.28103 47.4684 7.28417C46.5858 7.28417 45.9324 7.56059 45.5021 8.104C45.0717 8.64741 44.8581 9.36358 44.8581 10.2557C44.8581 11.198 45.0623 11.9361 45.4612 12.4481C45.8696 12.9696 46.5795 13.2271 47.5815 13.2271C47.971 13.2271 48.3573 13.1926 48.7406 13.1235C49.1301 13.0638 49.5133 12.957 49.8776 12.8062L50.2986 15.2437C49.8776 15.4134 49.4442 15.539 48.9981 15.6238C48.4296 15.7337 47.8548 15.7903 47.2768 15.7871C46.3125 15.7871 45.4926 15.6427 44.7985 15.3568C44.1011 15.071 43.5389 14.6815 43.0865 14.1883C42.6342 13.6952 42.317 13.1141 42.1128 12.445C41.9243 11.7257 41.8301 10.9875 41.8301 10.2431Z" fill="#ffffff"/>
<path d="M60.5355 10.2242C60.5355 11.0535 60.413 11.8011 60.1774 12.489C59.9419 13.1769 59.5932 13.758 59.144 14.2417C58.6854 14.7286 58.1294 15.1118 57.5138 15.3694C56.8761 15.6364 56.1725 15.7683 55.3935 15.7683C54.6239 15.7683 53.9172 15.6364 53.2827 15.3694C52.6639 15.115 52.111 14.7286 51.6524 14.2417C51.2001 13.7611 50.842 13.1675 50.597 12.489C50.3395 11.8011 50.2169 11.0441 50.2169 10.2242C50.2169 9.39499 50.3489 8.64741 50.6064 7.96893C50.864 7.29359 51.2221 6.70935 51.6807 6.23818C52.1456 5.75759 52.7016 5.37438 53.3204 5.11995C53.9549 4.85295 54.6428 4.72103 55.3904 4.72103C56.1474 4.72103 56.8447 4.85295 57.4792 5.11995C58.1137 5.38694 58.6571 5.75445 59.1095 6.23818C59.5743 6.73762 59.9356 7.325 60.1649 7.96893C60.4036 8.64741 60.5355 9.39499 60.5355 10.2242ZM57.5043 10.2242C57.5043 9.30076 57.319 8.58459 56.9515 8.06317C56.584 7.54174 56.0594 7.27475 55.3841 7.27475C54.7087 7.27475 54.1748 7.54174 53.8072 8.06317C53.4397 8.58459 53.245 9.31332 53.245 10.2242C53.245 11.1477 53.4303 11.8733 53.8072 12.4073C54.1748 12.9507 54.7087 13.2177 55.3841 13.2177C56.0594 13.2177 56.584 12.9507 56.9515 12.4073C57.319 11.8639 57.5043 11.1352 57.5043 10.2242ZM64.9865 1.95685C64.9865 2.50026 64.8137 2.9306 64.4525 3.24785C64.1038 3.5651 63.6829 3.71901 63.2023 3.71901C62.7406 3.7253 62.2946 3.55882 61.9522 3.24785C61.6035 2.9306 61.4182 2.50969 61.4182 1.95685C61.4182 1.41344 61.5909 0.983109 61.9522 0.665857C62.2946 0.358028 62.7406 0.188408 63.2023 0.194691C63.6641 0.188408 64.1101 0.354887 64.4525 0.665857C64.8106 0.983109 64.9865 1.41344 64.9865 1.95685ZM64.7101 15.4919H61.7386V4.98802H64.7101V15.4919ZM66.4 5.34611C66.9026 5.20162 67.5591 5.06027 68.3569 4.93776C69.1862 4.80898 70.0248 4.74301 70.8667 4.74301C71.7587 4.74301 72.4969 4.85609 73.0906 5.09168C73.6842 5.32726 74.1554 5.65394 74.4947 6.07484C74.8433 6.50518 75.0883 7.00775 75.2328 7.592C75.3773 8.17624 75.4464 8.83274 75.4464 9.54891V15.4825H72.4749V9.90699C72.4749 8.94267 72.3524 8.26734 72.0948 7.86842C71.8373 7.4695 71.3661 7.27475 70.6813 7.27475C70.4677 7.27475 70.2416 7.28417 70.006 7.30616C69.7704 7.32815 69.5537 7.34699 69.3715 7.3784V15.4825H66.4V5.34611Z" fill="#ffffff"/>
<path d="M83.5722 15.7683C81.3169 15.7683 79.6081 15.1432 78.4302 13.8931C77.2523 12.6429 76.668 10.8713 76.668 8.56577C76.668 7.41927 76.8534 6.40469 77.2114 5.50319C77.5695 4.60169 78.0627 3.84469 78.6878 3.22903C79.3223 2.60709 80.0856 2.1265 80.9211 1.82495C81.7818 1.5077 82.7241 1.34436 83.7387 1.34436C84.3229 1.34436 84.8569 1.3852 85.3375 1.47629C85.7647 1.54539 86.1856 1.64591 86.5971 1.7747C86.9049 1.86893 87.2065 1.98515 87.4986 2.12336C87.7342 2.24586 87.9069 2.33695 88.02 2.39978L87.1185 4.90952C86.6442 4.66451 86.1479 4.47291 85.6328 4.3347C85.0705 4.17136 84.4234 4.09912 83.7073 4.09912C83.2298 4.09912 82.7555 4.18078 82.3032 4.3347C81.8446 4.49804 81.43 4.76189 81.0844 5.10427C80.7358 5.45293 80.4499 5.91468 80.2332 6.46751C80.0196 7.02977 79.9159 7.70825 79.9159 8.50609C79.9128 9.10604 79.9819 9.70599 80.1201 10.2902C80.2646 10.8431 80.4876 11.3142 80.7955 11.7132C81.1221 12.1246 81.543 12.4513 82.0236 12.6649C82.5262 12.9005 83.1419 13.0136 83.858 13.0136C84.2664 13.0136 84.6716 12.9885 85.0768 12.9319C85.4035 12.8879 85.7239 12.8251 86.0411 12.7372C86.2924 12.6743 86.5406 12.5927 86.7793 12.4922C86.9929 12.4011 87.1876 12.3068 87.3541 12.2346L88.2148 14.7349C87.775 15.0019 87.1594 15.2375 86.3615 15.4511C85.548 15.6647 84.6182 15.7683 83.5722 15.7683ZM92.8762 4.71163C93.7589 4.71163 94.4844 4.81529 95.0687 5.01004C95.6529 5.20478 96.1241 5.49063 96.4728 5.8707C96.8309 6.25391 97.0853 6.7188 97.2204 7.22452C97.3649 7.75851 97.434 8.35217 97.434 8.9961V15.1841C97.0036 15.2752 96.4194 15.3883 95.6624 15.5108C94.9054 15.6333 93.9819 15.7055 92.9076 15.7055C92.2323 15.7055 91.6166 15.6427 91.0638 15.5202C90.5109 15.3977 90.0398 15.2029 89.6408 14.9359C89.2451 14.6658 88.9278 14.3014 88.7174 13.8711C88.5038 13.4313 88.4001 12.8974 88.4001 12.2534C88.4001 11.6378 88.5226 11.1258 88.7676 10.6954C89.0001 10.2777 89.3393 9.92901 89.7508 9.68086C90.1591 9.42329 90.6334 9.24111 91.1643 9.12803C91.7108 9.01181 92.2668 8.95527 92.8228 8.95527C93.2123 8.95527 93.5515 8.97726 93.8468 9.00553C94.1452 9.03694 94.3902 9.07777 94.5755 9.13745V8.86103C94.5755 8.35846 94.4216 7.95011 94.1138 7.64228C93.806 7.33446 93.2751 7.18054 92.515 7.18054C92.0155 7.18054 91.5161 7.21824 91.0198 7.29362C90.5266 7.36587 90.0963 7.46638 89.7382 7.60145L89.3581 5.20478C89.5309 5.15453 89.7476 5.09171 90.0021 5.03202C90.2596 4.9692 90.5455 4.91894 90.8533 4.86869C91.1611 4.81843 91.4784 4.78702 91.8176 4.74618C92.1789 4.73362 92.5275 4.71163 92.8762 4.71163ZM93.1118 13.4094C93.4102 13.4094 93.6866 13.3999 93.9505 13.3874C94.1641 13.3842 94.3745 13.3622 94.585 13.3245V11.0692C94.4625 11.0378 94.2866 11.019 94.0415 10.9876C93.8248 10.9593 93.6049 10.9467 93.3851 10.9467C93.1212 10.9499 92.8573 10.9656 92.5966 10.997C92.3516 11.0284 92.1349 11.0881 91.9527 11.1917C91.7737 11.2765 91.6229 11.4085 91.5129 11.5718C91.403 11.7509 91.3465 11.955 91.3496 12.1655C91.3496 12.6272 91.5035 12.9539 91.8208 13.1298C92.138 13.3277 92.5684 13.4094 93.1118 13.4094ZM102.055 13.3591C102.598 13.3591 102.987 13.3088 103.214 13.1958C103.44 13.0921 103.553 12.8785 103.553 12.5801C103.553 12.3445 103.408 12.1278 103.113 11.955C102.815 11.7697 102.375 11.575 101.772 11.3519C101.31 11.1792 100.88 11.0033 100.503 10.8085C100.123 10.6232 99.7961 10.4002 99.5385 10.1426C99.2684 9.87875 99.0611 9.5615 98.9228 9.2097C98.7784 8.85161 98.7092 8.42128 98.7092 7.90928C98.7092 6.92611 99.0768 6.14712 99.8055 5.57229C100.534 4.99747 101.536 4.71163 102.818 4.71163C103.433 4.71163 104.046 4.77131 104.652 4.88439C105.236 4.99747 105.708 5.11998 106.047 5.2519L105.525 7.5669C105.155 7.43811 104.781 7.33132 104.398 7.24965C103.949 7.15227 103.493 7.10201 103.035 7.10515C102.102 7.10515 101.64 7.36273 101.64 7.88415C101.637 7.99409 101.659 8.10089 101.703 8.2014C101.756 8.3082 101.838 8.40243 101.938 8.4684C102.095 8.57519 102.259 8.66629 102.431 8.74481C102.686 8.87046 102.95 8.97725 103.22 9.07149C103.876 9.31649 104.407 9.55208 104.838 9.78766C105.268 10.0232 105.595 10.2808 105.843 10.5447C106.078 10.8054 106.257 11.1101 106.364 11.4462C106.468 11.7728 106.518 12.1623 106.518 12.6052C106.518 13.6387 106.129 14.4302 105.35 14.9516C104.571 15.4856 103.474 15.7495 102.051 15.7495C101.118 15.7495 100.339 15.6678 99.727 15.5139C99.1113 15.3506 98.681 15.2155 98.436 15.115L98.9386 12.6963C99.4443 12.8942 99.9657 13.0513 100.497 13.1675C101.005 13.2963 101.53 13.3591 102.055 13.3591ZM107.621 15.4919V0.480559L110.592 -3.05176e-05V5.03202C110.843 4.9535 111.101 4.88753 111.362 4.83728C111.66 4.77759 111.968 4.74618 112.273 4.74618C113.124 4.74618 113.831 4.85926 114.393 5.09485C114.955 5.33043 115.407 5.6571 115.747 6.07801C116.086 6.50834 116.321 7.01092 116.463 7.59517C116.607 8.17941 116.667 8.83591 116.667 9.55208V15.4856H113.696V9.90702C113.696 8.9427 113.573 8.26737 113.328 7.86844C113.083 7.46952 112.621 7.27478 111.965 7.27478C111.713 7.27163 111.462 7.29676 111.217 7.34702C110.982 7.39728 110.777 7.43811 110.592 7.50094V15.4825H107.621V15.4919Z" fill="#0AC18E"/>
<path d="M7.83698 15.8939C12.1653 15.8939 15.6741 12.3852 15.6741 8.05688C15.6741 3.72859 12.1653 0.219818 7.83698 0.219818C3.50868 0.219818 -0.000106812 3.72859 -0.000106812 8.05688C-0.000106812 12.3852 3.50868 15.8939 7.83698 15.8939Z" fill="#0AC18E"/>
<path d="M10.2744 5.43402C9.88174 4.54194 8.98024 4.35662 7.87456 4.5388L7.51962 3.16614L6.68094 3.38287L7.0296 4.75554C6.80972 4.81208 6.58356 4.85919 6.36054 4.92202L6.00874 3.55878L5.17006 3.77551L5.52501 5.15132C5.34596 5.20158 3.83823 5.59107 3.83823 5.59107L4.07067 6.48629C4.07067 6.48629 4.68633 6.31353 4.68005 6.32923C5.01929 6.24128 5.17948 6.4109 5.25801 6.5711L6.23176 10.3404C6.24432 10.4504 6.22548 10.6388 5.98989 10.6985C6.00246 10.7048 5.38052 10.8556 5.38052 10.8556L5.47161 11.8984C5.47161 11.8984 6.96364 11.5152 7.16153 11.4681L7.52276 12.8596L8.35829 12.6429L8.00021 11.2419C8.23265 11.1885 8.45253 11.132 8.67241 11.0754L9.03049 12.4701L9.86917 12.2534L9.51108 10.865C10.7989 10.5509 11.7099 9.74048 11.5214 8.4966C11.402 7.74901 10.5853 7.13336 9.90372 7.06425C10.3215 6.68418 10.5351 6.14391 10.2744 5.43402ZM9.87231 8.71333C10.0388 9.94465 8.33002 10.0954 7.76148 10.2431L7.26833 8.40236C7.84001 8.25473 9.59275 7.62965 9.87231 8.71333ZM8.84203 6.20987C9.01793 7.30298 7.55731 7.43176 7.083 7.55427L6.63382 5.8832C7.10813 5.76069 8.48394 5.19529 8.84203 6.20987Z" fill="white"/>
</svg>
