<svg width="137" height="24" viewBox="0 0 137 24" fill="none" xmlns="http://www.w3.org/2000/svg">
<path d="M39.2048 15.0623V15.0241C39.2048 13.2305 38.2508 12.3337 36.7052 11.7422C37.6593 11.2079 38.4607 10.3684 38.4607 8.86096V8.8228C38.4607 6.72389 36.7815 5.36914 34.053 5.36914H27.8516V18.7258H34.2056C37.2204 18.7258 39.2048 17.5046 39.2048 15.0623ZM35.5413 9.35707C35.5413 10.3493 34.7208 10.7691 33.4233 10.7691H30.7138V7.94507H33.6141C34.8544 7.94507 35.5413 8.44118 35.5413 9.3189V9.35707ZM36.2854 14.6997C36.2854 15.692 35.5031 16.1499 34.2056 16.1499H30.7138V13.2114H34.1102C35.6176 13.2114 36.2854 13.7648 36.2854 14.6616V14.6997Z" fill="#F0B90B"/>
<path d="M53.6814 18.7258V5.36914H50.7811V13.593L44.5225 5.36914H41.813V18.7258H44.7133V10.2348L51.1818 18.7258H53.6814Z" fill="#F0B90B"/>
<path d="M68.432 15.0623V15.0241C68.432 13.2305 67.478 12.3337 65.9324 11.7422C66.8865 11.2079 67.6879 10.3684 67.6879 8.86096V8.8228C67.6879 6.72389 66.0088 5.36914 63.2802 5.36914H57.0789V18.7258H63.4328C66.4476 18.7258 68.432 17.5046 68.432 15.0623ZM64.7685 9.35707C64.7685 10.3493 63.948 10.7691 62.6505 10.7691H59.941V7.94507H62.8413C64.0816 7.94507 64.7685 8.44118 64.7685 9.3189V9.35707ZM65.5126 14.6997C65.5126 15.692 64.7303 16.1499 63.4328 16.1499H59.941V13.2114H63.3374C64.8448 13.2114 65.5126 13.7648 65.5126 14.6616V14.6997Z" fill="#F0B90B"/>
<path d="M86.1412 16.3666L84.6339 14.8401C83.4891 15.9086 82.4395 16.5765 80.7986 16.5765C78.2417 16.5765 76.3909 14.4394 76.3909 11.8062C76.3909 9.17303 78.2417 7.07412 80.7986 7.07412C82.325 7.07412 83.4699 7.74196 84.5384 8.73417L86.0458 6.9978C84.7674 5.77661 83.2792 4.91797 80.8177 4.91797C76.7725 4.91797 73.9294 8.02817 73.9294 11.8444C73.9294 15.6987 76.8297 18.7326 80.7222 18.7326C83.2218 18.7326 84.7483 17.8167 86.1412 16.3666Z" fill="#F0B90B"/>
<path d="M97.5189 12.8747V18.5036H99.8658V5.14694H97.5189V10.6995H91.1458V5.14694H88.799V18.5036H91.1458V12.8747H97.5189Z" fill="#F0B90B"/>
<path d="M110.394 5.05156H108.219L102.342 18.5036H104.746L106.12 15.2789H112.436L113.791 18.5036H116.271L110.394 5.05156ZM111.577 13.1991H106.979L109.268 7.85646L111.577 13.1991Z" fill="#F0B90B"/>
<path d="M118.886 5.14694V18.5036H121.233V5.14694H118.886Z" fill="#F0B90B"/>
<path d="M134.33 14.3821L127.174 5.14694H124.999V18.5036H127.308V9.0013L134.673 18.5036H136.639V5.14694H134.33V14.3821Z" fill="#F0B90B"/>
<path d="M4.00392 3.6761L10.3727 0L16.7415 3.6761L14.4 5.03415L10.3727 2.7161L6.34539 5.03415L4.00392 3.6761ZM16.7415 8.31219L14.4 6.95415L10.3727 9.2722L6.34539 6.95415L4.00392 8.31219V11.0283L8.03123 13.3463V17.9824L10.3727 19.3405L12.7142 17.9824V13.3463L16.7415 11.0283V8.31219ZM16.7415 15.6644V12.9483L14.4 14.3063V17.0224L16.7415 15.6644ZM18.4039 16.6244L14.3766 18.9424V21.6585L20.7454 17.9824V10.6302L18.4039 11.9883V16.6244ZM16.0625 5.99415L18.4039 7.35219V10.0683L20.7454 8.71024V5.99415L18.4039 4.6361L16.0625 5.99415ZM8.03123 19.9259V22.642L10.3727 24L12.7142 22.642V19.9259L10.3727 21.2839L8.03123 19.9259ZM4.00392 15.6644L6.34539 17.0224V14.3063L4.00392 12.9483V15.6644ZM8.03123 5.99415L10.3727 7.35219L12.7142 5.99415L10.3727 4.6361L8.03123 5.99415ZM2.34146 7.35219L4.68293 5.99415L2.34146 4.6361L0 5.99415V8.71024L2.34146 10.0683V7.35219ZM2.34146 11.9883L0 10.6302V17.9824L6.36877 21.6585V18.9424L2.34146 16.6244V11.9883Z" fill="#F0B90B"/>
</svg>
