<svg width="100" height="24" viewBox="0 0 100 24" fill="none" xmlns="http://www.w3.org/2000/svg">
<path d="M23.6381 14.9029C22.0353 21.3315 15.5243 25.2438 9.09496 23.6407C2.66827 22.038 -1.24407 15.5266 0.359419 9.09838C1.9614 2.66907 8.47246 -1.24364 14.8999 0.359095C21.3288 1.96183 25.2408 8.47401 23.6381 14.9029Z" fill="#F7931A"/>
<path d="M17.2874 10.2905C17.5263 8.69376 16.3105 7.83539 14.6482 7.26277L15.1874 5.09979L13.8708 4.77167L13.3458 6.87765C12.9997 6.7914 12.6442 6.71003 12.2909 6.6294L12.8197 4.50955L11.5038 4.18143L10.9642 6.34366C10.6777 6.27841 10.3965 6.21391 10.1235 6.14603L10.125 6.13928L8.30924 5.68591L7.95899 7.09215C7.95899 7.09215 8.93586 7.31602 8.91523 7.3299C9.44848 7.46302 9.54485 7.81589 9.52873 8.09564L8.91448 10.5597C8.95123 10.5691 8.99886 10.5826 9.05136 10.6036C9.00748 10.5927 8.96061 10.5807 8.91223 10.5691L8.05124 14.021C7.98599 14.183 7.82062 14.4259 7.44787 14.3337C7.461 14.3528 6.49088 14.0948 6.49088 14.0948L5.83727 15.6019L7.55062 16.0291C7.86937 16.1089 8.18174 16.1926 8.48924 16.2713L7.94437 18.459L9.25948 18.7872L9.7991 16.6227C10.1583 16.7202 10.5071 16.8102 10.8483 16.8949L10.3106 19.0493L11.6272 19.3774L12.1721 17.1938C14.4172 17.6187 16.1054 17.4473 16.816 15.4167C17.3886 13.7817 16.7875 12.8386 15.6063 12.2236C16.4665 12.0252 17.1145 11.4594 17.2874 10.2905ZM14.2792 14.5088C13.8723 16.1438 11.1195 15.2599 10.227 15.0383L10.95 12.14C11.8425 12.3627 14.7044 12.8037 14.2792 14.5088ZM14.6864 10.2669C14.3152 11.7541 12.024 10.9985 11.2807 10.8132L11.9362 8.18451C12.6794 8.36976 15.073 8.71551 14.6864 10.2669Z" fill="white"/>
<path d="M38.0626 8.63357C38.809 8.63357 39.4539 8.76732 39.9958 9.02993C40.5402 9.29513 40.9895 9.65238 41.3499 10.1017C41.7055 10.5532 41.9701 11.0811 42.1409 11.686C42.3106 12.2926 42.3958 12.9446 42.3958 13.6427C42.3958 14.715 42.1993 15.7281 41.8027 16.683C41.406 17.6394 40.8679 18.469 40.1833 19.1765C39.4993 19.8833 38.6916 20.4404 37.7603 20.852C36.8303 21.2639 35.8193 21.4699 34.7338 21.4699C34.5934 21.4699 34.3466 21.4658 33.998 21.4586C33.6494 21.4514 33.2487 21.4155 32.8 21.3548C32.3484 21.2918 31.8709 21.1986 31.3667 21.0738C30.8628 20.9513 30.3841 20.7795 29.9334 20.5615L33.9638 3.62671L37.5736 3.06726L36.1305 9.07682C36.4394 8.9376 36.7507 8.82974 37.0613 8.75121C37.3722 8.67384 37.7059 8.63357 38.0626 8.63357ZM35.0346 18.6062C35.5783 18.6062 36.0905 18.4724 36.5718 18.2098C37.0544 17.9469 37.4709 17.592 37.8198 17.1499C38.1687 16.7058 38.4448 16.2056 38.6462 15.6467C38.8475 15.0878 38.9493 14.5048 38.9493 13.8982C38.9493 13.1529 38.8248 12.5716 38.5766 12.1513C38.3283 11.7328 37.869 11.5223 37.202 11.5223C36.9834 11.5223 36.7018 11.564 36.3526 11.6385C36.0022 11.7176 35.6887 11.8818 35.4077 12.1289L33.8711 18.511C33.9638 18.5274 34.0457 18.5429 34.1156 18.5576C34.1841 18.5734 34.2597 18.5846 34.3351 18.5924C34.4148 18.6013 34.506 18.6059 34.6161 18.6059C34.7263 18.6059 34.8641 18.6062 35.0346 18.6062Z" fill="#ffffff"/>
<path d="M46.1402 21.1442H42.6923L45.604 8.89186H49.0755L46.1402 21.1442ZM47.818 7.39903C47.3367 7.39903 46.9004 7.25579 46.5132 6.96873C46.1229 6.68339 45.9296 6.24418 45.9296 5.65222C45.9296 5.32662 45.9958 5.02115 46.127 4.73294C46.2601 4.44531 46.4341 4.19765 46.6522 3.9871C46.8699 3.77828 47.1222 3.61145 47.4087 3.48576C47.6969 3.36207 48.0035 3.30023 48.3302 3.30023C48.8112 3.30023 49.2452 3.44347 49.6338 3.73053C50.021 4.01903 50.2157 4.45825 50.2157 5.04704C50.2157 5.37379 50.1498 5.68041 50.0175 5.96805C49.8861 6.25568 49.712 6.50333 49.494 6.71388C49.278 6.92299 49.0234 7.08925 48.7375 7.21379C48.449 7.33949 48.1436 7.39903 47.818 7.39903Z" fill="#ffffff"/>
<path d="M52.0966 5.83978L55.7079 5.28033L54.8211 8.89188H58.6887L57.9903 11.7331H54.146L53.1221 16.0189C53.0277 16.3761 52.9742 16.7098 52.9593 17.0199C52.9423 17.3314 52.9817 17.5989 53.0749 17.8241C53.1675 18.0499 53.334 18.2239 53.5757 18.347C53.8161 18.4721 54.1604 18.5351 54.612 18.5351C54.9839 18.5351 55.3463 18.4998 55.6967 18.4296C56.045 18.3605 56.3979 18.2645 56.7552 18.1388L57.0123 20.7954C56.5464 20.9662 56.0418 21.1132 55.4982 21.2369C54.9537 21.3623 54.3091 21.4227 53.5642 21.4227C52.493 21.4227 51.6626 21.2636 51.0709 20.9469C50.4801 20.628 50.0625 20.1922 49.8125 19.6405C49.566 19.0908 49.4559 18.4572 49.4866 17.7433C49.5186 17.0276 49.6264 16.2755 49.8125 15.4833L52.0966 5.83978Z" fill="#ffffff"/>
<path d="M58.5363 16.253C58.5363 15.1977 58.7072 14.2025 59.0486 13.2708C59.3895 12.3383 59.8804 11.5229 60.5176 10.823C61.1524 10.1267 61.9258 9.57499 62.8362 9.17C63.7422 8.76731 64.7567 8.56424 65.8748 8.56424C66.5746 8.56424 67.1996 8.63039 67.7496 8.76299C68.3018 8.89674 68.8014 9.06961 69.2533 9.28649L68.0642 11.9903C67.7536 11.8643 67.4312 11.7532 67.0978 11.6526C66.7641 11.5499 66.3568 11.5004 65.8751 11.5004C64.7242 11.5004 63.8144 11.8971 63.1373 12.6878C62.4628 13.4791 62.1231 14.5442 62.1231 15.8802C62.1231 16.6721 62.294 17.3124 62.6369 17.8022C62.978 18.2921 63.6082 18.5357 64.5232 18.5357C64.9748 18.5357 65.4105 18.4885 65.8279 18.3965C66.2484 18.3033 66.6197 18.1859 66.9468 18.0473L67.2042 20.8189C66.7682 20.9881 66.2872 21.1408 65.7597 21.2745C65.231 21.4037 64.6017 21.4707 63.872 21.4707C62.9087 21.4707 62.0932 21.3298 61.4262 21.0522C60.7589 20.7703 60.2075 20.3961 59.7732 19.9221C59.3365 19.4469 59.023 18.8921 58.8291 18.2552C58.6353 17.619 58.5363 16.9505 58.5363 16.253Z" fill="#ffffff"/>
<path d="M73.8523 21.4701C73.0293 21.4701 72.3146 21.3447 71.7082 21.0965C71.1036 20.8483 70.6028 20.4999 70.2068 20.0483C69.8101 19.5991 69.5133 19.0666 69.3099 18.4531C69.1066 17.8399 69.0088 17.1608 69.0088 16.4167C69.0088 15.4833 69.1586 14.5502 69.4615 13.6197C69.7629 12.6872 70.2102 11.8493 70.8022 11.1046C71.3895 10.3588 72.1141 9.749 72.9672 9.27354C73.8195 8.80125 74.7997 8.56366 75.9008 8.56366C76.7088 8.56366 77.4198 8.68936 78.0345 8.93758C78.6463 9.18524 79.1502 9.53644 79.5486 9.98573C79.9426 10.4373 80.2421 10.9674 80.4434 11.5818C80.6462 12.1939 80.7463 12.8747 80.7463 13.6194C80.7463 14.5499 80.5984 15.483 80.3051 16.4164C80.0114 17.3452 79.5756 18.185 79.0003 18.9315C78.4262 19.6761 77.7083 20.2856 76.846 20.7591C75.9848 21.2325 74.9861 21.4701 73.8523 21.4701ZM75.5755 11.5001C75.0643 11.5001 74.6125 11.6485 74.2256 11.9416C73.8373 12.2382 73.5111 12.611 73.2482 13.0605C72.9824 13.5121 72.7854 14.0046 72.6522 14.5399C72.5202 15.0763 72.4555 15.5834 72.4555 16.0652C72.4555 16.8427 72.5809 17.4481 72.8274 17.8839C73.0774 18.3174 73.5264 18.5354 74.179 18.5354C74.6919 18.5354 75.1414 18.3881 75.5306 18.0919C75.9166 17.7976 76.2431 17.4245 76.508 16.9741C76.772 16.5248 76.9708 16.031 77.104 15.4948C77.2343 14.9601 77.3007 14.4501 77.3007 13.9692C77.3007 13.1937 77.1759 12.5868 76.9271 12.1516C76.6786 11.7182 76.2275 11.5001 75.5755 11.5001Z" fill="#ffffff"/>
<path d="M84.5045 21.1442H81.0538L83.9655 8.89186H87.4387L84.5045 21.1442ZM86.1797 7.39903C85.6988 7.39903 85.2627 7.25579 84.8762 6.96873C84.4879 6.68339 84.2928 6.24418 84.2928 5.65222C84.2928 5.32662 84.3599 5.02115 84.4913 4.73294C84.6228 4.44531 84.7979 4.19765 85.016 3.9871C85.2326 3.77828 85.4871 3.61145 85.773 3.48576C86.0595 3.36207 86.3661 3.30023 86.6917 3.30023C87.1738 3.30023 87.6093 3.44347 87.997 3.73053C88.385 4.01903 88.5809 4.45825 88.5809 5.04704C88.5809 5.37379 88.5113 5.68041 88.381 5.96805C88.2507 6.25568 88.0755 6.50333 87.8584 6.71388C87.6398 6.92299 87.3884 7.08925 87.1019 7.21379C86.8131 7.33949 86.5071 7.39903 86.1797 7.39903Z" fill="#ffffff"/>
<path d="M89.9221 9.45016C90.1839 9.37365 90.4761 9.2816 90.7939 9.1815C91.1129 9.08141 91.4693 8.98821 91.8674 8.90423C92.2612 8.81765 92.7056 8.74746 93.1943 8.6931C93.683 8.63759 94.2398 8.61055 94.8585 8.61055C96.677 8.61055 97.9305 9.14009 98.6225 10.196C99.314 11.2519 99.4336 12.697 98.9849 14.5286L97.3989 21.1442H93.9283L95.4654 14.6679C95.5592 14.2634 95.6328 13.8725 95.6872 13.4906C95.7421 13.112 95.739 12.7784 95.6748 12.4896C95.6136 12.2043 95.4692 11.9707 95.2451 11.7898C95.0176 11.6117 94.6739 11.5223 94.2076 11.5223C93.758 11.5223 93.3007 11.5706 92.8339 11.6638L90.5739 21.144H87.1019L89.9221 9.45016Z" fill="#ffffff"/>
</svg>
