<svg width="76" height="18" viewBox="0 0 76 18" fill="none" xmlns="http://www.w3.org/2000/svg">
<g clip-path="url(#clip0_1_344)">
<path fill-rule="evenodd" clip-rule="evenodd" d="M17.0502 0H0V17.2185H17.0502V11.2108H14.2241C13.2487 13.4034 11.0506 14.9321 8.53848 14.9321C5.07765 14.9321 2.27158 12.0758 2.27158 8.60257C2.27158 5.12936 5.07097 2.29312 8.53848 2.29312C11.0973 2.29312 13.2954 3.86881 14.2709 6.10829H17.0502V0ZM33.5593 11.2108C32.5571 13.4034 30.3857 14.9321 27.8536 14.9321C24.4863 14.9321 21.7337 12.2233 21.6068 8.84395H36.3854V0H19.3352V17.2185H36.3854V11.2108H33.5593ZM33.7798 6.72515H21.874C22.629 3.88892 25.1411 2.29312 27.8469 2.29312C30.5528 2.29312 32.8978 3.79505 33.7731 6.72515H33.7798ZM73.2051 8.59586C73.2051 12.0959 70.4257 14.9254 66.9582 14.9254C63.4907 14.9254 60.7114 12.0691 60.7114 8.59586C60.7114 5.12265 63.4907 2.28642 66.9582 2.28642C70.4257 2.28642 73.2051 5.09583 73.2051 8.59586ZM75.4967 0H58.4465V17.2185H75.4967V0ZM53.4891 11.2108H56.3152V17.2185H38.657V0H41.5365V8.59586C41.5365 12.4378 44.3627 14.9053 47.7299 14.9053C50.3423 14.9053 52.6339 13.4771 53.4891 11.2108Z" fill="#ffffff"/>
</g>
<defs>
<clipPath id="clip0_1_344">
<rect width="75.4967" height="17.2185" fill="white"/>
</clipPath>
</defs>
</svg>
