<svg width="94" height="26" viewBox="0 0 94 26" fill="none" xmlns="http://www.w3.org/2000/svg">
<path d="M11.2611 0L0 6.50218V19.5022L11.2611 26L22.5135 19.5022V6.50218L11.2611 0ZM19.1797 17.5759L11.2611 22.1475L3.33825 17.5759V8.42407L11.2611 3.8525L19.1797 8.42407V17.5759Z" fill="white"/>
<path d="M16.512 16.0375L11.2562 19.0707L5.99609 16.0375V9.96675L11.2562 6.9292L16.512 9.96675L14.3243 11.2306L11.2562 9.45686L8.18818 11.2306V14.7693L11.2562 16.543L14.3243 14.7693L16.512 16.0375Z" fill="white"/>
<path d="M30.8461 13.9848V13.9499C30.8374 13.2614 30.9681 12.5772 31.2296 11.9409C31.4911 11.3046 31.8746 10.725 32.3627 10.2369C32.8508 9.7488 33.4304 9.3653 34.0667 9.10381C34.703 8.84233 35.3872 8.71159 36.0757 8.72031C36.8297 8.69416 37.5836 8.83797 38.2765 9.13868C38.9695 9.43938 39.5883 9.89262 40.0808 10.4635L38.6383 12.0019C37.9366 11.2785 37.1958 10.7468 36.0583 10.7468C34.3892 10.7468 33.1559 12.1893 33.1559 13.9369V13.9761C33.1559 15.7585 34.3892 17.1792 36.1498 17.1792C36.6466 17.1705 37.1391 17.0529 37.588 16.8437C38.0369 16.6301 38.4378 16.3251 38.7646 15.9459L40.1505 17.3143C39.4619 18.138 38.538 18.7307 37.5052 19.0096C36.4723 19.2929 35.3741 19.2493 34.363 18.8919C33.352 18.5302 32.476 17.8722 31.8528 17.0006C31.2296 16.129 30.8853 15.0874 30.8723 14.011L30.8461 13.9848Z" fill="white"/>
<path d="M42.2109 8.92062H44.525V11.1781C45.1526 9.67892 46.3075 8.65478 48.0725 8.72887V11.1607H47.9417C45.9283 11.1607 44.525 12.4681 44.525 15.1221V18.9354H42.2109V8.92062Z" fill="white"/>
<path d="M49.1758 13.9849V13.95C49.2106 12.5598 49.7859 11.2393 50.7795 10.2631C51.7732 9.29129 53.1067 8.74218 54.4969 8.73782C55.8871 8.73346 57.2251 9.2695 58.2274 10.237C59.2297 11.2045 59.8137 12.5206 59.8573 13.9108V13.95C59.8573 14.6473 59.7178 15.3402 59.4476 15.9852C59.1774 16.6302 58.7765 17.2098 58.2797 17.6979C57.7785 18.186 57.1858 18.5695 56.5365 18.8223C55.8871 19.0751 55.1899 19.1971 54.4926 19.1797C53.7996 19.1971 53.1111 19.0751 52.4661 18.8223C51.8211 18.5695 51.2328 18.1904 50.7403 17.7066C50.2435 17.2229 49.8513 16.6433 49.5854 16.0027C49.3196 15.362 49.1801 14.6778 49.1845 13.9849H49.1758ZM57.5606 13.9849V13.95C57.5781 13.536 57.5127 13.1176 57.3645 12.7298C57.2163 12.3419 56.9941 11.9846 56.7064 11.6838C56.4188 11.3831 56.0745 11.1435 55.6954 10.9778C55.3119 10.8122 54.9022 10.7251 54.4882 10.7207C52.6448 10.7207 51.4681 12.1632 51.4681 13.9108V13.95C51.4507 14.364 51.5204 14.7737 51.6642 15.1572C51.808 15.5451 52.0303 15.8937 52.3179 16.1944C52.6012 16.4951 52.9455 16.7304 53.3203 16.896C53.6994 17.0617 54.1047 17.1488 54.5187 17.1532C56.384 17.1532 57.5606 15.7107 57.5606 13.9849Z" fill="white"/>
<path d="M62.1708 8.92074H64.4762V10.4591C64.8031 9.92308 65.265 9.47856 65.8141 9.1735C66.3632 8.86844 66.9821 8.71155 67.6096 8.71591C69.8671 8.71591 71.1745 10.2325 71.1745 12.5466V18.9398H68.8778V13.2439C68.8778 11.6881 68.1021 10.799 66.7337 10.799C65.3653 10.799 64.4762 11.7317 64.4762 13.2831V18.9486H62.1621L62.1708 8.92074Z" fill="white"/>
<path d="M73.4062 13.9849V13.95C73.4411 12.5598 74.0164 11.2393 75.01 10.2631C76.0036 9.29129 77.3372 8.74218 78.7274 8.73782C80.1176 8.73346 81.4555 9.2695 82.4579 10.237C83.4602 11.2045 84.0442 12.5206 84.0878 13.9108V13.95C84.0878 14.6473 83.9483 15.3402 83.6781 15.9852C83.4079 16.6302 83.007 17.2098 82.5102 17.6979C82.009 18.186 81.4163 18.5695 80.767 18.8223C80.1176 19.0751 79.4203 19.1971 78.723 19.1797C78.0301 19.1971 77.3415 19.0751 76.6966 18.8223C76.0516 18.5695 75.4632 18.1904 74.9708 17.7066C74.474 17.2229 74.0817 16.6433 73.8159 16.0027C73.5501 15.362 73.4106 14.6778 73.415 13.9849H73.4062ZM81.7911 13.9849V13.95C81.8085 13.536 81.7431 13.1176 81.595 12.7298C81.4468 12.3419 81.2245 11.9846 80.9369 11.6838C80.6493 11.3831 80.305 11.1435 79.9258 10.9778C79.5423 10.8122 79.1327 10.7251 78.7187 10.7207C76.8752 10.7207 75.6986 12.1632 75.6986 13.9108V13.95C75.6811 14.364 75.7509 14.7737 75.8947 15.1572C76.0429 15.5451 76.2608 15.8937 76.5484 16.1944C76.8317 16.4951 77.1759 16.7304 77.5507 16.896C77.9299 17.0617 78.3352 17.1488 78.7492 17.1532C80.6013 17.1532 81.7911 15.7107 81.7911 13.9849Z" fill="white"/>
<path d="M85.6055 17.6283L86.6296 16.0725C87.5666 16.822 88.7127 17.2535 89.9112 17.3058C90.9005 17.3058 91.467 16.87 91.467 16.225V16.1858C91.467 15.41 90.408 15.1442 89.2313 14.7825C87.7496 14.3467 86.0979 13.7584 86.0979 11.8626V11.8234C86.0979 9.90585 87.6755 8.75098 89.6671 8.75098C90.9746 8.77712 92.2515 9.16935 93.3453 9.88842L92.4345 11.5183C91.5934 10.9649 90.6172 10.638 89.6105 10.5726C88.7389 10.5726 88.2072 11.0084 88.2072 11.5575V11.5968C88.2072 12.3376 89.288 12.6383 90.4647 13.0175C91.9246 13.4751 93.5763 14.1375 93.5763 15.9417V15.9766C93.5763 18.0859 91.942 19.1274 89.8545 19.1274C88.3118 19.1144 86.817 18.587 85.6055 17.6283Z" fill="white"/>
</svg>
