<svg width="94" height="26" viewBox="0 0 94 26" fill="none" xmlns="http://www.w3.org/2000/svg">
<path d="M11.2611 0L0 6.50218V19.5022L11.2611 26L22.5135 19.5022V6.50218L11.2611 0ZM19.1797 17.5759L11.2611 22.1475L3.33825 17.5759V8.42407L11.2611 3.8525L19.1797 8.42407V17.5759Z" fill="#1C1C1C"/>
<path d="M16.5122 16.0375L11.2564 19.0707L5.99628 16.0375V9.96675L11.2564 6.9292L16.5122 9.96675L14.3245 11.2306L11.2564 9.45686L8.18836 11.2306V14.7693L11.2564 16.543L14.3245 14.7693L16.5122 16.0375Z" fill="#1C1C1C"/>
<path d="M30.846 13.9848V13.9499C30.8373 13.2614 30.968 12.5772 31.2295 11.9409C31.491 11.3046 31.8745 10.725 32.3626 10.2369C32.8507 9.7488 33.4303 9.3653 34.0666 9.10381C34.7029 8.84233 35.3871 8.71159 36.0756 8.72031C36.8296 8.69416 37.5835 8.83797 38.2764 9.13868C38.9694 9.43938 39.5882 9.89262 40.0807 10.4635L38.6382 12.0019C37.9365 11.2785 37.1956 10.7468 36.0582 10.7468C34.3891 10.7468 33.1558 12.1893 33.1558 13.9369V13.9761C33.1558 15.7585 34.3891 17.1792 36.1497 17.1792C36.6465 17.1705 37.139 17.0529 37.5879 16.8437C38.0367 16.6301 38.4377 16.3251 38.7645 15.9459L40.1504 17.3143C39.4618 18.138 38.5379 18.7307 37.5051 19.0096C36.4722 19.2929 35.374 19.2493 34.3629 18.8919C33.3519 18.5302 32.4759 17.8722 31.8527 17.0006C31.2295 16.129 30.8852 15.0874 30.8722 14.011L30.846 13.9848Z" fill="#1C1C1C"/>
<path d="M42.2117 8.92087H44.5258V11.1783C45.1534 9.67916 46.3083 8.65503 48.0733 8.72911V11.1609H47.9425C45.9291 11.1609 44.5258 12.4683 44.5258 15.1223V18.9356H42.2117V8.92087Z" fill="#1C1C1C"/>
<path d="M49.176 13.9849V13.95C49.2109 12.5598 49.7861 11.2393 50.7798 10.2631C51.7734 9.29129 53.107 8.74218 54.4972 8.73782C55.8874 8.73346 57.2253 9.2695 58.2276 10.237C59.23 11.2045 59.814 12.5206 59.8575 13.9108V13.95C59.8575 14.6473 59.7181 15.3402 59.4479 15.9852C59.1777 16.6302 58.7767 17.2098 58.2799 17.6979C57.7788 18.186 57.1861 18.5695 56.5367 18.8223C55.8874 19.0751 55.1901 19.1971 54.4928 19.1797C53.7999 19.1971 53.1113 19.0751 52.4663 18.8223C51.8213 18.5695 51.233 18.1904 50.7406 17.7066C50.2437 17.2229 49.8515 16.6433 49.5857 16.0027C49.3198 15.362 49.1804 14.6778 49.1847 13.9849H49.176ZM57.5609 13.9849V13.95C57.5783 13.536 57.5129 13.1176 57.3648 12.7298C57.2166 12.3419 56.9943 11.9846 56.7067 11.6838C56.4191 11.3831 56.0748 11.1435 55.6956 10.9778C55.3121 10.8122 54.9025 10.7251 54.4885 10.7207C52.645 10.7207 51.4683 12.1632 51.4683 13.9108V13.95C51.4509 14.364 51.5206 14.7737 51.6645 15.1572C51.8083 15.5451 52.0305 15.8937 52.3182 16.1944C52.6014 16.4951 52.9457 16.7304 53.3205 16.896C53.6997 17.0617 54.1049 17.1488 54.519 17.1532C56.3842 17.1532 57.5609 15.7107 57.5609 13.9849Z" fill="#1C1C1C"/>
<path d="M62.1716 8.92086H64.477V10.4592C64.8039 9.9232 65.2658 9.47869 65.8149 9.17362C66.364 8.86856 66.9829 8.71167 67.6104 8.71603C69.8679 8.71603 71.1753 10.2326 71.1753 12.5467V18.94H68.8786V13.244C68.8786 11.6882 68.1029 10.7992 66.7345 10.7992C65.3661 10.7992 64.477 11.7318 64.477 13.2832V18.9487H62.1629L62.1716 8.92086Z" fill="#1C1C1C"/>
<path d="M73.4063 13.9849V13.95C73.4412 12.5598 74.0164 11.2393 75.0101 10.2631C76.0037 9.29129 77.3372 8.74218 78.7275 8.73782C80.1177 8.73346 81.4556 9.2695 82.4579 10.237C83.4603 11.2045 84.0442 12.5206 84.0878 13.9108V13.95C84.0878 14.6473 83.9484 15.3402 83.6782 15.9852C83.408 16.6302 83.007 17.2098 82.5102 17.6979C82.009 18.186 81.4164 18.5695 80.767 18.8223C80.1177 19.0751 79.4204 19.1971 78.7231 19.1797C78.0302 19.1971 77.3416 19.0751 76.6966 18.8223C76.0516 18.5695 75.4633 18.1904 74.9708 17.7066C74.474 17.2229 74.0818 16.6433 73.816 16.0027C73.5501 15.362 73.4107 14.6778 73.415 13.9849H73.4063ZM81.7911 13.9849V13.95C81.8086 13.536 81.7432 13.1176 81.595 12.7298C81.4469 12.3419 81.2246 11.9846 80.937 11.6838C80.6493 11.3831 80.3051 11.1435 79.9259 10.9778C79.5424 10.8122 79.1328 10.7251 78.7187 10.7207C76.8753 10.7207 75.6986 12.1632 75.6986 13.9108V13.95C75.6812 14.364 75.7509 14.7737 75.8947 15.1572C76.0429 15.5451 76.2608 15.8937 76.5484 16.1944C76.8317 16.4951 77.176 16.7304 77.5508 16.896C77.9299 17.0617 78.3352 17.1488 78.7492 17.1532C80.6014 17.1532 81.7911 15.7107 81.7911 13.9849Z" fill="#1C1C1C"/>
<path d="M85.6046 17.6282L86.6288 16.0723C87.5658 16.8219 88.7119 17.2534 89.9104 17.3057C90.8996 17.3057 91.4662 16.8699 91.4662 16.2249V16.1857C91.4662 15.4099 90.4072 15.1441 89.2305 14.7824C87.7488 14.3466 86.0971 13.7582 86.0971 11.8625V11.8233C86.0971 9.90573 87.6747 8.75085 89.6663 8.75085C90.9737 8.777 92.2506 9.16923 93.3445 9.8883L92.4337 11.5182C91.5926 10.9647 90.6164 10.6379 89.6097 10.5725C88.7381 10.5725 88.2064 11.0083 88.2064 11.5574V11.5966C88.2064 12.3375 89.2872 12.6382 90.4638 13.0174C91.9238 13.475 93.5755 14.1374 93.5755 15.9416V15.9765C93.5755 18.0858 91.9412 19.1273 89.8537 19.1273C88.311 19.1142 86.8162 18.5869 85.6046 17.6282Z" fill="#1C1C1C"/>
</svg>
