<svg width="73" height="30" viewBox="0 0 73 30" fill="none" xmlns="http://www.w3.org/2000/svg">
<path d="M72.1684 14.9425C71.8112 14.5273 71.3625 14.2001 70.8576 13.9889C70.0201 13.63 69.1299 13.4101 68.2203 13.3362C67.893 13.3221 67.5711 13.2517 67.2667 13.1286C67.0819 13.0389 66.9271 12.8963 66.8216 12.7204C66.584 12.3175 66.7178 11.8002 67.1189 11.5627C67.1928 11.5187 67.2737 11.4871 67.3582 11.4677C67.6502 11.3762 67.9564 11.3375 68.2607 11.3534C69.0525 11.3534 69.6946 11.9938 69.6964 12.7855C69.6964 12.8101 69.6964 12.8348 69.6946 12.8594H72.5044C72.5044 9.27727 68.2906 9.27727 68.2906 9.27727C67.1945 9.22097 66.1108 9.53062 65.21 10.1587C64.6294 10.6179 64.237 11.2724 64.1068 12.0008C63.9221 12.7767 64.091 13.5948 64.566 14.237C64.8915 14.6223 65.2979 14.9302 65.7554 15.1396C66.5664 15.5108 67.4373 15.736 68.3276 15.8064C68.6601 15.8152 68.9874 15.8838 69.2953 16.0069C69.4765 16.102 69.6296 16.2427 69.7404 16.4151C69.9621 16.8303 69.8037 17.3476 69.3885 17.5693C69.3217 17.6045 69.2495 17.6326 69.1756 17.6485C68.8836 17.7364 68.5774 17.7751 68.2731 17.7628C67.4813 17.7628 66.8392 17.1224 66.8374 16.3307C66.8374 16.306 66.8374 16.2814 66.8391 16.2568H63.915C63.915 19.8389 68.2942 19.8389 68.3082 19.8389C69.114 19.86 69.9163 19.7157 70.6658 19.4167C71.4857 19.0718 72.1332 18.4138 72.4639 17.5886C72.8457 16.7177 72.7331 15.7096 72.1701 14.9443L72.1684 14.9425Z" fill="#222226"/>
<path d="M51.0504 10.0848V15.6533C51.0504 16.445 50.4082 17.0872 49.6165 17.0872C48.8248 17.0872 48.1826 16.445 48.1826 15.6533V10.0848C48.1826 9.71713 47.8835 9.41803 47.5158 9.41803H45.1934V15.9894C45.1934 18.412 47.1639 19.7087 49.5866 19.7087C52.0163 19.7087 53.9798 18.412 53.9798 15.9894V9.41803H51.7225C51.353 9.41803 51.0521 9.71537 51.0486 10.0848H51.0504Z" fill="#222226"/>
<path d="M34.1462 19.5363V9.41803H36.1097C36.3173 9.41803 36.5126 9.51304 36.6393 9.67666L40.0068 14.4851V10.0848C40.0068 9.71713 40.3059 9.41803 40.6736 9.41803H42.9309V19.5363H40.9744C40.7668 19.5363 40.5715 19.4413 40.4449 19.2777L37.0774 14.5625V19.5363H34.1462Z" fill="#222226"/>
<path d="M56.246 19.5433V9.41803H58.5033C58.871 9.41803 59.1701 9.71713 59.1701 10.0848V17.2508H62.7522V19.5433H56.246Z" fill="#222226"/>
<path d="M31.8607 11.7035V10.0848C31.8607 9.71713 31.5616 9.41803 31.1939 9.41803H24.5293V19.5363H31.8607V17.9177C31.8607 17.5499 31.5616 17.2508 31.1939 17.2508H27.4604V15.509H31.8607V14.1121C31.8607 13.7444 31.5616 13.4453 31.1939 13.4453H27.4604V11.7035H31.8607Z" fill="#222226"/>
<path d="M18.4947 0.00175939V10.9434C18.4912 14.9795 15.2204 18.2484 11.1862 18.2519V7.31732C11.1862 3.27951 14.4569 0.00527818 18.4947 0V0.00175939Z" fill="#01E385"/>
<path d="M7.31726 10.8801V21.8217C7.31726 25.8631 4.04127 29.139 -6.10352e-05 29.139V18.1974C-6.10352e-05 14.1561 3.27593 10.8801 7.31726 10.8801Z" fill="#01E385"/>
</svg>
