<svg width="73" height="30" viewBox="0 0 73 30" fill="none" xmlns="http://www.w3.org/2000/svg">
<path d="M72.1693 14.9428C71.8122 14.5275 71.3635 14.2003 70.8586 13.9892C70.0211 13.6303 69.1309 13.4103 68.2213 13.3364C67.894 13.3224 67.572 13.252 67.2677 13.1288C67.0829 13.0391 66.9281 12.8966 66.8225 12.7206C66.585 12.3177 66.7187 11.8005 67.1199 11.563C67.1938 11.519 67.2747 11.4873 67.3591 11.468C67.6512 11.3765 67.9573 11.3378 68.2617 11.3536C69.0534 11.3536 69.6956 11.994 69.6974 12.7857C69.6974 12.8104 69.6974 12.835 69.6956 12.8596H72.5054C72.5054 9.27751 68.2916 9.27751 68.2916 9.27751C67.1955 9.22121 66.1117 9.53087 65.2109 10.159C64.6303 10.6182 64.238 11.2727 64.1078 12.0011C63.9231 12.7769 64.092 13.5951 64.567 14.2372C64.8925 14.6226 65.2989 14.9304 65.7563 15.1398C66.5674 15.511 67.4383 15.7362 68.3286 15.8066C68.6611 15.8154 68.9883 15.884 69.2962 16.0072C69.4775 16.1022 69.6305 16.243 69.7414 16.4154C69.9631 16.8306 69.8047 17.3479 69.3895 17.5695C69.3226 17.6047 69.2505 17.6329 69.1766 17.6487C68.8845 17.7367 68.5784 17.7754 68.274 17.7631C67.4823 17.7631 66.8401 17.1226 66.8384 16.3309C66.8384 16.3063 66.8384 16.2817 66.8401 16.257H63.916C63.916 19.8392 68.2951 19.8392 68.3092 19.8392C69.115 19.8603 69.9173 19.716 70.6668 19.4169C71.4867 19.0721 72.1341 18.414 72.4649 17.5889C72.8467 16.718 72.7341 15.7099 72.1711 14.9445L72.1693 14.9428Z" fill="white"/>
<path d="M51.0504 10.0848V15.6533C51.0504 16.445 50.4082 17.0872 49.6165 17.0872C48.8248 17.0872 48.1826 16.445 48.1826 15.6533V10.0848C48.1826 9.71707 47.8835 9.41797 47.5158 9.41797H45.1934V15.9893C45.1934 18.412 47.1639 19.7087 49.5866 19.7087C52.0163 19.7087 53.9798 18.412 53.9798 15.9893V9.41797H51.7225C51.353 9.41797 51.0521 9.71531 51.0486 10.0848H51.0504Z" fill="white"/>
<path d="M34.1465 19.5362V9.41797H36.11C36.3176 9.41797 36.5129 9.51298 36.6395 9.6766L40.007 14.485V10.0848C40.007 9.71707 40.3061 9.41797 40.6738 9.41797H42.9311V19.5362H40.9747C40.7671 19.5362 40.5718 19.4412 40.4451 19.2776L37.0776 14.5624V19.5362H34.1465Z" fill="white"/>
<path d="M56.2461 19.5433V9.41797H58.5034C58.8711 9.41797 59.1702 9.71707 59.1702 10.0848V17.2508H62.7523V19.5433H56.2461Z" fill="white"/>
<path d="M31.8607 11.7034V10.0848C31.8607 9.71707 31.5616 9.41797 31.1939 9.41797H24.5293V19.5362H31.8607V17.9176C31.8607 17.5499 31.5616 17.2508 31.1939 17.2508H27.4604V15.509H31.8607V14.112C31.8607 13.7443 31.5616 13.4452 31.1939 13.4452H27.4604V11.7034H31.8607Z" fill="white"/>
<path d="M18.4941 0.00175939V10.9434C18.4905 14.9795 15.2198 18.2484 11.1855 18.2519V7.31732C11.1855 3.27951 14.4563 0.00527818 18.4941 0V0.00175939Z" fill="#01E385"/>
<path d="M7.31732 10.8799V21.8215C7.31732 25.8629 4.04133 29.1389 0 29.1389V18.1972C0 14.1559 3.27599 10.8799 7.31732 10.8799Z" fill="#01E385"/>
</svg>
