<svg width="97" height="30" viewBox="0 0 97 30" fill="none" xmlns="http://www.w3.org/2000/svg">
<path d="M16.7737 9.35448L16.7687 9.3304L10.0516 0L3.47135 9.30506L3.45741 9.32407L0.00506951 24.0497L0 24.0712L9.99074 29.9645L10.0516 30L20.1437 24.0852L20.1627 24.0738L16.7737 9.35322V9.35448ZM11.5712 24.1371L10.0579 28.924L8.61943 24.1371H11.5712ZM8.04911 24.1371L9.63587 29.2028L1.13304 24.1371H8.04911ZM16.3859 17.4999L14.9918 15.0932L16.4924 10.3291L19.3034 22.5301L16.3872 17.4999H16.3859ZM10.2974 6.98069V1.17232L16.2503 9.447L14.6433 14.4937L10.2974 6.98069ZM12.2441 23.6517L14.7764 15.6888L15.9728 17.7508L19.3871 23.6505H12.2441V23.6517ZM19.0525 24.1447L10.4749 29.2066L12.0882 24.1409L19.0525 24.1447ZM14.4506 15.1198L11.7346 23.6517H8.40905L5.71967 15.0526L10.0566 7.52566L14.4519 15.1198H14.4506ZM7.8983 23.6479H0.798448L5.41297 15.699L7.89956 23.6479H7.8983ZM9.81203 6.96929L5.51816 14.4252L3.96182 9.4508L9.81203 1.18119V6.96802V6.96929ZM0.90871 22.4325L3.69821 10.3291L5.1785 15.0234L0.90871 22.4325Z" fill="white"/>
<path d="M39.3506 9.35791V11.6917H33.3649V13.6676H39.0241V16.0159H33.3649V18.2869H39.3506V20.6352H30.707V9.36275H39.3506V9.35791Z" fill="white"/>
<path d="M40.1758 15.0023C40.1758 11.4883 42.5531 9.17139 46.0212 9.17139C49.4893 9.17139 51.8666 11.4883 51.8666 15.0023C51.8666 18.5163 49.4724 20.8332 46.0212 20.8332C42.5701 20.8332 40.1758 18.5163 40.1758 15.0023ZM49.0516 15.0023C49.0516 12.608 47.6682 11.3649 46.0188 11.3649C44.3694 11.3649 42.986 12.6104 42.986 15.0023C42.986 17.3942 44.3694 18.6397 46.0188 18.6397C47.6682 18.6397 49.0516 17.3942 49.0516 15.0023Z" fill="white"/>
<path d="M55.2713 12.3903C55.2713 12.949 55.801 13.3529 56.5773 13.5246L58.1178 13.8341C59.9365 14.2066 62.2389 14.7652 62.2389 17.1305C62.2389 19.4958 59.8616 20.8307 57.5132 20.8307C54.6207 20.8307 52.7247 19.3845 52.3184 16.9588H54.9617C55.2568 18.1414 56.1903 18.6832 57.5737 18.6832C58.4734 18.6832 59.5012 18.3881 59.5012 17.4546C59.5012 16.7242 58.6306 16.3663 57.402 16.1027L56.0331 15.8221C54.1975 15.4327 52.536 14.5621 52.536 12.5403C52.536 10.2379 55.0077 9.1665 57.2158 9.1665C59.4238 9.1665 61.523 10.1291 61.91 12.6176H59.2811C59.0175 11.7784 58.1928 11.2972 57.0586 11.2972C56.0331 11.2972 55.2713 11.6865 55.2713 12.3855V12.3903Z" fill="white"/>
<path d="M74.9964 9.36521V10.3278H68.8075V14.3085H74.6215V15.288H68.8075V19.6727H74.9964V20.6352H67.7676V9.36279H74.9964V9.36521Z" fill="white"/>
<path d="M80.1576 19.3487L83.6402 9.36768H84.7599L80.7163 20.6401H79.5191L75.4609 9.36768H76.6121L80.1576 19.3487Z" fill="white"/>
<path d="M87.0756 10.3617V20.6401H86.0332V9.36768H87.7116L91.4433 19.4575L95.1605 9.36768H96.8244V20.6401H95.782V10.3617L91.9584 20.6401H90.9016L87.078 10.3617H87.0756Z" fill="white"/>
</svg>
