<svg width="97" height="30" viewBox="0 0 97 30" fill="none" xmlns="http://www.w3.org/2000/svg">
<path d="M16.7737 9.35448L16.7687 9.3304L10.0516 0L3.47135 9.30506L3.45741 9.32407L0.00506951 24.0497L0 24.0712L9.99074 29.9645L10.0516 30L20.1437 24.0852L20.1627 24.0738L16.7737 9.35322V9.35448ZM11.5712 24.1371L10.0579 28.924L8.61943 24.1371H11.5712ZM8.04911 24.1371L9.63587 29.2028L1.13304 24.1371H8.04911ZM16.3859 17.4999L14.9918 15.0932L16.4924 10.3291L19.3034 22.5301L16.3872 17.4999H16.3859ZM10.2974 6.98069V1.17232L16.2503 9.447L14.6433 14.4937L10.2974 6.98069ZM12.2441 23.6517L14.7764 15.6888L15.9728 17.7508L19.3871 23.6505H12.2441V23.6517ZM19.0525 24.1447L10.4749 29.2066L12.0882 24.1409L19.0525 24.1447ZM14.4506 15.1198L11.7346 23.6517H8.40905L5.71967 15.0526L10.0566 7.52566L14.4519 15.1198H14.4506ZM7.8983 23.6479H0.798448L5.41297 15.699L7.89956 23.6479H7.8983ZM9.81203 6.96929L5.51816 14.4252L3.96182 9.4508L9.81203 1.18119V6.96802V6.96929ZM0.90871 22.4325L3.69821 10.3291L5.1785 15.0234L0.90871 22.4325Z" fill="black"/>
<path d="M39.3506 9.35773V11.6915H33.3649V13.6674H39.0241V16.0158H33.3649V18.2867H39.3506V20.635H30.707V9.36257H39.3506V9.35773Z" fill="black"/>
<path d="M40.1749 15.0024C40.1749 11.4883 42.5522 9.17145 46.0203 9.17145C49.4884 9.17145 51.8657 11.4883 51.8657 15.0024C51.8657 18.5164 49.4714 20.8333 46.0203 20.8333C42.5691 20.8333 40.1749 18.5164 40.1749 15.0024ZM49.0506 15.0024C49.0506 12.6081 47.6673 11.365 46.0179 11.365C44.3685 11.365 42.9851 12.6105 42.9851 15.0024C42.9851 17.3942 44.3685 18.6397 46.0179 18.6397C47.6673 18.6397 49.0506 17.3942 49.0506 15.0024Z" fill="black"/>
<path d="M55.2712 12.3904C55.2712 12.949 55.8008 13.3529 56.5772 13.5246L58.1177 13.8342C59.9364 14.2066 62.2388 14.7653 62.2388 17.1306C62.2388 19.4958 59.8614 20.8308 57.5131 20.8308C54.6206 20.8308 52.7245 19.3846 52.3182 16.9588H54.9616C55.2567 18.1415 56.1902 18.6832 57.5736 18.6832C58.4732 18.6832 59.5011 18.3882 59.5011 17.4546C59.5011 16.7243 58.6304 16.3663 57.4019 16.1027L56.033 15.8222C54.1974 15.4328 52.5359 14.5622 52.5359 12.5403C52.5359 10.2379 55.0076 9.16656 57.2156 9.16656C59.4237 9.16656 61.5229 10.1291 61.9099 12.6177H59.281C59.0174 11.7785 58.1927 11.2972 57.0584 11.2972C56.033 11.2972 55.2712 11.6866 55.2712 12.3855V12.3904Z" fill="black"/>
<path d="M74.9967 9.36509V10.3276H68.8079V14.3084H74.6219V15.2879H68.8079V19.6726H74.9967V20.6351H67.7679V9.36267H74.9967V9.36509Z" fill="black"/>
<path d="M80.1577 19.3484L83.6403 9.36743H84.76L80.7163 20.6399H79.5192L75.461 9.36743H76.6122L80.1577 19.3484Z" fill="black"/>
<path d="M87.0764 10.3614V20.6399H86.0341V9.36743H87.7125L91.4442 19.4573L95.1613 9.36743H96.8253V20.6399H95.7829V10.3614L91.9593 20.6399H90.9024L87.0788 10.3614H87.0764Z" fill="black"/>
</svg>
