<svg width="142" height="28" viewBox="0 0 142 28" fill="none" xmlns="http://www.w3.org/2000/svg">
<path d="M0.305115 12.4629L8.56882 9.00662L16.5782 12.5512L8.5561 0L0.305115 12.4629ZM0.330541 16.2977L8.58153 21.0407L16.9978 16.2977L8.65781 27.8146L0.330541 16.2977Z" fill="#065F46"/>
<path d="M8.6069 10.697L-6.10352e-05 14.292L8.6069 19.035L16.9723 14.393L8.6069 10.697Z" fill="#065F46"/>
<path d="M27.2274 10.9868V13.6888H30.4062V14.9206H27.2274V17.7418H30.8035V18.9736H25.7174V9.75503H30.8035V10.9868H27.2274ZM34.4249 12.9073V16.9471C34.4249 17.2208 34.4867 17.4195 34.6103 17.5431C34.7428 17.6579 34.9635 17.7153 35.2726 17.7153H36.1997V18.9736H35.0077C34.3278 18.9736 33.8068 18.8146 33.4448 18.4968C33.0827 18.1789 32.9017 17.6623 32.9017 16.9471V12.9073H32.0408V11.6756H32.9017V9.86099H34.4249V11.6756H36.1997V12.9073H34.4249ZM41.3662 11.5564C41.9225 11.5564 42.417 11.6756 42.8497 11.914C43.2912 12.1524 43.6356 12.5056 43.8828 12.9736C44.1389 13.4416 44.2669 14.0067 44.2669 14.6689V18.9736H42.7702V14.8941C42.7702 14.2407 42.6069 13.7418 42.2801 13.3974C41.9534 13.0442 41.5075 12.8676 40.9424 12.8676C40.3773 12.8676 39.9269 13.0442 39.5914 13.3974C39.2647 13.7418 39.1013 14.2407 39.1013 14.8941V18.9736H37.5914V9.17225H39.1013V12.5232C39.3574 12.2142 39.6797 11.9758 40.0682 11.808C40.4656 11.6402 40.8982 11.5564 41.3662 11.5564ZM52.8817 15.1458C52.8817 15.4195 52.864 15.6667 52.8287 15.8875H47.2525C47.2967 16.4703 47.513 16.9383 47.9015 17.2915C48.29 17.6447 48.7669 17.8213 49.332 17.8213C50.1444 17.8213 50.7183 17.4813 51.0538 16.8014H52.683C52.4622 17.4725 52.0605 18.0243 51.4777 18.457C50.9037 18.8809 50.1885 19.0928 49.332 19.0928C48.6344 19.0928 48.0075 18.9383 47.4512 18.6292C46.9037 18.3113 46.4711 17.8698 46.1532 17.3047C45.8441 16.7307 45.6896 16.0685 45.6896 15.3179C45.6896 14.5674 45.8397 13.9096 46.1399 13.3444C46.449 12.7705 46.8772 12.329 47.4247 12.0199C47.981 11.7109 48.6168 11.5564 49.332 11.5564C50.0207 11.5564 50.6344 11.7065 51.1731 12.0067C51.7117 12.3069 52.1311 12.7307 52.4313 13.2782C52.7315 13.8168 52.8817 14.4394 52.8817 15.1458ZM51.3055 14.6689C51.2967 14.1126 51.098 13.6667 50.7095 13.3312C50.321 12.9956 49.8397 12.8279 49.2658 12.8279C48.7448 12.8279 48.2989 12.9956 47.928 13.3312C47.5572 13.6579 47.3364 14.1038 47.2658 14.6689H51.3055ZM55.8775 12.7352C56.0983 12.3643 56.3897 12.0773 56.7517 11.8742C57.1226 11.6623 57.5596 11.5564 58.0629 11.5564V13.1193H57.6788C57.0872 13.1193 56.6369 13.2694 56.3278 13.5696C56.0276 13.8698 55.8775 14.3908 55.8775 15.1325V18.9736H54.3676V11.6756H55.8775V12.7352ZM66.1396 15.1458C66.1396 15.4195 66.122 15.6667 66.0866 15.8875H60.5105C60.5546 16.4703 60.771 16.9383 61.1595 17.2915C61.548 17.6447 62.0248 17.8213 62.59 17.8213C63.4023 17.8213 63.9763 17.4813 64.3118 16.8014H65.941C65.7202 17.4725 65.3184 18.0243 64.7357 18.457C64.1617 18.8809 63.4465 19.0928 62.59 19.0928C61.8924 19.0928 61.2655 18.9383 60.7092 18.6292C60.1617 18.3113 59.729 17.8698 59.4112 17.3047C59.1021 16.7307 58.9476 16.0685 58.9476 15.3179C58.9476 14.5674 59.0977 13.9096 59.3979 13.3444C59.707 12.7705 60.1352 12.329 60.6827 12.0199C61.239 11.7109 61.8747 11.5564 62.59 11.5564C63.2787 11.5564 63.8924 11.7065 64.431 12.0067C64.9697 12.3069 65.3891 12.7307 65.6893 13.2782C65.9895 13.8168 66.1396 14.4394 66.1396 15.1458ZM64.5635 14.6689C64.5546 14.1126 64.356 13.6667 63.9674 13.3312C63.5789 12.9956 63.0977 12.8279 62.5237 12.8279C62.0028 12.8279 61.5568 12.9956 61.186 13.3312C60.8151 13.6579 60.5944 14.1038 60.5237 14.6689H64.5635ZM74.2348 11.6756V18.9736H72.7249V18.1126C72.4865 18.4129 72.173 18.6513 71.7845 18.8279C71.4048 18.9956 70.9986 19.0795 70.566 19.0795C69.992 19.0795 69.4754 18.9603 69.0163 18.7219C68.566 18.4835 68.2083 18.1303 67.9434 17.6623C67.6874 17.1943 67.5593 16.6292 67.5593 15.9669V11.6756H69.056V15.7418C69.056 16.3952 69.2194 16.8985 69.5461 17.2517C69.8728 17.5961 70.3187 17.7683 70.8838 17.7683C71.449 17.7683 71.8949 17.5961 72.2216 17.2517C72.5571 16.8985 72.7249 16.3952 72.7249 15.7418V11.6756H74.2348ZM85.0615 11.5564C85.6355 11.5564 86.1476 11.6756 86.5979 11.914C87.0571 12.1524 87.4147 12.5056 87.6708 12.9736C87.9357 13.4416 88.0681 14.0067 88.0681 14.6689V18.9736H86.5714V14.8941C86.5714 14.2407 86.4081 13.7418 86.0814 13.3974C85.7547 13.0442 85.3087 12.8676 84.7436 12.8676C84.1785 12.8676 83.7282 13.0442 83.3926 13.3974C83.0659 13.7418 82.9026 14.2407 82.9026 14.8941V18.9736H81.4059V14.8941C81.4059 14.2407 81.2425 13.7418 80.9158 13.3974C80.5891 13.0442 80.1432 12.8676 79.5781 12.8676C79.0129 12.8676 78.5626 13.0442 78.2271 13.3974C77.9004 13.7418 77.737 14.2407 77.737 14.8941V18.9736H76.2271V11.6756H77.737V12.51C77.9842 12.2098 78.2977 11.9758 78.6774 11.808C79.0571 11.6402 79.4633 11.5564 79.8959 11.5564C80.4787 11.5564 80.9997 11.68 81.4589 11.9272C81.918 12.1745 82.2712 12.5321 82.5185 13.0001C82.7392 12.5586 83.0836 12.2098 83.5516 11.9537C84.0196 11.6888 84.5229 11.5564 85.0615 11.5564ZM92.9268 14.3511C92.9268 13.4504 93.1343 12.6424 93.5493 11.9272C93.9731 11.212 94.5427 10.6557 95.2579 10.2583C95.982 9.85216 96.7723 9.64907 97.6288 9.64907C98.6089 9.64907 99.4787 9.89189 100.238 10.3775C101.006 10.8544 101.563 11.5343 101.907 12.4173H100.092C99.8539 11.9316 99.5228 11.5696 99.099 11.3312C98.6751 11.0928 98.1851 10.9736 97.6288 10.9736C97.0195 10.9736 96.4764 11.1104 95.9996 11.3842C95.5228 11.6579 95.1475 12.0508 94.8738 12.563C94.6089 13.0751 94.4764 13.6711 94.4764 14.3511C94.4764 15.031 94.6089 15.627 94.8738 16.1391C95.1475 16.6513 95.5228 17.0486 95.9996 17.3312C96.4764 17.6049 97.0195 17.7418 97.6288 17.7418C98.1851 17.7418 98.6751 17.6226 99.099 17.3842C99.5228 17.1458 99.8539 16.7837 100.092 16.2981H101.907C101.563 17.1811 101.006 17.861 100.238 18.3378C99.4787 18.8146 98.6089 19.053 97.6288 19.053C96.7634 19.053 95.9731 18.8544 95.2579 18.457C94.5427 18.0508 93.9731 17.4901 93.5493 16.7749C93.1343 16.0597 92.9268 15.2517 92.9268 14.3511ZM105.184 9.17225V18.9736H103.674V9.17225H105.184ZM106.663 15.2915C106.663 14.5586 106.813 13.9096 107.114 13.3444C107.423 12.7793 107.838 12.3422 108.359 12.0332C108.888 11.7153 109.471 11.5564 110.107 11.5564C110.681 11.5564 111.18 11.6711 111.604 11.9007C112.036 12.1215 112.381 12.3996 112.637 12.7352V11.6756H114.16V18.9736H112.637V17.8875C112.381 18.2318 112.032 18.5188 111.59 18.7484C111.149 18.978 110.646 19.0928 110.081 19.0928C109.454 19.0928 108.88 18.9338 108.359 18.616C107.838 18.2892 107.423 17.8389 107.114 17.265C106.813 16.6822 106.663 16.0243 106.663 15.2915ZM112.637 15.3179C112.637 14.8146 112.531 14.3775 112.319 14.0067C112.116 13.6358 111.847 13.3533 111.511 13.159C111.175 12.9647 110.813 12.8676 110.425 12.8676C110.036 12.8676 109.674 12.9647 109.339 13.159C109.003 13.3444 108.73 13.6226 108.518 13.9934C108.315 14.3555 108.213 14.7881 108.213 15.2915C108.213 15.7948 108.315 16.2363 108.518 16.616C108.73 16.9956 109.003 17.287 109.339 17.4901C109.683 17.6844 110.045 17.7815 110.425 17.7815C110.813 17.7815 111.175 17.6844 111.511 17.4901C111.847 17.2959 112.116 17.0133 112.319 16.6424C112.531 16.2628 112.637 15.8213 112.637 15.3179ZM118.792 19.0928C118.218 19.0928 117.702 18.9912 117.243 18.7881C116.792 18.5762 116.435 18.2937 116.17 17.9405C115.905 17.5784 115.764 17.1767 115.746 16.7352H117.309C117.335 17.0442 117.481 17.3047 117.746 17.5166C118.02 17.7197 118.36 17.8213 118.766 17.8213C119.19 17.8213 119.516 17.7418 119.746 17.5828C119.984 17.4151 120.104 17.2032 120.104 16.9471C120.104 16.6734 119.971 16.4703 119.706 16.3378C119.45 16.2054 119.039 16.0597 118.474 15.9007C117.927 15.7506 117.481 15.6049 117.137 15.4636C116.792 15.3224 116.492 15.106 116.236 14.8146C115.989 14.5232 115.865 14.1391 115.865 13.6623C115.865 13.2738 115.98 12.9206 116.209 12.6027C116.439 12.276 116.766 12.0199 117.19 11.8345C117.622 11.6491 118.117 11.5564 118.673 11.5564C119.503 11.5564 120.17 11.7683 120.673 12.1921C121.185 12.6071 121.459 13.1767 121.494 13.9007H119.984C119.958 13.574 119.825 13.3135 119.587 13.1193C119.349 12.925 119.026 12.8279 118.62 12.8279C118.223 12.8279 117.918 12.9029 117.706 13.053C117.494 13.2032 117.388 13.4018 117.388 13.6491C117.388 13.8433 117.459 14.0067 117.6 14.1391C117.741 14.2716 117.914 14.3775 118.117 14.457C118.32 14.5277 118.62 14.6204 119.017 14.7352C119.547 14.8764 119.98 15.0221 120.315 15.1722C120.66 15.3135 120.956 15.5254 121.203 15.808C121.45 16.0906 121.578 16.4658 121.587 16.9338C121.587 17.3488 121.472 17.7197 121.243 18.0464C121.013 18.3731 120.686 18.6292 120.262 18.8146C119.847 19.0001 119.357 19.0928 118.792 19.0928ZM125.867 19.0928C125.294 19.0928 124.777 18.9912 124.318 18.7881C123.867 18.5762 123.51 18.2937 123.245 17.9405C122.98 17.5784 122.839 17.1767 122.821 16.7352H124.384C124.411 17.0442 124.556 17.3047 124.821 17.5166C125.095 17.7197 125.435 17.8213 125.841 17.8213C126.265 17.8213 126.592 17.7418 126.821 17.5828C127.06 17.4151 127.179 17.2032 127.179 16.9471C127.179 16.6734 127.046 16.4703 126.781 16.3378C126.525 16.2054 126.115 16.0597 125.55 15.9007C125.002 15.7506 124.556 15.6049 124.212 15.4636C123.867 15.3224 123.567 15.106 123.311 14.8146C123.064 14.5232 122.94 14.1391 122.94 13.6623C122.94 13.2738 123.055 12.9206 123.285 12.6027C123.514 12.276 123.841 12.0199 124.265 11.8345C124.698 11.6491 125.192 11.5564 125.748 11.5564C126.578 11.5564 127.245 11.7683 127.748 12.1921C128.26 12.6071 128.534 13.1767 128.569 13.9007H127.06C127.033 13.574 126.901 13.3135 126.662 13.1193C126.424 12.925 126.101 12.8279 125.695 12.8279C125.298 12.8279 124.993 12.9029 124.781 13.053C124.569 13.2032 124.464 13.4018 124.464 13.6491C124.464 13.8433 124.534 14.0067 124.675 14.1391C124.817 14.2716 124.989 14.3775 125.192 14.457C125.395 14.5277 125.695 14.6204 126.093 14.7352C126.622 14.8764 127.055 15.0221 127.391 15.1722C127.735 15.3135 128.031 15.5254 128.278 15.808C128.525 16.0906 128.653 16.4658 128.662 16.9338C128.662 17.3488 128.547 17.7197 128.318 18.0464C128.088 18.3731 127.762 18.6292 127.338 18.8146C126.923 19.0001 126.433 19.0928 125.867 19.0928ZM131.062 10.7087C130.788 10.7087 130.559 10.616 130.373 10.4305C130.188 10.2451 130.095 10.0155 130.095 9.74178C130.095 9.46805 130.188 9.23847 130.373 9.05304C130.559 8.86761 130.788 8.77489 131.062 8.77489C131.327 8.77489 131.552 8.86761 131.737 9.05304C131.923 9.23847 132.016 9.46805 132.016 9.74178C132.016 10.0155 131.923 10.2451 131.737 10.4305C131.552 10.616 131.327 10.7087 131.062 10.7087ZM131.804 11.6756V18.9736H130.294V11.6756H131.804ZM133.283 15.3179C133.283 14.5674 133.433 13.9096 133.733 13.3444C134.042 12.7705 134.466 12.329 135.005 12.0199C135.543 11.7109 136.161 11.5564 136.859 11.5564C137.742 11.5564 138.47 11.7683 139.044 12.1921C139.627 12.6071 140.02 13.2032 140.223 13.9802H138.594C138.462 13.6182 138.25 13.3356 137.958 13.1325C137.667 12.9294 137.3 12.8279 136.859 12.8279C136.241 12.8279 135.746 13.0486 135.375 13.4901C135.013 13.9228 134.832 14.5321 134.832 15.3179C134.832 16.1038 135.013 16.7175 135.375 17.159C135.746 17.6005 136.241 17.8213 136.859 17.8213C137.733 17.8213 138.311 17.4371 138.594 16.6689H140.223C140.011 17.4107 139.614 18.0023 139.031 18.4438C138.448 18.8764 137.724 19.0928 136.859 19.0928C136.161 19.0928 135.543 18.9383 135.005 18.6292C134.466 18.3113 134.042 17.8698 133.733 17.3047C133.433 16.7307 133.283 16.0685 133.283 15.3179Z" fill="#065F46"/>
</svg>
