<svg width="106" height="32" viewBox="0 0 106 32" fill="none" xmlns="http://www.w3.org/2000/svg">
<path d="M31.2142 12.352V15.616H35.0542V17.104H31.2142V20.512H35.5342V22H29.3902V10.864H35.5342V12.352H31.2142ZM39.9088 14.672V19.552C39.9088 19.8827 39.9835 20.1227 40.1328 20.272C40.2928 20.4107 40.5595 20.48 40.9328 20.48H42.0528V22H40.6128C39.7915 22 39.1621 21.808 38.7248 21.424C38.2875 21.04 38.0688 20.416 38.0688 19.552V14.672H37.0288V13.184H38.0688V10.992H39.9088V13.184H42.0528V14.672H39.9088ZM48.2939 13.04C48.9659 13.04 49.5633 13.184 50.0859 13.472C50.6193 13.76 51.0353 14.1867 51.3339 14.752C51.6433 15.3173 51.7979 16 51.7979 16.8V22H49.9899V17.072C49.9899 16.2827 49.7926 15.68 49.3979 15.264C49.0033 14.8373 48.4646 14.624 47.7819 14.624C47.0993 14.624 46.5553 14.8373 46.1499 15.264C45.7553 15.68 45.5579 16.2827 45.5579 17.072V22H43.7339V10.16H45.5579V14.208C45.8673 13.8347 46.2566 13.5467 46.7259 13.344C47.2059 13.1413 47.7286 13.04 48.2939 13.04ZM62.2046 17.376C62.2046 17.7067 62.1832 18.0053 62.1406 18.272H55.4046C55.4579 18.976 55.7192 19.5413 56.1886 19.968C56.6579 20.3947 57.2339 20.608 57.9166 20.608C58.8979 20.608 59.5912 20.1973 59.9966 19.376H61.9646C61.6979 20.1867 61.2126 20.8533 60.5086 21.376C59.8152 21.888 58.9512 22.144 57.9166 22.144C57.0739 22.144 56.3166 21.9573 55.6446 21.584C54.9832 21.2 54.4606 20.6667 54.0766 19.984C53.7032 19.2907 53.5166 18.4907 53.5166 17.584C53.5166 16.6773 53.6979 15.8827 54.0606 15.2C54.4339 14.5067 54.9512 13.9733 55.6126 13.6C56.2846 13.2267 57.0526 13.04 57.9166 13.04C58.7486 13.04 59.4899 13.2213 60.1406 13.584C60.7912 13.9467 61.2979 14.4587 61.6606 15.12C62.0232 15.7707 62.2046 16.5227 62.2046 17.376ZM60.3006 16.8C60.2899 16.128 60.0499 15.5893 59.5806 15.184C59.1112 14.7787 58.5299 14.576 57.8366 14.576C57.2072 14.576 56.6686 14.7787 56.2206 15.184C55.7726 15.5787 55.5059 16.1173 55.4206 16.8H60.3006ZM65.8236 14.464C66.0902 14.016 66.4422 13.6693 66.8796 13.424C67.3276 13.168 67.8556 13.04 68.4636 13.04V14.928H67.9996C67.2849 14.928 66.7409 15.1093 66.3676 15.472C66.0049 15.8347 65.8236 16.464 65.8236 17.36V22H63.9996V13.184H65.8236V14.464ZM78.2202 17.376C78.2202 17.7067 78.1989 18.0053 78.1562 18.272H71.4202C71.4735 18.976 71.7349 19.5413 72.2042 19.968C72.6735 20.3947 73.2495 20.608 73.9322 20.608C74.9135 20.608 75.6069 20.1973 76.0122 19.376H77.9802C77.7135 20.1867 77.2282 20.8533 76.5242 21.376C75.8309 21.888 74.9669 22.144 73.9322 22.144C73.0895 22.144 72.3322 21.9573 71.6602 21.584C70.9989 21.2 70.4762 20.6667 70.0922 19.984C69.7189 19.2907 69.5322 18.4907 69.5322 17.584C69.5322 16.6773 69.7135 15.8827 70.0762 15.2C70.4495 14.5067 70.9669 13.9733 71.6282 13.6C72.3002 13.2267 73.0682 13.04 73.9322 13.04C74.7642 13.04 75.5055 13.2213 76.1562 13.584C76.8069 13.9467 77.3135 14.4587 77.6762 15.12C78.0389 15.7707 78.2202 16.5227 78.2202 17.376ZM76.3162 16.8C76.3055 16.128 76.0655 15.5893 75.5962 15.184C75.1269 14.7787 74.5455 14.576 73.8522 14.576C73.2229 14.576 72.6842 14.7787 72.2362 15.184C71.7882 15.5787 71.5215 16.1173 71.4362 16.8H76.3162ZM87.9992 13.184V22H86.1752V20.96C85.8872 21.3227 85.5085 21.6107 85.0392 21.824C84.5805 22.0267 84.0899 22.128 83.5672 22.128C82.8739 22.128 82.2499 21.984 81.6952 21.696C81.1512 21.408 80.7192 20.9813 80.3992 20.416C80.0899 19.8507 79.9352 19.168 79.9352 18.368V13.184H81.7432V18.096C81.7432 18.8853 81.9405 19.4933 82.3352 19.92C82.7299 20.336 83.2685 20.544 83.9512 20.544C84.6339 20.544 85.1725 20.336 85.5672 19.92C85.9725 19.4933 86.1752 18.8853 86.1752 18.096V13.184H87.9992ZM101.078 13.04C101.771 13.04 102.39 13.184 102.934 13.472C103.488 13.76 103.92 14.1867 104.23 14.752C104.55 15.3173 104.71 16 104.71 16.8V22H102.902V17.072C102.902 16.2827 102.704 15.68 102.31 15.264C101.915 14.8373 101.376 14.624 100.694 14.624C100.011 14.624 99.4671 14.8373 99.0618 15.264C98.6671 15.68 98.4698 16.2827 98.4698 17.072V22H96.6618V17.072C96.6618 16.2827 96.4645 15.68 96.0698 15.264C95.6751 14.8373 95.1365 14.624 94.4538 14.624C93.7711 14.624 93.2271 14.8373 92.8218 15.264C92.4271 15.68 92.2298 16.2827 92.2298 17.072V22H90.4058V13.184H92.2298V14.192C92.5285 13.8293 92.9071 13.5467 93.3658 13.344C93.8245 13.1413 94.3151 13.04 94.8378 13.04C95.5418 13.04 96.1711 13.1893 96.7258 13.488C97.2805 13.7867 97.7071 14.2187 98.0058 14.784C98.2725 14.2507 98.6885 13.8293 99.2538 13.52C99.8191 13.2 100.427 13.04 101.078 13.04Z" fill="#393939"/>
<path d="M9.82387 0L9.5983 0.731162V21.8882L9.82387 22.106L19.6479 16.3034L9.82387 0Z" fill="#343434"/>
<path d="M9.82402 0L0 16.2956L9.82402 22.0982V0Z" fill="#8C8C8C"/>
<path d="M9.82404 23.965L9.69958 24.1128V31.65L9.82404 32L19.6481 18.1546L9.82404 23.9572V23.965Z" fill="#3C3C3B"/>
<path d="M9.82389 32V23.965L-0.00012207 18.1624L9.82389 32Z" fill="#8C8C8C"/>
<path d="M9.82373 22.106L19.6477 16.3034L9.82373 11.8386V22.106Z" fill="#141414"/>
<path d="M-0.00012207 16.2956L9.82389 22.0982V11.8308L-0.00012207 16.2956Z" fill="#393939"/>
</svg>
