<svg width="106" height="32" viewBox="0 0 106 32" fill="none" xmlns="http://www.w3.org/2000/svg">
<path d="M31.2135 12.352V15.616H35.0535V17.104H31.2135V20.512H35.5335V22H29.3895V10.864H35.5335V12.352H31.2135ZM39.9081 14.672V19.552C39.9081 19.8827 39.9827 20.1227 40.1321 20.272C40.2921 20.4107 40.5587 20.48 40.9321 20.48H42.0521V22H40.6121C39.7907 22 39.1614 21.808 38.7241 21.424C38.2867 21.04 38.0681 20.416 38.0681 19.552V14.672H37.0281V13.184H38.0681V10.992H39.9081V13.184H42.0521V14.672H39.9081ZM48.2932 13.04C48.9652 13.04 49.5625 13.184 50.0852 13.472C50.6185 13.76 51.0345 14.1867 51.3332 14.752C51.6425 15.3173 51.7972 16 51.7972 16.8V22H49.9892V17.072C49.9892 16.2827 49.7919 15.68 49.3972 15.264C49.0025 14.8373 48.4639 14.624 47.7812 14.624C47.0985 14.624 46.5545 14.8373 46.1492 15.264C45.7545 15.68 45.5572 16.2827 45.5572 17.072V22H43.7332V10.16H45.5572V14.208C45.8665 13.8347 46.2559 13.5467 46.7252 13.344C47.2052 13.1413 47.7279 13.04 48.2932 13.04ZM62.2038 17.376C62.2038 17.7067 62.1825 18.0053 62.1398 18.272H55.4038C55.4572 18.976 55.7185 19.5413 56.1878 19.968C56.6572 20.3947 57.2332 20.608 57.9158 20.608C58.8972 20.608 59.5905 20.1973 59.9958 19.376H61.9638C61.6972 20.1867 61.2118 20.8533 60.5078 21.376C59.8145 21.888 58.9505 22.144 57.9158 22.144C57.0732 22.144 56.3158 21.9573 55.6438 21.584C54.9825 21.2 54.4598 20.6667 54.0758 19.984C53.7025 19.2907 53.5158 18.4907 53.5158 17.584C53.5158 16.6773 53.6972 15.8827 54.0598 15.2C54.4332 14.5067 54.9505 13.9733 55.6118 13.6C56.2838 13.2267 57.0518 13.04 57.9158 13.04C58.7478 13.04 59.4892 13.2213 60.1398 13.584C60.7905 13.9467 61.2972 14.4587 61.6598 15.12C62.0225 15.7707 62.2038 16.5227 62.2038 17.376ZM60.2998 16.8C60.2892 16.128 60.0492 15.5893 59.5798 15.184C59.1105 14.7787 58.5292 14.576 57.8358 14.576C57.2065 14.576 56.6678 14.7787 56.2198 15.184C55.7718 15.5787 55.5052 16.1173 55.4198 16.8H60.2998ZM65.8228 14.464C66.0895 14.016 66.4415 13.6693 66.8788 13.424C67.3268 13.168 67.8548 13.04 68.4628 13.04V14.928H67.9988C67.2842 14.928 66.7402 15.1093 66.3668 15.472C66.0042 15.8347 65.8228 16.464 65.8228 17.36V22H63.9988V13.184H65.8228V14.464ZM78.2195 17.376C78.2195 17.7067 78.1981 18.0053 78.1555 18.272H71.4195C71.4728 18.976 71.7341 19.5413 72.2035 19.968C72.6728 20.3947 73.2488 20.608 73.9315 20.608C74.9128 20.608 75.6061 20.1973 76.0115 19.376H77.9795C77.7128 20.1867 77.2275 20.8533 76.5235 21.376C75.8301 21.888 74.9661 22.144 73.9315 22.144C73.0888 22.144 72.3315 21.9573 71.6595 21.584C70.9981 21.2 70.4755 20.6667 70.0915 19.984C69.7181 19.2907 69.5315 18.4907 69.5315 17.584C69.5315 16.6773 69.7128 15.8827 70.0755 15.2C70.4488 14.5067 70.9661 13.9733 71.6275 13.6C72.2995 13.2267 73.0675 13.04 73.9315 13.04C74.7635 13.04 75.5048 13.2213 76.1555 13.584C76.8061 13.9467 77.3128 14.4587 77.6755 15.12C78.0381 15.7707 78.2195 16.5227 78.2195 17.376ZM76.3155 16.8C76.3048 16.128 76.0648 15.5893 75.5955 15.184C75.1261 14.7787 74.5448 14.576 73.8515 14.576C73.2221 14.576 72.6835 14.7787 72.2355 15.184C71.7875 15.5787 71.5208 16.1173 71.4355 16.8H76.3155ZM87.9985 13.184V22H86.1745V20.96C85.8865 21.3227 85.5078 21.6107 85.0385 21.824C84.5798 22.0267 84.0891 22.128 83.5665 22.128C82.8731 22.128 82.2491 21.984 81.6945 21.696C81.1505 21.408 80.7185 20.9813 80.3985 20.416C80.0891 19.8507 79.9345 19.168 79.9345 18.368V13.184H81.7425V18.096C81.7425 18.8853 81.9398 19.4933 82.3345 19.92C82.7291 20.336 83.2678 20.544 83.9505 20.544C84.6331 20.544 85.1718 20.336 85.5665 19.92C85.9718 19.4933 86.1745 18.8853 86.1745 18.096V13.184H87.9985ZM101.077 13.04C101.77 13.04 102.389 13.184 102.933 13.472C103.488 13.76 103.92 14.1867 104.229 14.752C104.549 15.3173 104.709 16 104.709 16.8V22H102.901V17.072C102.901 16.2827 102.704 15.68 102.309 15.264C101.914 14.8373 101.376 14.624 100.693 14.624C100.01 14.624 99.4664 14.8373 99.0611 15.264C98.6664 15.68 98.4691 16.2827 98.4691 17.072V22H96.6611V17.072C96.6611 16.2827 96.4637 15.68 96.0691 15.264C95.6744 14.8373 95.1357 14.624 94.4531 14.624C93.7704 14.624 93.2264 14.8373 92.8211 15.264C92.4264 15.68 92.2291 16.2827 92.2291 17.072V22H90.4051V13.184H92.2291V14.192C92.5277 13.8293 92.9064 13.5467 93.3651 13.344C93.8237 13.1413 94.3144 13.04 94.8371 13.04C95.5411 13.04 96.1704 13.1893 96.7251 13.488C97.2797 13.7867 97.7064 14.2187 98.0051 14.784C98.2717 14.2507 98.6877 13.8293 99.2531 13.52C99.8184 13.2 100.426 13.04 101.077 13.04Z" fill="white"/>
<path d="M9.82323 0L9.59766 0.731162V21.8882L9.82323 22.106L19.6472 16.3034L9.82323 0Z" fill="#343434"/>
<path d="M9.82402 0L0 16.2956L9.82402 22.0982V0Z" fill="#8C8C8C"/>
<path d="M9.82367 23.9652L9.69922 24.113V31.6502L9.82367 32.0002L19.6477 18.1548L9.82367 23.9574V23.9652Z" fill="#3C3C3B"/>
<path d="M9.82402 32.0002V23.9652L0 18.1626L9.82402 32.0002Z" fill="#8C8C8C"/>
<path d="M9.82422 22.1058L19.6482 16.3031L9.82422 11.8384V22.1058Z" fill="#141414"/>
<path d="M0 16.2958L9.82402 22.0984V11.8311L0 16.2958Z" fill="#393939"/>
</svg>
