<svg width="92" height="24" viewBox="0 0 92 24" fill="none" xmlns="http://www.w3.org/2000/svg">
<path d="M8.37527 0.227894C8.95349 -0.0759645 9.83556 -0.0759645 10.4167 0.227894L16.3316 3.33433C16.6797 3.51723 16.8715 3.79159 16.9069 4.07185H16.9128V19.6925C16.9039 19.9993 16.7122 20.3061 16.3316 20.5067L10.4167 23.6132C9.83851 23.917 8.95644 23.917 8.37527 23.6132L2.46037 20.5067C2.08276 20.3091 1.89985 19.9993 1.891 19.6925C1.891 19.663 1.891 19.6365 1.891 19.6158V4.1751C1.891 4.1574 1.891 4.14265 1.891 4.12495V4.0748H1.89395C1.9205 3.78864 2.10341 3.52313 2.46037 3.33728L8.37527 0.227894ZM15.9776 12.7893L10.4138 15.7129C9.83556 16.0167 8.95349 16.0167 8.37232 15.7129L2.82027 12.7952V19.663L8.37232 22.5659C8.68503 22.734 9.01249 22.8963 9.32815 22.9169H9.39305C9.72346 22.9199 10.045 22.7517 10.3725 22.5954L15.9776 19.6424V12.7923V12.7893ZM0.932225 19.3562C0.932225 19.9551 1.00303 20.3474 1.14168 20.6247C1.25673 20.8548 1.43079 21.0289 1.7435 21.2443L1.7612 21.2561C1.82905 21.3033 1.90575 21.3505 2.00015 21.4095L2.10931 21.4773L2.44561 21.6779L1.96475 22.4715L1.59009 22.2443L1.52814 22.206C1.41899 22.1381 1.33049 22.0821 1.24493 22.026C0.342209 21.4213 0.00590016 20.7634 0 19.3975V19.3562H0.929275H0.932225ZM8.92989 8.60317C8.88564 8.61792 8.84729 8.63562 8.80893 8.65332L2.89403 11.7598C2.89403 11.7598 2.88223 11.7656 2.87633 11.7686H2.87043L2.87928 11.7775L2.89403 11.7833L8.80893 14.8898C8.84433 14.9104 8.88564 14.9252 8.92989 14.9399V8.59727V8.60317ZM9.85916 8.60317V14.9458C9.90341 14.9311 9.94176 14.9134 9.98011 14.8957L15.895 11.7893C15.895 11.7893 15.9068 11.7834 15.9127 11.7804H15.9186L15.9098 11.7716L15.895 11.7657L9.98011 8.65922C9.94471 8.63857 9.90341 8.62382 9.85916 8.60907V8.60317ZM15.9776 5.18403L10.6734 7.97185L15.9776 10.7597V5.18403ZM2.82322 5.18993V10.7508L8.11567 7.9689L2.82322 5.18698V5.18993ZM9.98011 1.04802C9.67331 0.885761 9.11574 0.885761 8.80893 1.04802L2.89698 4.15445C2.89698 4.15445 2.88518 4.16035 2.87928 4.1633H2.87338L2.88223 4.17215L2.89698 4.17805L8.81188 7.28448C9.11869 7.44674 9.67626 7.44674 9.98306 7.28448L15.898 4.17805C15.898 4.17805 15.9098 4.17215 15.9157 4.1692H15.9216L15.9127 4.16035L15.898 4.15445L9.98011 1.04802ZM16.8538 1.39022L17.2285 1.61738L17.2904 1.65573C17.3996 1.72358 17.4881 1.77963 17.5736 1.83569C18.4734 2.4375 18.8067 3.09537 18.8126 4.46126V4.50256H17.8834C17.8834 3.90369 17.8126 3.51133 17.6739 3.23402C17.5589 3.00392 17.3848 2.82986 17.0721 2.61451L17.0544 2.60271C16.9866 2.55551 16.9098 2.5083 16.8154 2.4493L16.7063 2.38145L16.37 2.18085L16.8508 1.38727L16.8538 1.39022Z" fill="#3367F6"/>
<path d="M28.2706 19.0435V10.3319H30.6867V8.73595H28.2706V7.59131C28.2706 6.29623 28.837 5.65016 29.9698 5.65016C30.2973 5.65016 30.6454 5.70326 31.0141 5.81242V4.11612C30.5628 3.98042 30.0642 3.91257 29.5185 3.91257C28.4682 3.91257 27.6511 4.21347 27.0728 4.81234C26.4917 5.41121 26.2026 6.28443 26.2026 7.42906V8.7389H24.2172V10.3349H26.2026V19.0465H28.2706V19.0435ZM36.6635 19.1881C37.4542 19.1881 38.1474 19.0258 38.7404 18.6984C39.3334 18.3709 39.7818 17.9018 40.0827 17.2882V19.0465H42.13V8.7389H40.0827V10.4145C39.77 9.80092 39.3186 9.32596 38.7315 8.9926C38.1445 8.65924 37.4542 8.49109 36.6635 8.49109C35.7756 8.49109 34.985 8.71529 34.2887 9.16666C33.5925 9.61507 33.0497 10.2493 32.6603 11.0695C32.2709 11.8866 32.0762 12.8277 32.0762 13.8927C32.0762 14.9577 32.2679 15.8869 32.6485 16.6835C33.032 17.48 33.566 18.0965 34.2563 18.5332C34.9466 18.9698 35.7461 19.1881 36.6606 19.1881H36.6635ZM37.1562 17.5508C36.2151 17.5508 35.4806 17.2292 34.9554 16.5891C34.4303 15.9489 34.1678 15.0491 34.1678 13.8897C34.1678 12.7304 34.4303 11.8011 34.9554 11.1403C35.4806 10.4794 36.2063 10.149 37.1356 10.149C38.0648 10.149 38.8053 10.4706 39.3157 11.1108C39.829 11.7509 40.0827 12.6655 40.0827 13.8514C40.0827 15.0373 39.826 15.9341 39.3157 16.5802C38.8053 17.2263 38.0825 17.5508 37.1562 17.5508ZM47.2071 19.0435V13.1758C47.2071 12.2613 47.4697 11.5326 47.9948 10.9869C48.5199 10.4411 49.2191 10.1697 50.0923 10.1697C50.8564 10.1697 51.4139 10.3732 51.762 10.7833C52.1102 11.1934 52.2842 11.8453 52.2842 12.7451V19.0435H54.3522V12.6212C54.3522 9.86878 53.1161 8.49109 50.6469 8.49109C49.8563 8.49109 49.1483 8.66514 48.5288 9.01325C47.9092 9.36136 47.4343 9.86288 47.1068 10.5148L46.9239 8.73595H45.0005C45.1096 9.59442 45.1657 10.562 45.1657 11.6388V19.0406H47.213L47.2071 19.0435ZM61.2701 19.1881C61.8425 19.1881 62.3558 19.1143 62.8071 18.9639V17.2882C62.4384 17.3974 62.0755 17.4505 61.7215 17.4505C61.1757 17.4505 60.748 17.303 60.4412 17.0109C60.1344 16.7189 59.981 16.2173 59.981 15.5093V10.3349H62.8278V8.7389H59.981V5.44661L57.913 6.16348V8.7389H55.9069V10.3349H57.913V15.6716C57.913 16.8162 58.205 17.6894 58.7921 18.2883C59.3791 18.8872 60.2052 19.1881 61.2701 19.1881ZM69.1734 19.1881C70.1705 19.1881 71.0497 18.9698 71.8137 18.5332C72.5778 18.0965 73.1678 17.477 73.5838 16.6717C73.9997 15.8663 74.2092 14.9282 74.2092 13.8484C74.2092 12.7687 73.9997 11.8276 73.5838 11.0164C73.1678 10.2051 72.5778 9.58262 71.8137 9.14601C71.0497 8.70939 70.1676 8.49109 69.1734 8.49109C68.1792 8.49109 67.2765 8.70939 66.5124 9.14601C65.7484 9.58262 65.1584 10.2051 64.7424 11.0164C64.3264 11.8276 64.117 12.7717 64.117 13.8484C64.117 14.9252 64.3264 15.8663 64.7424 16.6717C65.1584 17.477 65.7484 18.0965 66.5124 18.5332C67.2765 18.9698 68.1645 19.1881 69.1734 19.1881ZM69.1528 17.5508C68.2117 17.5508 67.483 17.2381 66.9726 16.6097C66.4623 15.9813 66.2056 15.0639 66.2056 13.8484C66.2056 12.633 66.4652 11.748 66.9844 11.1078C67.5037 10.4676 68.2323 10.1461 69.1764 10.1461C70.1204 10.1461 70.8255 10.4676 71.3358 11.1078C71.8491 11.748 72.1028 12.6625 72.1028 13.8484C72.1028 15.0344 71.8491 15.9813 71.3447 16.6097C70.8402 17.2381 70.1086 17.5508 69.1528 17.5508ZM78.6727 19.0435V13.2142C78.6727 12.2731 78.9057 11.5297 79.3689 10.9839C79.832 10.4381 80.4604 10.1667 81.251 10.1667C81.9325 10.1667 82.4281 10.3703 82.7349 10.7804C83.0417 11.1904 83.1951 11.8365 83.1951 12.7215V19.0406H85.2631V13.2112C85.2631 12.2701 85.4903 11.5267 85.9476 10.981C86.4048 10.4352 87.0302 10.1638 87.8209 10.1638C88.5023 10.1638 88.9979 10.3673 89.3047 10.7774C89.6115 11.1875 89.765 11.8335 89.765 12.7186V19.0376H91.833V12.6153C91.833 9.86287 90.6854 8.48519 88.3932 8.48519C87.6291 8.48519 86.9417 8.66219 86.337 9.0162C85.7292 9.37021 85.269 9.85403 84.9563 10.4676C84.4637 9.14601 83.4193 8.48519 81.8233 8.48519C81.074 8.48519 80.4162 8.65629 79.8586 8.99555C79.2981 9.33776 78.8703 9.82157 78.5694 10.447L78.3865 8.73005H76.4631C76.5722 9.58852 76.6283 10.5561 76.6283 11.6329V19.0347H78.6756L78.6727 19.0435Z" fill="#3367F6"/>
</svg>
