<svg width="118" height="23" viewBox="0 0 118 23" fill="none" xmlns="http://www.w3.org/2000/svg">
<path d="M18.0679 0C15.3532 0 13.1388 2.2144 13.0691 4.9291V10.4282C12.5688 10.4282 12.0685 10.4979 11.4985 10.4979C10.9285 10.4979 10.4282 10.4979 9.92791 10.5676V4.925C9.92791 2.2144 7.63969 0 4.85528 0.0697127C2.2144 0.0697127 0.0697127 2.28412 0 4.9291V18.0679C0.0697127 20.7826 2.28412 22.997 5.06852 22.9232C7.78322 22.8535 9.92381 20.7088 9.92381 18.0679V12.5688C10.4241 12.5688 10.9244 12.4991 11.4944 12.4991C12.0644 12.4991 12.5647 12.4991 13.065 12.4294V17.9982C13.1347 20.7129 15.3491 22.9273 18.1335 22.8535C20.8482 22.7837 22.9888 20.6391 22.9888 17.9982V4.9291C22.9888 2.2144 20.7744 0 18.0597 0H18.0679ZM4.99881 2.00116C6.64321 2.00116 7.92674 3.2847 7.92674 4.9291V10.7152C6.49968 10.9285 5.06852 11.3591 3.71528 11.9291C3.14527 12.2161 2.57117 12.4991 2.07088 12.9297V4.9291C2.07088 3.35851 3.35441 2.00116 4.99881 2.00116ZM7.92674 18.0679C7.92674 19.7123 6.64321 20.9958 4.99881 20.9958C3.35441 20.9958 2.07088 19.7123 2.07088 18.0679V16.7844C2.07088 15.6402 2.99765 14.5002 4.56823 13.8564C5.63853 13.3561 6.78263 13.0691 7.99646 12.8558L7.92674 18.0679ZM18.0679 20.9958C16.4235 20.9958 15.14 19.7123 15.14 18.0679V12.2817C16.567 12.0685 17.9982 11.6379 19.3514 11.0679C19.9214 10.7809 20.4955 10.4979 20.9958 10.0673V18.0638C20.9958 19.7082 19.6385 20.9917 18.0679 20.9917V20.9958ZM18.4944 9.21028C17.4241 9.71057 16.28 9.99762 15.0661 10.2109V4.925C15.0661 3.2806 16.3497 1.99706 17.9941 1.99706C19.6385 1.99706 20.922 3.2806 20.922 4.925V6.20853C20.9917 7.42235 20.065 8.49265 18.4944 9.20618V9.21028Z" fill="url(#paint0_linear_1_302)"/>
<path d="M89.4041 7.92676C86.3326 7.92676 83.7615 10.4241 83.8353 13.5694C83.8353 16.6408 86.3326 19.212 89.4779 19.1382C92.5494 19.1382 95.0467 16.6408 95.0467 13.4956C95.0467 10.3503 92.5494 7.92676 89.4041 7.92676ZM93.1891 13.5694C93.1891 15.6403 91.475 17.3544 89.4041 17.3544C87.3332 17.3544 85.6191 15.6403 85.6191 13.5694C85.6191 11.4985 87.3332 9.7844 89.4041 9.7844C91.475 9.7844 93.1891 11.4985 93.1891 13.5694Z" fill="#1C1C1C"/>
<path d="M55.7001 7.99645C55.1998 7.99645 54.7733 8.42292 54.7733 8.92321V9.4235C52.4892 7.35263 48.9175 7.49615 46.8466 9.78027C44.7757 12.0644 44.9193 15.6361 47.2034 17.707C49.344 19.7082 52.6287 19.7082 54.7733 17.707V18.2073C54.7733 18.7076 55.1301 19.1341 55.6304 19.1341C56.1307 19.1341 56.5572 18.7773 56.5572 18.277V8.92321C56.6269 8.42292 56.2004 7.99645 55.7001 7.99645ZM54.7692 13.5694C54.7692 15.6402 53.0551 17.3543 50.9843 17.3543C48.9134 17.3543 47.1993 15.6402 47.1993 13.5694C47.1993 11.4985 48.9134 9.78437 50.9843 9.78437C53.0551 9.78437 54.7692 11.4985 54.7692 13.5694Z" fill="#1C1C1C"/>
<path d="M65.4846 8.85353C65.4846 9.35382 65.0582 9.7803 64.5579 9.7803H64.4143C62.3435 9.7803 60.6294 11.4944 60.6294 13.5653C60.5596 13.7785 60.6294 16.6367 60.6294 18.3509C60.5596 18.8511 60.1291 19.2079 59.6288 19.1382C59.2023 19.0685 58.8414 18.6379 58.8414 18.2114V8.92734C58.8414 8.42705 59.2679 8.00057 59.7682 8.00057H59.8379C60.3382 8.07028 60.695 8.42705 60.695 8.92734V9.42763C61.6955 8.50086 63.0529 7.92676 64.48 7.92676H64.6235C65.05 7.92676 65.4805 8.35324 65.4805 8.85353H65.4846Z" fill="#1C1C1C"/>
<path d="M105.828 12.6385V18.2073C105.828 18.7076 105.402 19.134 104.901 19.134C104.401 19.134 103.974 18.7076 103.974 18.2073V12.6385C103.974 11.0679 102.691 9.78024 101.116 9.78024H100.903C99.4021 9.84995 98.2621 11.2073 98.2621 12.7082V18.1335C98.2621 18.6337 97.8356 19.0602 97.3353 19.0602C96.835 19.0602 96.4086 18.6337 96.4086 18.1335V8.92318C96.4086 8.42289 96.835 7.99641 97.3353 7.99641C97.8356 7.99641 98.2621 8.42289 98.2621 8.92318V8.99289C98.9756 8.42289 99.9065 8.06612 100.903 7.99231C103.474 7.84878 105.689 9.84995 105.758 12.4211C105.828 12.4908 105.828 12.5646 105.828 12.6344V12.6385Z" fill="#1C1C1C"/>
<path d="M43.6319 4.71168V18.2811C43.6319 18.7813 43.2054 19.2078 42.7051 19.2078C42.2048 19.2078 41.7784 18.7813 41.7784 18.2811V12.1381H32.4943V18.2811C32.4943 18.7813 32.0678 19.2078 31.5675 19.2078C31.0672 19.2078 30.7104 18.7813 30.7104 18.2811V4.71168C30.7104 4.21139 31.1369 3.78491 31.6372 3.78491C32.1375 3.78491 32.564 4.21139 32.564 4.71168V10.6373H41.9178V4.71168C41.9178 4.21139 42.3443 3.78491 42.8446 3.78491C43.2013 3.85462 43.6319 4.21139 43.6319 4.71168Z" fill="#1C1C1C"/>
<path d="M82.4783 13.069V18.2114C82.4783 18.7117 82.0518 19.1381 81.5515 19.1381C81.0512 19.1381 80.6247 18.7117 80.6247 18.2114V12.3555C80.6247 10.9284 79.5544 9.78433 78.1274 9.78433C76.7003 9.78433 75.5562 10.8546 75.5562 12.2817V18.3508C75.5562 18.8511 75.1995 19.2776 74.6992 19.2776C74.1989 19.2776 73.7724 18.9208 73.7724 18.4205V12.3514C73.7724 10.9243 72.7021 9.78023 71.275 9.78023C69.848 9.78023 68.7039 10.8505 68.7039 12.2776V18.3467C68.7039 18.847 68.3471 19.2735 67.8468 19.2735C67.3465 19.2735 66.92 18.9167 66.92 18.4164V9.0626C66.92 8.56231 67.3465 8.13583 67.8468 8.13583C68.2733 8.13583 68.7039 8.49259 68.7736 8.92317C70.7009 7.56582 73.3418 7.92259 74.773 9.78023C76.2 7.85288 78.9844 7.49611 80.8421 8.99288C81.9124 9.84994 82.5562 11.1335 82.5562 12.4908L82.4865 13.0608L82.4783 13.069Z" fill="#1C1C1C"/>
<path d="M116.969 9.28405L110.827 22.5664C110.539 22.9928 109.969 23.1364 109.543 22.8534C109.186 22.6402 108.973 22.2096 109.117 21.7831L110.761 18.2114L106.689 9.28405C106.402 8.85757 106.545 8.28347 106.976 8.00052C107.402 7.71346 107.977 7.85699 108.259 8.28757C108.259 8.35728 108.329 8.43109 108.329 8.43109L111.827 15.9273L115.325 8.43109C115.469 7.9308 116.039 7.71756 116.469 7.86109C116.969 8.00462 117.183 8.57462 117.039 9.0052C117.039 9.21844 116.969 9.29225 116.969 9.29225V9.28405Z" fill="#1C1C1C"/>
<defs>
<linearGradient id="paint0_linear_1_302" x1="17.2354" y1="5.73694" x2="1.38195" y2="21.5904" gradientUnits="userSpaceOnUse">
<stop stop-color="#80E3A0"/>
<stop offset="1" stop-color="#61A7E1"/>
</linearGradient>
</defs>
</svg>
