<svg width="118" height="23" viewBox="0 0 118 23" fill="none" xmlns="http://www.w3.org/2000/svg">
<path d="M18.0679 0C15.3532 0 13.1388 2.2144 13.0691 4.9291V10.4282C12.5688 10.4282 12.0685 10.4979 11.4985 10.4979C10.9285 10.4979 10.4282 10.4979 9.92791 10.5676V4.925C9.92791 2.2144 7.63969 0 4.85528 0.0697127C2.2144 0.0697127 0.0697127 2.28412 0 4.9291V18.0679C0.0697127 20.7826 2.28412 22.997 5.06852 22.9232C7.78322 22.8535 9.92381 20.7088 9.92381 18.0679V12.5688C10.4241 12.5688 10.9244 12.4991 11.4944 12.4991C12.0644 12.4991 12.5647 12.4991 13.065 12.4294V17.9982C13.1347 20.7129 15.3491 22.9273 18.1335 22.8535C20.8482 22.7837 22.9888 20.6391 22.9888 17.9982V4.9291C22.9888 2.2144 20.7744 0 18.0597 0H18.0679ZM4.99881 2.00116C6.64321 2.00116 7.92674 3.2847 7.92674 4.9291V10.7152C6.49968 10.9285 5.06852 11.3591 3.71528 11.9291C3.14527 12.2161 2.57117 12.4991 2.07088 12.9297V4.9291C2.07088 3.35851 3.35441 2.00116 4.99881 2.00116ZM7.92674 18.0679C7.92674 19.7123 6.64321 20.9958 4.99881 20.9958C3.35441 20.9958 2.07088 19.7123 2.07088 18.0679V16.7844C2.07088 15.6402 2.99765 14.5002 4.56823 13.8564C5.63853 13.3561 6.78263 13.0691 7.99646 12.8558L7.92674 18.0679ZM18.0679 20.9958C16.4235 20.9958 15.14 19.7123 15.14 18.0679V12.2817C16.567 12.0685 17.9982 11.6379 19.3514 11.0679C19.9214 10.7809 20.4955 10.4979 20.9958 10.0673V18.0638C20.9958 19.7082 19.6385 20.9917 18.0679 20.9917V20.9958ZM18.4944 9.21028C17.4241 9.71057 16.28 9.99762 15.0661 10.2109V4.925C15.0661 3.2806 16.3497 1.99706 17.9941 1.99706C19.6385 1.99706 20.922 3.2806 20.922 4.925V6.20853C20.9917 7.42235 20.065 8.49265 18.4944 9.20618V9.21028Z" fill="url(#paint0_linear_4012_14406)"/>
<path d="M89.4043 7.92676C86.3329 7.92676 83.7617 10.4241 83.8355 13.5694C83.8355 16.6408 86.3329 19.212 89.4782 19.1382C92.5496 19.1382 95.047 16.6408 95.047 13.4956C95.047 10.3503 92.5496 7.92676 89.4043 7.92676ZM93.1893 13.5694C93.1893 15.6403 91.4752 17.3544 89.4043 17.3544C87.3335 17.3544 85.6194 15.6403 85.6194 13.5694C85.6194 11.4985 87.3335 9.7844 89.4043 9.7844C91.4752 9.7844 93.1893 11.4985 93.1893 13.5694Z" fill="white"/>
<path d="M55.7004 7.99645C55.2001 7.99645 54.7736 8.42292 54.7736 8.92321V9.4235C52.4895 7.35263 48.9177 7.49615 46.8468 9.78027C44.776 12.0644 44.9195 15.6361 47.2036 17.707C49.3442 19.7082 52.6289 19.7082 54.7736 17.707V18.2073C54.7736 18.7076 55.1304 19.1341 55.6306 19.1341C56.1309 19.1341 56.5574 18.7773 56.5574 18.277V8.92321C56.6271 8.42292 56.2006 7.99645 55.7004 7.99645ZM54.7695 13.5694C54.7695 15.6402 53.0554 17.3543 50.9845 17.3543C48.9136 17.3543 47.1995 15.6402 47.1995 13.5694C47.1995 11.4985 48.9136 9.78437 50.9845 9.78437C53.0554 9.78437 54.7695 11.4985 54.7695 13.5694Z" fill="white"/>
<path d="M65.485 8.85353C65.485 9.35382 65.0585 9.7803 64.5582 9.7803H64.4147C62.3438 9.7803 60.6297 11.4944 60.6297 13.5653C60.56 13.7785 60.6297 16.6367 60.6297 18.3509C60.56 18.8511 60.1294 19.2079 59.6291 19.1382C59.2027 19.0685 58.8418 18.6379 58.8418 18.2114V8.92734C58.8418 8.42705 59.2683 8.00057 59.7686 8.00057H59.8383C60.3386 8.07028 60.6953 8.42705 60.6953 8.92734V9.42763C61.6959 8.50086 63.0533 7.92676 64.4803 7.92676H64.6238C65.0503 7.92676 65.4809 8.35324 65.4809 8.85353H65.485Z" fill="white"/>
<path d="M105.828 12.6388V18.2076C105.828 18.7079 105.401 19.1343 104.901 19.1343C104.401 19.1343 103.974 18.7079 103.974 18.2076V12.6388C103.974 11.0682 102.691 9.78054 101.116 9.78054H100.903C99.4017 9.85025 98.2617 11.2076 98.2617 12.7085V18.1338C98.2617 18.6341 97.8353 19.0605 97.335 19.0605C96.8347 19.0605 96.4082 18.6341 96.4082 18.1338V8.92349C96.4082 8.42319 96.8347 7.99672 97.335 7.99672C97.8353 7.99672 98.2617 8.42319 98.2617 8.92349V8.9932C98.9753 8.42319 99.9061 8.06643 100.903 7.99262C103.474 7.84909 105.688 9.85025 105.758 12.4214C105.828 12.4911 105.828 12.5649 105.828 12.6347V12.6388Z" fill="white"/>
<path d="M43.6324 4.71193V18.2813C43.6324 18.7816 43.2059 19.2081 42.7056 19.2081C42.2053 19.2081 41.7788 18.7816 41.7788 18.2813V12.1384H32.4948V18.2813C32.4948 18.7816 32.0683 19.2081 31.568 19.2081C31.0677 19.2081 30.7109 18.7816 30.7109 18.2813V4.71193C30.7109 4.21163 31.1374 3.78516 31.6377 3.78516C32.138 3.78516 32.5645 4.21163 32.5645 4.71193V10.6375H41.9183V4.71193C41.9183 4.21163 42.3448 3.78516 42.845 3.78516C43.2018 3.85487 43.6324 4.21163 43.6324 4.71193Z" fill="white"/>
<path d="M82.4782 13.0691V18.2114C82.4782 18.7117 82.0517 19.1382 81.5514 19.1382C81.0511 19.1382 80.6246 18.7117 80.6246 18.2114V12.3556C80.6246 10.9285 79.5543 9.78439 78.1273 9.78439C76.7002 9.78439 75.5561 10.8547 75.5561 12.2817V18.3508C75.5561 18.8511 75.1993 19.2776 74.699 19.2776C74.1987 19.2776 73.7723 18.9208 73.7723 18.4206V12.3515C73.7723 10.9244 72.702 9.78029 71.2749 9.78029C69.8479 9.78029 68.7037 10.8506 68.7037 12.2776V18.3467C68.7037 18.847 68.347 19.2735 67.8467 19.2735C67.3464 19.2735 66.9199 18.9167 66.9199 18.4165V9.06266C66.9199 8.56237 67.3464 8.13589 67.8467 8.13589C68.2732 8.13589 68.7037 8.49265 68.7735 8.92323C70.7008 7.56589 73.3417 7.92265 74.7728 9.78029C76.1999 7.85294 78.9843 7.49617 80.842 8.99294C81.9123 9.85 82.5561 11.1335 82.5561 12.4909L82.4864 13.0609L82.4782 13.0691Z" fill="white"/>
<path d="M116.971 9.28423L110.828 22.5666C110.541 22.993 109.971 23.1366 109.544 22.8536C109.188 22.6404 108.974 22.2098 109.118 21.7833L110.762 18.2116L106.69 9.28423C106.403 8.85775 106.547 8.28365 106.977 8.0007C107.404 7.71365 107.978 7.85717 108.261 8.28775C108.261 8.35746 108.331 8.43128 108.331 8.43128L111.829 15.9274L115.327 8.43128C115.47 7.93099 116.04 7.71775 116.471 7.86127C116.971 8.0048 117.184 8.5748 117.041 9.00538C117.041 9.21862 116.971 9.29243 116.971 9.29243V9.28423Z" fill="white"/>
<defs>
<linearGradient id="paint0_linear_4012_14406" x1="17.2354" y1="5.73694" x2="1.38195" y2="21.5904" gradientUnits="userSpaceOnUse">
<stop stop-color="#80E3A0"/>
<stop offset="1" stop-color="#61A7E1"/>
</linearGradient>
</defs>
</svg>
