<svg width="92" height="28" viewBox="0 0 92 28" fill="none" xmlns="http://www.w3.org/2000/svg">
<path d="M18.1101 0V6.73949L24.0209 3.37584L18.1101 0Z" fill="#80F7B4"/>
<path opacity="0.9" d="M24.0212 3.37283V10.1093L29.932 6.73649L24.0212 3.37283Z" fill="#80F7B4"/>
<path opacity="0.8" d="M18.1101 6.7395V13.4759L24.0209 10.1123L18.1101 6.7395Z" fill="#80F7B4"/>
<path opacity="0.8" d="M24.0212 10.1123V16.8487L29.932 13.476L24.0212 10.1123Z" fill="#80F7B4"/>
<path opacity="0.8" d="M18.1101 13.4759V20.2123L24.0209 16.8487L18.1101 13.4759Z" fill="#80F7B4"/>
<path d="M24.0212 16.8487V23.5851L29.932 20.2123L24.0212 16.8487Z" fill="#80F7B4"/>
<path opacity="0.4" d="M2.83667 6.51096V13.2474L8.74744 9.87461L2.83667 6.51096Z" fill="#80F7B4"/>
<path opacity="0.2" d="M10.292 9.01544V15.7519L16.1936 12.3882L10.292 9.01544Z" fill="#80F7B4"/>
<path opacity="0.3" d="M5.91113 13.2778V20.0143L11.8219 16.6415L5.91113 13.2778Z" fill="#80F7B4"/>
<path opacity="0.9" d="M9.80493 18.363V25.0994L15.7035 21.7266L9.80493 18.363Z" fill="#80F7B4"/>
<path opacity="0.7" d="M18.0642 21.2635V28L23.9658 24.6272L18.0642 21.2635Z" fill="#80F7B4"/>
<path opacity="0.9" d="M11.2766 5.68829V12.4247L17.1782 9.06109L11.2766 5.68829Z" fill="#80F7B4"/>
<path opacity="0.8" d="M18.1102 0V6.73949L12.1995 3.37584L18.1102 0Z" fill="#80F7B4"/>
<path opacity="0.6" d="M11.2762 2.86395V9.6004L5.36548 6.22761L11.2762 2.86395Z" fill="#80F7B4"/>
<path opacity="0.6" d="M17.1874 6.2002V12.9366L11.2766 9.56385L17.1874 6.2002Z" fill="#80F7B4"/>
<path opacity="0.95" d="M10.2648 9.01544V15.7519L4.354 12.3882L10.2648 9.01544Z" fill="#80F7B4"/>
<path opacity="0.6" d="M18.1133 13.4759V20.2123L12.2117 16.8487L18.1133 13.4759Z" fill="#80F7B4"/>
<path opacity="0.55" d="M5.91077 15.045V21.7815L0 18.4087L5.91077 15.045Z" fill="#80F7B4"/>
<path d="M29.932 6.7395V13.4759L24.0212 10.1123L29.932 6.7395Z" fill="#80F7B4"/>
<path opacity="0.95" d="M24.0209 10.1123V16.8487L18.1101 13.476L24.0209 10.1123Z" fill="#80F7B4"/>
<path opacity="0.9" d="M29.932 13.4759V20.2123L24.0212 16.8487L29.932 13.4759Z" fill="#80F7B4"/>
<path opacity="0.7" d="M24.0209 16.8487V23.5851L18.1101 20.2123L24.0209 16.8487Z" fill="#80F7B4"/>
<path opacity="0.4" d="M16.8031 19.6548V26.3912L10.8923 23.0276L16.8031 19.6548Z" fill="#80F7B4"/>
<path d="M24.0209 3.37283V10.1093L18.1101 6.73649L24.0209 3.37283Z" fill="#80F7B4"/>
<path d="M38.3167 8.75336C38.5421 8.75336 38.6549 8.86609 38.6549 9.09155V19.1429C38.6549 19.3684 38.5421 19.4811 38.3167 19.4811H36.6623C36.4277 19.4811 36.3088 19.3684 36.3088 19.1429V9.09155C36.3088 8.86609 36.4277 8.75336 36.6623 8.75336H38.3167Z" fill="#80F7B4"/>
<path d="M48.493 11.0659C49.1785 11.0659 49.7543 11.1269 50.2235 11.2487C50.6927 11.3615 51.0675 11.5443 51.3417 11.8002C51.6281 12.0439 51.8322 12.3669 51.9541 12.766C52.076 13.153 52.1369 13.6252 52.1369 14.1767V16.3826C52.1369 16.934 52.076 17.4093 51.9541 17.8085C51.8322 18.1954 51.6281 18.5184 51.3417 18.7743C51.0644 19.018 50.6927 19.1978 50.2235 19.3105C49.7543 19.4233 49.1754 19.4781 48.493 19.4781H44.1574C43.4627 19.4781 42.8808 19.4233 42.4116 19.3105C41.9515 19.1978 41.5798 19.018 41.2934 18.7743C41.0161 18.5184 40.8181 18.1984 40.6962 17.8085C40.5744 17.4093 40.5134 16.934 40.5134 16.3826V14.1767C40.5134 13.6252 40.5744 13.156 40.6962 12.766C40.8181 12.3669 41.0192 12.047 41.2934 11.8002C41.5798 11.5443 41.9515 11.3615 42.4116 11.2487C42.8808 11.1269 43.4627 11.0659 44.1574 11.0659H48.493ZM42.701 16.0017C42.701 16.3277 42.7254 16.5989 42.7772 16.8152C42.829 17.0285 42.9143 17.2021 43.0362 17.3362C43.1702 17.4581 43.3439 17.5495 43.5572 17.6135C43.7704 17.6653 44.0416 17.6896 44.3707 17.6896H48.2766C48.6148 17.6896 48.889 17.6653 49.1054 17.6135C49.3186 17.5525 49.4893 17.4611 49.6111 17.3362C49.7452 17.2021 49.8366 17.0285 49.8884 16.8152C49.9402 16.6019 49.9646 16.3308 49.9646 16.0017V14.5453C49.9646 14.2285 49.9402 13.9634 49.8884 13.7501C49.8366 13.5369 49.7452 13.3632 49.6111 13.2291C49.4893 13.0951 49.3186 13.0037 49.1054 12.9519C48.8921 12.9001 48.6148 12.8757 48.2766 12.8757H44.3707C44.0447 12.8757 43.7735 12.9001 43.5572 12.9519C43.3439 13.0037 43.1702 13.0951 43.0362 13.2291C42.9143 13.3632 42.8259 13.5369 42.7772 13.7501C42.7254 13.9634 42.701 14.2315 42.701 14.5453V16.0017Z" fill="#80F7B4"/>
<path d="M65.6552 8.75336C65.8898 8.75336 66.0086 8.86609 66.0086 9.09155V10.5936C66.0086 10.8282 65.8898 10.947 65.6552 10.947H60.8443V19.1429C60.8443 19.3684 60.7316 19.4811 60.5061 19.4811H58.8365C58.611 19.4811 58.4983 19.3684 58.4983 19.1429V10.947H53.6874C53.4528 10.947 53.334 10.8282 53.334 10.5936V9.09155C53.334 8.86609 53.4528 8.75336 53.6874 8.75336H65.6521H65.6552Z" fill="#80F7B4"/>
<path d="M74.8228 11.0659C75.3438 11.0659 75.7734 11.1116 76.1085 11.203C76.4559 11.2853 76.727 11.4285 76.922 11.6326C77.1262 11.8276 77.2694 12.0866 77.3516 12.4126C77.4339 12.7295 77.4735 13.1164 77.4735 13.5765V15.0328C77.4735 15.3588 77.4034 15.5904 77.2602 15.7214C77.117 15.8433 76.8977 15.9042 76.6021 15.9042H68.8663V16.2729C68.8663 16.7543 68.9791 17.1016 69.2045 17.3149C69.4391 17.5282 69.8901 17.6378 70.5543 17.6378H76.9434C77.1262 17.6378 77.2206 17.7292 77.2206 17.9151V19.2008C77.2206 19.3836 77.1292 19.4781 76.9434 19.4781H70.341C69.6463 19.4781 69.0644 19.4233 68.5952 19.3105C68.1351 19.1978 67.7634 19.018 67.477 18.7743C67.1997 18.5184 67.0017 18.1984 66.8798 17.8085C66.758 17.4093 66.697 16.934 66.697 16.3826V14.1767C66.697 13.6252 66.758 13.156 66.8798 12.766C67.0017 12.3669 67.2028 12.047 67.477 11.8002C67.7634 11.5443 68.1351 11.3615 68.5952 11.2487C69.0644 11.1269 69.6463 11.0659 70.341 11.0659H74.8289H74.8228ZM68.8633 14.5453H75.0696C75.2433 14.5453 75.3286 14.46 75.3286 14.2864V13.6435C75.3286 13.3266 75.2615 13.1012 75.1305 12.9702C74.9995 12.8391 74.7527 12.7721 74.3962 12.7721H70.5512C69.887 12.7721 69.4391 12.8788 69.2015 13.0951C68.976 13.2992 68.8633 13.6465 68.8633 14.1371V14.5514V14.5453Z" fill="#80F7B4"/>
<path d="M91.096 8.75336C91.2392 8.75336 91.3154 8.80515 91.3245 8.9057C91.3458 8.9971 91.3184 9.07936 91.2483 9.14944L86.5441 13.9146L91.4616 19.0789C91.5317 19.149 91.5591 19.2373 91.5378 19.3379C91.5286 19.4293 91.4525 19.475 91.3093 19.475H89.21C89.0882 19.475 88.9907 19.4598 88.9175 19.4293C88.8444 19.3988 88.7804 19.344 88.7195 19.2617L84.9354 15.2948L81.136 19.2617C81.066 19.344 80.9928 19.3988 80.9228 19.4293C80.8618 19.4598 80.7643 19.475 80.6303 19.475H78.6377C78.5036 19.475 78.4275 19.4293 78.4092 19.3379C78.4 19.2343 78.4305 19.149 78.5006 19.0789L83.54 13.8384L78.9911 9.14944C78.9302 9.07936 78.9058 8.9971 78.9149 8.9057C78.9241 8.80211 79.0003 8.75336 79.1435 8.75336H81.2427C81.3646 8.75336 81.462 8.77468 81.5352 8.81429C81.6052 8.84476 81.6723 8.89656 81.7332 8.96663L85.0725 12.5222L88.6129 8.96663C88.6738 8.89656 88.7408 8.84476 88.8109 8.81429C88.881 8.77468 88.9785 8.75336 89.1034 8.75336H91.096Z" fill="#80F7B4"/>
</svg>
