<svg width="71" height="23" viewBox="0 0 71 23" fill="none" xmlns="http://www.w3.org/2000/svg">
<path d="M47.4173 7.3735H43.3377V22.204H47.4173V7.3735Z" fill="#BFF009"/>
<path d="M62.6826 7.22299C58.5026 7.22299 55.56 9.91489 55.0416 13.7437C54.6069 16.7366 55.8108 19.9635 58.419 21.5185C60.7431 22.9898 64.388 22.8895 66.3442 20.8497V22.204H70.3904V14.9476C70.3904 10.684 66.9294 7.22299 62.6659 7.22299H62.6826ZM62.6826 18.6928C60.6093 18.6928 58.9206 17.0041 58.9206 14.9308C58.9206 12.8576 60.6093 11.1689 62.6826 11.1689C64.7559 11.1689 66.4446 12.8576 66.4446 14.9308C66.4446 17.0041 64.7559 18.6928 62.6826 18.6928Z" fill="#BFF009"/>
<path d="M27.27 5.58446C27.27 4.68158 28.0056 3.96263 28.8918 3.96263H31.801V3.05176e-05H28.8918C25.8153 3.05176e-05 23.3074 2.50801 23.3074 5.58446C23.3074 8.66091 23.4746 7.15612 23.7922 7.84163C21.4013 8.86154 19.8129 11.0017 19.4284 13.727C18.9936 16.7199 20.1975 19.9468 22.8058 21.5017C25.1298 22.9731 28.7747 22.8728 30.731 20.8329V22.1873H34.7772V7.20628H28.8918C27.9889 7.20628 27.27 6.47061 27.27 5.58446ZM30.8313 11.1689V14.9308C30.8313 17.0041 29.1426 18.6928 27.0693 18.6928C24.9961 18.6928 23.3074 17.0041 23.3074 14.9308C23.3074 12.8576 24.9961 11.1689 27.0693 11.1689H30.8313Z" fill="#BFF009"/>
<path d="M45.3942 3.05176e-05C44.7421 3.05176e-05 44.1904 0.217388 43.7724 0.668824C43.3377 1.12026 43.1203 1.65529 43.1203 2.29065C43.1203 2.926 43.3377 3.49448 43.7724 3.92919C44.2071 4.36391 44.7421 4.58126 45.3942 4.58126C46.0463 4.58126 46.6147 4.36391 47.0327 3.92919C47.4507 3.49448 47.6681 2.94272 47.6681 2.29065C47.6681 1.63857 47.4507 1.12026 47.0327 0.668824C46.6147 0.217388 46.063 3.05176e-05 45.3942 3.05176e-05Z" fill="#BFF009"/>
<path d="M10.0319 7.37345L4.89891 12.8743H4.01276V0H0V22.1872H4.01276V16.6864H4.89891L10.0319 22.1872H14.9475L8.0088 14.7803L14.9475 7.37345H10.0319Z" fill="#BFF009"/>
</svg>
