<svg width="62" height="19" viewBox="0 0 62 19" fill="none" xmlns="http://www.w3.org/2000/svg">
<path d="M44.1701 3.12256H47.6724L41.5743 18.2197H37.5312L31.4331 3.12256H34.9354L39.5399 14.5814L44.1701 3.12256Z" fill="#FF232F"/>
<path d="M3.18811 0H0V18.2223H3.18811V0Z" fill="#FF232F"/>
<path d="M11.9181 18.2248L4.92386 9.1111L11.9181 0.00250244H15.92L9.0236 9.1111L15.92 18.2248H11.9181Z" fill="#FF232F"/>
<path d="M23.558 2.72229C20.0661 2.72229 17.4342 4.64664 17.2436 7.50494L17.223 7.8385H20.3545L20.406 7.59218C20.6944 6.2477 21.7966 5.50875 23.5014 5.50875C25.3555 5.50875 26.4165 6.43757 26.4165 8.05916V8.99311L22.4919 9.21377C18.9587 9.41903 16.8213 11.1433 16.8213 13.8219C16.8213 16.6443 18.9484 18.543 22.0747 18.543C23.9392 18.543 25.2989 18.035 26.4062 16.906V18.2916H29.584V7.8231C29.5789 4.72361 27.1788 2.72229 23.558 2.72229ZM26.4165 11.4511V12.3902C26.2105 14.4377 24.789 15.7258 22.6052 15.8335C21.7657 15.8746 21.0395 15.6488 20.5605 15.1972C20.1845 14.8431 19.9888 14.371 19.9888 13.8322C19.9888 12.6314 21.0189 11.8719 22.8164 11.759L26.4165 11.4511Z" fill="#FF232F"/>
<path d="M55.7844 2.72229C52.2924 2.72229 49.6605 4.64664 49.47 7.50494L49.4494 7.8385H52.5808L52.6323 7.59218C52.9208 6.2477 54.0229 5.50875 55.7277 5.50875C57.5819 5.50875 58.6429 6.43757 58.6429 8.05916V8.99311L54.7183 9.21377C51.1851 9.41903 49.0476 11.1433 49.0476 13.8219C49.0476 16.6443 51.1748 18.543 54.3011 18.543C56.1655 18.543 57.5252 18.035 58.6326 16.906V18.2916H61.8104V7.8231C61.8052 4.72361 59.4051 2.72229 55.7844 2.72229ZM58.6429 11.4511V12.3902C58.4369 14.4377 57.0153 15.7258 54.8316 15.8335C53.992 15.8746 53.2658 15.6488 52.7868 15.1972C52.4109 14.8431 52.2151 14.371 52.2151 13.8322C52.2151 12.6314 53.2452 11.8719 55.0427 11.759L58.6429 11.4511Z" fill="#FF232F"/>
</svg>
