<svg width="72" height="24" viewBox="0 0 72 24" fill="none" xmlns="http://www.w3.org/2000/svg">
<path d="M25.3853 10.2378L24.6649 9.03254L20.7249 2.41051H20.7083L20.5836 2.17776H19.1456L13.5487 12.0194L19.2342 21.8084H20.6723L20.7083 21.7557L25.4047 13.7123H22.5092L20.0073 18.1565L16.4441 12.0028L19.9352 5.84898L22.4732 10.2212L25.388 10.2378H25.3853Z" fill="#41E3AC"/>
<path d="M3.49111 8.63635L6.11776 4.15609L5.23667 2.73471L4.62434 1.72616L0.124683 9.66152L0 9.87764L0.720389 11.1383H12.036L17.741 1.36874L16.9485 0L9.03257 0.0166244H8.90788L7.6472 0L8.31218 1.26068L8.97715 2.52136L14.1584 2.50474L10.5953 8.63912H3.49111V8.63635Z" fill="#41E3AC"/>
<path d="M9.08525 3.45508C8.88852 3.45508 8.67241 3.4911 8.45629 3.56314C8.22355 3.63518 7.98804 3.74323 7.77192 3.86792C7.15959 4.24473 6.72736 4.78503 6.65532 5.2893C6.6193 5.52204 6.67194 5.72153 6.7994 5.86561C6.81602 5.90163 6.85204 5.91825 6.87144 5.95427C6.88806 5.9709 6.90746 5.9709 6.92408 5.99029C6.93516 6.00137 6.94717 6.01338 6.9601 6.02631C6.99612 6.04294 7.01274 6.06233 7.04876 6.07895C7.42558 6.25905 8.02129 6.22303 8.59483 5.95427L8.61145 5.93765C8.6641 5.92102 8.71951 5.885 8.77215 5.86561C8.8248 5.84898 8.86082 5.81297 8.91623 5.77695C8.96888 5.74093 9.02429 5.70491 9.07693 5.66889C9.12958 5.63287 9.1656 5.59685 9.22101 5.56083L9.25703 5.5442C9.29305 5.50819 9.32907 5.49156 9.36509 5.45554C9.37617 5.44446 9.38818 5.43245 9.40111 5.41952C9.43713 5.4029 9.45375 5.36688 9.47315 5.34748C9.48977 5.33086 9.50917 5.31146 9.52579 5.27544C9.54242 5.23943 9.57843 5.2228 9.59783 5.18678L9.63385 5.15076C9.65047 5.11474 9.68649 5.09812 9.70589 5.0621L9.74191 5.02608C9.75853 4.99006 9.77793 4.97344 9.79455 4.93742V4.92079L9.81118 4.88477C9.8472 4.84875 9.86382 4.79611 9.88321 4.76009C9.90261 4.72407 9.91923 4.67143 9.93586 4.63541L9.95248 4.61878C9.95248 4.60216 9.96911 4.58276 9.96911 4.58276C9.96911 4.57168 9.97465 4.55967 9.98573 4.54674C9.98573 4.51072 10.0024 4.4941 10.0024 4.45808C10.0024 4.42206 10.019 4.42206 10.019 4.40544V4.04524C10.019 4.00922 10.0024 3.9926 9.98296 3.95658C9.96634 3.92056 9.94694 3.90394 9.93032 3.86792C9.80563 3.59916 9.46206 3.4717 9.06585 3.4717L9.08525 3.45508Z" fill="#41E3AC"/>
<path d="M10.3985 4.76839C10.3985 4.80441 10.3818 4.82103 10.3624 4.85705C10.3624 4.86813 10.3569 4.88014 10.3458 4.89307C10.3292 4.94571 10.3098 4.98173 10.2738 5.03715C10.077 5.41397 9.75287 5.77416 9.35666 6.06232C9.30401 6.09834 9.2486 6.13436 9.19596 6.17038C9.14331 6.2064 9.0879 6.24241 9.03525 6.25904H9.01863C9.002 6.27566 8.98261 6.27566 8.96599 6.29506C8.92997 6.31168 8.91334 6.33108 8.87732 6.3477H8.8607C8.84407 6.3477 8.82468 6.36433 8.80805 6.36433C8.77204 6.38095 8.73602 6.40035 8.7 6.40035L8.66398 6.41697H8.64735C8.63073 6.41697 8.61133 6.43359 8.59471 6.43359C8.55869 6.45022 8.52267 6.45022 8.48665 6.46961L8.45063 6.48624H8.43401C8.39799 6.50286 8.36197 6.50286 8.32595 6.52226C8.30932 6.52226 8.28993 6.53888 8.25391 6.53888H8.23728C8.20127 6.53888 8.16525 6.55551 8.14862 6.55551C8.132 6.55551 8.09598 6.55551 8.07658 6.57213H8.05996C8.04333 6.57213 8.02394 6.57213 8.00731 6.58876H7.95467C7.90203 6.58876 7.82999 6.60538 7.77457 6.60538H7.54183C7.50581 6.60538 7.46979 6.60538 7.43377 6.58876C7.41715 6.58876 7.39775 6.58875 7.38113 6.57213C7.34511 6.57213 7.30909 6.55551 7.27307 6.55551C7.25645 6.55551 7.23705 6.53888 7.22043 6.53888L8.20958 8.14036L10.332 8.12374L11.4292 6.18146L10.44 4.56335C10.44 4.57998 10.44 4.59937 10.4234 4.616V4.65202C10.4234 4.66864 10.4068 4.68804 10.4068 4.72406C10.4234 4.74068 10.4234 4.76008 10.4234 4.76008L10.3985 4.76839Z" fill="#41E3AC"/>
<path d="M21.6807 10.6146C21.7888 10.7753 21.8608 10.9748 21.9135 11.2076C21.9661 11.4403 22.0021 11.6924 22.0021 11.9446C22.0021 12.665 21.7694 13.3133 21.3732 13.6347C21.1931 13.7788 20.9964 13.8508 20.7969 13.8148C20.7608 13.8148 20.7248 13.7982 20.6888 13.7982C20.6722 13.7982 20.6528 13.7816 20.6362 13.7816C20.6195 13.7816 20.6001 13.7649 20.5835 13.7649C20.5475 13.7483 20.5115 13.7289 20.4949 13.7123C20.1347 13.4796 19.8659 12.9559 19.7939 12.3269V12.3103C19.7939 12.2577 19.7772 12.2023 19.7772 12.1302V11.77C19.7772 11.7174 19.7772 11.662 19.7939 11.6093V11.5733C19.7939 11.5373 19.8105 11.4846 19.8105 11.4486V11.396C19.8105 11.36 19.8271 11.3239 19.8271 11.2879C19.8271 11.2519 19.8437 11.2353 19.8437 11.1992C19.8604 11.1632 19.8604 11.1272 19.8798 11.0912C19.8798 11.0746 19.8964 11.0552 19.8964 11.0385C19.913 11.0025 19.913 10.9665 19.9324 10.9305L19.949 10.8778C19.9656 10.8418 19.985 10.8252 19.985 10.7892V10.7726L20.0017 10.7365C20.0183 10.6839 20.0543 10.6479 20.0737 10.6119C20.0903 10.5758 20.1263 10.5398 20.1457 10.5038L20.1624 10.4872C20.1735 10.4761 20.1855 10.4641 20.1984 10.4512C20.2095 10.4401 20.215 10.4281 20.215 10.4151L20.2677 10.3625L20.3037 10.3265L20.3397 10.2905L20.3923 10.2378L20.4284 10.2212C20.445 10.2046 20.481 10.1852 20.5004 10.1685C20.5115 10.1685 20.5235 10.163 20.5364 10.1519C20.553 10.1519 20.5724 10.1353 20.5724 10.1353C20.5724 10.1353 20.5891 10.1353 20.5891 10.1187H20.6057C20.6417 10.1187 20.6583 10.102 20.6943 10.102H20.8024C21.1792 10.0854 21.4508 10.2988 21.6669 10.6423L21.6807 10.6146Z" fill="#41E3AC"/>
<path d="M19.8632 10.1824C19.8466 10.199 19.8272 10.2351 19.8105 10.2544C19.8105 10.2711 19.7939 10.2711 19.7939 10.2905C19.7579 10.3265 19.7413 10.3791 19.7052 10.4151C19.4725 10.7753 19.3451 11.2436 19.309 11.7285V12.1247V12.1967C19.309 12.2327 19.309 12.2688 19.3257 12.3048V12.3768C19.3257 12.4128 19.3423 12.4489 19.3423 12.4849V12.5375C19.3423 12.5541 19.3423 12.5735 19.3589 12.5902C19.3589 12.6262 19.3755 12.6622 19.3755 12.6982L19.3922 12.7342V12.7509C19.3922 12.7869 19.4088 12.8229 19.4282 12.8589C19.4282 12.8756 19.4448 12.8949 19.4448 12.9116V12.9282C19.4614 12.9642 19.4614 12.9808 19.4808 13.0169C19.4808 13.0335 19.4974 13.0529 19.5168 13.0889V13.1055C19.5168 13.1221 19.5335 13.1415 19.5335 13.1582C19.5501 13.1748 19.5501 13.1942 19.5501 13.1942C19.5667 13.2468 19.6027 13.3022 19.6387 13.3549L19.6554 13.3715C19.6914 13.4242 19.708 13.4602 19.744 13.4962C19.744 13.5128 19.7607 13.5128 19.7607 13.5322L19.7773 13.5488C19.7939 13.5849 19.8299 13.6015 19.8493 13.6375C19.8659 13.6541 19.8659 13.6735 19.8853 13.6735C19.9214 13.7095 19.938 13.7262 19.9574 13.7622C19.974 13.7788 19.9934 13.7788 19.9934 13.7982H18.1038L17.0066 11.9806L18.0871 10.0383H19.9768C19.9657 10.0494 19.9537 10.0614 19.9408 10.0743L19.9241 10.091C19.9075 10.1076 19.8881 10.127 19.8521 10.163L19.8632 10.1824Z" fill="#41E3AC"/>
<path d="M9.08525 20.5283C8.88852 20.5283 8.67241 20.4923 8.45629 20.4202C8.22355 20.3482 7.98804 20.2401 7.77192 20.1155C7.15959 19.7386 6.72736 19.1983 6.65532 18.6941C6.6193 18.4613 6.67194 18.2618 6.7994 18.1178C6.81602 18.0817 6.85204 18.0651 6.87144 18.0291C6.88806 18.0125 6.90746 18.0125 6.92408 17.9931C6.93516 17.982 6.94717 17.97 6.9601 17.9571C6.99612 17.9404 7.01274 17.921 7.04876 17.9044C7.42558 17.7243 8.02129 17.7603 8.59483 18.0291L8.61145 18.0457C8.6641 18.0623 8.71951 18.0984 8.77215 18.1178C8.8248 18.1372 8.86082 18.1704 8.91623 18.2064C8.96888 18.2424 9.02429 18.2785 9.07693 18.3145C9.12958 18.3505 9.1656 18.3865 9.22101 18.4225L9.25703 18.4392C9.29305 18.4752 9.32907 18.4918 9.36509 18.5278C9.37617 18.5389 9.38818 18.5509 9.40111 18.5638C9.43713 18.5805 9.45375 18.6165 9.47315 18.6359C9.48977 18.6525 9.50917 18.6719 9.52579 18.7079C9.54242 18.7439 9.57843 18.7606 9.59783 18.7966L9.63385 18.8326C9.65047 18.8686 9.68649 18.8853 9.70589 18.9213L9.74191 18.9573C9.75853 18.9933 9.77793 19.0099 9.79455 19.046V19.0626L9.81118 19.0986C9.8472 19.1346 9.86382 19.1873 9.88321 19.2233C9.89984 19.2593 9.91923 19.3119 9.93586 19.348L9.95248 19.3646C9.95248 19.3812 9.96911 19.4006 9.96911 19.4006C9.96911 19.4117 9.97465 19.4237 9.98573 19.4366C9.98573 19.4726 10.0024 19.4893 10.0024 19.5253C10.0024 19.5613 10.019 19.5613 10.019 19.5779V19.9381C10.019 19.9741 10.0024 19.9908 9.98296 20.0268C9.96634 20.0628 9.94694 20.0794 9.93032 20.1155C9.80563 20.3842 9.46206 20.5283 9.06585 20.5117L9.08525 20.5283Z" fill="#41E3AC"/>
<path d="M10.3985 19.215C10.3985 19.1789 10.3818 19.1623 10.3624 19.1263C10.3624 19.1152 10.3569 19.1032 10.3458 19.0903C10.3292 19.0376 10.3098 19.0016 10.2738 18.9462C10.077 18.5694 9.75287 18.2092 9.35666 17.921C9.30401 17.885 9.2486 17.849 9.19596 17.813C9.14331 17.777 9.0879 17.7409 9.03525 17.7243H9.01863C9.002 17.7077 8.98261 17.7077 8.96599 17.6883C8.92997 17.6717 8.91334 17.6523 8.87732 17.6356H8.8607C8.84407 17.6356 8.82468 17.619 8.80805 17.619C8.77204 17.6024 8.73602 17.583 8.7 17.583L8.66398 17.5664H8.64735C8.63073 17.5664 8.61133 17.5498 8.59471 17.5498C8.55869 17.5331 8.52267 17.5331 8.48665 17.5137L8.45063 17.4971H8.43401C8.39799 17.4805 8.36197 17.4805 8.32595 17.4611C8.30932 17.4611 8.28993 17.4445 8.25391 17.4445H8.23728C8.20127 17.4445 8.16525 17.4278 8.14862 17.4278C8.132 17.4278 8.09598 17.4278 8.07658 17.4112H8.05996C8.04333 17.4112 8.02394 17.4112 8.00731 17.3946H7.95467C7.90203 17.3946 7.82999 17.378 7.77457 17.378H7.54183C7.50581 17.378 7.46979 17.378 7.43377 17.3946C7.41715 17.3946 7.39775 17.3946 7.38113 17.4112C7.34511 17.4112 7.30909 17.4278 7.27307 17.4278C7.25645 17.4278 7.23705 17.4445 7.22043 17.4445L8.20958 15.843L10.332 15.8596L11.4292 17.8019L10.44 19.42C10.44 19.4034 10.44 19.384 10.4234 19.3674V19.3313C10.4234 19.3147 10.4068 19.2953 10.4068 19.2593C10.4234 19.2427 10.4234 19.2233 10.4234 19.2233L10.3985 19.215Z" fill="#41E3AC"/>
<path d="M14.1584 21.4814L8.97715 21.4648L8.18472 22.9582L7.64443 23.9834L9.02979 23.9668V23.9834L16.9458 24L17.7382 22.6313L12.036 12.8617L0.720389 12.8451L0 14.1057L0.144078 14.3385H0.127453L4.62434 22.2544L6.11776 19.8245L3.49111 15.3637H10.598L14.1612 21.4814H14.1584Z" fill="#41E3AC"/>
<path d="M49.388 12C49.388 11.299 49.388 10.7033 49.424 10.2378C49.4407 9.76955 49.4767 9.39273 49.5321 9.08518C49.7482 7.80787 50.7207 7.07086 51.962 7.07086C52.7711 7.07086 53.5081 7.37564 53.9763 8.06001C54.1731 8.36479 54.3365 8.70836 54.4252 9.10457C54.4418 9.14059 54.4612 9.15722 54.5139 9.15722H57.304C57.34 9.15722 57.3566 9.1212 57.3566 9.08518C57.0518 7.35902 56.132 5.79356 54.4972 5.03715C53.7408 4.67695 52.8958 4.49686 51.9426 4.49686C50.3605 4.49686 49.0472 5.03715 47.9666 6.11496C47.3543 6.72729 46.9415 7.4837 46.7614 8.32877C46.6007 9.15722 46.5092 10.3791 46.5092 12C46.5092 13.6209 46.5979 14.8427 46.7614 15.6712C46.9221 16.5357 47.3543 17.2727 47.9666 17.885C49.0472 18.9656 50.3772 19.5031 51.9426 19.5031C52.8958 19.5031 53.7408 19.323 54.4972 18.9628C56.1347 18.1898 57.0518 16.6409 57.3566 14.9148C57.3566 14.8788 57.3566 14.8427 57.304 14.8427H54.5139C54.4612 14.8427 54.4418 14.8594 54.4252 14.8954C54.3171 15.2916 54.1731 15.6324 53.9763 15.94C53.5081 16.6243 52.7711 16.9291 51.962 16.9291C50.7207 16.9291 49.7482 16.1727 49.5321 14.9148C49.4795 14.6266 49.4434 14.2304 49.424 13.7622C49.388 13.2939 49.388 12.701 49.388 12Z" fill="#41E3AC"/>
<path d="M63.9981 12C63.9981 11.299 63.9981 10.7033 64.0341 10.2378C64.0507 9.76955 64.0867 9.39273 64.1422 9.08518C64.3583 7.80787 65.3308 7.07086 66.5721 7.07086C67.3811 7.07086 68.1181 7.37564 68.5864 8.06001C68.7831 8.36479 68.9466 8.70836 69.0353 9.10457C69.0519 9.14059 69.0713 9.15722 69.1239 9.15722H71.914C71.9501 9.15722 71.9667 9.1212 71.9667 9.08518C71.6619 7.35902 70.742 5.79356 69.1073 5.03715C68.3509 4.67695 67.5058 4.49686 66.5527 4.49686C64.9706 4.49686 63.6573 5.03715 62.5767 6.11496C61.9644 6.72729 61.5515 7.4837 61.3714 8.32877C61.2107 9.15722 61.1193 10.3791 61.1193 12C61.1193 13.6209 61.208 14.8427 61.3714 15.6712C61.5321 16.5357 61.9644 17.2727 62.5767 17.885C63.6573 18.9656 64.9872 19.5031 66.5527 19.5031C67.5058 19.5031 68.3509 19.323 69.1073 18.9628C70.7448 18.1898 71.6619 16.6409 71.9667 14.9148C71.9667 14.8788 71.9667 14.8427 71.914 14.8427H69.1239C69.0713 14.8427 69.0519 14.8594 69.0353 14.8954C68.9272 15.2916 68.7831 15.6324 68.5864 15.94C68.1181 16.6243 67.3811 16.9291 66.5721 16.9291C65.3308 16.9291 64.3583 16.1727 64.1422 14.9148C64.0895 14.6266 64.0535 14.2304 64.0341 13.7622C64.0175 13.2939 63.9981 12.701 63.9981 12Z" fill="#41E3AC"/>
<path d="M34.2737 4.87643C34.2737 4.73236 34.1657 4.6243 34.0216 4.6243H31.6471C31.503 4.6243 31.395 4.73236 31.395 4.87643V19.1263C31.395 19.2704 31.503 19.3784 31.6471 19.3784H34.0216C34.1657 19.3784 34.2737 19.2704 34.2737 19.1263V14.9508L36.18 12.6649L40.1034 19.3036C40.1394 19.3562 40.1754 19.3756 40.2474 19.3756H43.1262C43.2509 19.3756 43.2869 19.287 43.2149 19.1789L38.0863 10.4899L42.7826 4.85981C42.8713 4.75175 42.8353 4.64369 42.694 4.64369H39.5464C39.4938 4.64369 39.4744 4.66032 39.4578 4.69634L34.2931 10.9028V4.87643H34.2765H34.2737Z" fill="#41E3AC"/>
</svg>
