<svg width="74" height="22" viewBox="0 0 74 22" fill="none" xmlns="http://www.w3.org/2000/svg">
<path d="M19.2538 20.9037H16.2025V6.04913H19.2538V20.9037Z" fill="#ffffff"/>
<path d="M30.2857 5.75406C31.969 5.75406 33.3505 6.34422 34.4168 7.52453C35.4831 8.70485 36.0129 10.2071 36.0129 12.0312V20.897H32.9616V12.4939C32.9616 11.3538 32.5927 10.4083 31.855 9.65715C31.1173 8.91274 30.2052 8.53719 29.1255 8.53719C27.905 8.53719 26.9057 8.91274 26.1345 9.65715C25.3566 10.4015 24.9743 11.3471 24.9743 12.4939V20.897H21.9229V6.04914H24.9743V9.88516C25.3834 8.60425 26.054 7.5983 26.9929 6.8606C27.9318 6.12291 29.0316 5.75406 30.2924 5.75406H30.2857Z" fill="#ffffff"/>
<path d="M45.5292 5.75406C47.91 5.75406 49.8481 6.60576 51.3436 8.30917C52.8324 10.0126 53.4494 12.0781 53.1745 14.4991H40.8817C41.0963 15.6996 41.6463 16.672 42.5382 17.4231C43.4301 18.1675 44.5032 18.543 45.7639 18.543C46.7297 18.543 47.6015 18.3083 48.366 17.8322C49.1305 17.356 49.7274 16.7122 50.1566 15.9007L52.7117 17.0341C52.0545 18.2949 51.1156 19.3009 49.8951 20.0587C48.6745 20.8165 47.2662 21.192 45.6768 21.192C43.4503 21.192 41.5792 20.4543 40.0636 18.9857C38.5546 17.517 37.7968 15.6794 37.7968 13.4932C37.7968 11.3069 38.5412 9.46937 40.0233 7.98056C41.5054 6.49846 43.343 5.75406 45.5359 5.75406H45.5292ZM45.5292 8.40306C44.4026 8.40306 43.4301 8.74508 42.6053 9.43584C41.7804 10.1266 41.2305 11.0185 40.9622 12.1251H50.0895C49.8347 11.0185 49.2982 10.1266 48.4733 9.43584C47.6484 8.74508 46.6626 8.40306 45.5225 8.40306H45.5292Z" fill="#ffffff"/>
<path d="M61.611 5.75406C63.3949 5.75406 64.8502 6.2168 65.9701 7.14898C67.0968 8.08116 67.6601 9.41572 67.6601 11.1594V20.897H64.6087V16.9469C63.6967 19.777 61.8659 21.192 59.1163 21.192C57.8353 21.192 56.769 20.8098 55.9173 20.0453C55.0656 19.2807 54.6364 18.2748 54.6364 17.0341C54.6364 15.5788 55.1461 14.4924 56.1789 13.7614C57.2049 13.0371 58.5127 12.5811 60.1021 12.4067L62.9791 12.1184C64.0655 12.0245 64.6087 11.5349 64.6087 10.6631C64.6087 9.94552 64.3338 9.37548 63.7772 8.94627C63.2272 8.51707 62.503 8.30917 61.611 8.30917C60.7191 8.30917 59.9277 8.54389 59.2973 9.00663C58.6669 9.46937 58.2645 10.1467 58.0902 11.0387L55.0656 10.3144C55.3339 8.91945 56.0649 7.8129 57.2452 6.98802C58.4255 6.16315 59.8808 5.75406 61.6043 5.75406H61.611ZM60.1021 18.7174C61.3629 18.7174 62.4292 18.2949 63.301 17.4499C64.1728 16.6049 64.6087 15.6258 64.6087 14.4991V13.6877C64.374 14.0766 63.8107 14.318 62.9255 14.4119L60.1088 14.7607C59.3711 14.8613 58.7876 15.0759 58.3517 15.4112C57.9158 15.7532 57.7012 16.2092 57.7012 16.7927C57.7012 17.3761 57.9158 17.8389 58.3517 18.1876C58.7876 18.5363 59.3711 18.7107 60.1088 18.7107L60.1021 18.7174Z" fill="#ffffff"/>
<path d="M14.0967 20.9037H-6.10352e-05V6.04913H3.22569V18.0266H14.0967V20.9037Z" fill="#ffffff"/>
<path d="M70.5372 5.75403C72.1266 5.75403 73.4143 4.46642 73.4143 2.87702C73.4143 1.28762 72.1266 0 70.5372 0C68.9478 0 67.6602 1.28762 67.6602 2.87702C67.6602 4.46642 68.9478 5.75403 70.5372 5.75403Z" fill="#ffffff"/>
</svg>
