<svg width="102" height="30" viewBox="0 0 102 30" fill="none" xmlns="http://www.w3.org/2000/svg">
<path fill-rule="evenodd" clip-rule="evenodd" d="M6.975 25.7625C3.69375 23.3156 1.575 19.4062 1.575 15C1.58437 7.58438 7.59375 1.575 15.0094 1.575C21.1312 1.575 27.8156 5.23125 29.4281 10.8281C27.6281 4.575 21.8531 0 15.0094 0C6.72187 0 0 6.7125 0 15C0 23.2875 6.72187 30 15.0094 30C23.2969 30 30.0187 23.2875 30.0187 15V14.2125H29.1937C29.1937 14.2125 29.1281 14.2125 29.0812 14.2125C28.9875 14.2125 28.8469 14.2125 28.6687 14.2031C28.3125 14.1937 27.825 14.1656 27.2719 14.1188C26.1469 14.025 24.8625 13.8281 23.9906 13.4812C22.5844 12.9187 21.7875 12.1781 20.8781 11.3063L20.8219 11.2594C19.9125 10.3875 18.8906 9.40313 17.1187 8.56875C15.375 7.74375 13.4437 7.88438 12.0281 8.175C11.3062 8.325 10.6875 8.52188 10.2562 8.67188C10.0406 8.74687 9.8625 8.82188 9.74062 8.87813C9.02812 9.17813 8.33437 9.53438 7.63125 9.8625C7.63125 9.8625 9.00937 10.2375 9.68437 10.4531C9.7125 10.4531 9.75 10.4719 9.79687 10.4906C9.9 10.5281 10.0406 10.575 10.2187 10.65C10.575 10.7906 11.0437 11.0156 11.5125 11.3156C12.2437 11.7844 12.8531 12.375 13.1062 13.1062C11.55 13.3125 10.0875 13.9969 9 14.6344C8.33437 15.0187 7.79062 15.4125 7.40625 15.7031C7.20937 15.8531 7.05937 15.975 6.95625 16.0594C6.87187 16.1344 5.46562 17.3719 5.46562 17.3719C5.46562 17.3719 7.275 17.5688 8.175 17.7469C8.76562 17.8687 9.57187 18.0562 10.4062 18.3469C11.25 18.6375 12.0937 19.0219 12.7969 19.5187C13.5 20.0156 14.0156 20.5781 14.2781 21.2344C15.0187 23.1281 14.2875 24.9844 12.825 26.025C11.3812 27.0562 9.17812 27.3 6.98437 25.7906L6.975 25.7625ZM12.1031 28.1062C12.6937 27.9187 13.2469 27.6375 13.7437 27.2812C15.7312 25.8656 16.7812 23.2781 15.75 20.6344C15.3469 19.5938 14.5687 18.8062 13.7062 18.2062C12.8437 17.6063 11.85 17.1656 10.9312 16.8375C10.3219 16.6312 9.74062 16.4625 9.23437 16.3406C9.4125 16.2188 9.60937 16.0969 9.81562 15.975C11.0344 15.2625 12.5625 14.6062 14.0344 14.6062C16.2469 14.6062 17.8969 15.2812 19.4719 16.0125C19.6125 16.0781 19.7625 16.1438 19.9031 16.2094C21.3094 16.8656 22.7906 17.5594 24.5062 17.5594C26.2219 17.5594 27.4687 17.0906 28.3594 16.6031C27.5625 23.2594 21.9 28.4156 15.0281 28.4156C14.025 28.4156 13.0594 28.3031 12.1219 28.0969L12.1031 28.1062ZM26.6344 15.6375C26.0437 15.8438 25.3219 15.9844 24.4875 15.9844C23.1375 15.9844 21.9844 15.45 20.5125 14.7656C20.3812 14.7094 20.25 14.6438 20.1187 14.5781C18.6469 13.8938 16.95 13.1719 14.7281 13.05C14.4281 11.5875 13.3219 10.5844 12.3656 9.975C12.2625 9.90938 12.15 9.84375 12.0469 9.77813C12.1406 9.75938 12.2437 9.73125 12.3375 9.7125C13.6125 9.45 15.1406 9.38437 16.4344 9.99375C17.9719 10.7156 18.8344 11.55 19.7344 12.4125L19.7625 12.4406C20.6906 13.3313 21.6656 14.2594 23.3812 14.9437C24.3281 15.3187 25.5656 15.525 26.6156 15.6375H26.6344Z" fill="url(#paint0_linear_1_334)"/>
<path d="M39.9184 21.4286V8.57141H42.3831L44.5184 13.7279L46.6537 8.57141H49.1183V21.4286H47.1875V11.5472L44.507 17.919L41.8266 11.5472V21.4286H39.9298H39.9184Z" fill="black"/>
<path d="M52.0151 21.4286L56.0586 8.57141H58.6709L62.7143 21.4286H60.4768L59.5454 18.3278H55.1158L54.1959 21.4286H52.0265H52.0151ZM55.5929 16.6242H59.0457L57.3193 10.9111L55.5929 16.6242Z" fill="black"/>
<path d="M65.8488 21.4286V8.57141H68.0749L72.7203 17.5669L72.6862 8.57141H74.5603V21.4286H72.5272L67.7001 12.1378L67.7342 21.4286H65.8601H65.8488Z" fill="black"/>
<path d="M81.9426 21.4286V10.4455H77.9559V8.57141H88.1326V10.4455H84.146V21.4286H81.9426Z" fill="black"/>
<path d="M90.552 21.4286L94.5954 8.57141H97.2078L101.251 21.4286H99.0137L98.0823 18.3278H93.6527L92.7327 21.4286H90.5634H90.552ZM94.1298 16.6242H97.5826L95.8562 10.9111L94.1298 16.6242Z" fill="black"/>
<defs>
<linearGradient id="paint0_linear_1_334" x1="-0.271875" y1="15.2812" x2="30.2906" y2="14.7187" gradientUnits="userSpaceOnUse">
<stop stop-color="#29CCB9"/>
<stop offset="0.49" stop-color="#0091FF"/>
<stop offset="1" stop-color="#FF66B7"/>
</linearGradient>
</defs>
</svg>
