<svg width="113" height="24" viewBox="0 0 113 24" fill="none" xmlns="http://www.w3.org/2000/svg">
<path d="M24.5835 12.0361C24.44 5.18875 18.7341 -0.227778 11.8687 0.00737667C5.16669 0.23456 -0.136771 5.84638 0.00268852 12.5622C0.106287 17.5164 3.13854 21.7333 7.40203 23.5826C8.00768 22.8134 8.51372 21.4343 8.76076 20.6611C9.0078 20.0354 9.27477 19.4176 9.55369 18.8197C10.7969 19.2502 12.4744 18.8397 13.3988 17.8432L13.4386 17.8034C12.3269 17.3211 10.7969 17.5682 9.78878 18.3494C10.1275 17.64 10.498 16.9505 10.8766 16.2809C12.0998 16.7751 13.7973 16.4363 14.7535 15.4877L14.7934 15.4479C13.7255 14.9218 12.2114 15.0891 11.1754 15.7866C11.5539 15.1609 11.9444 14.5431 12.3588 13.9652C13.6339 14.3558 15.3074 13.8735 16.184 12.8333L16.2159 12.7934C15.1759 12.3909 13.8212 12.63 12.8529 13.3076C12.8848 13.2677 12.9246 13.2159 12.9565 13.172C13.2036 12.8532 13.4586 12.5343 13.7176 12.2274C15.2197 11.805 16.5546 10.2745 16.7697 8.69215L16.7817 8.63237H16.7697C15.2158 8.93926 13.7773 10.4737 13.4904 12.0879C13.2434 12.3869 12.9964 12.6858 12.7613 12.9927C13.1518 11.9445 13.08 10.6571 12.5142 9.77625L12.4823 9.81611C11.6296 10.8962 11.4942 12.6539 12.1516 13.8257C11.7611 14.3797 11.3826 14.9457 11.02 15.5435C11.2471 14.3518 10.8646 12.9608 10.0239 12.1796L10.0039 12.2314C9.45009 13.475 9.74893 15.1928 10.6614 16.1693C10.3028 16.795 9.9641 17.4447 9.63338 18.1143C9.82862 16.8707 9.38634 15.4319 8.50177 14.6587L8.48184 14.7105C7.97979 16.0178 8.37027 17.7835 9.34649 18.7321C9.13133 19.1944 8.92413 19.6567 8.72888 20.139C8.67709 20.0872 8.61732 20.0553 8.5456 20.0274C8.29058 19.9557 7.93994 19.8201 7.54945 19.585C7.29444 19.4295 7.01552 19.306 6.7366 19.2143C5.62491 18.8556 5.79226 18.3215 5.2145 17.2414C5.17465 17.1697 4.72041 16.6954 4.61681 16.6037C4.59689 16.5838 4.29805 16.4084 4.1546 16.1015C4.01913 15.8145 3.93944 15.5475 3.91952 15.2884C3.87967 14.9377 3.73623 14.7145 3.39355 14.5909C1.75988 14.025 2.48906 11.9086 2.54883 11.6296C2.60062 11.3944 2.38546 10.8683 2.31374 10.5814C2.30178 10.5495 2.29381 10.5096 2.28186 10.4458C2.17029 9.87988 2.4253 9.39761 2.62055 9.20232C2.81579 9.00702 3.49317 8.68816 3.63661 8.50482C3.78006 8.32148 3.88365 8.11423 4.0271 7.93886C4.22234 7.7037 4.79612 7.24137 5.58905 6.81889C6.06321 6.5638 6.1429 5.90218 6.33018 5.69891C6.63699 5.34817 7.11115 5.34817 7.46179 5.04128C7.63711 4.88584 7.89213 4.80612 8.05948 4.63872C8.87233 3.80572 9.95215 3.47491 11.02 3.27164C11.7412 3.13613 12.5421 3.34338 13.3032 3.47889C13.4147 3.49882 13.5183 3.51875 13.6219 3.55064C15.3194 3.61042 17.3515 3.96116 18.0926 4.68257C18.5548 5.13693 18.7819 5.6192 18.8855 5.95798C19.0091 6.33662 19.1724 6.69932 19.3796 7.02614L19.8339 7.76748C20.1208 8.22981 20.2124 8.79578 20.0889 9.32986C20.0172 9.63675 19.9853 9.95561 20.069 10.131C20.2124 10.41 20.6427 10.8604 20.9017 11.1194C21.0253 11.243 21.1687 11.3546 21.3121 11.4502C21.6628 11.6655 22.3202 12.0999 22.3202 12.1278C22.3202 12.1796 22.372 12.3829 22.0851 12.6419C21.7983 12.901 21.2404 13.2996 21.2404 13.2996C21.2404 13.2996 21.2723 13.4829 21.344 13.6304C21.4277 13.7739 21.611 14.0011 21.5512 14.1964C21.4914 14.3917 21.089 14.5551 21.2006 14.7703C21.3121 14.9975 21.603 15.0573 21.5193 15.2645C21.4357 15.4598 21.0372 15.8106 21.0771 15.954C21.1169 16.0975 21.4476 17.4766 20.6866 17.7117C20.1208 17.8951 18.5588 17.9907 17.8296 18.0306C17.5109 18.0505 17.2319 18.2259 17.0805 18.5049C16.969 18.7121 16.8534 18.9991 16.8016 19.3777C16.6582 20.3423 15.7019 22.5742 15.7019 22.5742C15.7019 22.5742 15.67 22.634 15.6302 22.7297C15.5465 22.9369 15.423 23.2438 15.4469 23.3793C15.4588 23.463 15.5704 23.6265 15.7337 23.8218C15.8692 23.9772 16.0844 24.037 16.2796 23.9772C21.2046 22.2514 24.699 17.5324 24.5835 12.0521V12.0361Z" fill="#61D3C8"/>
<path d="M35.5212 6.04169H38.3264L41.4423 11.0596L44.5582 6.04169H47.3753V17.907H44.7853V10.1629L41.4463 15.2326H41.3746L38.0753 10.2147V17.907H35.5172V6.04169H35.5292H35.5212Z" fill="#ffffff"/>
<path d="M56.663 6.04169H65.6044V8.36533H59.253V10.7727H64.8434V13.0963H59.253V15.5834H65.6881V17.907H56.6511V6.04169H56.663Z" fill="#ffffff"/>
<path d="M77.2196 8.44903H73.6135V6.04169H83.4395V8.44903H79.8334V17.907H77.2235V8.44903H77.2196Z" fill="#ffffff"/>
<path d="M91.9902 6.04169H94.6001V17.907H91.9902V6.04169Z" fill="#ffffff"/>
<path d="M103.195 16.1693L104.737 14.3199C105.825 15.2048 106.925 15.7588 108.283 15.7588C109.371 15.7588 109.989 15.3363 109.989 14.6388V14.6069C109.989 13.9493 109.578 13.5906 107.606 13.0963C105.199 12.4985 103.681 11.8129 103.681 9.46539V9.4335C103.681 7.28523 105.387 5.85437 107.833 5.85437C109.582 5.85437 111.021 6.40041 112.244 7.36494L110.885 9.32987C109.817 8.6005 108.817 8.15809 107.801 8.15809C106.785 8.15809 106.279 8.6005 106.279 9.19835V9.23023C106.279 10.0234 106.781 10.2466 108.837 10.7926C111.244 11.4423 112.599 12.2833 112.599 14.3518V14.3837C112.599 16.7392 110.802 18.0665 108.24 18.0665C106.411 18.0784 104.61 17.4686 103.191 16.1733L103.195 16.1693Z" fill="#ffffff"/>
</svg>
