<svg width="81" height="20" viewBox="0 0 81 20" fill="none" xmlns="http://www.w3.org/2000/svg">
<path d="M43.3761 9.93706C43.3761 15.4187 39.1391 19.8675 33.9157 19.8675C28.6923 19.8675 24.4553 15.4187 24.4553 9.93706C24.4553 4.45544 28.6923 0.0065918 33.9157 0.0065918C39.1391 0.0065918 43.3761 4.45544 43.3761 9.93706Z" fill="#DFFE00"/>
<path d="M15.1671 0.00662031L11.3207 11.3737V14.7103H10.0562V11.3737L6.20323 0.00662031H0V19.8675H4.17079V9.97019L2.50248 4.32306L3.68751 3.8795L9.10292 19.8675H12.274L17.6828 3.8795L18.8679 4.32306L17.1996 9.97019V19.8675H21.3703V0.00662031H15.1671ZM60.9598 2.26415C59.9469 1.46971 58.7552 0.893742 57.3914 0.536245C56.0277 0.178748 54.591 0 53.075 0H46.8254V19.8609H53.6377C55.0412 19.8609 56.3918 19.6491 57.6695 19.2188C58.9538 18.7884 60.0859 18.1595 61.0591 17.3253C62.0389 16.4912 62.8201 15.465 63.3961 14.2403C63.972 13.0155 64.2633 11.5988 64.2633 9.99005C64.2633 8.17608 63.9654 6.63355 63.3696 5.36245C62.7738 4.09135 61.9661 3.05858 60.9532 2.26415H60.9598ZM59.4239 12.6183C59.0796 13.3929 58.603 14.0218 57.9939 14.4985C57.3848 14.9751 56.6698 15.3194 55.8423 15.5246C55.0148 15.7299 54.121 15.8358 53.1544 15.8358H50.9896V4.04501H53.4457C54.3196 4.04501 55.1538 4.16418 55.9416 4.39589C56.736 4.6276 57.4245 4.97847 58.0137 5.44851C58.603 5.91856 59.0664 6.50776 59.4173 7.22938C59.7681 7.95099 59.9403 8.79839 59.9403 9.76496C59.9403 10.8904 59.7681 11.8371 59.4173 12.6117L59.4239 12.6183ZM71.4331 15.8292V11.7908H79.6357V7.75238H71.4331V4.05163H80.5956V0.00662031H67.2623V19.8675H80.5956V15.8292H71.4331Z" fill="#DFFE00"/>
</svg>
