<svg width="105" height="23" viewBox="0 0 105 23" fill="none" xmlns="http://www.w3.org/2000/svg">
<path d="M22.4814 3.05176e-05H16.4865V5.99497H22.4814V3.05176e-05Z" fill="#A8D5FF"/>
<path d="M16.9963 13.6793L6.50513 0H0.00012207V22.5125H5.99506V9.50628L13.0425 18.5588C16.3584 22.7994 22.4811 22.5125 22.4811 22.5125V16.3907C19.4198 16.3583 16.9963 13.6802 16.9963 13.6802V13.6793Z" fill="#A8D5FF"/>
<path d="M52.66 5.09396H56.3716V12.2663C56.3716 12.9776 56.261 13.6488 56.0389 14.2809C55.8167 14.913 55.4697 15.4659 54.9958 15.9388C54.522 16.4117 54.0253 16.7444 53.5057 16.9361C52.783 17.204 51.9154 17.3384 50.902 17.3384C50.3156 17.3384 49.6769 17.2974 48.9847 17.2154C48.2925 17.1334 47.7129 16.9704 47.2476 16.7273C46.7824 16.4842 46.3562 16.1381 45.971 15.689C45.5849 15.24 45.3208 14.7785 45.1787 14.3018C44.949 13.5363 44.8336 12.8574 44.8336 12.2663V5.09396H48.5452V12.437C48.5452 13.0939 48.7273 13.6068 49.0915 13.9758C49.4557 14.3447 49.961 14.5297 50.6064 14.5297C51.2519 14.5297 51.7495 14.3476 52.1137 13.9844C52.4779 13.6202 52.66 13.1053 52.66 12.438V5.09396Z" fill="black"/>
<path d="M38.8746 5.09976V11.4112L39.1244 11.7783H38.8746L34.3288 5.09976H30.8451V17.1716H34.3536V10.8983L34.0771 10.4931H34.3269L38.17 16.1401L38.8746 17.1716H42.3907V5.09976H38.8746Z" fill="black"/>
<path d="M62.8048 14.1684V14.6193H62.556V14.1684V5.09396H58.8358V17.1325H68.3621V14.1684H62.8048Z" fill="black"/>
<path d="M69.4053 13.1502L72.9443 12.928C73.0206 13.5029 73.177 13.9405 73.4125 14.2418C73.7957 14.729 74.343 14.9731 75.0552 14.9731C75.5862 14.9731 75.9952 14.8482 76.2831 14.5993C76.5701 14.3505 76.7141 14.0616 76.7141 13.7327C76.7141 13.4038 76.5768 13.1416 76.3032 12.8947C76.0295 12.6487 75.3946 12.4161 74.3983 12.1968C72.767 11.8297 71.6029 11.3425 70.9079 10.7352C70.2072 10.1279 69.8563 9.3528 69.8563 8.41085C69.8563 7.7921 70.0355 7.20767 70.394 6.65756C70.7525 6.10745 71.2921 5.67461 72.0119 5.35999C72.7317 5.04537 73.7185 4.88806 74.9722 4.88806C76.511 4.88806 77.6837 5.17408 78.4912 5.74612C79.2987 6.31815 79.7792 7.22864 79.9327 8.47663L76.4261 8.68161C76.3327 8.14009 76.1373 7.74538 75.8388 7.49941C75.5404 7.25343 75.1286 7.12949 74.6032 7.12949C74.1704 7.12949 73.8453 7.22101 73.626 7.40502C73.4067 7.58807 73.2971 7.81117 73.2971 8.0743C73.2971 8.26593 73.3877 8.4385 73.5679 8.592C73.7433 8.75121 74.159 8.89899 74.8159 9.03532C76.4414 9.38617 77.6064 9.73988 78.31 10.0984C79.0136 10.4568 79.5256 10.9021 79.846 11.4331C80.1663 11.9641 80.3265 12.5581 80.3265 13.215C80.3265 13.9872 80.1129 14.6985 79.6858 15.3506C79.2587 16.0018 78.6618 16.4966 77.8953 16.8331C77.1288 17.1697 76.163 17.3384 74.996 17.3384C72.9482 17.3384 71.5305 16.9447 70.742 16.1562C69.9535 15.3678 69.5074 14.3657 69.4034 13.1502H69.4053Z" fill="black"/>
<path d="M104.226 5.10736H101.05V17.1802H104.226V5.10736Z" fill="black"/>
<path d="M104.79 5.10736H104.477V17.1802H104.79V5.10736Z" fill="black"/>
<path d="M95.1804 5.10736H91.1113L86.5741 17.1792H90.3829L90.9711 15.1866H90.9883L91.7815 12.5762L93.1001 8.23735H93.3499L93.2259 8.64636L94.4329 12.5762H92.0313L91.2381 15.1866H95.2071L95.8106 17.1792H99.7166L95.1804 5.10736Z" fill="black"/>
</svg>
