<svg width="66" height="20" viewBox="0 0 66 20" fill="none" xmlns="http://www.w3.org/2000/svg">
<path d="M29.1585 1.52588e-05H23.4442C23.1812 1.52588e-05 22.968 0.213213 22.968 0.476205V19.5238C22.968 19.7868 23.1812 20 23.4442 20H29.1585C29.4215 20 29.6347 19.7868 29.6347 19.5238V0.476205C29.6347 0.213213 29.4215 1.52588e-05 29.1585 1.52588e-05Z" fill="black"/>
<path d="M42.4919 3.05176e-05H36.7776C36.5146 3.05176e-05 36.3014 0.213228 36.3014 0.476221V6.1905C36.3014 6.4535 36.5146 6.66669 36.7776 6.66669H42.4919C42.7549 6.66669 42.9681 6.4535 42.9681 6.1905V0.476221C42.9681 0.213228 42.7549 3.05176e-05 42.4919 3.05176e-05Z" fill="black"/>
<path d="M29.6345 6.66669H35.8249C36.0877 6.66669 36.3011 6.88011 36.3011 7.14288V12.8572C36.3011 13.1199 36.0877 13.3334 35.8249 13.3334H29.6345V6.66669Z" fill="black"/>
<path d="M42.4919 13.3333H36.7776C36.5146 13.3333 36.3014 13.5465 36.3014 13.8095V19.5238C36.3014 19.7868 36.5146 20 36.7776 20H42.4919C42.7549 20 42.9681 19.7868 42.9681 19.5238V13.8095C42.9681 13.5465 42.7549 13.3333 42.4919 13.3333Z" fill="black"/>
<path d="M52.1268 1.52588e-05H46.4125C46.1495 1.52588e-05 45.9363 0.213213 45.9363 0.476205V6.19049C45.9363 6.45348 46.1495 6.66668 46.4125 6.66668H52.1268C52.3897 6.66668 52.6029 6.45348 52.6029 6.19049V0.476205C52.6029 0.213213 52.3897 1.52588e-05 52.1268 1.52588e-05Z" fill="black"/>
<path d="M65.4601 3.05176e-05H59.7458C59.4829 3.05176e-05 59.2697 0.213228 59.2697 0.476221V6.1905C59.2697 6.4535 59.4829 6.66669 59.7458 6.66669H65.4601C65.7231 6.66669 65.9363 6.4535 65.9363 6.1905V0.476221C65.9363 0.213228 65.7231 3.05176e-05 65.4601 3.05176e-05Z" fill="black"/>
<path d="M58.7937 6.66669H53.0794C52.8164 6.66669 52.6032 6.87988 52.6032 7.14288V12.8572C52.6032 13.1202 52.8164 13.3334 53.0794 13.3334H58.7937C59.0567 13.3334 59.2699 13.1202 59.2699 12.8572V7.14288C59.2699 6.87988 59.0567 6.66669 58.7937 6.66669Z" fill="black"/>
<path d="M52.1268 13.3333H46.4125C46.1495 13.3333 45.9363 13.5465 45.9363 13.8095V19.5238C45.9363 19.7868 46.1495 20 46.4125 20H52.1268C52.3897 20 52.6029 19.7868 52.6029 19.5238V13.8095C52.6029 13.5465 52.3897 13.3333 52.1268 13.3333Z" fill="black"/>
<path d="M65.4601 13.3333H59.7458C59.4829 13.3333 59.2697 13.5465 59.2697 13.8095V19.5238C59.2697 19.7868 59.4829 20 59.7458 20H65.4601C65.7231 20 65.9363 19.7868 65.9363 19.5238V13.8095C65.9363 13.5465 65.7231 13.3333 65.4601 13.3333Z" fill="black"/>
<path d="M19.5238 0H0.47619C0.212987 0 0 0.212987 0 0.47619V19.5238C0 19.787 0.212987 20 0.47619 20H19.5238C19.787 20 20 19.787 20 19.5238V0.47619C20 0.212987 19.787 0 19.5238 0ZM13.3333 12.8571C13.3333 13.1203 13.1203 13.3333 12.8571 13.3333H7.14285C6.87965 13.3333 6.66666 13.1203 6.66666 12.8571V7.14285C6.66666 6.87965 6.87965 6.66666 7.14285 6.66666H12.8571C13.1203 6.66666 13.3333 6.87965 13.3333 7.14285V12.8571Z" fill="black"/>
</svg>
