<svg width="66" height="20" viewBox="0 0 66 20" fill="none" xmlns="http://www.w3.org/2000/svg">
<path d="M29.1592 0H23.4449C23.1819 0 22.9688 0.213198 22.9688 0.47619V19.5238C22.9688 19.7868 23.1819 20 23.4449 20H29.1592C29.4222 20 29.6354 19.7868 29.6354 19.5238V0.47619C29.6354 0.213198 29.4222 0 29.1592 0Z" fill="white"/>
<path d="M42.4932 0H36.7789C36.5159 0 36.3027 0.213198 36.3027 0.47619V6.19047C36.3027 6.45347 36.5159 6.66666 36.7789 6.66666H42.4932C42.7562 6.66666 42.9694 6.45347 42.9694 6.19047V0.47619C42.9694 0.213198 42.7562 0 42.4932 0Z" fill="white"/>
<path d="M29.6348 6.6665H35.8252C36.088 6.6665 36.3014 6.87992 36.3014 7.14269V12.857C36.3014 13.1197 36.088 13.3332 35.8252 13.3332H29.6348V6.6665Z" fill="white"/>
<path d="M42.4932 13.3335H36.7789C36.5159 13.3335 36.3027 13.5467 36.3027 13.8097V19.524C36.3027 19.787 36.5159 20.0002 36.7789 20.0002H42.4932C42.7562 20.0002 42.9694 19.787 42.9694 19.524V13.8097C42.9694 13.5467 42.7562 13.3335 42.4932 13.3335Z" fill="white"/>
<path d="M52.126 0H46.4117C46.1487 0 45.9355 0.213198 45.9355 0.47619V6.19047C45.9355 6.45347 46.1487 6.66666 46.4117 6.66666H52.126C52.389 6.66666 52.6022 6.45347 52.6022 6.19047V0.47619C52.6022 0.213198 52.389 0 52.126 0Z" fill="white"/>
<path d="M65.46 0H59.7457C59.4827 0 59.2695 0.213198 59.2695 0.47619V6.19047C59.2695 6.45347 59.4827 6.66666 59.7457 6.66666H65.46C65.723 6.66666 65.9362 6.45347 65.9362 6.19047V0.47619C65.9362 0.213198 65.723 0 65.46 0Z" fill="white"/>
<path d="M58.792 6.6665H53.0778C52.8148 6.6665 52.6016 6.8797 52.6016 7.14269V12.857C52.6016 13.12 52.8148 13.3332 53.0778 13.3332H58.792C59.055 13.3332 59.2682 13.12 59.2682 12.857V7.14269C59.2682 6.8797 59.055 6.6665 58.792 6.6665Z" fill="white"/>
<path d="M52.126 13.3335H46.4117C46.1487 13.3335 45.9355 13.5467 45.9355 13.8097V19.524C45.9355 19.787 46.1487 20.0002 46.4117 20.0002H52.126C52.389 20.0002 52.6022 19.787 52.6022 19.524V13.8097C52.6022 13.5467 52.389 13.3335 52.126 13.3335Z" fill="white"/>
<path d="M65.46 13.3335H59.7457C59.4827 13.3335 59.2695 13.5467 59.2695 13.8097V19.524C59.2695 19.787 59.4827 20.0002 59.7457 20.0002H65.46C65.723 20.0002 65.9362 19.787 65.9362 19.524V13.8097C65.9362 13.5467 65.723 13.3335 65.46 13.3335Z" fill="white"/>
<path d="M19.5238 0H0.47619C0.212987 0 0 0.212987 0 0.47619V19.5238C0 19.787 0.212987 20 0.47619 20H19.5238C19.787 20 20 19.787 20 19.5238V0.47619C20 0.212987 19.787 0 19.5238 0ZM13.3333 12.8571C13.3333 13.1203 13.1203 13.3333 12.8571 13.3333H7.14285C6.87965 13.3333 6.66666 13.1203 6.66666 12.8571V7.14285C6.66666 6.87965 6.87965 6.66666 7.14285 6.66666H12.8571C13.1203 6.66666 13.3333 6.87965 13.3333 7.14285V12.8571Z" fill="white"/>
</svg>
