<svg width="105" height="14" viewBox="0 0 105 14" fill="none" xmlns="http://www.w3.org/2000/svg">
<g clip-path="url(#clip0_1_75)">
<path d="M5.299 14C3.738 14 2.464 13.636 1.47 12.908C0.49 12.166 0 11.116 0 9.758C0 9.471 0.035 9.121 0.098 8.708C0.266 7.777 0.511 6.65 0.826 5.341C1.715 1.785 4.011 0 7.714 0C8.722 0 9.625 0.168 10.423 0.504C11.221 0.826 11.851 1.323 12.306 1.981C12.761 2.632 12.992 3.409 12.992 4.312C12.992 4.585 12.957 4.928 12.894 5.341C12.698 6.496 12.46 7.616 12.187 8.708C11.732 10.486 10.934 11.816 9.814 12.691C8.687 13.559 7.182 13.993 5.299 13.993V14ZM5.579 11.2C6.314 11.2 6.937 10.983 7.441 10.556C7.966 10.129 8.337 9.471 8.561 8.589C8.862 7.371 9.093 6.307 9.247 5.397C9.296 5.124 9.324 4.844 9.324 4.564C9.324 3.381 8.701 2.793 7.462 2.793C6.727 2.793 6.104 3.01 5.579 3.437C5.068 3.864 4.704 4.522 4.48 5.404C4.242 6.272 4.011 7.336 3.773 8.596C3.724 8.855 3.696 9.128 3.696 9.415C3.696 10.605 4.326 11.207 5.579 11.207V11.2Z" fill="#E73431"/>
<path d="M14.9937 13.804C14.8467 13.804 14.7417 13.762 14.6577 13.671C14.5947 13.566 14.5737 13.454 14.6017 13.321L17.3107 0.678969C17.3387 0.538969 17.4087 0.419969 17.5277 0.328969C17.6467 0.237969 17.7727 0.195969 17.8987 0.195969H23.1207C24.5767 0.195969 25.7387 0.496969 26.6137 1.09197C27.5027 1.68697 27.9507 2.54797 27.9507 3.67497C27.9507 3.99697 27.9087 4.33297 27.8317 4.68297C27.5027 6.17397 26.8447 7.27297 25.8507 7.98697C24.8707 8.70097 23.5197 9.05797 21.8047 9.05797H19.1517L18.2487 13.314C18.2207 13.454 18.1507 13.573 18.0317 13.664C17.9127 13.755 17.7867 13.797 17.6607 13.797H14.9867L14.9937 13.804ZM21.9447 6.37697C22.4977 6.37697 22.9737 6.22997 23.3797 5.92897C23.7997 5.62797 24.0727 5.20097 24.2057 4.64797C24.2477 4.43097 24.2617 4.23497 24.2617 4.06697C24.2617 3.68897 24.1497 3.40897 23.9257 3.21297C23.7017 3.00297 23.3237 2.90497 22.7847 2.90497H20.4257L19.6767 6.38397H21.9377L21.9447 6.37697Z" fill="#E73431"/>
<path d="M32.3747 13.804C32.2277 13.804 32.1227 13.762 32.0387 13.671C31.9617 13.566 31.9337 13.454 31.9617 13.321L34.1387 3.24802H30.6457C30.4987 3.24802 30.3937 3.20602 30.3097 3.11502C30.2467 3.01002 30.2257 2.89802 30.2537 2.76502L30.7087 0.686018C30.7367 0.546018 30.8067 0.427018 30.9257 0.336018C31.0447 0.245018 31.1707 0.203018 31.2967 0.203018H41.8597C42.0067 0.203018 42.1117 0.245018 42.1957 0.336018C42.2447 0.413018 42.2727 0.490018 42.2727 0.567018C42.2727 0.609018 42.2727 0.644018 42.2517 0.686018L41.7967 2.76502C41.7687 2.90502 41.6987 3.02402 41.5797 3.11502C41.4747 3.20602 41.3487 3.24802 41.2087 3.24802H37.7297L35.5527 13.321C35.5247 13.461 35.4547 13.58 35.3357 13.671C35.2167 13.762 35.0907 13.804 34.9647 13.804H32.3747Z" fill="#E73431"/>
<path d="M42.7767 13.804C42.6297 13.804 42.5247 13.762 42.4407 13.671C42.3637 13.566 42.3357 13.454 42.3637 13.321L45.0937 0.678969C45.1217 0.538969 45.1917 0.419969 45.3107 0.328969C45.4297 0.237969 45.5557 0.195969 45.6817 0.195969H48.3347C48.4817 0.195969 48.5867 0.237969 48.6707 0.328969C48.7197 0.405969 48.7477 0.482969 48.7477 0.559969C48.7477 0.601969 48.7477 0.636969 48.7267 0.678969L46.0177 13.321C45.9897 13.461 45.9197 13.58 45.8007 13.671C45.6817 13.762 45.5557 13.804 45.4297 13.804H42.7767Z" fill="#E73431"/>
<path d="M50.2527 13.804C50.1057 13.804 50.0007 13.762 49.9167 13.671C49.8397 13.58 49.8117 13.461 49.8397 13.321L52.5487 0.678969C52.5767 0.538969 52.6467 0.419969 52.7657 0.328969C52.8847 0.237969 53.0177 0.195969 53.1577 0.195969H55.2787C55.5937 0.195969 55.7967 0.335969 55.8877 0.622969L58.0297 6.74797L62.8037 0.622969C62.8667 0.517969 62.9577 0.419969 63.0767 0.328969C63.2097 0.237969 63.3637 0.195969 63.5457 0.195969H65.6877C65.8347 0.195969 65.9397 0.237969 66.0237 0.328969C66.0727 0.405969 66.1007 0.482969 66.1007 0.559969C66.1007 0.601969 66.1007 0.636969 66.0797 0.678969L63.3707 13.321C63.3427 13.461 63.2727 13.58 63.1537 13.671C63.0347 13.762 62.9087 13.804 62.7827 13.804H60.4097C60.2627 13.804 60.1577 13.762 60.0737 13.671C60.0107 13.566 59.9897 13.454 60.0177 13.321L61.5507 6.14597L58.5477 10.094C58.4147 10.234 58.2957 10.346 58.1767 10.423C58.0577 10.5 57.9247 10.542 57.7637 10.542H56.7417C56.4687 10.542 56.2797 10.395 56.1747 10.094L54.7817 5.97097L53.2137 13.321C53.1857 13.461 53.1157 13.58 52.9967 13.671C52.8777 13.762 52.7517 13.804 52.6257 13.804H50.2667H50.2527Z" fill="#E73431"/>
<path d="M67.5847 13.804C67.4377 13.804 67.3327 13.762 67.2487 13.671C67.1717 13.566 67.1437 13.454 67.1717 13.321L69.9017 0.678969C69.9297 0.538969 69.9997 0.419969 70.1187 0.328969C70.2377 0.237969 70.3637 0.195969 70.4897 0.195969H73.1427C73.2897 0.195969 73.3947 0.237969 73.4787 0.328969C73.5347 0.405969 73.5557 0.482969 73.5557 0.559969C73.5557 0.601969 73.5557 0.636969 73.5347 0.678969L70.8257 13.321C70.7977 13.461 70.7277 13.58 70.6087 13.671C70.4897 13.762 70.3637 13.804 70.2377 13.804H67.5847Z" fill="#E73431"/>
<path d="M79.9116 14C78.7566 14 77.7696 13.846 76.9436 13.531C76.1316 13.223 75.5156 12.803 75.0956 12.285C74.6896 11.767 74.4866 11.193 74.4866 10.556C74.4866 10.451 74.5006 10.297 74.5286 10.087C74.5566 9.968 74.6056 9.87 74.6826 9.793C74.7736 9.716 74.8786 9.674 74.9976 9.674H77.5106C77.6646 9.674 77.7836 9.702 77.8606 9.751C77.9516 9.8 78.0426 9.891 78.1336 10.024C78.2246 10.36 78.4346 10.64 78.7636 10.857C79.1066 11.074 79.5686 11.186 80.1566 11.186C80.9056 11.186 81.5076 11.067 81.9626 10.836C82.4246 10.605 82.6976 10.283 82.7886 9.884C82.8026 9.835 82.8096 9.751 82.8096 9.653C82.8096 9.331 82.6066 9.079 82.2006 8.897C81.7946 8.701 81.0456 8.477 79.9606 8.218C78.6936 7.945 77.7276 7.539 77.0766 6.993C76.4186 6.433 76.0966 5.712 76.0966 4.816C76.0966 4.508 76.1386 4.186 76.2156 3.864C76.4746 2.66 77.1256 1.715 78.1616 1.022C79.2116 0.335996 80.5556 -0.00700378 82.2076 -0.00700378C83.2016 -0.00700378 84.0836 0.167996 84.8606 0.517996C85.6306 0.867996 86.2256 1.316 86.6456 1.862C87.0796 2.394 87.2966 2.926 87.2966 3.458C87.2966 3.612 87.2966 3.724 87.2756 3.787C87.2476 3.906 87.1916 4.004 87.1006 4.081C87.0236 4.158 86.9256 4.2 86.8066 4.2H84.1746C83.8876 4.2 83.6916 4.088 83.5866 3.871C83.5726 3.57 83.4186 3.318 83.1176 3.115C82.8166 2.905 82.4246 2.807 81.9416 2.807C81.3676 2.807 80.8916 2.912 80.5066 3.115C80.1426 3.325 79.9116 3.626 79.8206 4.032C79.8066 4.095 79.7996 4.179 79.7996 4.284C79.7996 4.592 79.9816 4.851 80.3526 5.061C80.7306 5.257 81.3956 5.453 82.3336 5.663C83.8036 5.95 84.8676 6.356 85.5326 6.888C86.2116 7.42 86.5546 8.127 86.5546 9.009C86.5546 9.31 86.5126 9.632 86.4356 9.982C86.1486 11.305 85.4486 12.306 84.3356 12.999C83.2366 13.671 81.7666 14.007 79.9186 14.007L79.9116 14Z" fill="#E73431"/>
<path d="M89.1516 13.804C89.0046 13.804 88.8996 13.762 88.8156 13.671C88.7386 13.58 88.7106 13.461 88.7386 13.321L91.4476 0.678969C91.4756 0.538969 91.5456 0.419969 91.6646 0.328969C91.7836 0.237969 91.9096 0.195969 92.0566 0.195969H94.1776C94.4926 0.195969 94.6956 0.335969 94.7866 0.622969L96.9286 6.74797L101.703 0.622969C101.766 0.517969 101.857 0.419969 101.976 0.328969C102.109 0.237969 102.263 0.195969 102.445 0.195969H104.587C104.734 0.195969 104.846 0.237969 104.923 0.328969C104.972 0.405969 105 0.482969 105 0.559969C105 0.601969 105 0.636969 104.979 0.678969L102.27 13.321C102.242 13.461 102.172 13.58 102.053 13.671C101.934 13.762 101.808 13.804 101.682 13.804H99.3086C99.1616 13.804 99.0496 13.762 98.9726 13.671C98.9096 13.566 98.8886 13.454 98.9166 13.321L100.45 6.14597L97.4466 10.094C97.3136 10.234 97.1946 10.346 97.0756 10.423C96.9566 10.5 96.8166 10.542 96.6626 10.542H95.6406C95.3676 10.542 95.1786 10.395 95.0736 10.094L93.6806 5.97097L92.1126 13.321C92.0846 13.461 92.0146 13.58 91.8956 13.671C91.7766 13.762 91.6506 13.804 91.5246 13.804H89.1656H89.1516Z" fill="#E73431"/>
</g>
<defs>
<clipPath id="clip0_1_75">
<rect width="105" height="14" fill="white"/>
</clipPath>
</defs>
</svg>
