<svg width="148" height="19" viewBox="0 0 148 19" fill="none" xmlns="http://www.w3.org/2000/svg">
<path d="M28.6132 17.2098V12.9223C29.0706 13.5076 29.901 13.8355 30.8632 13.8355C33.3197 13.8355 34.979 12.0625 34.979 9.35915C34.979 6.65581 33.4546 4.88281 31.0676 4.88281C29.9669 4.88281 29.1193 5.29652 28.6113 5.9676V5.01434H26.2598V17.2041L28.6132 17.2098ZM30.5724 11.7689C29.3012 11.7689 28.4724 10.8042 28.4724 9.35915C28.4724 7.91407 29.3012 6.93223 30.5724 6.93223C31.8082 6.93223 32.6557 7.88549 32.6557 9.35915C32.6557 10.8328 31.8139 11.7689 30.5724 11.7689Z" fill="white"/>
<path d="M40.543 13.9027C43.2616 13.9027 45.2033 11.9934 45.2033 9.39274C45.2033 6.79205 43.2616 4.88281 40.543 4.88281C37.8244 4.88281 35.8828 6.79013 35.8828 9.39274C35.8828 11.9954 37.8244 13.9027 40.543 13.9027ZM40.543 11.8206C39.2285 11.8206 38.3333 10.8314 38.3333 9.39274C38.3333 7.9541 39.2304 6.94761 40.543 6.94761C41.8557 6.94761 42.7529 7.93488 42.7529 9.39274C42.7529 10.8506 41.8595 11.8206 40.543 11.8206Z" fill="white"/>
<path d="M48.8097 13.602V1.2749H46.7051V13.602H48.8097Z" fill="white"/>
<path d="M56.2193 5.18359L54.3751 10.704L52.5135 5.18359H50.0137L53.2275 13.6758L51.928 17.21H54.2624L55.5174 13.7134L58.7329 5.18735L56.2193 5.18359Z" fill="white"/>
<path d="M65.3004 5.88118C64.8096 5.27912 63.9424 4.88281 62.8657 4.88281C60.29 4.88281 58.7324 6.65473 58.7324 9.35639C58.7324 12.0581 60.284 13.83 62.901 13.83C63.9346 13.83 64.8619 13.4489 65.3177 12.8145V13.9576C65.3177 14.7655 64.7748 15.3332 64.0397 15.3332H59.9756V17.2098H64.4254C66.4213 17.2098 67.7523 16.023 67.7523 14.2148V5.02H65.3004V5.88118ZM63.2867 11.7647C61.9891 11.7647 61.1318 10.812 61.1318 9.35639C61.1318 7.90076 61.9891 6.93098 63.2867 6.93098C64.5847 6.93098 65.4575 7.88363 65.4575 9.35639C65.4575 10.8292 64.6001 11.7647 63.2867 11.7647Z" fill="white"/>
<path d="M73.7658 13.9027C76.3964 13.9027 78.2757 11.9934 78.2757 9.39274C78.2757 6.79205 76.3964 4.88281 73.7658 4.88281C71.1349 4.88281 69.2559 6.79013 69.2559 9.39274C69.2559 11.9954 71.1349 13.9027 73.7658 13.9027ZM73.7658 11.8206C72.4914 11.8206 71.6274 10.8314 71.6274 9.39274C71.6274 7.9541 72.4914 6.94761 73.7658 6.94761C75.04 6.94761 75.9044 7.93488 75.9044 9.39274C75.9044 10.8506 75.0378 11.8206 73.7658 11.8206Z" fill="white"/>
<path d="M81.9285 13.602V8.90109C81.9285 7.79423 82.6807 6.99472 83.7488 6.99472C84.7645 6.99472 85.4468 7.749 85.4468 8.7823V13.602H87.897V8.25434C87.897 6.27818 86.602 4.88281 84.6018 4.88281C83.3941 4.88281 82.4151 5.37685 81.9247 6.20275V5.01858H79.4785V13.602H81.9285Z" fill="white"/>
<path d="M93.5781 12.3057L99.2738 5.69704H93.8336V4.40088H100.972V5.69704L95.3123 12.3057H101.227V13.6018H93.5781V12.3057Z" fill="white"/>
<path d="M103.164 13.602V0.62207H104.643V8.28956L108.97 4.40106H110.905L106.961 7.99746L111.27 13.602H109.426L105.848 9.00155L104.643 10.0969V13.602H103.164Z" fill="white"/>
<path d="M112.828 0.822754H120.824V2.22846H114.38V6.29955H119.619V7.70523H114.38V12.1962H121.025V13.6019H112.828V0.822754Z" fill="white"/>
<path d="M121.945 0.822754H123.552L127.568 11.7946L131.621 0.822754H133.209L128.371 13.6019H126.783L121.945 0.822754Z" fill="white"/>
<path d="M134.686 0.822754H136.712L140.929 11.5025L145.128 0.822754H147.154V13.6019H145.639V3.41509L141.605 13.6019H140.235L136.201 3.41509V13.6019H134.686V0.822754Z" fill="white"/>
<path d="M9.99393 2.85712C9.79568 2.97724 9.63162 3.14614 9.51741 3.34772C9.40318 3.5493 9.34258 3.77685 9.34142 4.00865L9.3797 7.52057L9.36383 9.88301L9.40219 13.3948C9.40092 13.6266 9.34028 13.8541 9.22607 14.0556C9.11186 14.2572 8.94786 14.4261 8.74968 14.5463L6.35814 15.9655C6.16314 16.0807 5.94162 16.1437 5.71498 16.1484C5.48831 16.1531 5.26415 16.0994 5.06415 15.9924L2.69441 14.6495C2.49429 14.5393 2.32845 14.376 2.21519 14.1776C2.10193 13.9793 2.04564 13.7537 2.05254 13.5257L2.05509 10.7976C2.05635 10.5658 2.11699 10.3383 2.2312 10.1368C2.34543 9.93523 2.50944 9.76631 2.7076 9.64611L5.04656 8.24197C5.24153 8.12675 5.46305 8.06372 5.68972 8.05902C5.91639 8.05429 6.14052 8.10805 6.34052 8.21507L7.87586 9.08506L7.85835 6.7037L6.32301 5.8337C6.12556 5.71871 5.90025 5.66035 5.67193 5.66509C5.4436 5.66984 5.22113 5.73751 5.02905 5.86062L0.657613 8.43966C0.459429 8.55987 0.295426 8.72879 0.181216 8.93035C0.0670072 9.1319 0.00636854 9.35942 0.00510259 9.59119L0.000566169 14.735C-0.00633323 14.963 0.0499381 15.1886 0.163177 15.3869C0.276416 15.5852 0.442212 15.7484 0.642295 15.8587L5.08141 18.3742C5.27886 18.4892 5.50417 18.5476 5.73251 18.5428C5.96082 18.5381 6.18331 18.4704 6.3754 18.3472L10.7854 15.7005C10.9836 15.5803 11.1476 15.4113 11.2618 15.2098C11.376 15.0082 11.4366 14.7807 11.4379 14.5489L11.4329 11.0561L11.4154 8.67473L11.4105 5.18172C11.4117 4.9499 11.4723 4.72237 11.5865 4.52079C11.7007 4.31921 11.8648 4.15031 12.063 4.03019L14.402 2.62605C14.597 2.51083 14.8185 2.44782 15.0452 2.44312C15.2718 2.43839 15.496 2.49213 15.696 2.59915L18.0657 3.94198C18.2658 4.05224 18.4317 4.21555 18.545 4.41386C18.6581 4.61217 18.7145 4.8378 18.7075 5.06584L18.7385 7.81279C18.737 8.04456 18.6765 8.27208 18.5623 8.47363C18.448 8.67519 18.2841 8.84411 18.0859 8.96431L15.747 10.3685C15.552 10.4837 15.3304 10.5467 15.1038 10.5514C14.8771 10.5561 14.653 10.5024 14.453 10.3954L12.9175 9.52528L12.935 11.9066L14.4703 12.7766C14.6678 12.8916 14.8931 12.95 15.1214 12.9452C15.3497 12.9405 15.5722 12.8728 15.7643 12.7497L20.1743 10.1029C20.3724 9.98272 20.5366 9.81381 20.6507 9.61225C20.7649 9.41069 20.8256 9.18318 20.8269 8.9514L20.8311 3.80808C20.8296 3.5816 20.7699 3.35918 20.6575 3.16232C20.545 2.96547 20.3838 2.80079 20.1893 2.68422L15.7503 0.168871C15.5528 0.0538597 15.3275 -0.00447902 15.0992 0.000268272C14.8708 0.00501556 14.6484 0.0726591 14.4563 0.195772L9.99393 2.85712Z" fill="url(#paint0_linear_4012_14125)"/>
<defs>
<linearGradient id="paint0_linear_4012_14125" x1="2.52243" y1="4.7987" x2="18.3092" y2="13.7444" gradientUnits="userSpaceOnUse">
<stop stop-color="#A128C5"/>
<stop offset="1" stop-color="#7C3FE3"/>
</linearGradient>
</defs>
</svg>
