<svg width="148" height="19" viewBox="0 0 148 19" fill="none" xmlns="http://www.w3.org/2000/svg">
<path d="M28.6139 17.2098V12.9223C29.0713 13.5076 29.9018 13.8355 30.8639 13.8355C33.3205 13.8355 34.9797 12.0625 34.9797 9.35915C34.9797 6.65581 33.4553 4.88281 31.0683 4.88281C29.9676 4.88281 29.1201 5.29652 28.612 5.9676V5.01434H26.2605V17.2041L28.6139 17.2098ZM30.5731 11.7689C29.3019 11.7689 28.4732 10.8042 28.4732 9.35915C28.4732 7.91407 29.3019 6.93223 30.5731 6.93223C31.8089 6.93223 32.6565 7.88549 32.6565 9.35915C32.6565 10.8328 31.8146 11.7689 30.5731 11.7689Z" fill="#22143D"/>
<path d="M40.542 13.9027C43.2607 13.9027 45.2024 11.9934 45.2024 9.39274C45.2024 6.79205 43.2607 4.88281 40.542 4.88281C37.8234 4.88281 35.8819 6.79013 35.8819 9.39274C35.8819 11.9954 37.8234 13.9027 40.542 13.9027ZM40.542 11.8206C39.2276 11.8206 38.3323 10.8314 38.3323 9.39274C38.3323 7.9541 39.2295 6.94761 40.542 6.94761C41.8548 6.94761 42.752 7.93488 42.752 9.39274C42.752 10.8506 41.8586 11.8206 40.542 11.8206Z" fill="#22143D"/>
<path d="M48.8106 13.6021V1.27496H46.706V13.6021H48.8106Z" fill="#22143D"/>
<path d="M56.2184 5.18359L54.3741 10.704L52.5126 5.18359H50.0128L53.2266 13.6758L51.9271 17.21H54.2615L55.5165 13.7134L58.7319 5.18735L56.2184 5.18359Z" fill="#22143D"/>
<path d="M65.3003 5.88118C64.8095 5.27912 63.9424 4.88281 62.8657 4.88281C60.2899 4.88281 58.7324 6.65473 58.7324 9.35639C58.7324 12.0581 60.284 13.83 62.9009 13.83C63.9345 13.83 64.8619 13.4489 65.3176 12.8145V13.9576C65.3176 14.7655 64.7747 15.3332 64.0396 15.3332H59.9755V17.2098H64.4253C66.4213 17.2098 67.7522 16.023 67.7522 14.2148V5.02H65.3003V5.88118ZM63.2866 11.7647C61.989 11.7647 61.1317 10.812 61.1317 9.35639C61.1317 7.90076 61.989 6.93098 63.2866 6.93098C64.5846 6.93098 65.4575 7.88363 65.4575 9.35639C65.4575 10.8292 64.6 11.7647 63.2866 11.7647Z" fill="#22143D"/>
<path d="M73.7652 13.9027C76.3958 13.9027 78.2751 11.9934 78.2751 9.39274C78.2751 6.79205 76.3958 4.88281 73.7652 4.88281C71.1343 4.88281 69.2552 6.79013 69.2552 9.39274C69.2552 11.9954 71.1343 13.9027 73.7652 13.9027ZM73.7652 11.8206C72.4908 11.8206 71.6268 10.8314 71.6268 9.39274C71.6268 7.9541 72.4908 6.94761 73.7652 6.94761C75.0393 6.94761 75.9038 7.93488 75.9038 9.39274C75.9038 10.8506 75.0372 11.8206 73.7652 11.8206Z" fill="#22143D"/>
<path d="M81.9277 13.602V8.90109C81.9277 7.79423 82.6799 6.99472 83.7479 6.99472C84.7636 6.99472 85.446 7.749 85.446 8.7823V13.602H87.8962V8.25434C87.8962 6.27818 86.6011 4.88281 84.6009 4.88281C83.3932 4.88281 82.4142 5.37685 81.9239 6.20275V5.01858H79.4777V13.602H81.9277Z" fill="#22143D"/>
<path d="M93.5783 12.3059L99.274 5.69728H93.8338V4.40112H100.972V5.69728L95.3124 12.3059H101.227V13.6021H93.5783V12.3059Z" fill="#22143D"/>
<path d="M103.165 13.602V0.62207H104.643V8.28956L108.97 4.40106H110.905L106.962 7.99746L111.27 13.602H109.427L105.848 9.00155L104.643 10.0969V13.602H103.165Z" fill="#22143D"/>
<path d="M112.829 0.822876H120.825V2.22858H114.381V6.29967H119.62V7.70535H114.381V12.1963H121.026V13.602H112.829V0.822876Z" fill="#22143D"/>
<path d="M121.946 0.822876H123.553L127.569 11.7947L131.622 0.822876H133.21L128.372 13.602H126.784L121.946 0.822876Z" fill="#22143D"/>
<path d="M134.686 0.822876H136.713L140.93 11.5026L145.129 0.822876H147.155V13.602H145.64V3.41521L141.605 13.602H140.236L136.202 3.41521V13.602H134.686V0.822876Z" fill="#22143D"/>
<path d="M9.99393 2.85712C9.79568 2.97724 9.63162 3.14614 9.51741 3.34772C9.40318 3.5493 9.34258 3.77685 9.34142 4.00865L9.3797 7.52057L9.36383 9.88301L9.40219 13.3948C9.40092 13.6266 9.34028 13.8541 9.22607 14.0556C9.11186 14.2572 8.94786 14.4261 8.74968 14.5463L6.35814 15.9655C6.16314 16.0807 5.94162 16.1437 5.71498 16.1484C5.48831 16.1531 5.26415 16.0994 5.06415 15.9924L2.69441 14.6495C2.49429 14.5393 2.32845 14.376 2.21519 14.1776C2.10193 13.9793 2.04564 13.7537 2.05254 13.5257L2.05509 10.7976C2.05635 10.5658 2.11699 10.3383 2.2312 10.1368C2.34543 9.93523 2.50944 9.76631 2.7076 9.64611L5.04656 8.24197C5.24153 8.12675 5.46305 8.06372 5.68972 8.05902C5.91639 8.05429 6.14052 8.10805 6.34052 8.21507L7.87586 9.08506L7.85835 6.7037L6.32301 5.8337C6.12556 5.71871 5.90025 5.66035 5.67193 5.66509C5.4436 5.66984 5.22113 5.73751 5.02905 5.86062L0.657613 8.43966C0.459429 8.55987 0.295426 8.72879 0.181216 8.93035C0.0670072 9.1319 0.00636854 9.35942 0.00510259 9.59119L0.000566169 14.735C-0.00633323 14.963 0.0499381 15.1886 0.163177 15.3869C0.276416 15.5852 0.442212 15.7484 0.642295 15.8587L5.08141 18.3742C5.27886 18.4892 5.50417 18.5476 5.73251 18.5428C5.96082 18.5381 6.18331 18.4704 6.3754 18.3472L10.7854 15.7005C10.9836 15.5803 11.1476 15.4113 11.2618 15.2098C11.376 15.0082 11.4366 14.7807 11.4379 14.5489L11.4329 11.0561L11.4154 8.67473L11.4105 5.18172C11.4117 4.9499 11.4723 4.72237 11.5865 4.52079C11.7007 4.31921 11.8648 4.15031 12.063 4.03019L14.402 2.62605C14.597 2.51083 14.8185 2.44782 15.0452 2.44312C15.2718 2.43839 15.496 2.49213 15.696 2.59915L18.0657 3.94198C18.2658 4.05224 18.4317 4.21555 18.545 4.41386C18.6581 4.61217 18.7145 4.8378 18.7075 5.06584L18.7385 7.81279C18.737 8.04456 18.6765 8.27208 18.5623 8.47363C18.448 8.67519 18.2841 8.84411 18.0859 8.96431L15.747 10.3685C15.552 10.4837 15.3304 10.5467 15.1038 10.5514C14.8771 10.5561 14.653 10.5024 14.453 10.3954L12.9175 9.52528L12.935 11.9066L14.4703 12.7766C14.6678 12.8916 14.8931 12.95 15.1214 12.9452C15.3497 12.9405 15.5722 12.8728 15.7643 12.7497L20.1743 10.1029C20.3724 9.98272 20.5366 9.81381 20.6507 9.61225C20.7649 9.41069 20.8256 9.18318 20.8269 8.9514L20.8311 3.80808C20.8296 3.5816 20.7699 3.35918 20.6575 3.16232C20.545 2.96547 20.3838 2.80079 20.1893 2.68422L15.7503 0.168871C15.5528 0.0538597 15.3275 -0.00447902 15.0992 0.000268272C14.8708 0.00501556 14.6484 0.0726591 14.4563 0.195772L9.99393 2.85712Z" fill="url(#paint0_linear_1_20)"/>
<defs>
<linearGradient id="paint0_linear_1_20" x1="2.52243" y1="4.7987" x2="18.3092" y2="13.7444" gradientUnits="userSpaceOnUse">
<stop stop-color="#A128C5"/>
<stop offset="1" stop-color="#7C3FE3"/>
</linearGradient>
</defs>
</svg>
