<svg width="108" height="21" viewBox="0 0 108 21" fill="none" xmlns="http://www.w3.org/2000/svg">
<path d="M16.7551 0L10.1964 3.76702V15.5238L6.57694 17.6221L2.93527 15.5225V11.3246L6.57694 9.24585L8.91811 10.6038V7.20761L6.55605 5.86663L0 9.67543V17.2108L6.57956 21L13.1369 17.2108V5.45663L16.7786 3.35702L20.4176 5.45663V9.63496L16.7786 11.7528L14.4165 10.3831V13.7624L16.7564 15.1112L23.3777 11.3442V3.76702L16.7551 0Z" fill="#6C00F6"/>
<path fill-rule="evenodd" clip-rule="evenodd" d="M55.2375 16.3216H58.178V0.206299H55.2375V16.3229V16.3216ZM36.3358 4.86644C37.729 4.86644 38.8846 5.42659 39.7986 6.54429C40.7139 7.662 41.1696 9.04868 41.1696 10.7043C41.1696 12.36 40.7126 13.7467 39.7986 14.8644C38.8833 15.9821 37.729 16.5422 36.3358 16.5422C35.3487 16.5422 34.4921 16.238 33.7661 15.6269C33.0545 15.0028 32.5322 14.1606 32.1979 13.1003V20.6788H29.2574V5.08449H32.1979V8.30703C32.5309 7.24678 33.0558 6.41111 33.7661 5.80264C34.4921 5.1785 35.3487 4.86644 36.3358 4.86644ZM35.2677 13.8616C36.0655 13.8616 36.7419 13.5639 37.2929 12.9685C37.8439 12.36 38.1194 11.604 38.1194 10.7043C38.1194 9.80469 37.8439 9.0774 37.2929 8.48199C36.7419 7.87352 36.0655 7.56668 35.2677 7.56668C34.3811 7.56668 33.6499 7.86438 33.0676 8.4598C32.4878 9.05521 32.1966 9.80208 32.1966 10.7017C32.1966 11.6014 32.4878 12.3574 33.0676 12.9659C33.6473 13.5613 34.3811 13.859 35.2677 13.859V13.8616ZM41.9504 10.7043C41.9504 12.36 42.5236 13.7467 43.6701 14.8644C44.8165 15.9821 46.2476 16.5422 47.9607 16.5422C49.6738 16.5422 51.1049 15.9821 52.2513 14.8644C53.3977 13.7467 53.9709 12.36 53.9709 10.7043C53.9709 9.04868 53.3977 7.662 52.2513 6.54429C51.1049 5.42659 49.6738 4.86644 47.9607 4.86644C46.2476 4.86644 44.8165 5.42659 43.6701 6.54429C42.5236 7.662 41.9504 9.04868 41.9504 10.7043ZM45.848 12.9685C45.2813 12.36 44.9993 11.604 44.9993 10.7043C44.9993 9.80469 45.2813 9.0774 45.848 8.48199C46.4147 7.87352 47.1185 7.56668 47.9607 7.56668C48.8029 7.56668 49.508 7.86438 50.0733 8.4598C50.64 9.05521 50.9221 9.80208 50.9221 10.7017C50.9221 11.6014 50.64 12.3574 50.0733 12.9659C49.5067 13.5613 48.8029 13.859 47.9607 13.859C47.1185 13.859 46.4134 13.5613 45.848 12.9659V12.9685ZM85.3384 14.8631C84.192 13.7454 83.6188 12.3587 83.6188 10.703C83.6188 9.04737 84.192 7.66069 85.3384 6.54299C86.4848 5.42529 87.9159 4.86513 89.629 4.86513C91.3421 4.86513 92.7732 5.42529 93.9196 6.54299C95.0661 7.66069 95.6393 9.04737 95.6393 10.703C95.6393 12.3587 95.0661 13.7454 93.9196 14.8631C92.7732 15.9808 91.3421 16.5409 89.629 16.5409C87.9159 16.5409 86.4861 15.9808 85.3384 14.8631ZM86.6663 10.7043C86.6663 11.604 86.9484 12.36 87.515 12.9685C88.0817 13.5639 88.7855 13.8616 89.6277 13.8616C90.4699 13.8616 91.175 13.5639 91.7404 12.9685C92.3071 12.36 92.5891 11.604 92.5891 10.7043C92.5891 9.80469 92.3071 9.05521 91.7404 8.46241C91.1737 7.867 90.4699 7.56929 89.6277 7.56929C88.7855 7.56929 88.0817 7.87352 87.515 8.4846C86.9484 9.08002 86.6663 9.82036 86.6663 10.707V10.7043ZM103.466 4.86644C104.714 4.86644 105.717 5.30255 106.47 6.17347C107.239 7.04439 107.623 8.15556 107.623 9.50438V16.3203H104.683V10.0267C104.683 9.30068 104.452 8.70527 103.985 8.24043C103.521 7.7756 102.941 7.54318 102.244 7.54318C101.459 7.54318 100.822 7.7769 100.328 8.24043C99.8346 8.70527 99.5878 9.30068 99.5878 10.0267V16.3203H96.6473V5.08449H99.5878V7.9597C99.879 7.0013 100.366 6.24659 101.048 5.69557C101.745 5.14456 102.55 4.86905 103.466 4.86905V4.86644ZM65.2394 13.3262L68.2438 5.09494H71.2287L65.0435 20.6879H62.0586L63.6268 16.7237L59.0306 5.09494H62.2101L65.2367 13.3262H65.2394ZM79.5893 5.08449V7.90094C78.9769 6.06379 77.4636 5.08449 75.4514 5.08449C72.413 5.08449 70.6163 7.73903 70.6163 10.5294C70.6163 13.3197 72.4 16.1923 75.4514 16.1923C77.4636 16.1923 78.9769 14.7416 79.5893 12.9032V15.0589C79.5893 15.9743 79.2916 16.7277 78.6962 17.3231C78.1008 17.9185 77.3761 18.2162 76.5182 18.2162C75.3561 18.2162 74.493 17.6364 73.9263 16.4743L71.2914 17.8676C71.785 18.7829 72.4887 19.5141 73.4041 20.0677C74.3194 20.6187 75.3574 20.8942 76.5182 20.8942C78.2313 20.8942 79.6624 20.3367 80.8088 19.2164C81.9553 18.0987 82.5285 16.712 82.5285 15.0563V5.08449H79.588H79.5893ZM78.7406 12.6642C78.1739 13.2309 77.4623 13.513 76.607 13.513C75.7518 13.513 75.0819 13.2309 74.5152 12.6642C73.9485 12.0845 73.6665 11.3729 73.6665 10.5307C73.6665 9.68848 73.9485 8.9847 74.5152 8.41801C75.0819 7.85133 75.7779 7.56929 76.607 7.56929C77.4361 7.56929 78.1752 7.85133 78.7406 8.41801C79.3072 8.96903 79.5893 9.67412 79.5893 10.5307C79.5893 11.3872 79.3072 12.0989 78.7406 12.6642Z" fill="black"/>
</svg>
