<svg width="65" height="24" viewBox="0 0 65 24" fill="none" xmlns="http://www.w3.org/2000/svg">
<rect x="3" y="3" width="19" height="18" rx="7" fill="white"/>
<path d="M14.075 11.0951C14.075 11.5961 13.6226 12 13.0649 12H10.0307V10.1903H13.0649C13.6226 10.1903 14.075 10.5942 14.075 11.0951ZM24.1057 12C24.1057 18.6291 18.7082 24 12.0548 24C5.40146 24 0 18.6291 0 12C0 5.37087 5.39756 0 12.0509 0C18.7043 0 24.1018 5.37476 24.1018 12H24.1057ZM16.4735 14.4699C17.4836 13.6427 18.1232 12.4544 18.1232 11.134C18.1232 8.63689 15.8612 6.60971 13.0688 6.60971H5.98646V17.3942H10.0307V15.6505H13.0961L14.153 17.3942H18.1193L16.4735 14.4699Z" fill="#2116E5"/>
<path d="M31.3281 17.1533H32.1042L34.4325 20.5358H34.4598V17.1533H35.232V21.8407H34.4793L32.1276 18.4116H32.1081V21.8407H31.3359V17.1533H31.3281Z" fill="#80889E"/>
<path d="M36.1523 17.1533H39.5492V17.8096H36.9245V19.1106H39.3893V19.7669H36.9245V21.1844H39.6584V21.8407H36.1523V17.1533Z" fill="#80889E"/>
<path d="M40.0254 17.1533H43.8825V17.8096H42.3459V21.8407H41.5698V17.8096H40.0254V17.1533Z" fill="#80889E"/>
<path d="M44.0117 17.1533H44.8814L45.7667 20.7184H45.794L46.7261 17.1533H47.5217L48.4499 20.7184H48.4772L49.3625 17.1533H50.2322L48.875 21.8407H48.0638L47.1473 18.3145H47.12L46.1957 21.8407H45.365L44.0156 17.1533H44.0117Z" fill="#80889E"/>
<path d="M54.5151 17.7591C54.9129 18.1979 55.1079 18.7804 55.1079 19.5067C55.1079 20.2329 54.909 20.8115 54.5151 21.2465C54.1017 21.7047 53.5362 21.9338 52.8147 21.9338C52.0932 21.9338 51.5277 21.7008 51.1143 21.2348C50.7244 20.7921 50.5255 20.2173 50.5294 19.5028C50.5294 18.7882 50.7244 18.2096 51.1143 17.763C51.5199 17.2931 52.0854 17.0601 52.8147 17.0601C53.544 17.0601 54.1095 17.2931 54.5151 17.7591ZM51.6798 18.229C51.4263 18.5397 51.2976 18.9669 51.2976 19.5028C51.2976 20.0426 51.4263 20.462 51.6798 20.7688C51.945 21.0911 52.3233 21.2542 52.8147 21.2542C53.3061 21.2542 53.6805 21.0989 53.9418 20.7882C54.2031 20.4775 54.3318 20.0465 54.3318 19.4989C54.3318 18.9513 54.2031 18.5164 53.9418 18.1979C53.6844 17.8872 53.3061 17.7319 52.8147 17.7319C52.3233 17.7319 51.945 17.895 51.6798 18.2212V18.229Z" fill="#80889E"/>
<path d="M55.832 17.1533H57.9302C58.4177 17.1533 58.7999 17.262 59.0729 17.4756C59.3654 17.7164 59.5136 18.0581 59.5136 18.5008C59.5136 18.7339 59.4473 18.9591 59.3147 19.1494C59.1743 19.3591 58.9598 19.5067 58.7141 19.5649V19.5766C59.1236 19.6698 59.3537 19.9416 59.4044 20.396L59.4824 21.1455C59.498 21.4018 59.5955 21.6426 59.7671 21.8329H58.9286C58.8038 21.6542 58.7336 21.4445 58.7219 21.2271L58.6634 20.6484C58.6361 20.3921 58.5542 20.2057 58.4255 20.097C58.2968 19.9882 58.0901 19.9261 57.821 19.9261H56.6003V21.8368H55.8281V17.1455L55.832 17.1533ZM56.6042 17.8096V19.2737H57.8249C58.0706 19.2892 58.3163 19.2232 58.5152 19.0834C58.6634 18.9397 58.7414 18.7377 58.7297 18.5319C58.7297 18.2756 58.6556 18.0892 58.5152 17.9805C58.3748 17.8717 58.1447 17.8096 57.8249 17.8096H56.6042Z" fill="#80889E"/>
<path d="M63.3898 17.1533H64.3608L62.29 19.1611L64.669 21.8407H63.6277L61.7674 19.6698L61.1941 20.2252V21.8368H60.4219V17.1533H61.1941V19.3669L63.3898 17.1533Z" fill="#80889E"/>
<path d="M52.377 9.3905H56.0117C56.6786 9.3905 57.2207 8.9206 57.2207 8.33807C57.2207 7.75555 56.6825 7.28564 56.0117 7.28564H52.377V9.38662V9.3905Z" fill="white"/>
<path d="M31.3281 2.07003H38.3013C39.132 2.06226 39.951 2.27973 40.6647 2.69915C41.3784 3.10692 41.9672 3.69721 42.3806 4.40789C43.2815 5.96129 43.2152 7.89138 42.2129 9.38265C41.6981 10.1477 40.9689 10.7458 40.1109 11.0992L43.2074 15.2079H39.4362L36.6087 11.4525H34.3467V15.2079H31.3281V2.07003ZM38.3013 8.45061C38.7537 8.46226 39.1944 8.27973 39.5064 7.95352C40.1694 7.29721 40.1733 6.22925 39.5142 5.56905C39.1944 5.24672 38.7537 5.06808 38.3013 5.07197H34.3428V8.45061H38.3013Z" fill="white"/>
<path d="M49.8741 10.0426V12.2019H57.2177V15.2077H46.8594V2.06982H57.2177V5.07565H49.8741V7.23487" fill="white"/>
<path d="M61.6582 2.06982H64.6768V15.2038H61.6582V2.06982Z" fill="white"/>
</svg>
