<svg width="65" height="24" viewBox="0 0 65 24" fill="none" xmlns="http://www.w3.org/2000/svg">
<path d="M14.075 11.0951C14.075 11.5961 13.6226 12 13.0649 12H10.0307V10.1903H13.0649C13.6226 10.1903 14.075 10.5942 14.075 11.0951ZM24.1057 12C24.1057 18.6291 18.7082 24 12.0548 24C5.40146 24 0 18.6291 0 12C0 5.37087 5.39756 0 12.0509 0C18.7043 0 24.1018 5.37476 24.1018 12H24.1057ZM16.4735 14.4699C17.4836 13.6427 18.1232 12.4544 18.1232 11.134C18.1232 8.63689 15.8612 6.60971 13.0688 6.60971H5.98646V17.3942H10.0307V15.6505H13.0961L14.153 17.3942H18.1193L16.4735 14.4699Z" fill="#2116E5"/>
<path d="M31.3287 17.1534H32.1048L34.4331 20.5359H34.4604V17.1534H35.2326V21.8408H34.4799L32.1282 18.4116H32.1087V21.8408H31.3365V17.1534H31.3287Z" fill="#80889E"/>
<path d="M36.1532 17.1534H39.5501V17.8097H36.9254V19.1107H39.3902V19.767H36.9254V21.1844H39.6593V21.8408H36.1532V17.1534Z" fill="#80889E"/>
<path d="M40.0256 17.1534H43.8827V17.8097H42.3461V21.8408H41.57V17.8097H40.0256V17.1534Z" fill="#80889E"/>
<path d="M44.0117 17.1534H44.8814L45.7666 20.7184H45.7939L46.726 17.1534H47.5216L48.4498 20.7184H48.4771L49.3624 17.1534H50.2321L48.8749 21.8408H48.0637L47.1472 18.3145H47.1199L46.1956 21.8408H45.3649L44.0156 17.1534H44.0117Z" fill="#80889E"/>
<path d="M54.5144 17.7593C54.9122 18.1981 55.1072 18.7806 55.1072 19.5068C55.1072 20.2331 54.9083 20.8117 54.5144 21.2466C54.101 21.7049 53.5355 21.934 52.814 21.934C52.0925 21.934 51.527 21.701 51.1136 21.235C50.7236 20.7923 50.5247 20.2175 50.5286 19.503C50.5286 18.7884 50.7236 18.2098 51.1136 17.7632C51.5192 17.2933 52.0847 17.0602 52.814 17.0602C53.5433 17.0602 54.1088 17.2933 54.5144 17.7593ZM51.6791 18.2292C51.4256 18.5399 51.2969 18.967 51.2969 19.503C51.2969 20.0428 51.4256 20.4622 51.6791 20.769C51.9443 21.0913 52.3226 21.2544 52.814 21.2544C53.3054 21.2544 53.6798 21.0991 53.9411 20.7884C54.2024 20.4777 54.3311 20.0466 54.3311 19.4991C54.3311 18.9515 54.2024 18.5166 53.9411 18.1981C53.6837 17.8874 53.3054 17.7321 52.814 17.7321C52.3226 17.7321 51.9443 17.8952 51.6791 18.2214V18.2292Z" fill="#80889E"/>
<path d="M55.832 17.1534H57.9302C58.4177 17.1534 58.7999 17.2621 59.0729 17.4757C59.3654 17.7165 59.5136 18.0583 59.5136 18.501C59.5136 18.734 59.4473 18.9592 59.3147 19.1495C59.1743 19.3592 58.9598 19.5068 58.7141 19.565V19.5767C59.1236 19.6699 59.3537 19.9417 59.4044 20.3961L59.4824 21.1456C59.498 21.4019 59.5955 21.6427 59.7671 21.833H58.9286C58.8038 21.6544 58.7336 21.4447 58.7219 21.2272L58.6634 20.6485C58.6361 20.3922 58.5542 20.2058 58.4255 20.0971C58.2968 19.9883 58.0901 19.9262 57.821 19.9262H56.6003V21.8369H55.8281V17.1456L55.832 17.1534ZM56.6042 17.8097V19.2738H57.8249C58.0706 19.2893 58.3163 19.2233 58.5152 19.0835C58.6634 18.9398 58.7414 18.7379 58.7297 18.532C58.7297 18.2757 58.6556 18.0893 58.5152 17.9806C58.3748 17.8718 58.1447 17.8097 57.8249 17.8097H56.6042Z" fill="#80889E"/>
<path d="M63.3902 17.1534H64.3613L62.2905 19.1611L64.6694 21.8408H63.6281L61.7679 19.6699L61.1946 20.2252V21.8369H60.4224V17.1534H61.1946V19.367L63.3902 17.1534Z" fill="#80889E"/>
<path d="M52.377 9.39032H56.0117C56.6786 9.39032 57.2207 8.92041 57.2207 8.33789C57.2207 7.75536 56.6825 7.28546 56.0117 7.28546H52.377V9.38643V9.39032Z" fill="#2116E5"/>
<path d="M31.3287 2.0699H38.3019C39.1326 2.06214 39.9516 2.27961 40.6653 2.69903C41.379 3.1068 41.9679 3.69709 42.3813 4.40777C43.2821 5.96117 43.2158 7.89126 42.2136 9.38252C41.6988 10.1476 40.9695 10.7456 40.1115 11.099L43.208 15.2078H39.4368L36.6093 11.4524H34.3473V15.2078H31.3287V2.0699ZM38.3019 8.45049C38.7543 8.46214 39.195 8.27961 39.507 7.9534C40.17 7.29709 40.1739 6.22913 39.5148 5.56893C39.195 5.2466 38.7543 5.06796 38.3019 5.07185H34.3434V8.45049H38.3019Z" fill="#373E4F"/>
<path d="M49.8733 10.0427V12.2019H57.217V15.2077H46.8586V2.06989H57.217V5.07571H49.8733V7.23493" fill="#373E4F"/>
<path d="M61.6587 2.06989H64.6773V15.2039H61.6587V2.06989Z" fill="#373E4F"/>
</svg>
