<svg width="88" height="24" viewBox="0 0 88 24" fill="none" xmlns="http://www.w3.org/2000/svg">
<path d="M22.5228 16.1874V2.12466C22.5053 0.94663 21.5727 0 20.3911 0H5.71484C2.54889 0.0525906 0 2.63654 0 5.82002C0 6.89287 0.287495 7.81145 0.729256 8.61434C1.09739 9.28399 1.6829 9.91508 2.2649 10.3884C2.42267 10.5181 2.34905 10.469 2.8469 10.7741C3.53409 11.1948 4.32295 11.4051 4.32295 11.4051L4.31593 19.8126C4.33346 20.2088 4.37554 20.591 4.47371 20.9486C4.80327 22.1301 5.62018 23.0452 6.73861 23.4834C7.20491 23.6693 7.73432 23.792 8.29529 23.7955L20.016 23.8376C22.3545 23.8376 24.2478 21.9408 24.2478 19.5988C24.2478 18.1963 23.5676 16.9552 22.5193 16.1839L22.5228 16.1874Z" fill="#FFEEDA"/>
<path d="M33.1883 6.58429C31.5615 6.58429 30.3064 7.51339 30.3064 8.88776C30.3064 10.2621 31.3722 10.6864 32.687 10.9388L34.3523 11.2088C36.5576 11.5769 38.0863 12.5831 38.0863 15.0023C38.0863 17.4215 36.0142 18.9887 33.3847 18.9887C31.0111 18.9887 28.7742 17.5862 28.4482 14.8515C28.4201 14.6236 28.5989 14.4203 28.8268 14.4203H29.819C30.0118 14.4203 30.1766 14.5605 30.1977 14.7499C30.4326 16.6922 31.9332 17.4565 33.4022 17.4565C35.008 17.4565 36.2842 16.6642 36.2842 15.0584C36.2842 13.6279 35.2569 13.1231 33.9036 12.8706L32.2592 12.5796C29.9558 12.194 28.5043 11.0896 28.5043 8.97892C28.5043 6.54222 30.6324 5.05215 33.1883 5.05215C35.2288 5.05215 37.4762 6.20564 37.9145 8.92282C37.953 9.15422 37.7707 9.36809 37.5358 9.36809H36.505C36.3192 9.36809 36.1579 9.23486 36.1299 9.05254C35.8284 7.23992 34.5101 6.58079 33.1918 6.58079L33.1883 6.58429Z" fill="#ffffff"/>
<path d="M44.709 8.08139C47.1703 8.08139 48.9233 9.39615 49.5404 11.5383C49.6105 11.7803 49.4247 12.0257 49.1722 12.0257H48.0117C47.8469 12.0257 47.7032 11.9205 47.6506 11.7662C47.2194 10.5426 46.2236 9.84493 44.7125 9.84493C42.658 9.84493 41.5045 11.5243 41.5045 13.5368C41.5045 15.5493 42.658 17.2286 44.7125 17.2286C46.2236 17.2286 47.2194 16.5309 47.6506 15.3073C47.7067 15.1531 47.8469 15.0479 48.0117 15.0479H49.1687C49.4247 15.0479 49.6105 15.2933 49.5368 15.5387C48.8742 17.7791 47.1808 18.9922 44.7125 18.9922C41.5466 18.9922 39.5341 16.538 39.5341 13.5403C39.5341 10.5426 41.5466 8.0884 44.7125 8.0884L44.709 8.08139Z" fill="#ffffff"/>
<path d="M51.3951 17.2427H53.8774V10.3533H51.6651C51.4547 10.3533 51.2829 10.1816 51.2829 9.97119V8.99301C51.2829 8.78264 51.4547 8.61085 51.6651 8.61085H54.6768C55.3114 8.61085 55.8268 9.12624 55.8233 9.76083V10.0413C56.3667 8.72655 57.5482 8.40399 59.3749 8.40399C60.0761 8.40399 60.5424 8.51969 60.8088 8.61786C60.9596 8.67396 61.0578 8.8177 61.0578 8.97548V9.98522C61.0578 10.2447 60.8053 10.4305 60.5599 10.3498C60.2303 10.2412 59.7746 10.1465 59.1715 10.1465C57.2222 10.1465 55.8303 11.4753 55.8303 13.7787V17.2462H59.0173C59.2276 17.2462 59.3994 17.418 59.3994 17.6284V18.6066C59.3994 18.8169 59.2276 18.9887 59.0173 18.9887H51.3986C51.1883 18.9887 51.0165 18.8169 51.0165 18.6066V17.6284C51.0165 17.418 51.1883 17.2462 51.3986 17.2462L51.3951 17.2427Z" fill="#ffffff"/>
<path d="M62.5159 13.5333C62.5159 10.5356 64.5074 8.08139 67.7364 8.08139C70.9655 8.08139 72.9569 10.5356 72.9569 13.5333C72.9569 16.5309 70.9655 18.9852 67.7364 18.9852C64.5074 18.9852 62.5159 16.5309 62.5159 13.5333ZM67.7399 17.2251C69.8155 17.2251 71.0111 15.5457 71.0111 13.5333C71.0111 11.5208 69.8155 9.84142 67.7399 9.84142C65.6644 9.84142 64.4688 11.5208 64.4688 13.5333C64.4688 15.5457 65.6644 17.2251 67.7399 17.2251Z" fill="#ffffff"/>
<path d="M77.2943 17.3268H80.2884C80.4988 17.3268 80.6706 17.4986 80.6706 17.709V18.603C80.6706 18.8134 80.4988 18.9852 80.2884 18.9852H75.8042C75.5938 18.9852 75.422 18.8134 75.422 18.603V6.80872H73.932C73.7216 6.80872 73.5498 6.63692 73.5498 6.42656V5.53252C73.5498 5.32216 73.7216 5.15036 73.932 5.15036H76.1478C76.7824 5.15036 77.2943 5.66575 77.2943 6.29683V17.3268Z" fill="#ffffff"/>
<path d="M83.9135 17.3268H86.9077C87.118 17.3268 87.2898 17.4986 87.2898 17.709V18.603C87.2898 18.8134 87.118 18.9852 86.9077 18.9852H82.4234C82.2131 18.9852 82.0413 18.8134 82.0413 18.603V6.80872H80.5512C80.3409 6.80872 80.1691 6.63692 80.1691 6.42656V5.53252C80.1691 5.32216 80.3409 5.15036 80.5512 5.15036H82.767C83.4016 5.15036 83.9135 5.66575 83.9135 6.29683V17.3268Z" fill="#ffffff"/>
<path d="M22.8069 19.6934C22.7578 21.194 21.5272 22.3965 20.0161 22.3965L11.9487 22.365C12.5938 21.6217 12.9829 20.654 12.9829 19.6022C12.9829 17.9439 11.9942 16.8079 11.9942 16.8079H20.0161C21.5587 16.8079 22.8069 18.0596 22.8069 19.6022V19.6934Z" fill="#EBC28E"/>
<path d="M3.0222 9.18933C2.09661 8.31282 1.44098 7.17335 1.44098 5.82002V5.67628C1.51811 3.37281 3.41488 1.51811 5.71484 1.44449H20.3911C20.7768 1.45851 21.0853 1.73198 21.0853 2.12466V14.5395C21.4254 14.6026 21.5867 14.6412 21.9127 14.7604C22.1652 14.8516 22.5263 15.0584 22.5263 15.0584V2.12466C22.5053 0.94663 21.5727 0 20.3911 0H5.71484C2.54889 0.0525906 0 2.63654 0 5.82002C0 7.66771 0.841449 9.24192 2.22283 10.3533C2.31399 10.427 2.40514 10.5251 2.65407 10.5216C3.08531 10.5216 3.39034 10.1815 3.37281 9.80288C3.35878 9.49435 3.22555 9.37865 3.02571 9.18933H3.0222Z" fill="#190602"/>
<path d="M20.0196 15.3634H8.50576C7.73443 15.3704 7.10685 15.998 7.10685 16.7729V18.4242C7.12789 19.1885 7.78001 19.8441 8.55134 19.8441H9.40681V18.4242H8.55134V16.8079H9.01764C10.4691 16.8079 11.5385 18.1612 11.5385 19.6022C11.5385 20.8819 10.3745 22.5193 8.42162 22.3895C6.68613 22.2738 5.75352 20.7312 5.75352 19.6022V5.57107C5.75352 4.93647 5.23813 4.42459 4.60705 4.42459H3.46057V5.85505H4.31254V19.6022C4.27047 22.3965 6.30397 23.806 8.42162 23.806L20.0161 23.841C22.3546 23.841 24.2479 21.9443 24.2479 19.6022C24.2479 17.2602 22.3511 15.3634 20.0161 15.3634H20.0196ZM22.8069 19.6934C22.7578 21.194 21.5272 22.3965 20.0161 22.3965L11.9487 22.365C12.5938 21.6217 12.983 20.654 12.983 19.6022C12.983 17.9439 11.9943 16.8079 11.9943 16.8079H20.0161C21.5587 16.8079 22.8069 18.0596 22.8069 19.6022V19.6934Z" fill="#190602"/>
<path d="M8.24286 4.68405H16.9203C17.3165 4.68405 17.6355 5.0031 17.6355 5.39928C17.6355 5.79547 17.3165 6.11452 16.9203 6.11452H8.24286V4.68405Z" fill="#190602"/>
<path d="M8.24286 11.4402H16.9203C17.3165 11.4402 17.6355 11.7592 17.6355 12.1554C17.6355 12.5516 17.3165 12.8706 16.9203 12.8706H8.24286V11.4402Z" fill="#190602"/>
<path d="M8.24286 8.06036H18.4454C18.8416 8.06036 19.1607 8.37941 19.1607 8.7756C19.1607 9.17178 18.8416 9.49083 18.4454 9.49083H8.24286V8.06036Z" fill="#190602"/>
</svg>
