<svg width="106" height="28" viewBox="0 0 106 28" fill="none" xmlns="http://www.w3.org/2000/svg">
<path d="M23.7984 2.89102C21.5789 -0.0634132 17.4632 -0.832643 14.2246 0.950795C11.8533 2.25898 9.48187 3.56716 7.10558 4.87534C4.90078 4.91454 2.74988 5.90425 1.35351 7.76608C0.471585 8.94197 -0.0281693 10.3285 0.00122806 11.7053C0.0306254 13.0478 0.564677 14.3805 1.4613 15.5025C3.71509 18.3246 7.74253 19.0106 10.8978 17.2516L17.9238 13.3418C20.109 13.3516 22.2599 12.4256 23.6906 10.6274C24.5872 9.50542 25.1213 8.17274 25.1506 6.83026C25.18 5.45349 24.6803 4.06691 23.7984 2.89102ZM16.7234 4.34129C18.0561 3.61615 19.7562 3.92972 20.6676 5.13012C21.0301 5.61027 21.2359 6.17372 21.2261 6.73717C21.2163 7.28592 20.9958 7.82977 20.6235 8.28543C19.6925 9.43682 18.0365 9.7161 16.7332 9.00076L12.4755 6.65878C13.8915 5.88955 15.3074 5.11542 16.7185 4.34619L16.7234 4.34129ZM8.41866 13.8709C7.11538 14.5863 5.45933 14.307 4.52842 13.1556C4.16095 12.6999 3.94047 12.1561 3.92577 11.6073C3.91107 11.0488 4.12175 10.4804 4.48432 10.0003C5.40054 8.79498 7.09578 8.48141 8.42846 9.21144C9.84444 9.98067 11.2604 10.7548 12.6715 11.524L8.41376 13.866L8.41866 13.8709Z" fill="#C7E351"/>
<path d="M23.8965 12.6754C21.677 9.72101 17.5613 8.95178 14.3227 10.7352C11.9513 12.0434 9.57995 13.3516 7.20367 14.6598C4.99887 14.699 2.84796 15.6887 1.45159 17.5505C0.569669 18.7264 0.0699142 20.113 0.0993116 21.4897C0.128709 22.8322 0.66276 24.1649 1.55938 25.2869C3.81317 28.109 7.84061 28.795 10.9959 27.036L18.0219 23.1262C20.2071 23.136 22.358 22.21 23.7887 20.4118C24.6853 19.2898 25.2193 17.9572 25.2487 16.6147C25.2781 15.2379 24.7784 13.8513 23.8965 12.6754ZM16.8215 14.1257C18.1542 13.4006 19.8543 13.7141 20.7656 14.9145C21.1282 15.3947 21.334 15.9581 21.3242 16.5216C21.3144 17.0703 21.0939 17.6142 20.7215 18.0699C19.7906 19.2212 18.1346 19.5005 16.8313 18.7852L12.5736 16.4432C13.9896 15.674 15.4055 14.8998 16.8166 14.1306L16.8215 14.1257ZM8.51675 23.6553C7.21347 24.3707 5.55742 24.0914 4.6265 22.94C4.25903 22.4844 4.03855 21.9405 4.02386 21.3918C4.00916 20.8332 4.21984 20.2649 4.58241 19.7847C5.49862 18.5794 7.19387 18.2658 8.52655 18.9959C9.94252 19.7651 11.3585 20.5392 12.7696 21.3085L8.51185 23.6504L8.51675 23.6553Z" fill="#74DD54"/>
<path d="M28.9723 17.3398V15.4289H32.8087C32.9116 15.4289 33.0046 15.4044 33.0879 15.3604C33.1712 15.3114 33.2398 15.2477 33.2888 15.1644C33.3427 15.0811 33.3672 14.9929 33.3672 14.8998C33.3672 14.7969 33.3427 14.7038 33.2888 14.6205C33.2349 14.5372 33.1712 14.4735 33.0879 14.4245C33.0046 14.3755 32.9116 14.3559 32.8087 14.3559H31.4123C30.8929 14.3559 30.4275 14.2726 30.0061 14.1012C29.5848 13.9297 29.2565 13.6602 29.0115 13.2927C28.7665 12.9253 28.644 12.4451 28.644 11.8572C28.644 11.4015 28.7567 10.985 28.9772 10.6127C29.1977 10.2403 29.5064 9.94144 29.8934 9.71116C30.2805 9.48578 30.7068 9.36819 31.1771 9.36819H35.0135V11.2937H31.5495C31.4025 11.2937 31.2849 11.3427 31.182 11.4358C31.084 11.5289 31.035 11.6416 31.035 11.7788C31.035 11.9258 31.084 12.0434 31.182 12.1462C31.28 12.2442 31.4025 12.2932 31.5495 12.2932H32.9165C33.4946 12.2932 33.9944 12.3765 34.4157 12.548C34.8371 12.7195 35.1605 12.989 35.3956 13.3613C35.6308 13.7337 35.7435 14.2139 35.7435 14.8067C35.7435 15.2722 35.6259 15.6984 35.3956 16.0806C35.1605 16.4628 34.8518 16.7714 34.4647 16.9968C34.0776 17.2222 33.6367 17.3398 33.1516 17.3398H28.9723Z" fill="#ffffff"/>
<path d="M37.0368 17.3398V12.6313C37.0368 11.9797 37.1887 11.3917 37.4974 10.8675C37.8012 10.3432 38.2421 9.93164 38.8105 9.63277C39.3788 9.33389 40.0598 9.18201 40.8438 9.18201C41.2357 9.18201 41.5983 9.2261 41.9315 9.3143C42.2646 9.40249 42.5635 9.52008 42.8379 9.67196C43.1123 9.82385 43.3474 10.0002 43.5434 10.206H43.5728C43.7786 10.0002 44.0187 9.81895 44.2931 9.67196C44.5674 9.52008 44.8712 9.40249 45.2093 9.3143C45.5473 9.2261 45.9099 9.18201 46.3068 9.18201C47.0956 9.18201 47.7717 9.33389 48.3401 9.63277C48.9084 9.93164 49.3494 10.3432 49.663 10.8675C49.9716 11.3917 50.1284 11.9797 50.1284 12.6313V17.3398H47.7032V12.7097C47.7032 12.45 47.6395 12.2148 47.5072 12.0042C47.3798 11.7935 47.2034 11.6171 46.9878 11.4848C46.7722 11.3525 46.5224 11.2839 46.2431 11.2839C45.9638 11.2839 45.7139 11.3525 45.4886 11.4848C45.2681 11.6171 45.0917 11.7935 44.9692 12.0042C44.8467 12.2148 44.783 12.45 44.783 12.7097V17.3398H42.3773V12.7097C42.3773 12.45 42.3136 12.2148 42.1814 12.0042C42.054 11.7935 41.8776 11.6171 41.6522 11.4848C41.4317 11.3525 41.1769 11.2839 40.8977 11.2839C40.6184 11.2839 40.3685 11.3525 40.1431 11.4848C39.9227 11.6171 39.7463 11.7935 39.6238 12.0042C39.5013 12.2148 39.4376 12.45 39.4376 12.7097V17.3398H37.0319H37.0368Z" fill="#ffffff"/>
<path d="M54.964 17.526C54.2585 17.526 53.6362 17.3447 53.0973 16.9821C52.5583 16.6195 52.137 16.1296 51.8381 15.5122C51.5392 14.8949 51.3873 14.1992 51.3873 13.425C51.3873 12.6509 51.5637 11.8964 51.9165 11.2594C52.2692 10.6225 52.769 10.1178 53.4157 9.74547C54.0625 9.3731 54.8268 9.18692 55.7087 9.18692C56.5907 9.18692 57.3599 9.3731 57.987 9.74057C58.6142 10.108 59.0943 10.6127 59.4324 11.2496C59.7705 11.8866 59.9371 12.597 59.9371 13.3858V17.3496H57.5755V16.0757H57.5118C57.3648 16.355 57.1786 16.6048 56.9532 16.8302C56.7229 17.0507 56.4486 17.2271 56.1203 17.3496C55.792 17.4721 55.4099 17.5358 54.964 17.5358V17.526ZM55.6793 15.4437C56.0419 15.4437 56.3604 15.3555 56.6348 15.1693C56.9091 14.988 57.1198 14.7381 57.2619 14.4147C57.4089 14.0914 57.4775 13.7386 57.4775 13.3417C57.4775 12.9449 57.404 12.6117 57.2619 12.303C57.1149 11.9944 56.9091 11.7445 56.6348 11.5632C56.3604 11.3819 56.0419 11.2937 55.6793 11.2937C55.3168 11.2937 54.9787 11.3868 54.6994 11.5632C54.4202 11.7445 54.2095 11.9895 54.0625 12.303C53.9155 12.6117 53.8469 12.9596 53.8469 13.3417C53.8469 13.7239 53.9204 14.0914 54.0625 14.4147C54.2095 14.7381 54.4202 14.988 54.6994 15.1693C54.9787 15.3506 55.307 15.4437 55.6793 15.4437Z" fill="#ffffff"/>
<path d="M61.5052 17.3398V11.7151C61.5052 10.99 61.711 10.4216 62.1274 10.0052C62.5439 9.58872 63.1171 9.38293 63.8521 9.38293H66.1647V11.3428H64.44C64.293 11.3428 64.1705 11.3918 64.0677 11.4897C63.9648 11.5877 63.9109 11.7151 63.9109 11.8719V17.3398H61.5052Z" fill="#ffffff"/>
<path d="M73.514 11.3428V9.36823H71.3239V7.42801H68.8986V9.36823H67.5953V11.3428H68.8986V15.0076C68.8986 15.723 69.1044 16.2913 69.5209 16.7078C69.9373 17.1291 70.5106 17.3349 71.2455 17.3349H73.514V15.3163H71.7747C71.6522 15.3163 71.5444 15.2722 71.4562 15.184C71.368 15.0958 71.3239 14.988 71.3239 14.8655V11.3379H73.514V11.3428Z" fill="#ffffff"/>
<path d="M75.7336 17.3398V6.46768H82.0394C82.5783 6.46768 83.0683 6.58527 83.5092 6.82535C83.9502 7.06543 84.303 7.3937 84.5675 7.81996C84.8321 8.24622 84.9644 8.74598 84.9644 9.32902C84.9644 9.67199 84.9007 9.99536 84.7684 10.3089C84.641 10.6176 84.4597 10.892 84.2246 11.1321C83.9894 11.3721 83.7248 11.5632 83.4259 11.7053C83.7787 11.8523 84.0923 12.0581 84.3667 12.3276C84.641 12.597 84.8566 12.9057 85.0183 13.2585C85.18 13.6112 85.2584 13.9885 85.2584 14.3952C85.2584 14.9831 85.1212 15.5025 84.8468 15.9483C84.5724 16.3942 84.205 16.7371 83.7493 16.9821C83.2936 17.2271 82.7841 17.3496 82.2256 17.3496H75.7336V17.3398ZM78.3402 10.7989H81.275C81.4808 10.7989 81.667 10.7499 81.8287 10.6519C81.9904 10.5539 82.1178 10.4265 82.2108 10.2648C82.3039 10.1032 82.3529 9.92677 82.3529 9.73079C82.3529 9.525 82.3039 9.33882 82.2108 9.17714C82.1178 9.01545 81.9904 8.88806 81.8287 8.79007C81.667 8.69208 81.4857 8.64308 81.275 8.64308H78.3402V10.8038V10.7989ZM78.3402 15.184H81.5396C81.7552 15.184 81.9512 15.1301 82.1227 15.0272C82.2941 14.9243 82.4313 14.7822 82.5342 14.6058C82.6371 14.4295 82.691 14.2384 82.691 14.0326C82.691 13.8268 82.6371 13.621 82.5342 13.4495C82.4313 13.2781 82.2941 13.1409 82.1227 13.038C81.9512 12.9351 81.7552 12.8812 81.5396 12.8812H78.3402V15.1791V15.184Z" fill="#ffffff"/>
<path d="M92.2008 17.3398C91.309 17.33 90.5055 17.183 89.7951 16.9037C89.0798 16.6244 88.4722 16.2423 87.9774 15.7523C87.4825 15.2623 87.0954 14.694 86.826 14.0375C86.5565 13.3809 86.4242 12.6656 86.4242 11.9012C86.4242 11.1369 86.5565 10.4216 86.826 9.76504C87.0954 9.1085 87.4825 8.53525 87.9823 8.05019C88.4869 7.56514 89.0896 7.17807 89.8 6.8988C90.5104 6.61952 91.309 6.47254 92.2008 6.46274H93.8764V8.63814H92.2596C91.7745 8.64794 91.3286 8.73613 90.9318 8.90272C90.5349 9.0693 90.192 9.29468 89.9078 9.58865C89.6236 9.87773 89.4031 10.2207 89.2561 10.6127C89.1043 11.0046 89.0308 11.4358 89.0308 11.9012C89.0308 12.3667 89.1043 12.7979 89.2561 13.1898C89.408 13.5818 89.6236 13.9248 89.9078 14.2138C90.192 14.5029 90.5349 14.7332 90.9318 14.8949C91.3286 15.0615 91.7745 15.1496 92.2596 15.1594H93.8764V17.3349H92.2008V17.3398Z" fill="#ffffff"/>
<path d="M95.6454 17.3398V6.46768H98.2568V10.7401H102.5V6.46768H105.111V17.3447H102.5V12.9155H98.2568V17.3447H95.6454V17.3398Z" fill="#ffffff"/>
</svg>
