<svg width="85" height="26" viewBox="0 0 85 26" fill="none" xmlns="http://www.w3.org/2000/svg">
<path fill-rule="evenodd" clip-rule="evenodd" d="M0 0L10.4609 26L25.0394 8.45931L19.8809 3.61393L0 0ZM3.70703 2.06934L18.0358 4.67611L12.4753 9.25488L3.70703 2.06934ZM2.7168 3.03418L11.8532 10.5202L10.4229 22.1914L2.7168 3.03418ZM19.5592 5.20508L22.6019 8.06152L14.2865 9.55111L19.5635 5.20931L19.5592 5.20508ZM13.1735 11.1423L22.3818 9.49609L11.8193 22.2083L13.1735 11.1423Z" fill="#BB2E31"/>
<path fill-rule="evenodd" clip-rule="evenodd" d="M53.5827 12.4287C54.2555 11.7939 54.5941 10.9222 54.5941 9.83464C54.5941 5.90332 51.0521 5.90332 51.014 5.90332H44.7764H43.5449V18.2601H44.7764V7.13477H50.9759C51.1621 7.14323 53.3584 7.30827 53.3584 9.83464C53.3584 10.5752 53.1553 11.1296 52.7363 11.5273C51.9365 12.2848 50.6035 12.2256 50.5951 12.2256H45.6989V18.2601H46.9303V13.457H50.5527L53.4473 18.3024H54.8818L51.8984 13.3047C52.4486 13.1693 53.0664 12.9111 53.5785 12.4287" fill="white"/>
<path fill-rule="evenodd" clip-rule="evenodd" d="M33.6035 18.2604H34.835V9.75879H33.6035V18.2604Z" fill="white"/>
<path fill-rule="evenodd" clip-rule="evenodd" d="M29.7148 7.11784H40.7428V5.90332H29.7148V7.11784Z" fill="white"/>
<path fill-rule="evenodd" clip-rule="evenodd" d="M35.7578 18.2604H36.9893V9.75879H35.7578V18.2604Z" fill="white"/>
<path fill-rule="evenodd" clip-rule="evenodd" d="M75.248 18.2054H76.4922V13.7197H75.248V18.2054Z" fill="white"/>
<path fill-rule="evenodd" clip-rule="evenodd" d="M82.9502 5.98389V15.9032L73.0098 4.68896V18.1799H74.2581V8.34945L84.1943 19.5679V5.98389H82.9502Z" fill="white"/>
<path fill-rule="evenodd" clip-rule="evenodd" d="M64.1016 17.0586C61.3001 17.0586 59.0234 14.8073 59.0234 12.0397C59.0234 9.27214 61.3001 7.02083 64.1016 7.02083C66.903 7.02083 69.1797 9.27214 69.1797 12.0397C69.1797 14.8073 66.903 17.0586 64.1016 17.0586ZM64.1016 5.78516C60.6146 5.78516 57.7793 8.59082 57.7793 12.0355C57.7793 15.4801 60.6146 18.2858 64.1016 18.2858C67.5885 18.2858 70.4238 15.4844 70.4238 12.0355C70.4238 8.58659 67.5885 5.78516 64.1016 5.78516Z" fill="white"/>
<path fill-rule="evenodd" clip-rule="evenodd" d="M64.1029 11.0493C63.6289 11.0493 63.248 11.4259 63.248 11.8957C63.248 12.3654 63.6289 12.742 64.1029 12.742C64.5768 12.742 64.9577 12.3654 64.9577 11.8957C64.9577 11.4259 64.5768 11.0493 64.1029 11.0493Z" fill="white"/>
</svg>
