<svg width="85" height="26" viewBox="0 0 85 26" fill="none" xmlns="http://www.w3.org/2000/svg">
<path fill-rule="evenodd" clip-rule="evenodd" d="M0 0L10.4609 26L25.0394 8.45931L19.8809 3.61393L0 0ZM3.70703 2.06934L18.0358 4.67611L12.4753 9.25488L3.70703 2.06934ZM2.7168 3.03418L11.8532 10.5202L10.4229 22.1914L2.7168 3.03418ZM19.5592 5.20508L22.6019 8.06152L14.2865 9.55111L19.5635 5.20931L19.5592 5.20508ZM13.1735 11.1423L22.3818 9.49609L11.8193 22.2083L13.1735 11.1423Z" fill="#BB2E31"/>
<path fill-rule="evenodd" clip-rule="evenodd" d="M53.5826 12.4287C54.2555 11.794 54.594 10.9222 54.594 9.83465C54.594 5.90334 51.052 5.90334 51.0139 5.90334H44.7763H43.5449V18.2601H44.7763V7.13478H50.9759C51.162 7.14324 53.3583 7.30828 53.3583 9.83465C53.3583 10.5752 53.1552 11.1296 52.7363 11.5274C51.9365 12.2848 50.6035 12.2256 50.595 12.2256H45.6988V18.2601H46.9303V13.457H50.5527L53.4472 18.3024H54.8818L51.8984 13.3047C52.4485 13.1693 53.0663 12.9111 53.5784 12.4287" fill="#1C1C1C"/>
<path fill-rule="evenodd" clip-rule="evenodd" d="M33.6047 18.2601H34.8361V9.75845H33.6047V18.2601Z" fill="#1C1C1C"/>
<path fill-rule="evenodd" clip-rule="evenodd" d="M29.7155 7.11785H40.7434V5.90334H29.7155V7.11785Z" fill="#1C1C1C"/>
<path fill-rule="evenodd" clip-rule="evenodd" d="M35.7587 18.2601H36.9901V9.75845H35.7587V18.2601Z" fill="#1C1C1C"/>
<path fill-rule="evenodd" clip-rule="evenodd" d="M75.2493 18.2051H76.4934V13.7194H75.2493V18.2051Z" fill="#1C1C1C"/>
<path fill-rule="evenodd" clip-rule="evenodd" d="M82.9512 5.98372V15.903L73.0107 4.6888V18.1797H74.2591V8.34928L84.1953 19.5677V5.98372H82.9512Z" fill="#1C1C1C"/>
<path fill-rule="evenodd" clip-rule="evenodd" d="M64.1028 17.0583C61.3014 17.0583 59.0247 14.807 59.0247 12.0394C59.0247 9.27185 61.3014 7.02054 64.1028 7.02054C66.9042 7.02054 69.1809 9.27185 69.1809 12.0394C69.1809 14.807 66.9042 17.0583 64.1028 17.0583ZM64.1028 5.78487C60.6158 5.78487 57.7805 8.59053 57.7805 12.0352C57.7805 15.4799 60.6158 18.2855 64.1028 18.2855C67.5898 18.2855 70.4251 15.4841 70.4251 12.0352C70.4251 8.5863 67.5898 5.78487 64.1028 5.78487Z" fill="#1C1C1C"/>
<path fill-rule="evenodd" clip-rule="evenodd" d="M64.1031 11.0492C63.6291 11.0492 63.2483 11.4258 63.2483 11.8955C63.2483 12.3652 63.6291 12.7419 64.1031 12.7419C64.5771 12.7419 64.9579 12.3652 64.9579 11.8955C64.9579 11.4258 64.5771 11.0492 64.1031 11.0492Z" fill="#1C1C1C"/>
</svg>
