<svg width="115" height="22" viewBox="0 0 115 22" fill="none" xmlns="http://www.w3.org/2000/svg">
<path d="M14.5594 15.3203V18.0855H3.15719C3.31348 16.2653 3.90259 14.9861 5.93199 13.1875L14.5618 5.82726V12.2858H17.6684V0.400269H0.00246555V6.32499H3.10669V3.5069H12.4891L3.90259 10.8335L3.88095 10.8527C0.286198 14.0387 6.10352e-05 16.6091 6.10352e-05 19.6388V21.1921H17.666V15.3227H14.5594V15.3203Z" fill="#005741"/>
<path d="M36.6762 11.4129C36.6762 11.4129 36.657 11.4226 36.657 11.4346C36.7195 12.6849 37.2413 14.7023 39.9199 14.7023C41.9878 14.7023 42.411 13.4111 42.5793 13.048C42.5817 13.0408 42.5889 13.036 42.5961 13.036H44.5967C44.6087 13.036 44.6183 13.048 44.6159 13.0576C44.4933 13.7357 43.4473 16.3903 39.9223 16.3903C36.3973 16.3903 34.6685 13.7405 34.6685 10.8815C34.6685 7.38297 36.871 5.34875 39.8526 5.34875C42.6322 5.34875 44.7145 7.4503 44.7145 10.0929C44.7145 10.2468 44.7121 10.4319 44.7025 10.6483C44.6953 10.8599 44.6688 11.11 44.6231 11.3961C44.6231 11.4057 44.6135 11.4129 44.6063 11.4129H36.6786H36.6762ZM39.8045 6.89967C37.2846 6.89967 36.681 8.77759 36.681 9.86443C36.681 9.87405 36.6883 9.88607 36.7003 9.88607H42.75C42.75 9.88607 42.7693 9.87646 42.7693 9.86684C42.839 8.66218 42.0263 6.89967 39.8069 6.89967H39.8045Z" fill="#005741"/>
<path d="M52.1322 16.1185C52.1322 16.1185 52.125 16.1354 52.1154 16.1378C51.9182 16.1666 51.6561 16.1979 51.3315 16.2268C50.9997 16.258 50.6631 16.2724 50.324 16.2724C48.6 16.2724 47.013 15.6545 47.013 12.5911V7.33245C47.013 7.33245 47.0058 7.31322 46.9938 7.31322H45.087C45.087 7.31322 45.0677 7.306 45.0677 7.29398V5.64208C45.0677 5.64208 45.075 5.62284 45.087 5.62284H46.9938C46.9938 5.62284 47.013 5.61563 47.013 5.60361V2.10023C47.013 2.10023 47.0202 2.08099 47.0322 2.08099H49.0087C49.0087 2.08099 49.028 2.08821 49.028 2.10023V5.60361C49.028 5.60361 49.0352 5.62284 49.0472 5.62284H51.7403C51.7403 5.62284 51.7595 5.63006 51.7595 5.64208V7.29398C51.7595 7.29398 51.7523 7.31322 51.7403 7.31322H49.0472C49.0472 7.31322 49.028 7.32043 49.028 7.33245V12.1367C49.028 14.344 49.9321 14.421 50.764 14.421H51.4926C51.7499 14.421 51.9543 14.4017 52.1058 14.3584C52.1178 14.356 52.1298 14.3633 52.1298 14.3777V16.1185H52.1322Z" fill="#005741"/>
<path d="M63.436 5.64449V16.1161C63.436 16.1161 63.4288 16.1354 63.4168 16.1354H61.4643C61.4643 16.1354 61.4451 16.1282 61.4451 16.1161V14.3801C61.4451 14.3609 61.4186 14.3536 61.4114 14.3729C61.058 15.0726 59.8749 16.3927 57.7662 16.3927C54.9553 16.3927 52.3729 14.1877 52.3729 10.8839C52.3729 8.20289 54.282 5.35114 57.7662 5.35114C59.7379 5.35114 61.0099 6.56542 61.4114 7.37093C61.421 7.38776 61.4451 7.38295 61.4451 7.36371V5.6493C61.4451 5.6493 61.4523 5.63006 61.4643 5.63006H63.4168C63.4168 5.63006 63.436 5.63727 63.436 5.6493V5.64449ZM57.8792 14.5845C60.3583 14.5845 61.4451 12.5839 61.4451 10.8815C61.4451 8.90982 60.0529 7.15452 57.8792 7.15452C55.4194 7.15452 54.3614 9.25366 54.3614 10.8815C54.3614 12.5094 55.3617 14.5845 57.8792 14.5845Z" fill="#005741"/>
<path d="M73.2199 9.44601C73.2199 9.44601 73.2031 9.4388 73.2007 9.42918C73.0299 8.56115 72.7029 7.15451 70.2864 7.15451C68.3508 7.15451 67.0211 8.60443 67.0211 10.8815C67.0211 12.5502 67.8266 14.5845 70.4018 14.5845C72.3278 14.5845 72.8905 13.6611 73.2223 12.5382C73.2223 12.531 73.2319 12.5238 73.2415 12.5238H75.2181C75.2181 12.5238 75.2397 12.5334 75.2373 12.5454C74.98 14.3176 73.6503 16.3878 70.2623 16.3878C67.0884 16.3878 65.0085 14.0194 65.0085 10.8791C65.0085 8.09948 66.7638 5.34631 70.2407 5.34631C73.9461 5.34631 75.1026 7.87586 75.2156 9.42197C75.2156 9.43399 75.2084 9.44361 75.1964 9.44361H73.2199V9.44601Z" fill="#005741"/>
<path d="M76.911 0.280053H78.8875C78.8875 0.280053 78.9067 0.287267 78.9067 0.29929V7.39982C78.9067 7.41906 78.9332 7.42387 78.9428 7.40703C79.253 6.79148 80.21 5.34877 82.6121 5.34877C85.9375 5.34877 86.6252 7.8663 86.5699 9.93177V16.1162C86.5699 16.1162 86.5627 16.1354 86.5507 16.1354H84.5741C84.5741 16.1354 84.5549 16.1282 84.5549 16.1162V10.5569C84.5549 8.75116 83.9442 7.13052 81.8931 7.13052C80.3422 7.13052 78.9067 8.28468 78.9067 10.7181V16.1162C78.9067 16.1162 78.8995 16.1354 78.8875 16.1354H76.911C76.911 16.1354 76.8917 16.1282 76.8917 16.1162V0.296885C76.8917 0.296885 76.8989 0.277649 76.911 0.277649V0.280053Z" fill="#005741"/>
<path d="M99.0133 5.64449V16.1161C99.0133 16.1161 99.0061 16.1354 98.9941 16.1354H97.0416C97.0416 16.1354 97.0224 16.1282 97.0224 16.1161V14.3801C97.0224 14.3609 96.9983 14.356 96.9887 14.3729C96.6497 14.9908 95.5364 16.3927 93.3411 16.3927C90.2513 16.3927 87.9478 13.9593 87.9478 10.8839C87.9478 8.34235 89.7704 5.35114 93.3411 5.35114C95.5075 5.35114 96.6473 6.75297 96.9887 7.37093C96.9983 7.38776 97.0224 7.38295 97.0224 7.36371V5.6493C97.0224 5.6493 97.0296 5.63006 97.0416 5.63006H98.9941C98.9941 5.63006 99.0133 5.63727 99.0133 5.6493V5.64449ZM93.4589 14.5845C95.8201 14.5845 97.0248 12.6609 97.0248 10.8815C97.0248 8.9002 95.6181 7.15452 93.4589 7.15452C90.9149 7.15452 89.893 9.39312 89.9411 10.8815C90.0204 13.399 91.7493 14.5845 93.4589 14.5845Z" fill="#005741"/>
<path d="M100.362 1.56877C100.362 1.18405 100.48 0.847415 100.718 0.558873C101.028 0.181364 101.514 -0.0302328 102.002 0.00343038C102.38 0.02988 102.709 0.181364 102.99 0.465097C103.272 0.746425 103.426 1.07584 103.452 1.45335C103.486 1.94147 103.274 2.42478 102.897 2.73736C102.608 2.97541 102.271 3.09564 101.887 3.09564C101.459 3.09564 101.098 2.94896 100.805 2.65321C100.509 2.35985 100.362 1.99677 100.362 1.57117V1.56877Z" fill="#005741"/>
<path d="M102.897 5.62524H100.922C100.922 5.62524 100.903 5.63486 100.903 5.64448V16.1161C100.903 16.1161 100.913 16.1354 100.922 16.1354H102.897C102.897 16.1354 102.916 16.1258 102.916 16.1161V5.64448C102.916 5.64448 102.906 5.62524 102.897 5.62524Z" fill="#005741"/>
<path d="M114.496 16.1354H112.563C112.563 16.1354 112.543 16.1282 112.543 16.1161V9.50373C112.572 7.79652 112.152 7.55607 110.615 7.57771H106.773C106.773 7.57771 106.753 7.58492 106.753 7.59695V16.1161C106.753 16.1161 106.746 16.1354 106.734 16.1354H104.82C104.82 16.1354 104.801 16.1282 104.801 16.1161V5.64448C104.801 5.64448 104.808 5.62524 104.82 5.62524H110.615C113.003 5.64929 114.496 7.63061 114.496 9.50613V16.1354Z" fill="#005741"/>
<path d="M27.6305 10.807C25.8512 12.4156 25.7093 13.7117 25.7093 15.2385V16.1354H33.8654V14.3392H27.5175C27.6113 13.5506 27.907 12.9615 28.7943 12.1559L33.8654 7.88312V5.61566H25.7021V7.41183H31.6725L27.6521 10.7854L27.6281 10.807H27.6305Z" fill="#005741"/>
</svg>
