<svg width="108" height="22" viewBox="0 0 108 22" fill="none" xmlns="http://www.w3.org/2000/svg">
<path fill-rule="evenodd" clip-rule="evenodd" d="M37.4703 10.596L26.8397 -3.05176e-05V7.75484L16.2869 15.5184H26.8397V21.1834L37.4703 10.5874V10.596Z" fill="#ffffff"/>
<path fill-rule="evenodd" clip-rule="evenodd" d="M0 10.596L10.6306 21.1921V13.4976L21.1834 5.66503H10.6306V0L0 10.596Z" fill="#ffffff"/>
<path d="M53.3084 15.8897H45.1736V13.558L49.8282 8.36796H45.2858V6.07086H53.2221V8.29024L48.4293 13.5753H53.3084V15.8897Z" fill="#ffffff"/>
<path d="M64.4054 6.06222L60.4675 10.1987L64.4831 15.8897H61.2274L58.6281 12.1331L57.5313 13.2903V15.8897H54.8715V1.43347H57.5313V9.71513L60.9252 6.06222H64.4054Z" fill="#ffffff"/>
<path d="M75.9683 5.10362L73.4899 5.86357C73.3949 5.36269 73.1445 4.89637 72.73 4.49049C72.3154 4.07597 71.7109 3.86872 70.9165 3.86872C70.2601 3.86872 69.7247 4.05007 69.3188 4.40413C68.9043 4.74956 68.6971 5.17271 68.6971 5.66494C68.6971 6.52852 69.2066 7.06393 70.2342 7.26255L72.2118 7.64252C73.464 7.88432 74.4398 8.37656 75.1307 9.1365C75.8215 9.89645 76.167 10.7859 76.167 11.8136C76.167 12.9794 75.7006 14.007 74.768 14.8879C73.8526 15.7515 72.609 16.1919 71.046 16.1919C70.1479 16.1919 69.3448 16.0537 68.628 15.7946C67.9112 15.5269 67.324 15.1729 66.8836 14.7411C66.4431 14.2834 66.0977 13.8171 65.8473 13.3248C65.6055 12.824 65.4587 12.2972 65.4069 11.7704L67.963 11.0882C68.0321 11.8481 68.3257 12.4785 68.8439 12.988C69.3707 13.4889 70.1133 13.748 71.0633 13.748C71.78 13.748 72.3413 13.5839 72.7386 13.2644C73.1531 12.9449 73.3604 12.5303 73.3604 12.0036C73.3604 11.589 73.2049 11.235 72.9027 10.95C72.609 10.6478 72.1859 10.4405 71.6418 10.3282L69.6643 9.93099C68.5157 9.68919 67.609 9.22286 66.944 8.51473C66.2791 7.8066 65.9423 6.93439 65.9423 5.88084C65.9423 4.62866 66.4259 3.5751 67.3844 2.7288C68.3516 1.8825 69.5261 1.45071 70.8819 1.45071C71.6937 1.45071 72.4191 1.56298 73.0581 1.78751C73.6972 2.01204 74.2067 2.31429 74.5953 2.70289C74.9839 3.07423 75.2861 3.46284 75.4934 3.86008C75.7006 4.25732 75.8647 4.68047 75.9511 5.12089L75.9683 5.10362Z" fill="#ffffff"/>
<path d="M80.6489 19.7585H77.825L80.1394 14.6461L75.9597 6.06221H78.939L81.5557 11.8136L83.9737 6.06221H86.8148L80.6403 19.7585H80.6489Z" fill="#ffffff"/>
<path d="M90.4936 10.2333V15.881H87.8338V6.0622H90.4072V7.27984C90.6836 6.79624 91.0895 6.43354 91.6076 6.1831C92.1258 5.93267 92.6698 5.80313 93.2484 5.80313C94.4056 5.80313 95.2864 6.16583 95.8909 6.89987C96.5041 7.61663 96.8063 8.54929 96.8063 9.69784V15.8897H94.1465V10.1555C94.1465 9.5683 93.9911 9.10198 93.6888 8.73928C93.3952 8.37658 92.9461 8.19523 92.333 8.19523C91.7717 8.19523 91.3226 8.38521 90.9945 8.77382C90.6663 9.16243 90.4936 9.64603 90.4936 10.2333Z" fill="#ffffff"/>
<path d="M103.326 8.22104C102.618 8.22104 102.022 8.47147 101.547 8.95507C101.064 9.44731 100.831 10.1209 100.831 10.9672C100.831 11.8135 101.073 12.4957 101.547 13.0052C102.04 13.4975 102.636 13.7393 103.344 13.7393C103.965 13.7393 104.466 13.5752 104.838 13.2557C105.209 12.9189 105.459 12.5303 105.598 12.0812L107.938 12.8584C107.696 13.7652 107.178 14.5424 106.375 15.1901C105.572 15.8464 104.561 16.1745 103.335 16.1745C101.867 16.1745 100.641 15.6823 99.639 14.6978C98.6545 13.6961 98.1623 12.4525 98.1623 10.9672C98.1623 9.48185 98.6459 8.22104 99.6217 7.23656C100.606 6.25209 101.824 5.75986 103.257 5.75986C104.51 5.75986 105.537 6.08801 106.332 6.74433C107.135 7.38337 107.644 8.16059 107.869 9.07597L105.485 9.87909C105.166 8.77372 104.44 8.22104 103.309 8.22104H103.318H103.326Z" fill="#ffffff"/>
</svg>
