<svg width="18" height="18" viewBox="0 0 18 18" fill="none" xmlns="http://www.w3.org/2000/svg">
<path d="M16.2389 8.98333C16.6816 8.98333 17.0449 8.6232 17.0008 8.18287C16.8159 6.34148 15.9999 4.62069 14.6912 3.31222C13.3824 2.00376 11.6614 1.18814 9.81999 1.00364C9.37885 0.959523 9.01953 1.32286 9.01953 1.76559V8.18207C9.01953 8.39479 9.10403 8.5988 9.25445 8.74921C9.40486 8.89963 9.60887 8.98413 9.82159 8.98413L16.2389 8.98333Z" stroke="white" stroke-width="1.6" stroke-linecap="round" stroke-linejoin="round"/>
<path d="M16.4079 12.1033C15.8976 13.31 15.0996 14.3733 14.0834 15.2003C13.0673 16.0273 11.864 16.5928 10.5789 16.8473C9.29371 17.1019 7.96575 17.0377 6.71111 16.6605C5.45646 16.2832 4.31333 15.6044 3.38165 14.6833C2.44998 13.7622 1.75812 12.6269 1.36657 11.3766C0.975023 10.1264 0.895704 8.79922 1.13555 7.51123C1.37539 6.22324 1.9271 5.01361 2.74243 3.9881C3.55777 2.96259 4.6119 2.15242 5.81268 1.62842" stroke="white" stroke-width="1.6" stroke-linecap="round" stroke-linejoin="round"/>
</svg>
