<svg width="18" height="14" viewBox="0 0 18 14" fill="none" xmlns="http://www.w3.org/2000/svg">
<path d="M15.2612 1.1824C15.2562 1.1725 15.2479 1.16475 15.2378 1.16052C14.0708 0.613915 12.8392 0.224142 11.5739 0.000956055C11.5624 -0.00122554 11.5506 0.000348288 11.54 0.00545372C11.5294 0.0105591 11.5207 0.0189362 11.5151 0.0293936C11.3474 0.34011 11.1951 0.659267 11.059 0.985646C9.69507 0.774296 8.30774 0.774296 6.94386 0.985646C6.80677 0.658438 6.65209 0.339201 6.48054 0.0293936C6.47466 0.0191635 6.46589 0.0109793 6.45538 0.00590707C6.44488 0.000834807 6.43312 -0.00089046 6.42164 0.000956055C5.15624 0.223673 3.9246 0.613476 2.75771 1.16055C2.74772 1.16488 2.73929 1.17226 2.73359 1.18168C0.400038 4.73913 -0.239209 8.2091 0.0743838 11.6361C0.075266 11.6445 0.0777938 11.6526 0.0818169 11.66C0.08584 11.6674 0.0912762 11.6739 0.0978022 11.6791C1.45661 12.7061 2.97645 13.4901 4.59246 13.9975C4.60384 14.001 4.61599 14.0008 4.62728 13.997C4.63858 13.9933 4.64846 13.9861 4.65561 13.9764C5.0027 13.4943 5.31024 12.9838 5.57512 12.4501C5.57876 12.4427 5.58084 12.4347 5.58121 12.4265C5.58159 12.4183 5.58027 12.4101 5.57732 12.4025C5.57437 12.3948 5.56987 12.3879 5.56412 12.3822C5.55836 12.3764 5.55148 12.372 5.54392 12.3692C5.05895 12.1798 4.58944 11.9514 4.1398 11.6863C4.13163 11.6814 4.12477 11.6745 4.11982 11.6662C4.11488 11.658 4.112 11.6486 4.11144 11.639C4.11088 11.6293 4.11265 11.6197 4.11661 11.6109C4.12057 11.6021 4.12659 11.5944 4.13413 11.5886C4.22848 11.5164 4.32289 11.4414 4.41298 11.3656C4.42098 11.3588 4.43067 11.3545 4.44095 11.3531C4.45122 11.3517 4.46168 11.3532 4.47114 11.3576C7.41694 12.73 10.6062 12.73 13.5171 11.3576C13.5266 11.3529 13.5372 11.3512 13.5476 11.3525C13.558 11.3538 13.5679 11.3581 13.576 11.3648C13.6661 11.4406 13.7605 11.5164 13.8555 11.5886C13.8631 11.5944 13.8692 11.602 13.8732 11.6107C13.8772 11.6195 13.8791 11.6291 13.8786 11.6388C13.8781 11.6484 13.8753 11.6578 13.8704 11.6661C13.8655 11.6744 13.8587 11.6813 13.8506 11.6863C13.402 11.9536 12.932 12.1818 12.4458 12.3685C12.4382 12.3714 12.4314 12.3759 12.4257 12.3817C12.4199 12.3876 12.4155 12.3946 12.4126 12.4023C12.4097 12.41 12.4084 12.4182 12.4089 12.4264C12.4093 12.4347 12.4115 12.4427 12.4152 12.4501C12.6845 12.9808 12.9916 13.4907 13.334 13.9755C13.3409 13.9855 13.3508 13.9929 13.3621 13.9969C13.3734 14.0008 13.3857 14.001 13.3971 13.9974C15.016 13.4917 16.5385 12.7077 17.899 11.6791C17.9057 11.6741 17.9112 11.6678 17.9152 11.6605C17.9193 11.6533 17.9217 11.6452 17.9225 11.6368C18.2979 7.67485 17.2939 4.23331 15.2612 1.1824ZM6.01505 9.54942C5.12815 9.54942 4.39737 8.71857 4.39737 7.6982C4.39737 6.67782 5.11397 5.84691 6.01505 5.84691C6.92316 5.84691 7.64687 6.68504 7.6327 7.69813C7.6327 8.71857 6.91606 9.54942 6.01505 9.54942ZM11.9961 9.54942C11.1092 9.54942 10.3784 8.71857 10.3784 7.6982C10.3784 6.67782 11.095 5.84691 11.9961 5.84691C12.9043 5.84691 13.6279 6.68504 13.6138 7.69813C13.6138 8.71857 12.9043 9.54942 11.9961 9.54942Z" fill="white"/>
</svg>
