<?xml version="1.0" encoding="UTF-8"?>
<svg id="_图层_2" data-name="图层 2" xmlns="http://www.w3.org/2000/svg" xmlns:xlink="http://www.w3.org/1999/xlink" viewBox="0 0 851.41 615.95">
  <defs>
    <style>
      .cls-1 {
        fill: #3c3c3b;
      }

      .cls-2 {
        fill-rule: evenodd;
      }

      .cls-2, .cls-3 {
        fill: #fff;
      }

      .cls-4 {
        fill: #393939;
      }

      .cls-5 {
        fill: #e3e3e3;
      }

      .cls-6 {
        fill: #d93134;
      }

      .cls-7 {
        fill: #620fec;
      }

      .cls-8 {
        fill: #141414;
      }

      .cls-9 {
        fill: #343434;
      }

      .cls-10 {
        fill: #8b8b8b;
      }

      .cls-11 {
        fill: #ddb656;
      }

      .cls-12 {
        fill: #eecc7b;
      }

      .cls-13 {
        fill: url(#_未命名的渐变_27);
      }

      .cls-13, .cls-14 {
        isolation: isolate;
        opacity: .6;
      }

      .cls-14 {
        fill: url(#_未命名的渐变_23);
      }

      .cls-15 {
        fill: url(#_未命名的渐变_20);
      }

      .cls-16 {
        fill: #14192b;
      }

      .cls-17 {
        fill: #e9963d;
      }

      .cls-18 {
        fill: #58bd90;
      }

      .cls-19 {
        fill: #0c0e11;
      }
    </style>
    <linearGradient id="_未命名的渐变_27" data-name="未命名的渐变 27" x1="355.05" y1="8792.58" x2="355.05" y2="8209.76" gradientTransform="translate(0 8825.71) scale(1 -1)" gradientUnits="userSpaceOnUse">
      <stop offset="0" stop-color="#5368d5"/>
      <stop offset=".83" stop-color="#8edecd" stop-opacity="0"/>
    </linearGradient>
    <linearGradient id="_未命名的渐变_23" data-name="未命名的渐变 23" x1="752.32" y1="8825.71" x2="752.32" y2="8627.53" gradientTransform="translate(0 8825.71) scale(1 -1)" gradientUnits="userSpaceOnUse">
      <stop offset="0" stop-color="#6086d2" stop-opacity=".76"/>
      <stop offset=".83" stop-color="#8edecd" stop-opacity="0"/>
    </linearGradient>
    <linearGradient id="_未命名的渐变_20" data-name="未命名的渐变 20" x1="177.8" y1="8653.25" x2="404.31" y2="8653.25" gradientTransform="translate(0 8825.71) scale(1 -1)" gradientUnits="userSpaceOnUse">
      <stop offset="0" stop-color="#8edecd"/>
      <stop offset="1" stop-color="#5368d5"/>
    </linearGradient>
  </defs>
  <g id="_图层_1-2" data-name="图层 1">
    <g id="_图层_2-2" data-name="图层 2">
      <g id="uuid-5907c9ce-302d-4586-89fb-4d3112b80ecb" data-name="图层 1-2">
        <circle class="cls-13" cx="355.05" cy="324.54" r="291.41"/>
        <circle class="cls-14" cx="752.32" cy="99.09" r="99.09"/>
        <path class="cls-16" d="M210.04,198.27c-2.09,0-3.79-1.68-3.79-3.77,0-2.09,1.68-3.79,3.77-3.79,2.09,0,3.79,1.68,3.79,3.77,0,1.43-.8,2.74-2.07,3.38h0c-.52.27-1.11.41-1.7.41Z"/>
        <path class="cls-16" d="M70.77,267.12c-2.08,0-3.76-1.68-3.76-3.76,0-1.42.8-2.72,2.07-3.36,1.86-.94,4.13-.2,5.08,1.66.93,1.83.19,4.07-1.64,5,0,0,0,0,0,0h-.08c-.51.28-1.08.44-1.67.46ZM90.66,257.28c-2.08-.02-3.75-1.71-3.73-3.79.02-2.08,1.71-3.75,3.79-3.73,1.41.01,2.69.81,3.33,2.07.93,1.83.2,4.07-1.63,5h-.08c-.52.28-1.09.43-1.68.45ZM110.56,247.45c-2.08-.04-3.73-1.75-3.69-3.83.04-2.08,1.75-3.73,3.83-3.69,1.39.03,2.66.82,3.29,2.07.93,1.82.22,4.05-1.6,4.98-.01,0-.02.01-.04.02h-.08c-.53.29-1.11.44-1.71.45ZM130.46,237.61c-2.07,0-3.76-1.66-3.76-3.74,0-1.43.8-2.74,2.08-3.37,1.86-.93,4.12-.19,5.07,1.66.92,1.83.19,4.07-1.64,5h-.08c-.51.28-1.09.43-1.67.45ZM150.35,227.78c-2.08-.02-3.75-1.71-3.73-3.79.01-1.4.8-2.69,2.05-3.32,1.86-.94,4.13-.19,5.07,1.66.93,1.82.21,4.06-1.61,4.99,0,0-.01,0-.02,0h-.08c-.52.28-1.09.43-1.68.45ZM170.25,217.94c-2.07,0-3.76-1.66-3.76-3.74,0-1.43.8-2.74,2.08-3.37,1.86-.93,4.12-.19,5.07,1.66.93,1.83.2,4.06-1.62,4.99,0,0-.01,0-.02,0h-.07c-.52.28-1.09.43-1.68.45ZM190.15,208.11c-2.09.01-3.8-1.67-3.81-3.77-.01-2.09,1.67-3.8,3.77-3.81,2.09-.01,3.8,1.67,3.81,3.77,0,1.41-.77,2.71-2.02,3.37h-.08c-.51.28-1.09.43-1.67.44h0Z"/>
        <path class="cls-16" d="M50.91,276.93c-2.07,0-3.75-1.67-3.75-3.75,0-1.43.81-2.73,2.08-3.36,1.84-.94,4.1-.21,5.05,1.63.94,1.84.21,4.1-1.63,5.05-.02,0-.03.02-.05.02h0c-.52.27-1.11.41-1.7.41Z"/>
        <path class="cls-16" d="M534.71,142.62c-2.03-.06-3.62-1.75-3.56-3.77.06-2.03,1.75-3.62,3.77-3.56s3.62,1.75,3.56,3.77c-.06,1.94-1.62,3.51-3.56,3.56h-.21Z"/>
        <path class="cls-16" d="M413.4,148.79c-2.07-.04-3.72-1.75-3.68-3.82.04-1.94,1.55-3.53,3.49-3.67,2.08-.11,3.87,1.47,4,3.55.13,2.04-1.42,3.8-3.46,3.93-.01,0-.03,0-.04,0h-.31ZM437.66,147.56c-2.07.05-3.79-1.58-3.85-3.65-.05-2.07,1.58-3.79,3.65-3.85,2.08-.12,3.87,1.47,4,3.55.13,2.04-1.42,3.81-3.47,3.94-.01,0-.02,0-.03,0h-.31ZM461.92,146.33c-2.07.05-3.79-1.58-3.85-3.65-.05-2.07,1.58-3.79,3.65-3.85,2.08-.11,3.87,1.47,4,3.55.12,2.05-1.44,3.81-3.49,3.94,0,0-.01,0-.02,0h-.3ZM486.18,145.09c-2.07.05-3.79-1.58-3.85-3.65-.05-2.07,1.58-3.79,3.65-3.85,2.08-.11,3.87,1.48,4,3.56.12,2.05-1.43,3.8-3.48,3.93-.01,0-.02,0-.03,0h-.3ZM510.45,143.86c-2.07-.03-3.73-1.73-3.7-3.8.03-2.07,1.73-3.73,3.8-3.7,1.96.03,3.56,1.55,3.69,3.5.13,2.04-1.42,3.81-3.47,3.94-.01,0-.02,0-.03,0h-.29v.06Z"/>
        <path class="cls-16" d="M389.18,150c-2.07.04-3.78-1.6-3.82-3.68-.04-2.07,1.6-3.78,3.67-3.82,2.07-.08,3.82,1.52,3.93,3.59.09,2.06-1.51,3.81-3.57,3.91h-.21Z"/>
        <path class="cls-16" d="M232.82,365.16c-.54,0-1.08-.12-1.57-.35h0c-1.86-.89-2.63-3.12-1.74-4.98.89-1.86,3.12-2.63,4.98-1.74,1.86.89,2.63,3.12,1.74,4.98-.62,1.29-1.93,2.11-3.37,2.11l-.04-.02Z"/>
        <path class="cls-16" d="M212.63,355.37c-.55,0-1.09-.13-1.59-.37h-.08c-1.83-.93-2.56-3.16-1.63-4.99.93-1.83,3.16-2.56,4.99-1.63,1.83.93,2.56,3.16,1.63,4.99-.63,1.25-1.92,2.04-3.32,2.03v-.03ZM192.42,345.57c-.55,0-1.09-.13-1.59-.37h-.08c-1.88-.89-2.67-3.14-1.78-5.02.89-1.88,3.14-2.67,5.02-1.78,1.88.87,2.7,3.11,1.83,4.99-.61,1.32-1.93,2.17-3.39,2.18h-.01ZM172.21,335.76c-.55,0-1.1-.12-1.6-.36h-.08c-1.87-.89-2.66-3.14-1.76-5.01.89-1.87,3.14-2.66,5.01-1.76,1.86.9,2.66,3.12,1.8,5-.61,1.3-1.92,2.13-3.36,2.13ZM151.99,326c-.57,0-1.12-.13-1.63-.38h-.08c-1.84-.9-2.6-3.13-1.69-4.97.9-1.84,3.13-2.6,4.97-1.69,1.84.9,2.6,3.13,1.69,4.97-.61,1.25-1.87,2.04-3.26,2.07ZM131.78,316.2c-.57,0-1.12-.13-1.63-.38h-.08c-1.86-.91-2.63-3.16-1.72-5.02.91-1.86,3.16-2.63,5.02-1.72,1.84.91,2.62,3.13,1.76,5-.63,1.27-1.93,2.08-3.35,2.08v.04ZM111.56,306.4c-.55-.01-1.08-.15-1.57-.4h-.08c-1.81-.93-2.52-3.16-1.59-4.97s3.16-2.52,4.97-1.59c1.81.93,2.52,3.16,1.59,4.97-.64,1.23-1.91,2.01-3.3,2h-.02ZM91.35,296.59c-.55,0-1.1-.12-1.6-.36h-.08c-1.87-.89-2.66-3.14-1.76-5.01.89-1.87,3.14-2.66,5-1.76,1.86.9,2.67,3.12,1.81,5-.63,1.28-1.94,2.1-3.37,2.09v.04ZM71.13,286.79c-.55,0-1.09-.13-1.59-.36h-.08c-1.83-.93-2.56-3.16-1.63-4.99.93-1.83,3.16-2.56,4.99-1.63,1.83.93,2.56,3.16,1.63,4.99-.63,1.25-1.92,2.04-3.32,2.03v-.04Z"/>
        <path class="cls-16" d="M50.93,277c-.54,0-1.08-.12-1.57-.35h0c-1.85-.89-2.63-3.12-1.73-4.97.89-1.85,3.12-2.63,4.97-1.73,1.85.89,2.63,3.12,1.73,4.97-.62,1.29-1.93,2.11-3.36,2.1l-.04-.02Z"/>
        <path class="cls-16" d="M368.17,542.12c-1.16,0-2.25-.54-2.95-1.47h0c-1.25-1.65-.92-4,.73-5.25,1.65-1.25,4-.92,5.25.73,1.24,1.65.92,3.99-.72,5.24-.67.5-1.49.76-2.32.75Z"/>
        <path class="cls-16" d="M353.14,522.48c-1.15,0-2.23-.53-2.93-1.44l-.06-.08c-1.26-1.66-.94-4.02.72-5.28,1.66-1.26,4.02-.94,5.28.72h0c1.28,1.65.98,4.01-.67,5.29-.67.52-1.49.8-2.33.79h-.01ZM338.14,502.82c-1.15,0-2.24-.53-2.93-1.45l-.06-.08c-1.26-1.66-.94-4.02.72-5.28s4.02-.94,5.28.72h0c1.28,1.64.99,4.01-.65,5.29-.67.52-1.5.8-2.35.8h-.01ZM323.09,483.15c-1.14,0-2.22-.53-2.92-1.44l-.06-.08c-1.26-1.66-.94-4.02.72-5.28s4.02-.94,5.28.72h0c1.28,1.63,1,4-.64,5.28-.67.53-1.51.81-2.36.8h-.02ZM308.09,463.49c-1.18.02-2.3-.54-3-1.49h-.1c-1.26-1.66-.94-4.02.72-5.28s4.02-.94,5.28.72c1.28,1.65.98,4.01-.67,5.29-.67.52-1.49.8-2.33.79l.1-.03ZM293.09,443.83c-1.14,0-2.22-.53-2.91-1.44l-.06-.08c-1.26-1.64-.96-4,.68-5.26,1.64-1.26,4-.96,5.26.68,1.29,1.64,1,4.01-.63,5.29-.67.53-1.51.81-2.37.81h.03ZM278.09,424.16c-1.14,0-2.21-.53-2.91-1.43l-.06-.08c-1.34-1.58-1.14-3.95.44-5.28s3.95-1.14,5.28.44c.07.08.14.17.2.26,1.29,1.63,1.01,3.99-.62,5.28-.68.53-1.52.82-2.38.81h.04ZM263.09,404.5c-1.15,0-2.23-.54-2.92-1.45l-.06-.08c-1.31-1.6-1.07-3.97.53-5.28,1.6-1.31,3.97-1.07,5.28.53.05.06.1.12.14.18,1.28,1.64.99,4.01-.65,5.29-.67.52-1.5.8-2.35.8h.03ZM248.09,384.83c-1.15,0-2.23-.53-2.92-1.44l-.06-.08c-1.22-1.66-.86-3.98.8-5.2s3.98-.86,5.2.8.86,3.98-.8,5.2c-.64.47-1.41.72-2.2.72h-.02Z"/>
        <path class="cls-16" d="M232.84,365.18c-1.18,0-2.29-.55-3-1.49h0c-1.23-1.66-.87-4,.79-5.23s4-.87,5.23.79c1.23,1.66.87,4-.79,5.23-.65.48-1.43.73-2.23.73v-.03Z"/>
        <path class="cls-16" d="M368.2,542.1c-2.06,0-3.74-1.65-3.75-3.71,0-.91.33-1.79.93-2.48h0c1.37-1.55,3.74-1.7,5.29-.33s1.7,3.74.33,5.29c-.72.81-1.75,1.28-2.84,1.27l.03-.04Z"/>
        <path class="cls-16" d="M383.78,524.53c-2.06,0-3.73-1.66-3.74-3.72,0-.91.33-1.78.93-2.47l.06-.07c1.38-1.55,3.76-1.69,5.3-.3s1.69,3.76.3,5.3h0c-.73.81-1.77,1.27-2.86,1.26ZM399.39,506.94c-2.06,0-3.73-1.66-3.74-3.72,0-.91.33-1.78.93-2.47l.06-.07c1.38-1.55,3.76-1.69,5.3-.3s1.69,3.76.3,5.3c-.73.81-1.77,1.26-2.86,1.26h0ZM414.99,489.35c-2.06,0-3.74-1.66-3.74-3.72,0-.92.33-1.81.94-2.49l.06-.07c1.45-1.48,3.82-1.5,5.3-.05,1.39,1.36,1.51,3.55.28,5.05-.72.81-1.76,1.27-2.84,1.28ZM430.59,471.77c-2.07,0-3.73-1.69-3.73-3.75,0-.89.32-1.75.91-2.43l.06-.07c1.38-1.55,3.76-1.7,5.32-.32s1.7,3.76.32,5.32c-.73.8-1.77,1.26-2.86,1.25h0ZM446.2,454.18c-2.06,0-3.73-1.66-3.74-3.72,0-.91.33-1.78.93-2.47l.06-.07c1.38-1.55,3.76-1.69,5.3-.3s1.69,3.76.3,5.3c-.73.8-1.76,1.26-2.85,1.26h-.01ZM461.81,436.59c-2.07,0-3.74-1.68-3.73-3.75,0-.9.33-1.77.91-2.44l.06-.07c1.38-1.55,3.76-1.69,5.31-.31s1.69,3.76.31,5.31h0c-.73.81-1.76,1.27-2.85,1.26h-.01ZM477.42,419c-2.07,0-3.73-1.69-3.72-3.76,0-.89.33-1.76.91-2.43l.06-.07c1.38-1.55,3.76-1.69,5.3-.3s1.69,3.76.3,5.3c-.73.81-1.77,1.27-2.86,1.26ZM492.99,401.42c-2.07,0-3.73-1.69-3.72-3.76,0-.9.33-1.77.92-2.44l.06-.07c1.37-1.55,3.74-1.7,5.29-.33,1.55,1.37,1.7,3.74.33,5.29,0,.01-.02.02-.03.03-.73.81-1.76,1.27-2.85,1.27ZM508.6,383.83c-2.07,0-3.74-1.68-3.74-3.74,0-.89.32-1.76.91-2.44l.07-.07c1.38-1.55,3.76-1.7,5.32-.32,1.55,1.38,1.7,3.76.32,5.32h0c-.73.8-1.75,1.25-2.83,1.25h-.04Z"/>
        <path class="cls-16" d="M524.24,366.27c-2.06.01-3.74-1.65-3.75-3.71,0-.93.34-1.83.96-2.52h0c1.39-1.53,3.76-1.65,5.3-.26,1.53,1.39,1.65,3.76.26,5.3-.71.79-1.73,1.23-2.79,1.23l.03-.04Z"/>
        <path class="cls-16" d="M531.99,373.05c-.95,0-1.86-.35-2.55-1-1.53-1.41-1.63-3.79-.22-5.32,1.39-1.52,3.74-1.62,5.26-.23,0,0,.02.01.02.02h0c1.52,1.41,1.61,3.78.2,5.3-.71.77-1.71,1.2-2.75,1.2l.04.03Z"/>
        <path class="cls-16" d="M657.99,491.13c-2.09-.01-3.78-1.72-3.77-3.81,0-.94.36-1.84,1-2.54,1.38-1.51,3.72-1.62,5.23-.24.01.01.02.02.03.03l.07.07c1.51,1.41,1.59,3.79.18,5.3-.71.76-1.7,1.19-2.74,1.19ZM639.99,474.26c-.95,0-1.87-.35-2.56-1-1.53-1.42-1.62-3.8-.21-5.33,1.39-1.51,3.74-1.61,5.26-.22,0,0,0,0,.01.01l.07.07c1.51,1.41,1.59,3.79.18,5.3-.71.76-1.71,1.19-2.75,1.19v-.02ZM621.99,457.39c-2.09-.01-3.78-1.72-3.77-3.81,0-.94.36-1.84,1-2.54,1.38-1.51,3.72-1.61,5.23-.23.01,0,.02.02.03.03l.07.06c1.51,1.41,1.59,3.79.18,5.3-.71.76-1.7,1.19-2.74,1.19h0ZM603.99,440.52c-.95,0-1.87-.35-2.56-1-1.53-1.42-1.62-3.81-.21-5.34,1.39-1.51,3.73-1.61,5.24-.23,0,0,.02.02.03.03l.07.06c1.51,1.41,1.59,3.79.18,5.3-.71.76-1.71,1.19-2.75,1.19h0ZM585.99,423.65c-.95,0-1.87-.35-2.56-1-1.52-1.42-1.61-3.8-.21-5.34,1.39-1.51,3.73-1.61,5.24-.23,0,0,.02.02.03.03l.07.07c1.51,1.42,1.58,3.79.16,5.3-.71.75-1.7,1.18-2.73,1.18h0ZM567.99,406.79c-2.09,0-3.78-1.71-3.77-3.81,0-.95.36-1.86,1-2.55,1.38-1.51,3.72-1.61,5.23-.23.01,0,.02.02.03.03l.08.07c1.51,1.41,1.59,3.79.18,5.3-.71.76-1.71,1.19-2.75,1.19ZM549.99,389.92c-.95,0-1.87-.35-2.56-1-1.52-1.42-1.61-3.8-.21-5.33,1.39-1.51,3.74-1.61,5.26-.22,0,0,0,0,.01.01l.07.07c1.51,1.41,1.59,3.79.18,5.3-.71.76-1.71,1.19-2.75,1.19v-.02Z"/>
        <path class="cls-16" d="M528.91,142.4c-2.08.01-3.77-1.66-3.78-3.74-.01-2.08,1.66-3.77,3.74-3.78.9,0,1.76.31,2.45.89h0c1.57,1.36,1.74,3.74.38,5.3-.71.82-1.74,1.29-2.83,1.3l.04.03Z"/>
        <path class="cls-16" d="M668.52,261.52c-.89,0-1.75-.31-2.42-.89-1.59-1.34-1.8-3.72-.46-5.32,1.31-1.57,3.65-1.78,5.23-.47,0,0,.02.01.02.02l.07.06c1.57,1.35,1.76,3.71.41,5.29-.71.83-1.76,1.31-2.85,1.31h0ZM651.07,246.63c-2.09,0-3.78-1.7-3.77-3.79,0-.89.32-1.75.89-2.43,1.33-1.57,3.68-1.77,5.26-.44h0s.07.06.07.06c1.57,1.35,1.76,3.71.41,5.29-.72.84-1.76,1.32-2.86,1.31ZM633.62,231.74c-.89,0-1.75-.31-2.43-.89-1.59-1.35-1.79-3.72-.46-5.32,1.31-1.57,3.64-1.79,5.21-.48.01.01.03.02.04.03h.07c1.58,1.34,1.77,3.71.43,5.29-.71.84-1.76,1.33-2.86,1.32v.05ZM616.17,216.85c-2.09,0-3.78-1.7-3.77-3.79,0-.89.32-1.75.89-2.43,1.32-1.57,3.67-1.77,5.24-.45,0,0,0,0,0,0l.07.06c1.57,1.35,1.76,3.71.41,5.29-.71.83-1.76,1.31-2.85,1.31ZM598.72,202c-.89,0-1.75-.31-2.43-.89-1.59-1.35-1.79-3.72-.46-5.32,1.31-1.58,3.65-1.79,5.22-.48,0,0,.02.01.03.02l.07.06c1.58,1.34,1.77,3.71.43,5.29-.71.84-1.76,1.33-2.86,1.32h0ZM581.26,187.11c-.89,0-1.75-.32-2.43-.9-1.58-1.35-1.79-3.71-.46-5.31,1.31-1.58,3.66-1.79,5.24-.48,0,0,.01.01.02.02l.07.06c1.58,1.34,1.77,3.71.43,5.29-.72.84-1.77,1.33-2.87,1.32ZM563.81,172.22c-2.09-.01-3.78-1.72-3.76-3.82,0-.87.31-1.72.87-2.39,1.31-1.58,3.65-1.79,5.22-.48,0,0,.02.01.03.02l.07.06c1.58,1.34,1.77,3.71.43,5.29-.71.84-1.76,1.33-2.86,1.32h0ZM546.36,157.33c-2.09-.01-3.78-1.72-3.76-3.82,0-.87.31-1.72.87-2.39,1.31-1.58,3.65-1.79,5.22-.48,0,0,.02.01.03.02l.07.06c1.58,1.34,1.77,3.71.43,5.29-.71.84-1.76,1.33-2.86,1.32h0Z"/>
        <path class="cls-16" d="M685.99,276.38c-.89,0-1.76-.32-2.44-.9-1.58-1.35-1.76-3.73-.41-5.31,1.34-1.57,3.69-1.76,5.26-.42,0,0,0,0,.01.01h0c1.57,1.35,1.74,3.72.39,5.29-.71.83-1.75,1.3-2.84,1.3l.03.03Z"/>
        <path class="cls-16" d="M685.99,276.43h-.29c-2.07-.14-3.64-1.93-3.5-4s1.93-3.64,4-3.5c2.07.14,3.64,1.92,3.5,3.99h0c-.12,1.96-1.74,3.5-3.71,3.51Z"/>
        <path class="cls-16" d="M670.08,478.76h-.3c-2.05-.16-3.59-1.95-3.45-4,.15-2.06,1.93-3.62,4-3.5,2.04.13,3.6,1.9,3.46,3.94,0,.02,0,.04,0,.06v.09c-.17,1.92-1.78,3.4-3.71,3.41ZM671.84,456.28h-.29c-2.08-.13-3.66-1.92-3.53-4s1.92-3.66,4-3.53c2.07.13,3.65,1.91,3.53,3.99v.09c-.16,1.94-1.77,3.43-3.71,3.45h0ZM673.6,433.8h-.31c-2.08-.17-3.62-1.99-3.45-4.07.17-2.08,1.99-3.62,4.07-3.45,2.04.14,3.58,1.91,3.43,3.95,0,.02,0,.03,0,.05v.09c-.17,1.94-1.79,3.43-3.74,3.43h0ZM675.37,411.32h-.3c-2.08-.16-3.63-1.98-3.46-4.05.16-2.08,1.98-3.63,4.05-3.46,2.04.14,3.59,1.91,3.45,3.95,0,.02,0,.03,0,.05v.09c-.16,1.94-1.79,3.44-3.74,3.43h0ZM677.13,388.84h-.3c-2.07-.25-3.55-2.14-3.3-4.21.24-1.95,1.92-3.39,3.89-3.32,2.04.14,3.59,1.91,3.45,3.95,0,.02,0,.03,0,.05v.09c-.17,1.94-1.79,3.44-3.74,3.44h0ZM678.89,366.36h-.29c-2.07-.25-3.55-2.14-3.29-4.21.24-1.94,1.92-3.38,3.87-3.32,2.05.14,3.6,1.91,3.46,3.96,0,.01,0,.03,0,.04v.09c-.17,1.95-1.8,3.44-3.75,3.44h0ZM680.66,343.87h-.3c-2.06-.15-3.6-1.94-3.45-4,.15-2.07,1.93-3.63,4-3.5,2.04.13,3.6,1.9,3.46,3.94,0,.02,0,.04,0,.06v.09c-.17,1.92-1.78,3.4-3.71,3.41h0ZM682.42,321.39h-.31c-2.06-.17-3.6-1.98-3.43-4.04,0,0,0,0,0,0,.17-2.05,1.95-3.59,4-3.47,2.04.15,3.58,1.92,3.43,3.97,0,.01,0,.02,0,.03v.13c-.18,1.91-1.77,3.37-3.69,3.39h0ZM684.18,298.91h-.29c-2.08-.16-3.63-1.97-3.47-4.05.16-2.08,1.97-3.63,4.05-3.47h0c2.04.13,3.6,1.9,3.46,3.94,0,.02,0,.04,0,.06v.09c-.17,1.95-1.8,3.44-3.75,3.43h0Z"/>
        <path class="cls-16" d="M668.32,501.2h-.33c-2.07-.14-3.64-1.93-3.5-4s1.93-3.64,4-3.5c2.07.14,3.64,1.93,3.5,4,0,0,0,0,0,0h0c-.12,1.94-1.72,3.47-3.67,3.5Z"/>
        <circle class="cls-5" cx="233.26" cy="361.64" r="50.9"/>
        <path class="cls-9" d="M248.88,330.66l-1.14,1.19-20.67,41,.23.63,24.69-1.67-3.11-41.15Z"/>
        <path class="cls-10" d="M248.88,330.66l-34.94,22,13.36,20.84,21.58-42.84Z"/>
        <path class="cls-1" d="M225.48,377.06l-.38.17-7.36,14.6-.11.8,32.54-17.21-24.69,1.64Z"/>
        <path class="cls-10" d="M217.63,392.63l7.85-15.57-13.36-20.83,5.51,36.4Z"/>
        <path class="cls-8" d="M227.3,373.46l24.69-1.65-14.66-18.24-10.03,19.89Z"/>
        <path class="cls-4" d="M213.99,352.62l13.36,20.84,10-19.89-23.36-.95Z"/>
        <circle class="cls-7" cx="524.27" cy="362.51" r="50.9" transform="translate(82.46 821.94) rotate(-80.78)"/>
        <path class="cls-15" d="M213.62,200.15c-.83,9.87-9.51,17.2-19.38,16.38-9.87-.83-17.2-9.51-16.38-19.38.83-9.87,9.5-17.2,19.36-16.38,9.88.83,17.21,9.5,16.39,19.38ZM387.86,128.39c-9.87-.82-18.54,6.52-19.37,16.39s6.52,18.54,16.39,19.37c9.87.82,18.54-6.51,19.37-16.39.82-9.87-6.52-18.54-16.39-19.37h0Z"/>
        <path class="cls-12" d="M370.69,385.77l-5.5,27.72c-.3,1.54.7,3.03,2.24,3.33.45.09.91.07,1.35-.06l40.18-12c1.5-.44,2.35-2.02,1.91-3.52-.25-.83-.86-1.5-1.66-1.82l-36.56-14.69c-.74-.3-1.59.06-1.89.8-.03.08-.06.16-.07.24Z"/>
        <circle cx="368.23" cy="538.05" r="50.9"/>
        <path class="cls-2" d="M358.42,512.1h-15c-.64,0-1.15.51-1.15,1.15h0v15c0,.64.51,1.15,1.15,1.15h15c.64,0,1.15-.51,1.16-1.15v-15c0-.64-.52-1.15-1.16-1.15ZM375.73,529.4h-15c-.64,0-1.15.51-1.16,1.15v15c0,.64.52,1.15,1.16,1.15h15c.64,0,1.15-.51,1.15-1.15h0v-15c0-.64-.51-1.15-1.15-1.15h0ZM378.03,512.1h15c.64,0,1.15.51,1.15,1.15h0v15c0,.64-.51,1.15-1.15,1.15-.01,0-.03,0-.04,0h-15c-.64,0-1.15-.51-1.15-1.15h0v-15c0-.64.51-1.15,1.15-1.15h.04ZM358.42,546.7h-15c-.64,0-1.15.51-1.15,1.15h0v15c0,.64.51,1.15,1.15,1.15h15c.64,0,1.15-.51,1.16-1.15v-15c0-.64-.52-1.15-1.16-1.15h0ZM378.03,546.7h15c.64,0,1.15.51,1.15,1.15h0v15c0,.64-.51,1.15-1.15,1.15-.01,0-.03,0-.04,0h-15c-.64,0-1.15-.51-1.15-1.15h0v-15c0-.64.51-1.15,1.15-1.15h.04Z"/>
        <circle class="cls-19" cx="50.9" cy="273.18" r="50.9"/>
        <path class="cls-11" d="M36.99,247l19.44-7.24,15.9,13.33-7.16,2.68-10.05-8.41-12.29,4.56-5.84-4.92ZM70.09,266.06l-5.84-4.92-12.26,4.57-10.07-8.41-7.15,2.7-1.31,7.6,10.06,8.4-2.23,13,5.84,4.92,7.15-2.68,2.23-13,12.29-4.56,1.29-7.62ZM66.55,286.63l1.31-7.6-7.15,2.68-1.31,7.6,7.15-2.68ZM70.7,290.11l-12.29,4.56-1.31,7.6,19.46-7.27,3.54-20.57-7.11,2.72-2.29,12.96ZM69.32,259.25l5.85,4.92-1.31,7.59,7.13-2.67,1.31-7.6-5.84-4.91-7.14,2.67ZM40.32,294.39l-1.28,7.61,5.84,4.92,7.16-2.68,1.3-7.6-7.15,2.68-5.87-4.93ZM31.2,280.54l5.84,4.92,1.31-7.6-5.81-4.86-1.34,7.54ZM47.03,255.41l5.84,4.92,7.16-2.68-5.85-4.92-7.15,2.68ZM30.62,256.5l7.15-2.68-5.84-4.92-7.15,2.68-1.31,7.6,5.84,4.92,1.31-7.6ZM28.39,269.5l-5.84-4.91-3.56,20.54,15.9,13.32,1.31-7.6-10-8.4,2.19-12.95Z"/>
        <g>
          <path class="cls-17" d="M578.15,152.12c-6.8,27.27-34.42,43.86-61.69,37.06-27.26-6.8-43.86-34.42-37.06-61.68,6.8-27.27,34.42-43.87,61.68-37.07,27.27,6.8,43.87,34.42,37.07,61.69Z"/>
          <path class="cls-3" d="M551.21,132.56c1.01-6.77-4.14-10.41-11.2-12.84l2.29-9.17-5.59-1.39-2.23,8.93c-1.47-.37-2.98-.71-4.47-1.05l2.24-8.99-5.58-1.39-2.29,9.17c-1.22-.28-2.41-.55-3.57-.84v-.03s-7.7-1.92-7.7-1.92l-1.49,5.96s4.14.95,4.06,1.01c2.26.56,2.67,2.06,2.6,3.25l-2.61,10.45c.16.04.36.1.58.19-.19-.05-.38-.1-.59-.15l-3.65,14.64c-.28.69-.98,1.72-2.56,1.33.06.08-4.06-1.01-4.06-1.01l-2.77,6.39,7.27,1.81c1.35.34,2.68.69,3.98,1.03l-2.31,9.28,5.58,1.39,2.29-9.18c1.52.41,3,.8,4.45,1.15l-2.28,9.14,5.59,1.39,2.31-9.26c9.52,1.8,16.69,1.08,19.7-7.54,2.43-6.94-.12-10.94-5.13-13.54,3.65-.84,6.4-3.24,7.13-8.2h0ZM538.45,150.45c-1.73,6.94-13.4,3.19-17.19,2.25l3.07-12.29c3.79.94,15.93,2.82,14.12,10.05ZM540.17,132.46c-1.57,6.31-11.29,3.1-14.45,2.32l2.78-11.15c3.15.79,13.31,2.25,11.67,8.83Z"/>
        </g>
        <path class="cls-3" d="M536.28,337.62l-15.55,8.93v27.87l-8.58,4.97-8.63-4.98v-9.95l8.63-4.93,5.55,3.22v-8.05l-5.6-3.18-15.55,9.03v17.87l15.6,8.98,15.55-8.98v-27.87l8.63-4.98,8.63,4.98v9.91l-8.63,5.02-5.6-3.25v8.01l5.55,3.2,15.7-8.93v-17.97l-15.7-8.93Z"/>
        <g>
          <circle class="cls-18" cx="668.53" cy="494.99" r="50.9"/>
          <path id="symbol" class="cls-3" d="M684.42,477.95c-2.55-5.8-8.42-7.01-15.6-5.82l-2.31-8.95-5.45,1.41,2.27,8.93c-1.43.37-2.9.67-4.35,1.08l-2.29-8.86-5.45,1.41,2.31,8.95c-1.16.33-10.97,2.86-10.97,2.86l1.51,5.82s4-1.12,3.96-1.02c2.21-.57,3.25.53,3.76,1.57l6.33,24.51c.08.71-.04,1.94-1.57,2.33.08.04-3.96,1.02-3.96,1.02l.59,6.78s9.7-2.49,10.99-2.8l2.35,9.05,5.43-1.41-2.33-9.11c1.51-.35,2.94-.71,4.37-1.08l2.33,9.07,5.45-1.41-2.33-9.03c8.37-2.04,14.3-7.31,13.07-15.4-.78-4.86-6.09-8.86-10.52-9.31,2.7-2.45,4.09-5.98,2.41-10.58h0ZM681.78,499.27c1.08,8.01-10.03,8.99-13.73,9.95l-3.21-11.97c3.72-.98,15.11-5.05,16.93,2.02ZM675.08,482.97c1.14,7.11-8.35,7.95-11.44,8.74l-2.9-10.87c3.08-.8,12.01-4.45,14.34,2.12Z"/>
        </g>
        <g>
          <circle class="cls-6" cx="687.32" cy="274.77" r="50.9" transform="translate(215.87 845.42) rotate(-72.23)"/>
          <path class="cls-3" d="M708.71,255.32l-48.35-8.9,25.44,64.02,35.45-43.19-12.55-11.93ZM707.93,259.24l7.4,7.03-20.23,3.66,12.83-10.69ZM690.7,269.2l-21.32-17.68,34.85,6.41-13.53,11.27ZM689.18,272.33l-3.48,28.74-18.74-47.17,22.22,18.43ZM692.4,273.85l22.4-4.06-25.69,31.3,3.29-27.24Z"/>
        </g>
      </g>
    </g>
  </g>
</svg>