<svg xmlns="http://www.w3.org/2000/svg" xmlns:xlink="http://www.w3.org/1999/xlink" viewBox="0 0 851.42 615.94"><defs><style>.cls-1,.cls-2{opacity:0.6;}.cls-1{fill:url(#未命名的渐变_103);}.cls-2{fill:url(#未命名的渐变_106);}.cls-3{fill:#12192d;}.cls-4{fill:#f3ba2f;}.cls-5{fill:#fff;}.cls-6{fill:#e5e5e5;}.cls-7{fill:#343434;}.cls-8{fill:#8c8c8c;}.cls-9{fill:#3c3c3b;}.cls-10{fill:#141414;}.cls-11{fill:#393939;}.cls-12{fill:#cfe2fc;}.cls-13{fill:#6baef6;}.cls-14{fill:#115ef5;}.cls-15{fill:#3980f7;}.cls-16{fill:#0045f4;}.cls-17{fill:#1458fa;}.cls-18{fill:#0030f2;}.cls-19{fill:#002ff9;}.cls-20{fill:#0012f1;}.cls-21{fill:#c2eafd;}.cls-21,.cls-23,.cls-24{fill-rule:evenodd;}.cls-22,.cls-23{fill:#3354f7;}.cls-24{fill:#60a9e0;}.cls-25{fill:url(#未命名的渐变_13);}.cls-26{fill:#41e6af;}.cls-27{fill:#7a4fdd;}.cls-28{fill:url(#未命名的渐变_10);}.cls-29{fill:#ffcc5a;}</style><linearGradient id="未命名的渐变_103" x1="355.05" y1="33.13" x2="355.05" y2="615.94" gradientUnits="userSpaceOnUse"><stop offset="0" stop-color="#4d62e7"/><stop offset="0.83" stop-color="#37e7cf" stop-opacity="0"/></linearGradient><linearGradient id="未命名的渐变_106" x1="752.33" x2="752.33" y2="198.19" gradientUnits="userSpaceOnUse"><stop offset="0" stop-color="#4788e0" stop-opacity="0.76"/><stop offset="0.83" stop-color="#37e7cf" stop-opacity="0"/></linearGradient><linearGradient id="未命名的渐变_13" x1="548.14" y1="90.49" x2="476.16" y2="162.47" gradientTransform="translate(28.89 -28.72) rotate(4.76)" gradientUnits="userSpaceOnUse"><stop offset="0" stop-color="#82e6a3"/><stop offset="1" stop-color="#61aae4"/></linearGradient><linearGradient id="未命名的渐变_10" x1="177.79" y1="172.46" x2="404.32" y2="172.46" gradientUnits="userSpaceOnUse"><stop offset="0.01" stop-color="#37e7cf"/><stop offset="1" stop-color="#4d62e7"/></linearGradient></defs><title>资源 1</title><g id="图层_2" data-name="图层 2"><g id="图层_1-2" data-name="图层 1"><circle class="cls-1" cx="355.05" cy="324.54" r="291.41"/><circle class="cls-2" cx="752.33" cy="99.09" r="99.09"/><path class="cls-3" d="M210.05,198.27a3.78,3.78,0,1,1,1.71-.42l0,0A3.73,3.73,0,0,1,210.05,198.27Z"/><path class="cls-3" d="M70.77,267.12a3.79,3.79,0,1,1,1.75-.44l-.08,0A3.73,3.73,0,0,1,70.77,267.12Zm19.89-9.84A3.75,3.75,0,0,1,89,250.17a3.81,3.81,0,0,1,5.08,1.66,3.73,3.73,0,0,1-1.64,5l-.08,0A3.74,3.74,0,0,1,90.66,257.28Zm19.9-9.83A3.76,3.76,0,1,1,114,242a3.7,3.7,0,0,1-1.64,5l-.07,0A3.74,3.74,0,0,1,110.56,247.45Zm19.9-9.84a3.75,3.75,0,0,1-1.68-7.11,3.8,3.8,0,0,1,5.07,1.66,3.72,3.72,0,0,1-1.64,5l-.08,0A3.73,3.73,0,0,1,130.46,237.61Zm19.9-9.83a3.76,3.76,0,0,1-1.69-7.11,3.79,3.79,0,0,1,5.08,1.66,3.72,3.72,0,0,1-1.64,5l-.08,0A3.73,3.73,0,0,1,150.36,227.78Zm19.89-9.84a3.76,3.76,0,1,1,3.39-5.45,3.71,3.71,0,0,1-1.64,5l-.07,0A3.74,3.74,0,0,1,170.25,217.94Zm19.9-9.83a3.79,3.79,0,1,1,1.75-.44l-.08,0A3.7,3.7,0,0,1,190.15,208.11Z"/><path class="cls-3" d="M50.91,276.93a3.77,3.77,0,1,1,1.68-.4l0,0A3.71,3.71,0,0,1,50.91,276.93Z"/><path class="cls-3" d="M534.71,142.63a3.85,3.85,0,1,1,.21,0h-.21Z"/><path class="cls-3" d="M413.4,148.79a3.75,3.75,0,0,1-.19-7.5,3.82,3.82,0,0,1,4,3.56,3.69,3.69,0,0,1-3.5,3.93h-.29Zm24.26-1.23a3.75,3.75,0,0,1-.19-7.5,3.81,3.81,0,0,1,4,3.55,3.72,3.72,0,0,1-3.51,3.94h-.29Zm24.26-1.23a3.75,3.75,0,0,1-.19-7.5,3.81,3.81,0,0,1,4,3.55,3.72,3.72,0,0,1-3.51,3.94h-.29Zm24.27-1.24a3.75,3.75,0,0,1-.19-7.5,3.8,3.8,0,0,1,4,3.56,3.7,3.7,0,0,1-3.5,3.93h-.29Zm24.26-1.23a3.75,3.75,0,1,1,3.79-4,3.71,3.71,0,0,1-3.5,3.94h-.29Z"/><path class="cls-3" d="M389.18,150a3.68,3.68,0,1,1,.21,0h-.21Z"/><path class="cls-3" d="M232.82,365.16a3.7,3.7,0,0,1-1.6-.37l0,0a3.71,3.71,0,1,1,1.64.39Z"/><path class="cls-3" d="M212.64,355.37A3.71,3.71,0,0,1,211,355l-.08,0a3.75,3.75,0,0,1,3.26-6.76,3.79,3.79,0,0,1,1.79,5A3.73,3.73,0,0,1,212.64,355.37Zm-20.22-9.8a3.71,3.71,0,0,1-1.58-.36l-.09,0a3.76,3.76,0,0,1,3.23-6.78,3.79,3.79,0,0,1,1.81,5A3.73,3.73,0,0,1,192.42,345.57Zm-20.21-9.81a3.7,3.7,0,0,1-1.61-.36l-.07,0a3.71,3.71,0,1,1,1.68.4ZM152,326a3.66,3.66,0,0,1-1.62-.38l-.08,0a3.75,3.75,0,0,1,3.29-6.75,3.8,3.8,0,0,1,1.77,5A3.73,3.73,0,0,1,152,326Zm-20.21-9.8a3.59,3.59,0,0,1-1.64-.39l-.08,0a3.72,3.72,0,1,1,1.72.42Zm-20.22-9.8a3.66,3.66,0,0,1-1.62-.38l-.08,0a3.7,3.7,0,1,1,1.7.42Zm-20.21-9.81a3.66,3.66,0,0,1-1.6-.36l-.08,0a3.71,3.71,0,1,1,1.68.4Zm-20.21-9.8a3.58,3.58,0,0,1-1.59-.36l-.08,0a3.7,3.7,0,1,1,1.67.4Z"/><path class="cls-3" d="M50.93,277a3.69,3.69,0,0,1-1.57-.35l0,0a3.73,3.73,0,1,1,1.61.37Z"/><path class="cls-3" d="M368.18,542.12a3.69,3.69,0,0,1-2.93-1.43l0,0a3.73,3.73,0,1,1,3,1.46Z"/><path class="cls-3" d="M353.14,522.48a3.69,3.69,0,0,1-2.92-1.43l-.06-.08a3.75,3.75,0,1,1,5.29.72A3.8,3.8,0,0,1,353.14,522.48Zm-15-19.66a3.68,3.68,0,0,1-2.94-1.46l-.06-.08a3.75,3.75,0,0,1,6-4.53,3.77,3.77,0,0,1-3,6.07Zm-15-19.67a3.66,3.66,0,0,1-2.92-1.43l-.06-.08a3.75,3.75,0,0,1,5.94-4.58,3.76,3.76,0,0,1-3,6.09Zm-15-19.66a3.67,3.67,0,0,1-2.94-1.46L305,462a3.75,3.75,0,0,1,6-4.53,3.77,3.77,0,0,1-3,6.07Zm-15-19.66a3.67,3.67,0,0,1-2.94-1.46l-.06-.08a3.75,3.75,0,0,1,6-4.54,3.77,3.77,0,0,1-3,6.08Zm-15.05-19.67a3.67,3.67,0,0,1-2.91-1.43l-.06-.08a3.75,3.75,0,0,1,5.94-4.58,3.76,3.76,0,0,1-3,6.09Zm-15-19.66A3.66,3.66,0,0,1,260,403l-.06-.08a3.75,3.75,0,0,1,6-4.54,3.77,3.77,0,0,1-3,6.08Zm-15-19.67a3.64,3.64,0,0,1-2.91-1.43l-.06-.08a3.75,3.75,0,1,1,5.94-4.58,3.76,3.76,0,0,1-3,6.09Z"/><path class="cls-3" d="M232.84,365.18a3.72,3.72,0,0,1-3-1.46l0,0a3.74,3.74,0,1,1,3,1.5Z"/><path class="cls-3" d="M368.2,542.1a3.73,3.73,0,0,1-2.77-6.25l0,0a3.75,3.75,0,0,1,5.54,5.07A3.8,3.8,0,0,1,368.2,542.1Z"/><path class="cls-3" d="M383.79,524.53a3.74,3.74,0,0,1-2.82-6.19l.06-.07a3.75,3.75,0,1,1,5.61,5A3.82,3.82,0,0,1,383.79,524.53Zm15.6-17.59a3.74,3.74,0,0,1-2.83-6.17l.06-.07a3.75,3.75,0,1,1,5.65,4.94A3.81,3.81,0,0,1,399.39,506.94ZM415,489.35a3.74,3.74,0,0,1-2.82-6.19l.07-.07a3.75,3.75,0,0,1,5.61,5A3.81,3.81,0,0,1,415,489.35Zm15.61-17.58a3.74,3.74,0,0,1-2.82-6.19l.06-.07a3.75,3.75,0,0,1,5.62,5A3.82,3.82,0,0,1,430.61,471.77Zm15.6-17.59a3.65,3.65,0,0,1-2.46-.93,3.71,3.71,0,0,1-.35-5.26l.06-.07a3.75,3.75,0,1,1,5.61,5A3.83,3.83,0,0,1,446.21,454.18Zm15.61-17.59A3.73,3.73,0,0,1,459,430.4l.06-.07a3.75,3.75,0,0,1,5.61,5A3.79,3.79,0,0,1,461.82,436.59ZM477.43,419a3.74,3.74,0,0,1-2.82-6.19l.06-.07a3.75,3.75,0,0,1,5.62,5A3.85,3.85,0,0,1,477.43,419ZM493,401.42a3.65,3.65,0,0,1-2.46-.93,3.71,3.71,0,0,1-.35-5.26l.06-.07a3.75,3.75,0,1,1,5.61,5A3.83,3.83,0,0,1,493,401.42Zm15.61-17.59a3.73,3.73,0,0,1-2.81-6.19l.06-.07a3.75,3.75,0,0,1,5.61,5A3.79,3.79,0,0,1,508.64,383.83Z"/><path class="cls-3" d="M524.24,366.27a3.74,3.74,0,0,1-2.77-6.26l0,0a3.75,3.75,0,1,1,2.74,6.29Z"/><path class="cls-3" d="M532,373.05a3.76,3.76,0,1,1,2.54-6.51l0,0a3.75,3.75,0,0,1-2.57,6.48Z"/><path class="cls-3" d="M658,491.13a3.79,3.79,0,0,1-2.78-6.34,3.71,3.71,0,0,1,5.27-.23l.07.07a3.75,3.75,0,0,1-2.56,6.5Zm-18-16.87a3.79,3.79,0,0,1-2.77-6.34,3.69,3.69,0,0,1,5.26-.22l.07.06a3.75,3.75,0,0,1-2.56,6.5Zm-18-16.87a3.78,3.78,0,0,1-2.76-6.36,3.69,3.69,0,0,1,5.26-.18l.07.06a3.75,3.75,0,0,1-2.57,6.48Zm-18-16.87a3.74,3.74,0,0,1-2.57-1,3.8,3.8,0,0,1-.19-5.34,3.71,3.71,0,0,1,5.27-.18l.07.06a3.75,3.75,0,0,1-2.58,6.48Zm-18-16.87a3.78,3.78,0,0,1-2.76-6.36,3.71,3.71,0,0,1,5.26-.18l.07.07a3.75,3.75,0,0,1-2.57,6.47Zm-18-16.86a3.71,3.71,0,0,1-2.57-1,3.78,3.78,0,0,1-.19-5.33,3.71,3.71,0,0,1,5.27-.19l.07.07a3.75,3.75,0,0,1-2.58,6.48Zm-18-16.87a3.71,3.71,0,0,1-2.57-1,3.78,3.78,0,0,1-.19-5.33,3.71,3.71,0,0,1,5.27-.19l.07.07a3.75,3.75,0,0,1-2.58,6.48Z"/><path class="cls-3" d="M676,508a3.76,3.76,0,1,1,2.54-6.51l0,0A3.75,3.75,0,0,1,676,508Z"/><path class="cls-3" d="M528.91,142.4a3.76,3.76,0,1,1,2.41-6.63l0,0a3.76,3.76,0,0,1-2.45,6.6Z"/><path class="cls-3" d="M668.53,261.52a3.74,3.74,0,0,1-2.42-.88,3.8,3.8,0,0,1-.48-5.32,3.71,3.71,0,0,1,5.25-.47l.07.06a3.75,3.75,0,0,1-2.42,6.61Zm-17.45-14.89a3.74,3.74,0,0,1-2.42-.88,3.79,3.79,0,0,1-.48-5.32,3.71,3.71,0,0,1,5.25-.47l.07.06a3.75,3.75,0,0,1-2.42,6.61Zm-17.46-14.89a3.78,3.78,0,0,1-2.88-6.22,3.73,3.73,0,0,1,5.26-.44l.07.06a3.75,3.75,0,0,1-2.45,6.6Zm-17.45-14.89a3.78,3.78,0,0,1-2.88-6.22,3.72,3.72,0,0,1,5.26-.44l.06.06a3.75,3.75,0,0,1-2.44,6.6ZM598.72,202a3.78,3.78,0,0,1-2.88-6.22,3.72,3.72,0,0,1,5.25-.44l.07.06a3.75,3.75,0,0,1-2.44,6.6Zm-17.45-14.89a3.7,3.7,0,0,1-2.42-.89,3.77,3.77,0,0,1-.48-5.31,3.72,3.72,0,0,1,5.25-.48l.07.06a3.75,3.75,0,0,1-2.42,6.62Zm-17.46-14.89a3.78,3.78,0,0,1-2.88-6.22,3.71,3.71,0,0,1,5.26-.44l.07.06a3.75,3.75,0,0,1-2.45,6.6Zm-17.45-14.89a3.74,3.74,0,0,1-2.44-.91,3.78,3.78,0,0,1-.44-5.31,3.71,3.71,0,0,1,5.26-.44l.06.06a3.75,3.75,0,0,1-2.44,6.6Z"/><path class="cls-3" d="M686,276.38a3.72,3.72,0,0,1-2.41-.87,3.75,3.75,0,1,1,4.78-5.78l0,0a3.75,3.75,0,0,1-2.41,6.62Z"/><path class="cls-3" d="M686,276.43h-.32a3.76,3.76,0,1,1,4.06-3.47V273A3.74,3.74,0,0,1,686,276.43Z"/><path class="cls-3" d="M670.08,478.76h-.29a3.77,3.77,0,1,1,4-3.54v.09A3.74,3.74,0,0,1,670.08,478.76Zm1.76-22.48h-.29a3.77,3.77,0,1,1,4-3.54v.09A3.75,3.75,0,0,1,671.84,456.28Zm1.76-22.48h-.29a3.77,3.77,0,0,1,.58-7.52,3.71,3.71,0,0,1,3.46,4v.09A3.75,3.75,0,0,1,673.6,433.8Zm1.77-22.48h-.3a3.77,3.77,0,0,1,.59-7.52,3.71,3.71,0,0,1,3.45,4v.09A3.74,3.74,0,0,1,675.37,411.32Zm1.76-22.48h-.29a3.78,3.78,0,0,1,.58-7.53,3.71,3.71,0,0,1,3.45,4v.09A3.76,3.76,0,0,1,677.13,388.84Zm1.76-22.48h-.29a3.78,3.78,0,0,1,.58-7.53,3.71,3.71,0,0,1,3.46,4v.09A3.75,3.75,0,0,1,678.89,366.36Zm1.77-22.48-.33,0a3.75,3.75,0,0,1-3.41-4.06,3.8,3.8,0,0,1,4.07-3.46,3.72,3.72,0,0,1,3.41,4v.09A3.76,3.76,0,0,1,680.66,343.88Zm1.76-22.49h-.29a3.77,3.77,0,1,1,4-3.54v.09A3.75,3.75,0,0,1,682.42,321.39Zm1.76-22.48h-.29a3.77,3.77,0,0,1,.58-7.52,3.71,3.71,0,0,1,3.46,4v.09A3.74,3.74,0,0,1,684.18,298.91Z"/><path class="cls-3" d="M668.32,501.2H668a3.76,3.76,0,1,1,4-3.46v0A3.74,3.74,0,0,1,668.32,501.2Z"/><circle class="cls-4" cx="50.9" cy="273.18" r="50.9"/><polygon class="cls-5" points="38.31 266.74 52.43 254.79 64.39 268.92 72.6 261.96 53.7 239.62 31.36 258.52 38.31 266.74"/><rect class="cls-5" x="19.55" y="265.63" width="10.76" height="10.76" transform="translate(-169.17 80.24) rotate(-40.24)"/><polygon class="cls-5" points="37.42 277.45 49.37 291.56 63.49 279.61 70.45 287.82 70.45 287.83 48.11 306.73 29.21 284.4 29.2 284.39 37.42 277.45"/><rect class="cls-5" x="71.49" y="269.96" width="10.76" height="10.76" transform="translate(-159.68 114.82) rotate(-40.24)"/><polygon class="cls-5" points="58.59 273.81 58.6 273.81 51.54 265.48 45.38 270.69 45.38 270.69 44.67 271.29 43.21 272.53 43.21 272.53 43.2 272.54 43.21 272.55 50.26 280.88 58.6 273.82 58.6 273.82 58.59 273.81"/><circle class="cls-6" cx="233.26" cy="361.64" r="50.9"/><path class="cls-7" d="M248.88,330.66l-1.14,1.19-20.66,41,.22.63L252,371.81Z"/><path class="cls-8" d="M248.88,330.66l-34.94,22,13.36,20.84Z"/><path class="cls-9" d="M225.48,377.06l-.38.17-7.36,14.6-.11.8,32.54-17.21Z"/><path class="cls-8" d="M217.63,392.63l7.85-15.57-13.36-20.83Z"/><path class="cls-10" d="M227.3,373.46,252,371.81l-14.66-18.24Z"/><path class="cls-11" d="M213.94,352.62l13.36,20.84,10-19.89Z"/><circle class="cls-12" cx="368.23" cy="538.05" r="50.9"/><path class="cls-13" d="M365,534.24a15.37,15.37,0,0,0,3.48.72,14.52,14.52,0,0,0,3.56-.14,14.87,14.87,0,0,1,11.76-10,15.25,15.25,0,0,0,.72-3.48,14.85,14.85,0,0,0-29.6-2.47,15,15,0,0,0,.13,3.56A14.86,14.86,0,0,1,365,534.24Z"/><path class="cls-14" d="M371.45,541.86a14.73,14.73,0,0,0-3.48-.71,14.56,14.56,0,0,0-3.56.13,14.86,14.86,0,0,1-11.75,10,14.85,14.85,0,1,0,28.88,5.95,14.52,14.52,0,0,0-.14-3.56A14.87,14.87,0,0,1,371.45,541.86Z"/><path class="cls-15" d="M387.35,524.74a15,15,0,0,0-3.55.13,14.87,14.87,0,0,1-11.76,10,14.82,14.82,0,0,0-.72,3.49,15,15,0,0,0,.13,3.55,14.85,14.85,0,0,1,9.95,11.76,14.85,14.85,0,1,0,6-28.88Z"/><path class="cls-16" d="M364.41,541.28a14.82,14.82,0,0,0,.72-3.49,15,15,0,0,0-.13-3.55,14.87,14.87,0,0,1-9.95-11.76,14.85,14.85,0,1,0-5.95,28.88,15.07,15.07,0,0,0,3.56-.13A14.86,14.86,0,0,1,364.41,541.28Z"/><path class="cls-17" d="M372,534.82a14.87,14.87,0,0,0,11.76-10A14.87,14.87,0,0,0,372,534.82Z"/><path class="cls-18" d="M371.45,541.86a14.87,14.87,0,0,0,9.95,11.76A14.85,14.85,0,0,0,371.45,541.86Z"/><path class="cls-19" d="M365,534.24a14.86,14.86,0,0,0-9.95-11.76A14.87,14.87,0,0,0,365,534.24Z"/><path class="cls-20" d="M364.41,541.28a14.86,14.86,0,0,0-11.75,10A14.86,14.86,0,0,0,364.41,541.28Z"/><path class="cls-21" d="M717.53,481.24A50.9,50.9,0,1,1,654.8,446,50.55,50.55,0,0,1,717.53,481.24Z"/><path class="cls-22" d="M718.46,504.85A50.92,50.92,0,0,1,631,529.35Z"/><path class="cls-5" d="M679.65,538.74l-1-3.7-7.33,2.05-.83-3,6.26-1.76-1-3.7-6.26,1.76-.79-2.83,7.33-2.05-1-3.7-11.48,3.22L668.17,542Z"/><path class="cls-5" d="M693.36,529.12l-4.22,1.18a2.18,2.18,0,0,1-1.65,2.41,2.1,2.1,0,0,1-1.84-.26c-.52-.39-.94-.91-1.81-4s-.77-3.75-.53-4.35a2.1,2.1,0,0,1,1.44-1.17,2.16,2.16,0,0,1,2.66,1.19l4.23-1.18a6.36,6.36,0,0,0-7.95-3.71,6.52,6.52,0,0,0-4.16,3.22c-1.28,2.27-.55,4.62.16,7.16s1.31,4.93,3.58,6.21a6.53,6.53,0,0,0,5.23.58A6.33,6.33,0,0,0,693.36,529.12Z"/><path class="cls-23" d="M667.45,471.27c-2.15-7.69-7.69-13.27-11.09-14.64,0,0-.25-.07-.15.24h0c3.93,14.92-2.4,21-5,27.6-6,15.17,6.69,26.42,16.36,26.45,5.41,0-1.86-2.19-5-10.27C658.83,490.9,669.78,479.58,667.45,471.27Z"/><path class="cls-24" d="M673.79,475c-.08,0-.17,0-.2.09.36,1.92-.53,6.48-2,10.86-5.13,14.87,1.46,19.5,5.13,22,2.12,1.43,0,0,3.47-3a17.93,17.93,0,0,0,4.9-15.72A19.66,19.66,0,0,0,673.79,475Z"/><circle class="cls-25" cx="528.77" cy="139.81" r="50.9"/><path class="cls-5" d="M544.92,116.4a10.86,10.86,0,0,0-11.61,9.67l-1,11.8c-1.07-.09-2.16,0-3.38-.13a23.26,23.26,0,0,0-3.39-.12l1-12.11a10.68,10.68,0,0,0-21.29-1.77l-2.35,28.19a10.68,10.68,0,0,0,21.29,1.77l1-11.8c1.07.09,2.15,0,3.38.13a24.75,24.75,0,0,0,3.38.13l-1,12a10.68,10.68,0,0,0,21.29,1.77l2.34-28A10.63,10.63,0,0,0,544.92,116.4Zm-28.4,1.95a6.23,6.23,0,0,1,5.76,6.81l-1,12.4a38.24,38.24,0,0,0-9.26,1.86,16.85,16.85,0,0,0-3.7,1.85l1.43-17.16A6.33,6.33,0,0,1,516.52,118.35Zm3.42,35a6.31,6.31,0,0,1-12.57-1l.23-2.76c.21-2.45,2.4-4.74,5.89-5.83a29.12,29.12,0,0,1,7.53-1.54Zm21.23,8.1a6.24,6.24,0,0,1-5.76-6.81l1-12.41a38.22,38.22,0,0,0,9.26-1.85,16.85,16.85,0,0,0,3.7-1.85L548,155.68A6.33,6.33,0,0,1,541.17,161.44Zm3-25.2a29.62,29.62,0,0,1-7.53,1.53l.94-11.34a6.3,6.3,0,1,1,12.56,1l-.22,2.75C549.87,132.85,547.69,135,544.19,136.24Z"/><circle class="cls-3" cx="687.33" cy="274.77" r="50.9"/><path id="Layer" class="cls-26" d="M717.1,273.13l-1.44-2.94h0l-7.86-16.13h0l-.25-.57-3.34-.28L689.28,275l11.31,23.81,3.34.28.09-.12,12.45-17.75-6.72-.56-6.66,9.83-7.08-15,9.29-13.61,5,10.64Z"/><path id="Layer-2" data-name="Layer" class="cls-26" d="M666.6,265.18l7-9.89-1.77-3.47h0l-1.23-2.45-12,17.54h0l-.33.48,1.43,3.06L686,272.63l15.12-21.57-1.57-3.32-18.38-1.49-.29,0-2.92-.29,1.3,3.05h0l1.31,3,12,1-9.45,13.55Z"/><path id="Layer-3" data-name="Layer" class="cls-26" d="M680.58,254.24a4.8,4.8,0,0,0-1.48.12,8.21,8.21,0,0,0-1.64.58,5.24,5.24,0,0,0-2.87,3.08,1.62,1.62,0,0,0,.23,1.37h0c0,.09.11.13.15.22s.08.05.11.1l.08.09a2.43,2.43,0,0,1,.2.14h0a4.44,4.44,0,0,0,3.61,0l0,0c.13,0,.26-.11.39-.14a1.46,1.46,0,0,0,.35-.18l.4-.22c.13-.07.22-.15.35-.22l.09,0,.27-.18.09-.08c.08,0,.13-.12.18-.15a.79.79,0,0,0,.14-.16c.05-.08.13-.12.18-.2l.09-.07c.05-.08.14-.12.19-.2l.09-.07.14-.2v0l0-.08a1.16,1.16,0,0,0,.19-.28c0-.08.1-.2.15-.28l0,0s.05-.08.05-.08h0s0,0,0-.08,0-.12,0-.21.05-.08.06-.12v-.08l0-.17v-.08l0-.21v-.29a.47.47,0,0,0-.07-.22,2.26,2.26,0,0,0-.11-.22h0A2.08,2.08,0,0,0,680.58,254.24Z"/><path id="Layer-4" data-name="Layer" class="cls-26" d="M683.38,257.54a.47.47,0,0,1-.1.2h0s0,0,0,.08h0a1.12,1.12,0,0,1-.2.32h0a7.12,7.12,0,0,1-2.32,2.2l-.4.22a1.7,1.7,0,0,1-.39.18h0s-.09,0-.14.08-.13.07-.22.11h0s-.08,0-.13,0a.59.59,0,0,1-.25.07l-.09,0h0s-.09,0-.13,0l-.26.06-.09,0h0c-.08,0-.17,0-.25.07s-.09,0-.18,0h0c-.08,0-.17,0-.21,0a.27.27,0,0,0-.17,0h0a.13.13,0,0,0-.13,0h-.13c-.12,0-.29,0-.42,0h0l-.37,0h-.13a.57.57,0,0,1-.25-.06.16.16,0,0,1-.12-.05c-.08,0-.16-.06-.25-.07s-.08,0-.12-.05l2,3.91,4.93.37,2.92-4.3-2-3.95a.16.16,0,0,1-.05.12v.09s0,.08-.06.16A.16.16,0,0,1,683.38,257.54Z"/><path id="Layer-5" data-name="Layer" class="cls-26" d="M708.43,273.29a4.09,4.09,0,0,1,.43,1.42,7.63,7.63,0,0,1,.06,1.73,5.14,5.14,0,0,1-1.79,3.8,1.67,1.67,0,0,1-1.37.31h0c-.08,0-.16-.06-.24-.07s-.08,0-.13-.05-.08-.05-.12-.05a1.33,1.33,0,0,1-.2-.14h0a4.46,4.46,0,0,1-1.36-3.35v0c0-.13,0-.26,0-.43l0-.37,0-.46a1.16,1.16,0,0,1,.07-.37v-.09c0-.08.06-.2.07-.29v-.12c0-.08,0-.16.06-.25s0-.12.06-.2.05-.17.1-.25.05-.08.05-.12.06-.16.11-.24l0-.12a.45.45,0,0,0,.1-.21v0l0-.08c.06-.12.15-.2.19-.28s.14-.15.19-.23l.05,0,.09-.08h0s0,0,.05-.08l.13-.11.09-.08.09-.07.14-.12.09,0s.13-.08.17-.12.05,0,.09,0a.19.19,0,0,0,.09,0s0,0,0,0h0c.09,0,.13,0,.22,0l.25,0h0A2.22,2.22,0,0,1,708.43,273.29Z"/><path id="Layer-6" data-name="Layer" class="cls-26" d="M704.29,271.93a2,2,0,0,1-.14.16h0s0,0,0,.08h0c-.09.08-.15.2-.24.27h0a6.65,6.65,0,0,0-1.17,3l0,.45,0,.42v0h0v.17a.59.59,0,0,0,0,.26v.16a2.28,2.28,0,0,0,0,.26v.12a.13.13,0,0,0,0,.13c0,.08,0,.17,0,.25l0,.09v0a.62.62,0,0,0,.06.26s0,.09,0,.13h0v0c0,.09,0,.13.07.22s0,.08.07.17v0s0,.09,0,.13a.19.19,0,0,1,0,.09,1.36,1.36,0,0,0,.18.39l0,.05a1.49,1.49,0,0,0,.18.31s0,0,0,.08l0,0c0,.08.12.13.15.22s0,.09.08.09a.86.86,0,0,1,.15.22c0,.05.08.05.08.09l-4.39-.36-2.19-4.43,2.88-4.3,4.38.36-.09.08,0,0-.18.15Z"/><path id="Layer-7" data-name="Layer" class="cls-26" d="M677.29,293.86a4.94,4.94,0,0,1-1.44-.37,7.64,7.64,0,0,1-1.53-.85,5.21,5.21,0,0,1-2.32-3.51,1.64,1.64,0,0,1,.45-1.31h0c0-.08.14-.11.18-.19s.09,0,.14-.08l.09-.07a1.51,1.51,0,0,1,.22-.11h0a4.42,4.42,0,0,1,3.56.59l0,.05c.12.05.24.14.36.19a2.22,2.22,0,0,1,.32.24l.35.28c.12.1.2.19.32.28l.08.05c.07.09.15.14.23.23l.08.09a.6.6,0,0,1,.15.18.5.5,0,0,1,.11.18c0,.08.12.13.15.22l.08.09c0,.09.11.14.15.22l.07.09c0,.09.08.14.11.22v0l0,.09a.85.85,0,0,1,.14.31c0,.08.07.21.11.3l0,.05a.14.14,0,0,0,0,.08h0s0,0,0,.09,0,.13,0,.21,0,.09,0,.13v.33l0,.21v.3a.47.47,0,0,1-.1.2l-.14.2h0A2,2,0,0,1,677.29,293.86Z"/><path id="Layer-8" data-name="Layer" class="cls-26" d="M680.59,291.06a.44.44,0,0,0-.07-.21h0s0,0,0-.09h0a1.28,1.28,0,0,0-.14-.35h0a7.22,7.22,0,0,0-1.93-2.55l-.36-.29a2.5,2.5,0,0,0-.36-.24h0c0-.05-.08-.05-.12-.09l-.2-.15h0s-.08,0-.12,0a.64.64,0,0,0-.24-.11l-.08-.05h0c-.05,0-.08-.05-.13-.05s-.16-.06-.24-.11l-.08,0h0c-.08-.05-.16-.05-.24-.1s-.08-.05-.17-.06h0c-.08,0-.16-.06-.21-.06a.22.22,0,0,1-.16-.06h0a.16.16,0,0,1-.12-.05h-.13c-.12,0-.29-.07-.41-.08h0l-.38,0h-.12a.46.46,0,0,0-.26,0,.13.13,0,0,0-.13,0c-.08,0-.17,0-.25,0l-.13,0,2.61-3.52,4.92.45L683.2,288l-2.61,3.57s0-.09,0-.13v-.09s0-.08,0-.17A.19.19,0,0,0,680.59,291.06Z"/><path id="Layer-9" data-name="Layer" class="cls-26" d="M688.88,297.05l-12-1-2.12,3.31-1.45,2.28,3.22.22v0l18.37,1.57,2.1-3-11.35-23.77-26.25-2.23-1.92,2.79.29.57h0L666.6,297l3.93-5.34-5.23-10.87,16.49,1.38Z"/><circle class="cls-27" cx="524.27" cy="362.51" r="50.9"/><path class="cls-5" d="M539.21,354.41a3.57,3.57,0,0,0-3.49-.3l-8.4,4-5.69,2.58-8.39,4a3.59,3.59,0,0,1-3.49-.29l-6.06-4.16a3.49,3.49,0,0,1-1.5-3.07l.6-7.17a3.27,3.27,0,0,1,2-2.78l6.55-3a3.59,3.59,0,0,1,3.49.29l6,4.05a3.49,3.49,0,0,1,1.5,3.07l-.39,4.65,5.7-2.68.39-4.64a3.28,3.28,0,0,0-1.5-3.07l-11-7.63a3.58,3.58,0,0,0-3.48-.29l-12.36,5.68a3.27,3.27,0,0,0-2,2.78l-1.12,13.42a3.29,3.29,0,0,0,1.5,3.07l11.25,7.65a3.6,3.6,0,0,0,3.49.29l8.38-3.88,5.7-2.67,8.38-3.88a3.59,3.59,0,0,1,3.49.29l6,4.06a3.47,3.47,0,0,1,1.5,3.07l-.6,7.16a3.27,3.27,0,0,1-2,2.79L537,380.85a3.59,3.59,0,0,1-3.49-.29l-6-4.06a3.47,3.47,0,0,1-1.5-3.07l.38-4.64-5.7,2.68-.38,4.64a3.27,3.27,0,0,0,1.5,3.07l11.25,7.64a3.53,3.53,0,0,0,3.48.29l12.36-5.67a3.48,3.48,0,0,0,2-2.79l1.12-13.42a3.29,3.29,0,0,0-1.5-3.07Z"/><path class="cls-28" d="M213.62,200.15a17.94,17.94,0,1,1-16.39-19.38A17.94,17.94,0,0,1,213.62,200.15Zm174.24-71.76a17.94,17.94,0,1,0,16.4,19.37A17.95,17.95,0,0,0,387.86,128.39Z"/><path class="cls-29" d="M370.7,385.77l-5.51,27.72a2.84,2.84,0,0,0,3.59,3.27l40.18-12a2.83,2.83,0,0,0,.25-5.34l-36.55-14.69A1.44,1.44,0,0,0,370.7,385.77Z"/></g></g></svg>