<svg width="16" height="14" viewBox="0 0 16 14" fill="none" xmlns="http://www.w3.org/2000/svg">
<g clip-path="url(#clip0_4012_15709)">
<path d="M14.6856 12.1433C14.5622 12.0816 14.5005 11.8966 14.5005 11.7732V2.36243C14.5005 2.23909 14.5622 2.05408 14.6856 1.93074L15.8573 0.56167V0.5H11.6514L8.4939 8.49241L4.90472 0.5H0.563163V0.56167L1.67322 2.11575C1.9199 2.36243 1.98157 2.73245 1.98157 3.0408V9.84915C2.04324 10.2192 1.98157 10.6509 1.79656 11.0209L0.119141 13.315V13.3767H4.58404V13.315L2.90662 11.0825C2.72161 10.7125 2.65994 10.3425 2.72161 9.91082V3.71916C2.78328 3.8425 2.84495 3.8425 2.90662 4.08918L7.1125 13.5H7.17417L11.269 3.28748C11.2074 3.6575 11.2074 4.08918 11.2074 4.39753V11.7116C11.2074 11.8966 11.1457 12.0199 11.0224 12.1433L9.77664 13.315V13.3767H15.8449V13.315L14.6732 12.1433H14.6856Z" fill="white"/>
</g>
<defs>
<clipPath id="clip0_4012_15709">
<rect width="15.7381" height="13" fill="white" transform="translate(0.130859 0.5)"/>
</clipPath>
</defs>
</svg>
