<svg width="101" height="22" viewBox="0 0 101 22" fill="none" xmlns="http://www.w3.org/2000/svg">
<path d="M12.5039 10.0773L19.4691 21.9974L19.9318 20.7904L12.9799 8.83301L12.5039 10.0773Z" fill="url(#paint0_linear_4012_14645)"/>
<path d="M16.3694 0L15.8867 1.26191L22.8364 13.2171L23.3212 11.9552L16.3694 0Z" fill="url(#paint1_linear_4012_14645)"/>
<path d="M14.1914 5.67891L21.1433 17.6341L21.6281 16.3722L14.6763 4.41699L14.1914 5.67891Z" fill="url(#paint2_linear_4012_14645)"/>
<mask id="mask0_4012_14645" style="mask-type:luminance" maskUnits="userSpaceOnUse" x="0" y="0" width="24" height="22">
<path d="M16.3701 0L23.322 11.9552L22.8371 13.2171L15.8852 1.26191L14.6742 4.4167L21.6261 16.3719L21.1412 17.6338L14.1893 5.67861L12.9783 8.8334L19.9302 20.7886L19.4674 21.9956L12.5023 10.0755L8.36216 20.8678C8.10091 21.5471 7.44558 21.9956 6.71497 21.9956H0L8.00571 1.12781C8.26696 0.448485 8.9223 0 9.65291 0H16.3701Z" fill="white"/>
</mask>
<g mask="url(#mask0_4012_14645)">
<g filter="url(#filter0_d_4012_14645)">
<path d="M6.71497 21.9978H0L8.00571 1.12781C8.26696 0.448485 8.92229 0 9.6529 0H16.3701L8.36437 20.87C8.10313 21.5493 7.44779 21.9978 6.71718 21.9978H6.71497Z" fill="url(#paint3_linear_4012_14645)"/>
</g>
</g>
<mask id="mask1_4012_14645" style="mask-type:luminance" maskUnits="userSpaceOnUse" x="12" y="0" width="24" height="22">
<path d="M19.4694 21.998L12.5176 10.0428L13.0024 8.78088L19.9543 20.7361L21.1653 17.5813L14.2135 5.62609L14.6983 4.36418L21.6502 16.3194L22.8612 13.1646L15.9094 1.20939L16.3721 0.00244141L23.3372 11.9225L27.4774 1.13025C27.7386 0.450927 28.394 0.00244141 29.1246 0.00244141H35.8417L27.836 20.8724C27.5748 21.5517 26.9194 22.0002 26.1888 22.0002H19.4717L19.4694 21.998Z" fill="white"/>
</mask>
<g mask="url(#mask1_4012_14645)">
<g filter="url(#filter1_d_4012_14645)">
<path d="M26.1879 21.9978H19.4707L27.4764 1.12781C27.7377 0.448485 28.393 0 29.1236 0H35.8408L27.8351 20.87C27.5738 21.5493 26.9185 21.9978 26.1879 21.9978Z" fill="url(#paint4_linear_4012_14645)"/>
</g>
</g>
<path d="M63.3561 18.0337H54.1504V3.96582H63.2631V6.05875H56.909V9.87088H62.4196V11.911H56.909V15.8485H63.3561V18.0337Z" fill="white"/>
<path d="M100.833 18.0337H91.627V3.96582H100.74V6.05875H94.3856V9.87088H99.8961V11.911H94.3856V15.8485H100.833V18.0337Z" fill="white"/>
<path d="M76.7288 18.0337H74.03L71.8293 12.2518H68.4419V18.0337H65.6855V3.96582H71.8293C73.5385 3.96582 74.7938 4.34835 75.5975 5.11561C76.3989 5.88068 76.8019 6.87218 76.8019 8.08793C76.8019 9.89506 75.9517 11.1394 74.2492 11.8187L76.7288 18.0337ZM68.4442 10.2204H71.4153C72.3363 10.2204 73.0204 10.0292 73.4699 9.64444C73.9193 9.25971 74.1451 8.72988 74.1451 8.05715C74.1451 7.43938 73.9237 6.93813 73.4809 6.5578C73.0381 6.17747 72.4182 5.9862 71.6234 5.9862H68.4442V10.2226V10.2204Z" fill="white"/>
<path d="M80.6665 18.034H78.0718L77.9102 3.96826H80.6665V18.034Z" fill="white"/>
<path d="M90.554 3.96582H87.2397L78.0605 17.2291L78.065 17.5237L78.7956 18.0337H80.6642L90.5739 3.98121L90.554 3.96582Z" fill="white"/>
<path d="M49.5363 3.96582V13.2609L42.9852 3.96802V3.96582H40.2266V18.0315H42.9852V8.74087L49.5363 18.0337V18.0315H52.2927V3.96582H49.5363Z" fill="white"/>
<defs>
<filter id="filter0_d_4012_14645" x="-4.33" y="-4.33" width="36.3701" height="41.9976" filterUnits="userSpaceOnUse" color-interpolation-filters="sRGB">
<feFlood flood-opacity="0" result="BackgroundImageFix"/>
<feColorMatrix in="SourceAlpha" type="matrix" values="0 0 0 0 0 0 0 0 0 0 0 0 0 0 0 0 0 0 127 0" result="hardAlpha"/>
<feOffset dx="5.67" dy="5.67"/>
<feGaussianBlur stdDeviation="5"/>
<feColorMatrix type="matrix" values="0 0 0 0 0.0431373 0 0 0 0 0.117647 0 0 0 0 0.415686 0 0 0 0.75 0"/>
<feBlend mode="normal" in2="BackgroundImageFix" result="effect1_dropShadow_4012_14645"/>
<feBlend mode="normal" in="SourceGraphic" in2="effect1_dropShadow_4012_14645" result="shape"/>
</filter>
<filter id="filter1_d_4012_14645" x="3.8007" y="-4.33" width="36.3701" height="41.9976" filterUnits="userSpaceOnUse" color-interpolation-filters="sRGB">
<feFlood flood-opacity="0" result="BackgroundImageFix"/>
<feColorMatrix in="SourceAlpha" type="matrix" values="0 0 0 0 0 0 0 0 0 0 0 0 0 0 0 0 0 0 127 0" result="hardAlpha"/>
<feOffset dx="-5.67" dy="5.67"/>
<feGaussianBlur stdDeviation="5"/>
<feColorMatrix type="matrix" values="0 0 0 0 0.0313726 0 0 0 0 0.113725 0 0 0 0 0.0980392 0 0 0 0.75 0"/>
<feBlend mode="normal" in2="BackgroundImageFix" result="effect1_dropShadow_4012_14645"/>
<feBlend mode="normal" in="SourceGraphic" in2="effect1_dropShadow_4012_14645" result="shape"/>
</filter>
<linearGradient id="paint0_linear_4012_14645" x1="21.1605" y1="20.3177" x2="11.3578" y2="10.4459" gradientUnits="userSpaceOnUse">
<stop stop-color="#37E4CC"/>
<stop offset="1" stop-color="#4D62E4"/>
</linearGradient>
<linearGradient id="paint1_linear_4012_14645" x1="24.5478" y1="11.5199" x2="14.7275" y2="1.63036" gradientUnits="userSpaceOnUse">
<stop stop-color="#37E4CC"/>
<stop offset="1" stop-color="#4D62E4"/>
</linearGradient>
<linearGradient id="paint2_linear_4012_14645" x1="22.8547" y1="15.9369" x2="13.0344" y2="6.04735" gradientUnits="userSpaceOnUse">
<stop stop-color="#37E4CC"/>
<stop offset="1" stop-color="#4D62E4"/>
</linearGradient>
<linearGradient id="paint3_linear_4012_14645" x1="0" y1="10.9989" x2="16.3701" y2="10.9989" gradientUnits="userSpaceOnUse">
<stop stop-color="#37E4CC"/>
<stop offset="1" stop-color="#4D62E4"/>
</linearGradient>
<linearGradient id="paint4_linear_4012_14645" x1="19.4707" y1="10.9989" x2="35.8408" y2="10.9989" gradientUnits="userSpaceOnUse">
<stop stop-color="#37E4CC"/>
<stop offset="1" stop-color="#4D62E4"/>
</linearGradient>
</defs>
</svg>
