<svg width="16" height="16" viewBox="0 0 16 16" fill="none" xmlns="http://www.w3.org/2000/svg">
<path d="M5.91895 5.92103C6.08562 5.44723 6.4146 5.04771 6.84761 4.79322C7.28063 4.53873 7.78974 4.44571 8.28477 4.53062C8.7798 4.61553 9.22881 4.8729 9.55227 5.25714C9.87573 5.64138 10.0528 6.1277 10.052 6.62997C10.052 8.04783 7.92522 8.75676 7.92522 8.75676M7.95264 11.5946H7.9621" stroke="#94A6CE" stroke-width="1.2" stroke-linecap="round" stroke-linejoin="round"/>
<path d="M8 15C11.866 15 15 11.866 15 8C15 4.13401 11.866 1 8 1C4.13401 1 1 4.13401 1 8C1 11.866 4.13401 15 8 15Z" stroke="#94A6CE" stroke-width="1.2" stroke-linecap="round" stroke-linejoin="round"/>
</svg>
