<svg width="18" height="18" viewBox="0 0 18 18" fill="none" xmlns="http://www.w3.org/2000/svg">
<path d="M9.72165 1.9402L11.4648 5.5231C11.5968 5.80385 11.8609 5.99102 12.1647 6.04449L16.0735 6.61936C16.7206 6.71294 16.9847 7.52845 16.5093 7.983L13.6833 10.7771C13.4588 10.991 13.3664 11.3119 13.4192 11.606L14.0927 15.5499C14.1983 16.2049 13.5248 16.6996 12.9438 16.3921L9.43113 14.5472C9.15382 14.4001 8.83688 14.4001 8.55957 14.5472L5.06012 16.4055C4.47908 16.713 3.79239 16.2183 3.91124 15.5632L4.58472 11.6194C4.63754 11.3119 4.5319 11.0044 4.32061 10.7905L1.49464 7.99637C1.01924 7.52845 1.28335 6.72631 1.93042 6.63273L5.83924 6.04449C6.14297 6.00438 6.40708 5.80385 6.53913 5.5231L8.29546 1.9402C8.58598 1.35196 9.41792 1.35196 9.72165 1.9402Z" stroke="#878DAB" stroke-width="1.5" stroke-miterlimit="10"/>
</svg>
