<svg width="12" height="14" viewBox="0 0 12 14" fill="none" xmlns="http://www.w3.org/2000/svg">
<path d="M7.25 1.16172V3.64004C7.25 3.97607 7.25 4.14409 7.31812 4.27244C7.37804 4.38533 7.47365 4.47712 7.59126 4.53465C7.72495 4.60004 7.89997 4.60004 8.25 4.60004H10.8316M7.25 10H3.5M8.5 7.6H3.5M5.16667 5.4H3.5M11 5.79294V10.12C11 11.1281 11 11.6321 10.7956 12.0172C10.6159 12.3559 10.329 12.6312 9.97623 12.8038C9.57515 13 9.0501 13 8 13H4C2.9499 13 2.42485 13 2.02377 12.8038C1.67096 12.6312 1.38413 12.3559 1.20436 12.0172C1 11.6321 1 11.1281 1 10.12V3.88C1 2.87191 1 2.36786 1.20436 1.98282C1.38413 1.64413 1.67096 1.36876 2.02377 1.19619C2.42485 1 2.9499 1 4 1H6.00736C6.46597 1 6.69527 1 6.91106 1.04973C7.10238 1.09383 7.28527 1.16656 7.45303 1.26525C7.64225 1.37656 7.8044 1.53222 8.12868 1.84353L10.1213 3.75647C10.4456 4.06778 10.6077 4.22344 10.7237 4.40509C10.8265 4.56614 10.9023 4.74172 10.9482 4.92538C11 5.13254 11 5.35267 11 5.79294Z" stroke="white" stroke-linecap="round" stroke-linejoin="round"/>
</svg>
