<svg width="12" height="12" viewBox="0 0 12 12" fill="none" xmlns="http://www.w3.org/2000/svg">
<path d="M11.3996 4.2001L11.3996 0.600103M11.3996 0.600103H7.7996M11.3996 0.600103L5.99961 6.0001M4.79961 0.600098H3.47961C2.47151 0.600098 1.96747 0.600098 1.58243 0.796286C1.24373 0.968858 0.96837 1.24422 0.795798 1.58291C0.599609 1.96796 0.599609 2.472 0.599609 3.4801V8.5201C0.599609 9.52819 0.599609 10.0322 0.795798 10.4173C0.96837 10.756 1.24373 11.0313 1.58243 11.2039C1.96747 11.4001 2.47151 11.4001 3.47961 11.4001H8.51961C9.5277 11.4001 10.0318 11.4001 10.4168 11.2039C10.7555 11.0313 11.0308 10.756 11.2034 10.4173C11.3996 10.0322 11.3996 9.52819 11.3996 8.5201V7.2001" stroke="currentColor" stroke-linecap="round" stroke-linejoin="round"/>
</svg>
