<svg width="20" height="20" viewBox="0 0 20 20" fill="none" xmlns="http://www.w3.org/2000/svg">
<path fill-rule="evenodd" clip-rule="evenodd" d="M5.75497 4.87764C7.62738 3.52975 10.4817 3.03346 14.3705 4.88528C14.6383 5.01282 14.9589 4.89909 15.0864 4.63125C15.214 4.36341 15.1002 4.04288 14.8324 3.91534C10.664 1.93038 7.37945 2.38453 5.12733 4.00575C2.91121 5.60106 1.78662 8.26489 1.78662 10.5391C1.78662 15.0738 5.46268 18.7498 9.99732 18.7498C14.532 18.7498 18.208 15.0738 18.208 10.5391C18.208 10.2425 17.9675 10.002 17.6709 10.002C17.3742 10.002 17.1337 10.2425 17.1337 10.5391C17.1337 14.4805 13.9386 17.6755 9.99732 17.6755C6.05599 17.6755 2.86092 14.4805 2.86092 10.5391C2.86092 8.57542 3.84656 6.25144 5.75497 4.87764Z" fill="white"/>
<path fill-rule="evenodd" clip-rule="evenodd" d="M14.0918 2.16888C14.0918 2.16888 14.0918 2.16888 14.0918 2.16888L14.1032 2.19951L14.136 2.28832C14.1643 2.36516 14.2047 2.47543 14.2528 2.60859C14.349 2.87524 14.4755 3.23218 14.5975 3.59566C14.7202 3.96118 14.8354 4.32482 14.9111 4.6077C14.9229 4.65206 14.9335 4.69318 14.9427 4.731C14.9057 4.74295 14.8651 4.75554 14.8211 4.7687C14.5406 4.85267 14.1706 4.9453 13.795 5.03257C13.4216 5.11935 13.0513 5.19885 12.7738 5.25677C12.6352 5.28569 12.5202 5.30915 12.4399 5.32535L12.3471 5.34397L12.3154 5.35025C12.0243 5.40748 11.8343 5.68992 11.8916 5.98101C11.9488 6.27209 12.2312 6.46167 12.5223 6.40444L12.5568 6.3976L12.6524 6.37842C12.7347 6.36182 12.8521 6.33788 12.9933 6.30841C13.2754 6.24953 13.6542 6.16823 14.0382 6.07898C14.4201 5.99023 14.8161 5.89161 15.1292 5.79789C15.2841 5.75152 15.4317 5.70254 15.5513 5.65264C15.6102 5.62807 15.6761 5.5976 15.7374 5.56052C15.7772 5.53644 15.904 5.45942 15.9856 5.31342C16.0671 5.16742 16.0662 5.01906 16.0658 4.97254C16.0652 4.90089 16.0566 4.82876 16.0466 4.76576C16.0264 4.63776 15.9907 4.4864 15.9489 4.33018C15.8645 4.01445 15.7408 3.6256 15.616 3.25385C15.4905 2.88007 15.3611 2.51496 15.2633 2.24388C15.2143 2.10818 15.1731 1.99566 15.1441 1.91693L15.1103 1.82544L15.0982 1.7931C15.0982 1.79307 15.098 1.79245 14.5949 1.98067L15.0982 1.7931C14.9943 1.51525 14.6845 1.37362 14.4067 1.47757C14.1288 1.58152 13.9878 1.89103 14.0918 2.16888Z" fill="white"/>
</svg>
