<svg width="14" height="14" viewBox="0 0 14 14" fill="none" xmlns="http://www.w3.org/2000/svg">
<path d="M12.661 10.304H9.73918C9.19711 10.304 8.67725 10.0887 8.29395 9.70541C7.91065 9.32211 7.69531 8.80225 7.69531 8.26018C7.69531 7.71811 7.91065 7.19824 8.29395 6.81494C8.67725 6.43164 9.19711 6.21631 9.73918 6.21631H12.661C12.7747 6.21631 12.8837 6.26147 12.9641 6.34185C13.0445 6.42224 13.0897 6.53126 13.0897 6.64494V9.87541C13.0897 9.9891 13.0445 10.0981 12.9641 10.1785C12.8837 10.2589 12.7747 10.304 12.661 10.304ZM9.73918 7.07358C9.42448 7.07358 9.12266 7.19859 8.90013 7.42112C8.6776 7.64366 8.55258 7.94547 8.55258 8.26018C8.55258 8.57489 8.6776 8.8767 8.90013 9.09923C9.12266 9.32176 9.42448 9.44678 9.73918 9.44678H12.2324V7.07358H9.73918Z" fill="#878DAB"/>
<path d="M9.33789 8.2599C9.33789 8.39954 9.39336 8.53346 9.4921 8.6322C9.59084 8.73094 9.72476 8.78641 9.8644 8.78641C10.004 8.78641 10.138 8.73094 10.2367 8.6322C10.3354 8.53346 10.3909 8.39954 10.3909 8.2599C10.3909 8.12027 10.3354 7.98635 10.2367 7.88761C10.138 7.78887 10.004 7.7334 9.8644 7.7334C9.72476 7.7334 9.59084 7.78887 9.4921 7.88761C9.39336 7.98635 9.33789 8.12027 9.33789 8.2599Z" fill="#878DAB"/>
<path d="M10.8497 3.52147L9.63952 1.69192C9.42261 1.36479 9.08943 1.13237 8.70752 1.04177C8.32561 0.951169 7.92354 1.00916 7.5828 1.20399L3.54292 3.52147H3.21144C2.59893 3.52204 2.01166 3.76551 1.57841 4.19848C1.14517 4.63146 0.901336 5.21859 0.900391 5.8311V10.6889C0.900958 11.3017 1.14463 11.8892 1.57791 12.3225C2.01119 12.7558 2.59869 12.9994 3.21144 13H10.7783C11.391 12.9994 11.9785 12.7558 12.4118 12.3225C12.8451 11.8892 13.0887 11.3017 13.0893 10.6889V5.8311C13.0887 5.23075 12.8547 4.65417 12.4368 4.22318C12.0188 3.7922 11.4497 3.54057 10.8497 3.52147ZM8.01143 1.94981C8.16246 1.86327 8.3407 1.83727 8.51016 1.87705C8.67962 1.91683 8.82767 2.01943 8.92442 2.16413L9.82027 3.52147H5.26746L8.01143 1.94981ZM12.232 10.6918C12.2317 11.0773 12.0784 11.4468 11.8058 11.7194C11.5333 11.9919 11.1637 12.1452 10.7783 12.1456H3.21144C2.82599 12.1452 2.45644 11.9919 2.18388 11.7194C1.91132 11.4468 1.75804 11.0773 1.75766 10.6918V5.83395C1.75766 5.44825 1.91078 5.07833 2.18338 4.80547C2.45597 4.5326 2.82574 4.37912 3.21144 4.37874H10.7783C11.1637 4.37912 11.5333 4.53241 11.8058 4.80496C12.0784 5.07752 12.2317 5.44707 12.232 5.83252V10.6918Z" fill="#878DAB"/>
</svg>
