<svg width="32" height="32" viewBox="0 0 32 32" fill="none" xmlns="http://www.w3.org/2000/svg">
<path d="M16 32C24.8366 32 32 24.8366 32 16C32 7.16344 24.8366 0 16 0C7.16344 0 0 7.16344 0 16C0 24.8366 7.16344 32 16 32Z" fill="#0B0E10"/>
<path d="M11.9213 14.325L16.0001 10.2463L20.0801 14.3263L22.4538 11.9537L16.0001 5.5L9.54883 11.9513L11.9213 14.325Z" fill="#F0B72F"/>
<path d="M7.87323 13.6268L5.5 16L7.87323 18.3732L10.2465 16L7.87323 13.6268Z" fill="#F0B72F"/>
<path d="M11.9212 17.6751L15.9999 21.7538L20.0799 17.6738L22.4537 20.0451V20.0463L15.9999 26.5001L9.54867 20.0488L9.54492 20.0451L11.9212 17.6751Z" fill="#F0B72F"/>
<path d="M24.1271 13.6282L21.7539 16.0015L24.1271 18.3747L26.5004 16.0015L24.1271 13.6282Z" fill="#F0B72F"/>
<path d="M18.4068 15.9988H18.408L16.0005 13.5913L14.2205 15.3701L14.0168 15.5751L13.5943 15.9963L13.5918 16.0001L13.5943 16.0038L16.0005 18.4088L18.408 16.0013L18.4093 16.0001L18.4068 15.9988Z" fill="#F0B72F"/>
</svg>
