<svg width="32" height="32" viewBox="0 0 32 32" fill="none" xmlns="http://www.w3.org/2000/svg">
<path d="M32 16C32 7.16344 24.8366 0 16 0C7.16344 0 0 7.16344 0 16C0 24.8366 7.16344 32 16 32C24.8366 32 32 24.8366 32 16Z" fill="#00F0FF"/>
<path d="M13.7462 5.98154C12.6009 5.98096 11.4576 5.98037 10.3083 5.98213C9.61335 5.98213 9.35273 6.85458 9.86962 7.37136L17.6932 15.195C17.9373 15.4183 18.0895 15.661 18.0951 15.9809C18.0895 16.3009 17.9373 16.5436 17.6932 16.767L9.86962 24.5905C9.35273 25.1073 9.61335 25.9798 10.3083 25.9798C11.4576 25.9816 12.6009 25.9809 13.7462 25.9804C14.3197 25.9801 14.8935 25.9798 15.4689 25.9798C16.2217 25.9798 16.6695 25.5777 17.0717 25.1755L24.1275 18.1196C24.6906 17.5565 25.1944 16.8089 25.1876 15.9809C25.1944 15.1531 24.6906 14.4054 24.1275 13.8423L17.0717 6.78642C16.6695 6.38428 16.2217 5.98213 15.4689 5.98213C14.8935 5.98213 14.3197 5.98183 13.7462 5.98154Z" fill="#001F29"/>
</svg>
