<svg width="32" height="32" viewBox="0 0 32 32" fill="none" xmlns="http://www.w3.org/2000/svg"><g clip-path="url(#clip0_4482_24780)"><mask id="mask0_4482_24780" style="mask-type:luminance" maskUnits="userSpaceOnUse" x="0" y="0" width="32" height="32"><path d="M29.44 0H2.56C1.14615 0 0 1.14615 0 2.56V29.44C0 30.8538 1.14615 32 2.56 32H29.44C30.8538 32 32 30.8538 32 29.44V2.56C32 1.14615 30.8538 0 29.44 0Z" fill="white"/></mask><g mask="url(#mask0_4482_24780)"><path d="M29.44 0H2.56C1.14615 0 0 1.14615 0 2.56V29.44C0 30.8538 1.14615 32 2.56 32H29.44C30.8538 32 32 30.8538 32 29.44V2.56C32 1.14615 30.8538 0 29.44 0Z" fill="#54FFF5"/><g filter="url(#filter0_f_4482_24780)"><path d="M1.68486 24.826C-3.66616 39.8807 24.9574 35.6286 39.9381 31.6209C55.2704 26.5327 44.6731 4.10367 33.6766 3.60729C22.6801 3.11088 35.04 13.9784 25.6992 17.0823C16.3583 20.1862 8.37363 6.00761 1.68486 24.826Z" fill="white"/></g><g filter="url(#filter1_f_4482_24780)"><path d="M10.6888 -5.72745C7.88183 -13.3967 -2.11506 -2.99905 -6.76264 3.15841C-11.1958 9.85638 0.375973 15.6443 4.9149 12.505C9.45385 9.36571 0.971613 8.75491 3.67115 4.6727C6.37069 0.590466 14.1975 3.85906 10.6888 -5.72745Z" fill="#00FFF0" fill-opacity="0.67"/></g><g filter="url(#filter2_f_4482_24780)"><path d="M12.0598 28.1776C8.23109 15.2951 -8.26041 22.0793 -16.0276 27.0817C-23.4988 33.0049 -5.75907 50.0432 1.60888 49.1716C8.97682 48.3001 -4.30167 40.8829 0.248192 37.271C4.79805 33.6592 16.8456 44.2809 12.0598 28.1776Z" fill="#9D81FF"/></g><g filter="url(#filter3_f_4482_24780)"><path d="M35.2648 -13.419C27.0056 -23.2538 15.1825 -15.1211 10.3034 -9.82547C6.03395 -3.83046 28.0341 7.15403 34.1399 5.27156C40.2457 3.38906 25.8137 -0.506166 28.4119 -4.16087C31.0101 -7.81557 45.5886 -1.12558 35.2648 -13.419Z" fill="#4D94FF"/></g><path fill-rule="evenodd" clip-rule="evenodd" d="M11.6484 19.1045H17.084L10.9009 12.8814L17.1635 6.65828L18.8692 5H13.2272L6.04181 12.2222C5.67918 12.5862 5.68104 13.1752 6.04552 13.5373L11.6484 19.1045ZM14.9161 12.8959H14.8742L14.9156 12.8954L14.9161 12.8959ZM14.9161 12.8959L21.0987 19.1185L14.8361 25.3417L13.1304 26.9999H18.7724L25.9578 19.7782C26.3204 19.4142 26.3185 18.8252 25.9542 18.463L20.3512 12.8959H14.9161Z" fill="black"/></g></g><defs><filter id="filter0_f_4482_24780" x="-11.2804" y="-8.71689" width="71.195" height="56.4289" filterUnits="userSpaceOnUse" color-interpolation-filters="sRGB"><feFlood flood-opacity="0" result="BackgroundImageFix"/><feBlend mode="normal" in="SourceGraphic" in2="BackgroundImageFix" result="shape"/><feGaussianBlur stdDeviation="6.15386" result="effect1_foregroundBlur_4482_24780"/></filter><filter id="filter1_f_4482_24780" x="-20.0641" y="-20.7481" width="43.9494" height="46.4387" filterUnits="userSpaceOnUse" color-interpolation-filters="sRGB"><feFlood flood-opacity="0" result="BackgroundImageFix"/><feBlend mode="normal" in="SourceGraphic" in2="BackgroundImageFix" result="shape"/><feGaussianBlur stdDeviation="6.15386" result="effect1_foregroundBlur_4482_24780"/></filter><filter id="filter2_f_4482_24780" x="-30.1349" y="8.45498" width="55.6066" height="53.0563" filterUnits="userSpaceOnUse" color-interpolation-filters="sRGB"><feFlood flood-opacity="0" result="BackgroundImageFix"/><feBlend mode="normal" in="SourceGraphic" in2="BackgroundImageFix" result="shape"/><feGaussianBlur stdDeviation="6.15386" result="effect1_foregroundBlur_4482_24780"/></filter><filter id="filter3_f_4482_24780" x="-2.5499" y="-30.3448" width="53.7741" height="48.1384" filterUnits="userSpaceOnUse" color-interpolation-filters="sRGB"><feFlood flood-opacity="0" result="BackgroundImageFix"/><feBlend mode="normal" in="SourceGraphic" in2="BackgroundImageFix" result="shape"/><feGaussianBlur stdDeviation="6.15386" result="effect1_foregroundBlur_4482_24780"/></filter><clipPath id="clip0_4482_24780"><rect width="32" height="32" fill="white"/></clipPath></defs></svg>