<svg width="32" height="32" viewBox="0 0 32 32" fill="none" xmlns="http://www.w3.org/2000/svg">
<rect width="32" height="32" rx="16" fill="#F0C43F"/>
<path d="M26.237 12.2325V12.2346C26.237 12.2799 26.237 12.3242 26.2351 12.3716C26.2329 12.4488 26.2288 12.5271 26.2217 12.6054C26.2146 12.6878 26.2054 12.7702 26.1951 12.8516C26.1634 13.0937 26.112 13.3316 26.0425 13.5644C26.0189 13.6437 25.9933 13.723 25.9647 13.8004C25.3888 13.3141 24.7291 12.9237 24.0121 12.6549C24.0367 12.5189 24.0489 12.3788 24.0489 12.2356C24.0489 12.0687 24.0315 11.9081 23.9999 11.7505C23.9926 11.7123 23.9833 11.6732 23.9732 11.6351C23.9536 11.5588 23.9312 11.4847 23.9046 11.4126C23.8779 11.3394 23.8472 11.2673 23.8134 11.1963C23.631 10.8131 23.3483 10.4865 22.999 10.2496C22.7787 10.0992 22.5298 9.9859 22.2635 9.91689C22.2255 9.90659 22.1865 9.89731 22.1487 9.89011C21.9951 9.85818 21.8342 9.8417 21.6694 9.8417C21.5894 9.8417 21.5096 9.84581 21.4317 9.85406C20.229 9.97355 19.2896 10.9933 19.2896 12.2356C19.2896 12.3839 19.303 12.5292 19.3296 12.6693C18.6166 12.9412 17.9599 13.3326 17.3883 13.821C17.2541 13.4572 17.165 13.0782 17.1261 12.6909C17.1261 12.6796 17.124 12.6682 17.1231 12.6559C17.1149 12.5673 17.1087 12.4787 17.1056 12.3912C17.1056 12.385 17.1056 12.3778 17.1056 12.3716C17.1056 12.3252 17.1035 12.2799 17.1035 12.2346V12.2325C17.1035 12.0657 17.1117 11.9008 17.1302 11.7381C17.1364 11.6804 17.1435 11.6237 17.1506 11.565C17.1906 11.289 17.2552 11.0201 17.3432 10.7616C17.3638 10.6987 17.3864 10.6359 17.4109 10.5741C17.4825 10.3876 17.5666 10.2074 17.6608 10.0333C17.6946 9.97045 17.7305 9.90866 17.7673 9.84787C17.8052 9.78608 17.8431 9.72633 17.8831 9.66761C17.925 9.60684 17.968 9.54503 18.0111 9.48631C18.0562 9.42761 18.0992 9.37198 18.1453 9.31429C18.1453 9.31429 18.1474 9.31429 18.1474 9.31223C18.2139 9.23086 18.2847 9.15154 18.3563 9.07532C18.429 8.99909 18.5039 8.92492 18.5817 8.85385C18.6585 8.78174 18.7375 8.71376 18.8205 8.64784C18.8614 8.61589 18.9033 8.58293 18.9464 8.54997C19.3264 8.2667 19.7517 8.04009 20.2105 7.88453C20.2822 7.86085 20.3529 7.83818 20.4256 7.81655C20.4964 7.79698 20.568 7.77843 20.6397 7.76092C20.6418 7.76092 20.6438 7.76092 20.6448 7.76092C20.8292 7.7187 21.0187 7.68778 21.2093 7.66821C21.2472 7.6641 21.2861 7.66101 21.325 7.65792C21.4399 7.64967 21.5576 7.64453 21.6754 7.64453C21.9888 7.64453 22.2962 7.67646 22.5922 7.73724C22.666 7.75269 22.7387 7.7702 22.8114 7.78875C22.8843 7.80729 22.9549 7.82686 23.0276 7.85054C23.1343 7.8835 23.2397 7.92162 23.3432 7.96282C23.3883 7.98034 23.4322 7.99888 23.4763 8.01845C23.5234 8.03802 23.5705 8.05964 23.6157 8.08128C24.0941 8.30894 24.5263 8.61795 24.8952 8.98878C24.972 9.06604 25.0477 9.14743 25.1195 9.23086C25.143 9.25867 25.1677 9.28752 25.1922 9.31635C25.2322 9.36476 25.2701 9.41422 25.3069 9.46366C25.4463 9.64803 25.5723 9.84274 25.6829 10.0487C25.7177 10.1136 25.7526 10.1785 25.7833 10.2445C25.7833 10.2476 25.7864 10.2496 25.7864 10.2506C25.816 10.3104 25.8438 10.3732 25.8694 10.435C25.9051 10.5185 25.9391 10.6029 25.9688 10.6895C25.9789 10.7142 25.9881 10.7389 25.9954 10.7636C26.0824 11.0222 26.148 11.29 26.1869 11.5671C26.194 11.6258 26.2022 11.6825 26.2073 11.7401C26.2269 11.9029 26.2351 12.0667 26.2351 12.2346L26.237 12.2325Z" fill="black"/>
<path d="M14.9237 19.7109C14.9237 22.2398 12.875 24.2855 10.3702 24.2855C7.86555 24.2855 5.80957 22.2398 5.80957 19.7109H7.99257C7.99257 21.0263 9.05897 22.1017 10.3702 22.1017C11.6814 22.1017 12.7304 21.0263 12.7304 19.7109H14.9237Z" fill="black"/>
<path d="M10.3157 7.64551C7.37674 7.64551 4.97656 10.0477 4.97656 13.0143C4.97656 15.9809 7.37674 18.3605 10.3157 18.3605C13.2547 18.3605 15.6437 15.9695 15.6437 13.0143C15.6437 10.059 13.2547 7.64551 10.3157 7.64551ZM10.3157 16.1623C8.57425 16.1623 7.16366 14.747 7.16366 13.0143C7.16366 11.2817 8.57528 9.84473 10.3157 9.84473C12.0562 9.84473 13.4575 11.2642 13.4575 13.0143C13.4575 14.7644 12.0501 16.1623 10.3157 16.1623Z" fill="black"/>
<path d="M21.6898 13.5757C18.7508 13.5757 16.3506 15.9778 16.3506 18.9444C16.3506 21.9112 18.7508 24.2905 21.6898 24.2905C24.6288 24.2905 27.0176 21.8998 27.0176 18.9444C27.0176 15.9892 24.6288 13.5757 21.6898 13.5757ZM21.6898 22.0923C19.9483 22.0923 18.5376 20.677 18.5376 18.9444C18.5376 17.2118 19.9493 15.7748 21.6898 15.7748C23.4302 15.7748 24.8317 17.1944 24.8317 18.9444C24.8317 20.6946 23.424 22.0923 21.6898 22.0923Z" fill="black"/>
</svg>
