<svg width="32" height="32" viewBox="0 0 32 32" fill="none" xmlns="http://www.w3.org/2000/svg">
<path d="M16 32C24.8366 32 32 24.8366 32 16C32 7.16344 24.8366 0 16 0C7.16344 0 0 7.16344 0 16C0 24.8366 7.16344 32 16 32Z" fill="#262F36"/>
<path fill-rule="evenodd" clip-rule="evenodd" d="M21.4187 15.0893C20.9591 14.6297 20.9591 13.8846 21.4187 13.425C21.8782 12.9653 22.6234 12.9653 23.0828 13.425C23.5425 13.8846 23.5425 14.6297 23.0828 15.0893C22.6234 15.5488 21.8782 15.5488 21.4187 15.0893ZM17.4658 19.042C17.1212 18.6974 17.1212 18.1385 17.4658 17.7937C17.8107 17.449 18.3695 17.449 18.7142 17.7937C19.0588 18.1385 19.0588 18.6974 18.7142 19.042C18.3695 19.3866 17.8107 19.3866 17.4658 19.042ZM23.707 16.9616C23.3624 16.617 23.3624 16.0581 23.707 15.7135C24.0517 15.3686 24.6105 15.3686 24.9554 15.7135C25.3 16.0581 25.3 16.617 24.9554 16.9616C24.6105 17.3062 24.0517 17.3062 23.707 16.9616ZM21.6266 19.042C21.282 18.6974 21.282 18.1385 21.6266 17.7937C21.9713 17.449 22.5301 17.449 22.875 17.7937C23.2196 18.1385 23.2196 18.6974 22.875 19.042C22.5301 19.3866 21.9713 19.3866 21.6266 19.042ZM25.9956 18.8339C25.7657 18.6043 25.7657 18.2316 25.9956 18.0018C26.2251 17.772 26.5978 17.772 26.8276 18.0018C27.0575 18.2316 27.0575 18.6043 26.8276 18.8339C26.5978 19.0637 26.2251 19.0637 25.9956 18.8339ZM23.9152 20.9143C23.6853 20.6844 23.6853 20.312 23.9152 20.0822C24.1447 19.8524 24.5174 19.8524 24.7472 20.0822C24.9771 20.312 24.9771 20.6844 24.7472 20.9143C24.5174 21.1441 24.1447 21.1441 23.9152 20.9143ZM19.3383 17.1697C18.8787 16.7101 18.8787 15.965 19.3383 15.5054C19.7978 15.0457 20.543 15.0457 21.0024 15.5054C21.4621 15.965 21.4621 16.7101 21.0024 17.1697C20.543 17.6292 19.7978 17.6292 19.3383 17.1697ZM19.3383 13.0089C18.8787 12.5493 18.8787 11.8042 19.3383 11.3446C19.7978 10.8851 20.543 10.8851 21.0024 11.3446C21.4621 11.8042 21.4621 12.5493 21.0024 13.0089C20.543 13.4686 19.7978 13.4686 19.3383 13.0089ZM17.2579 15.0893C16.7983 14.6297 16.7983 13.8846 17.2579 13.425C17.7174 12.9653 18.4626 12.9653 18.9223 13.425C19.3817 13.8846 19.3817 14.6297 18.9223 15.0893C18.4626 15.5488 17.7174 15.5488 17.2579 15.0893ZM13.0777 15.0893C12.6183 14.6297 12.6183 13.8846 13.0777 13.425C13.5374 12.9653 14.2826 12.9653 14.7421 13.425C15.2017 13.8846 15.2017 14.6297 14.7421 15.0893C14.2826 15.5488 13.5374 15.5488 13.0777 15.0893ZM9.12504 19.042C8.78041 18.6974 8.78041 18.1385 9.12504 17.7937C9.46992 17.449 10.0287 17.449 10.3734 17.7937C10.718 18.1385 10.718 18.6974 10.3734 19.042C10.0287 19.3866 9.46992 19.3866 9.12504 19.042ZM15.3662 16.9616C15.0216 16.617 15.0216 16.0581 15.3662 15.7135C15.7109 15.3686 16.2697 15.3686 16.6143 15.7135C16.9592 16.0581 16.9592 16.617 16.6143 16.9616C16.2697 17.3062 15.7109 17.3062 15.3662 16.9616ZM13.2858 19.042C12.9412 18.6974 12.9412 18.1385 13.2858 17.7937C13.6305 17.449 14.1893 17.449 14.5342 17.7937C14.8788 18.1385 14.8788 18.6974 14.5342 19.042C14.1893 19.3866 13.6305 19.3866 13.2858 19.042ZM5.17238 18.8339C4.94254 18.6043 4.94254 18.2316 5.17238 18.0018C5.40222 17.772 5.77485 17.772 6.00444 18.0018C6.23428 18.2316 6.23428 18.6043 6.00444 18.8339C5.77485 19.0637 5.40222 19.0637 5.17238 18.8339ZM7.25278 20.9143C7.02294 20.6844 7.02294 20.312 7.25278 20.0822C7.48262 19.8524 7.85525 19.8524 8.08484 20.0822C8.31468 20.312 8.31468 20.6844 8.08484 20.9143C7.85525 21.1441 7.48262 21.1441 7.25278 20.9143ZM15.5741 20.9143C15.3445 20.6844 15.3445 20.312 15.5741 20.0822C15.804 19.8524 16.1766 19.8524 16.4064 20.0822C16.6363 20.312 16.6363 20.6844 16.4064 20.9143C16.1766 21.1441 15.804 21.1441 15.5741 20.9143ZM7.04464 16.9616C6.70001 16.617 6.70001 16.0581 7.04464 15.7135C7.38952 15.3686 7.94835 15.3686 8.29298 15.7135C8.63761 16.0581 8.63761 16.617 8.29298 16.9616C7.94835 17.3062 7.38952 17.3062 7.04464 16.9616ZM10.9976 17.1697C10.5379 16.7101 10.5379 15.965 10.9976 15.5054C11.457 15.0457 12.2022 15.0457 12.6617 15.5054C13.1213 15.965 13.1213 16.7101 12.6617 17.1697C12.2022 17.6292 11.457 17.6292 10.9976 17.1697ZM10.9976 13.0089C10.5379 12.5493 10.5379 11.8042 10.9976 11.3446C11.457 10.8851 12.2022 10.8851 12.6617 11.3446C13.1213 11.8042 13.1213 12.5493 12.6617 13.0089C12.2022 13.4686 11.457 13.4686 10.9976 13.0089ZM8.91715 15.0893C8.45747 14.6297 8.45747 13.8846 8.91715 13.425C9.37657 12.9653 10.1218 12.9653 10.5813 13.425C11.0409 13.8846 11.0409 14.6297 10.5813 15.0893C10.1218 15.5488 9.37657 15.5488 8.91715 15.0893Z" fill="white"/>
</svg>
