<svg width="32" height="32" viewBox="0 0 32 32" fill="none" xmlns="http://www.w3.org/2000/svg">
<path d="M16 32C24.8366 32 32 24.8366 32 16C32 7.16344 24.8366 0 16 0C7.16344 0 0 7.16344 0 16C0 24.8366 7.16344 32 16 32Z" fill="black"/>
<path fill-rule="evenodd" clip-rule="evenodd" d="M12.9179 7.84277H8.20446C8.00368 7.84277 7.8418 8.00466 7.8418 8.20544V12.9189C7.8418 13.1196 8.00368 13.2815 8.20446 13.2815H12.9179C13.1187 13.2815 13.2805 13.1196 13.2805 12.9189V8.20544C13.2805 8.00466 13.1187 7.84277 12.9179 7.84277ZM18.3591 13.2803H13.6457C13.4449 13.2803 13.2831 13.4421 13.2831 13.6429V18.3563C13.2831 18.5571 13.4449 18.719 13.6457 18.719H18.3591C18.5599 18.719 18.7218 18.5571 18.7218 18.3563V13.6429C18.7218 13.4421 18.5599 13.2803 18.3591 13.2803ZM19.082 7.84277H23.7954C23.9961 7.84277 24.158 8.00466 24.158 8.20544V12.9189C24.158 13.1196 23.9961 13.2815 23.7954 13.2815H19.082C18.8812 13.2815 18.7193 13.1196 18.7193 12.9189V8.20544C18.7193 8.00466 18.8812 7.84277 19.082 7.84277ZM12.9179 18.719H8.20446C8.00368 18.719 7.8418 18.8809 7.8418 19.0817V23.7951C7.8418 23.9959 8.00368 24.1578 8.20446 24.1578H12.9179C13.1187 24.1578 13.2805 23.9959 13.2805 23.7951V19.0817C13.2805 18.8809 13.1187 18.719 12.9179 18.719ZM19.082 18.719H23.7954C23.9961 18.719 24.158 18.8809 24.158 19.0817V23.7951C24.158 23.9959 23.9961 24.1578 23.7954 24.1578H19.082C18.8812 24.1578 18.7193 23.9959 18.7193 23.7951V19.0817C18.7193 18.8809 18.8812 18.719 19.082 18.719Z" fill="white"/>
</svg>
