<svg width="32" height="32" viewBox="0 0 32 32" fill="none" xmlns="http://www.w3.org/2000/svg">
<path d="M16 32C24.8366 32 32 24.8366 32 16C32 7.16344 24.8366 0 16 0C7.16344 0 0 7.16344 0 16C0 24.8366 7.16344 32 16 32Z" fill="#212423"/>
<path fill-rule="evenodd" clip-rule="evenodd" d="M7.89062 11.9448V20.5623L10.3856 21.9998V15.8361L12.8719 17.2723V23.4323L15.3669 24.8698V16.2523L7.89062 11.9448Z" fill="#25DB92"/>
<path fill-rule="evenodd" clip-rule="evenodd" d="M13.5572 11.1562L16.0572 9.6925L19.1634 11.5087L16.6647 12.97L13.5572 11.1562ZM16.0597 6.75L8.52344 11.1587L16.6497 15.9237L16.6522 25.25L19.1172 23.8137V14.3787L21.6072 12.9225V22.3487L24.1084 20.8762V11.4587L16.0584 6.75H16.0597Z" fill="#25DB92"/>
</svg>
