<svg width="32" height="32" viewBox="0 0 32 32" fill="none" xmlns="http://www.w3.org/2000/svg">
<path d="M16 32C7.1496 32 0 24.8501 0 16C0 7.1496 7.1496 0 16 0C24.8501 0 32 7.1496 32 16C32 24.8501 24.8501 32 16 32Z" fill="white"/>
<path d="M7.41992 6L10.5209 9.09891C11.7768 8.09444 13.2878 7.45976 14.8843 7.26606C16.4808 7.07235 18.0997 7.32729 19.5594 8.00226C21.0191 8.67724 22.2619 9.74556 23.1484 11.0874C24.0349 12.4292 24.5299 13.9915 24.5781 15.599V15.8519V26L21.4812 22.9011C20.2264 23.9067 18.7162 24.5427 17.12 24.7377C15.5239 24.9326 13.905 24.6788 12.445 24.0048C10.985 23.3308 9.74183 22.2632 8.85493 20.9219C7.96803 19.5805 7.47252 18.0186 7.42403 16.4113V16.1583L7.41992 6ZM9.54001 11.1182V16.1481C9.54048 17.3319 9.86264 18.4935 10.4721 19.5084C11.0815 20.5234 11.9552 21.3537 12.9999 21.9106C14.0447 22.4675 15.2211 22.73 16.4034 22.6701C17.5858 22.6102 18.7296 22.2302 19.7128 21.5706L19.8814 21.4555L9.95334 11.5316L9.54001 11.1182ZM12.2893 10.4294L12.1207 10.5466L22.0467 20.4684L22.458 20.8797V15.8519C22.4577 14.6685 22.1358 13.5073 21.5268 12.4925C20.9178 11.4778 20.0444 10.6476 19.0001 10.0907C17.9558 9.5338 16.7798 9.27115 15.5978 9.3308C14.4159 9.39046 13.2723 9.77017 12.2893 10.4294Z" fill="#23262F"/>
</svg>
