<svg width="32" height="32" viewBox="0 0 32 32" fill="none" xmlns="http://www.w3.org/2000/svg">
<rect width="32" height="32" rx="16" fill="#4A21EF"/>
<path d="M14.8951 7.04004C14.3497 7.04004 13.8267 7.2567 13.441 7.64236L7.38322 13.7003C7.15378 13.9297 7.03906 14.2305 7.03906 14.5312C7.03906 14.8319 7.15379 15.1326 7.38323 15.3621L11.3531 19.332V12.3038C11.3531 11.7793 11.7749 11.3541 12.2994 11.3541C14.5153 11.3541 19.9091 11.3541 20.6448 11.3541L24.9589 7.0401L14.8951 7.04004Z" fill="white"/>
<path d="M11.3533 20.6459H19.6954C20.2198 20.6459 20.645 20.2207 20.645 19.6962V12.6681L24.6149 16.638C24.8443 16.8674 24.9591 17.1682 24.9591 17.4689C24.9591 17.7696 24.8443 18.0703 24.6149 18.2998L18.5571 24.3577C18.1715 24.7434 17.6484 24.96 17.103 24.96L7.03925 24.96L11.3533 20.6459Z" fill="white"/>
</svg>
