<svg width="32" height="32" viewBox="0 0 32 32" fill="none" xmlns="http://www.w3.org/2000/svg">
<circle cx="16" cy="16" r="16" fill="#2A80FE"/>
<path d="M20.3788 20.6833C20.3781 21.3767 20.3663 22.0702 20.3797 22.763C20.3916 23.3595 20.1235 23.6595 19.5235 23.6586C18.5903 23.657 17.6569 23.6567 16.7238 23.6577C16.1478 23.6583 15.9172 23.3445 15.9194 22.7989C15.9306 19.9995 15.8516 17.1967 15.9725 14.402C16.0913 11.6595 18.186 9.56172 20.9344 9.17703C23.6156 8.80172 26.1922 10.3623 27.1266 12.9277C28.5391 16.8058 25.636 20.7383 21.3641 20.5486C21.2847 19.033 21.2825 17.598 21.3466 16.1658C21.5191 16.1686 21.6263 16.1783 21.731 16.167C22.5106 16.0833 23.0456 15.5064 22.991 14.8145C22.9356 14.1183 22.3444 13.5877 21.6503 13.6111C20.9028 13.6364 20.4053 14.1661 20.3975 14.9658C20.3953 15.203 20.4378 15.4405 20.425 15.7339C20.3866 17.4211 20.3828 19.0523 20.3788 20.6833Z" fill="#FDFEFF"/>
<path d="M15.8412 11.199C15.5799 13.2271 14.1462 13.3921 12.5071 13.2993C12.5071 13.6652 12.5071 13.9505 12.5071 14.2361C12.5071 17.0061 12.5087 19.7761 12.5062 22.5465C12.5049 23.5715 12.4015 23.6686 11.3477 23.6727C10.6552 23.6755 9.96274 23.678 9.27025 23.6721C8.39743 23.6646 8.19149 23.4683 8.18931 22.589C8.18212 19.8186 8.1865 17.0486 8.1865 14.2786C8.1865 13.9883 8.1865 13.698 8.1865 13.2915C7.40118 13.2915 6.664 13.2605 5.93087 13.2999C5.15743 13.3415 4.87243 12.9905 4.89806 12.2543C4.924 11.5093 4.9115 10.7627 4.90212 10.0171C4.89493 9.42302 5.1665 9.1299 5.76743 9.13084C8.43087 9.13427 11.0946 9.11459 13.7581 9.14084C14.9521 9.1524 15.6121 9.82646 15.8412 11.199Z" fill="#FDFEFF"/>
<path d="M21.2803 16.163C21.2825 17.598 21.2847 19.033 21.2931 20.5412C21.0344 20.6233 20.7697 20.6321 20.4419 20.6624C20.3828 19.0524 20.3865 17.4212 20.4762 15.7515C20.8015 15.8627 21.0409 16.0127 21.2803 16.163Z" fill="#99C2FF"/>
<path d="M21.3466 16.1658C21.041 16.0127 20.8016 15.8627 20.511 15.6952C20.4379 15.4405 20.3954 15.203 20.3975 14.9658C20.4054 14.1661 20.9029 13.6364 21.6504 13.6111C22.3444 13.5877 22.9357 14.1183 22.991 14.8145C23.0457 15.5064 22.5107 16.0833 21.731 16.167C21.6263 16.1783 21.5191 16.1686 21.3466 16.1658Z" fill="#2E83FE"/>
</svg>
