<svg width="40" height="40" viewBox="0 0 40 40" fill="none" xmlns="http://www.w3.org/2000/svg">
<path d="M20 40C31.0457 40 40 31.0457 40 20C40 8.95431 31.0457 0 20 0C8.95431 0 0 8.95431 0 20C0 31.0457 8.95431 40 20 40Z" fill="#2D374B"/>
<path d="M22.8956 18.9304L24.7826 15.7413L29.8697 23.6315L29.8728 25.1453L29.8556 14.7264C29.843 14.4707 29.7065 14.237 29.4916 14.1006L20.3324 8.85506C20.0799 8.73584 19.785 8.75624 19.5512 8.90526L19.5199 8.92565L10.6289 14.0551L10.5944 14.0707C10.3293 14.19 10.152 14.4472 10.1348 14.7374L10.1489 23.2284L14.8877 15.9155C15.4838 14.9445 16.7842 14.6339 17.9905 14.6496L19.4069 14.6872L11.0634 28.0127L12.0469 28.5758L20.4908 14.6998L24.2226 14.6856L15.8006 28.9115L19.3112 30.9209L19.7301 31.1625C19.9073 31.2347 20.1175 31.2378 20.2963 31.1735L29.5842 25.8135L27.8085 26.8394L22.8971 18.9304H22.8956ZM23.6156 29.2582L20.0705 23.7178L22.2352 20.0613L26.8908 27.368L23.6171 29.2582H23.6156Z" fill="#2D374B"/>
<path d="M20.0703 23.7177L23.6154 29.2581L26.8907 27.3694L22.235 20.0628L20.0719 23.7193L20.0703 23.7177ZM29.8711 25.1451V23.6314L24.7825 15.7412L22.8954 18.9302L27.8068 26.8393L29.5825 25.8149C29.7566 25.6738 29.8617 25.4683 29.8727 25.244V25.1451H29.8711Z" fill="#289DED"/>
<path d="M8.55566 26.5723L11.0639 28.0108L19.4074 14.6853L17.991 14.6476C16.7847 14.6304 15.4843 14.9425 14.8882 15.9135L10.1494 23.2265L8.55566 25.6657V26.5723ZM24.2231 14.6869L20.4914 14.6994L12.0474 28.5755L14.998 30.2665L15.8012 28.9112L24.2231 14.6853V14.6869Z" fill="white"/>
<path d="M31.4453 14.6666C31.4092 13.887 30.9919 13.1749 30.3284 12.7639L21.05 7.45096C20.3786 7.12312 19.5927 7.12312 18.9214 7.45096C18.8445 7.49018 9.89705 12.6557 9.89705 12.6557C9.77313 12.7153 9.65391 12.7859 9.54097 12.8659C8.95273 13.2815 8.58881 13.9435 8.55273 14.6635V25.6674L10.1465 23.2282L10.1323 14.7372C10.1465 14.5004 10.2672 14.2839 10.4602 14.1474C10.5025 14.1176 19.6006 8.87214 19.6304 8.85802C19.8516 8.75135 20.1088 8.74978 20.33 8.85488L29.4876 14.1004C29.7057 14.2384 29.8406 14.4706 29.8531 14.7263V25.2439C29.8421 25.4666 29.7543 25.6737 29.5802 25.8149L27.8045 26.8392L26.8884 27.3678L23.6131 29.258L20.2923 31.1749C20.1088 31.2392 19.908 31.2361 19.7276 31.1639L15.7982 28.9129L14.9951 30.2682L18.5261 32.2933C18.6421 32.3592 18.7457 32.4172 18.832 32.4659C18.9637 32.5396 19.0547 32.5882 19.0861 32.6039C19.337 32.7263 19.6978 32.7953 20.0241 32.7953C20.319 32.7953 20.6123 32.7404 20.8884 32.6337L30.5339 27.0714C31.0845 26.6463 31.417 25.9968 31.4421 25.3019V14.6682L31.4453 14.6666Z" fill="#93BBD9"/>
</svg>
