<svg width="40" height="40" viewBox="0 0 40 40" fill="none" xmlns="http://www.w3.org/2000/svg">
<path d="M40 20C40 8.9543 31.0457 -1.35705e-06 20 -8.74228e-07C8.9543 -3.91405e-07 -1.35705e-06 8.9543 -8.74228e-07 20C-3.91405e-07 31.0457 8.95431 40 20 40C31.0457 40 40 31.0457 40 20Z" fill="#D34F49"/>
<path fill-rule="evenodd" clip-rule="evenodd" d="M14.7977 27.469H10.7569C9.79847 27.469 9.32004 27.469 9.03298 27.2839C8.72239 27.0832 8.52788 26.7475 8.50592 26.3788C8.4871 26.0385 8.72396 25.6228 9.19769 24.7914L18.0432 9.29492C18.5247 8.451 18.7647 8.02904 19.0722 7.87218C19.4032 7.70276 19.7953 7.70276 20.1263 7.87218C20.4322 8.02904 20.6738 8.44943 21.1569 9.29335L23.1977 12.8557C23.5491 13.469 23.7247 13.7749 23.8016 14.0981C23.8863 14.4494 23.8863 14.8165 23.8016 15.1679C23.7247 15.491 23.5491 15.7985 23.1993 16.4118L17.9098 25.6651C17.5538 26.2879 17.3765 26.5984 17.1334 26.8306C16.8683 27.0832 16.5467 27.2698 16.1953 27.3749C15.8722 27.4706 15.5145 27.4706 14.7961 27.4706L14.7977 27.469Z" fill="white"/>
<path fill-rule="evenodd" clip-rule="evenodd" d="M29.2114 27.4692H24.5275C23.5612 27.4692 23.0781 27.4692 22.7894 27.2825C22.4788 27.0802 22.2828 26.7414 22.2655 26.3712C22.2483 26.0292 22.4914 25.612 22.9777 24.7774L25.3165 20.7665C25.7965 19.9429 26.0365 19.5304 26.3408 19.3767C26.6702 19.2104 27.0577 19.2104 27.3871 19.3767C27.6914 19.5304 27.9314 19.9429 28.413 20.7649L30.7596 24.7759C31.2475 25.6104 31.4922 26.0292 31.4749 26.3712C31.4561 26.7414 31.2616 27.0802 30.951 27.2841C30.6639 27.4708 30.1792 27.4708 29.2114 27.4708V27.4692Z" fill="white"/>
</svg>
