<svg width="40" height="40" viewBox="0 0 40 40" fill="none" xmlns="http://www.w3.org/2000/svg">
<path d="M20 40C31.0457 40 40 31.0457 40 20C40 8.9543 31.0457 0 20 0C8.9543 0 0 8.9543 0 20C0 31.0457 8.9543 40 20 40Z" fill="#0AC18E"/>
<path d="M26.5915 13.4166C25.5915 11.1416 23.2915 10.6666 20.4665 11.1333L19.5582 7.6333L17.4165 8.1833L18.3082 11.6833C17.7499 11.825 17.1665 11.95 16.5999 12.1083L15.6999 8.6333L13.5582 9.1833L14.4665 12.6916C14.0082 12.8166 10.1582 13.8166 10.1582 13.8166L10.7499 16.1C10.7499 16.1 12.3249 15.6583 12.3082 15.7C13.1749 15.475 13.5832 15.9083 13.7832 16.3166L16.2665 25.9333C16.2999 26.2166 16.2499 26.6916 15.6499 26.85C15.6832 26.8666 14.0915 27.25 14.0915 27.25L14.3249 29.9083C14.3249 29.9083 18.1332 28.9333 18.6415 28.8083L19.5665 32.3583L21.6999 31.8083L20.7832 28.2333C21.3749 28.1 21.9415 27.95 22.4999 27.8083L23.4165 31.3666L25.5582 30.8166L24.6415 27.275C27.9249 26.475 30.2499 24.4083 29.7749 21.2333C29.4665 19.325 27.3832 17.7583 25.6499 17.575C26.7165 16.6083 27.2582 15.225 26.5999 13.4166H26.5915ZM25.5665 21.7916C25.9915 24.9333 21.6332 25.3166 20.1832 25.6916L18.9249 20.9916C20.3832 20.6166 24.8582 19.0166 25.5665 21.7833V21.7916ZM22.9332 15.4C23.3832 18.1916 19.6582 18.5166 18.4415 18.8333L17.2915 14.5666C18.4999 14.25 22.0165 12.8083 22.9249 15.4H22.9332Z" fill="white"/>
</svg>
