<svg width="40" height="40" viewBox="0 0 40 40" fill="none" xmlns="http://www.w3.org/2000/svg">
<path d="M20 40C31.0457 40 40 31.0457 40 20C40 8.95431 31.0457 0 20 0C8.95431 0 0 8.95431 0 20C0 31.0457 8.95431 40 20 40Z" fill="white"/>
<path d="M15.0866 32.5C14.5831 32.5 14.0833 32.3518 13.6509 32.0619C12.9304 31.5785 12.5 30.7704 12.5003 29.8999L12.5008 25.5098H12.5L12.5011 14.077V13.7823L12.5017 10.2636C12.4707 9.34662 12.9437 8.49512 13.7741 7.97913C14.7628 7.36452 16.0572 7.3393 17.0718 7.91452L26.2931 13.1434C27.6366 13.9053 28.3976 15.1977 28.3291 16.6006C28.2588 18.0364 27.3427 19.2812 25.8784 19.9301L25.8502 19.9423L24.575 20.4742L26.2931 21.4266C27.6366 22.1885 28.3976 23.4809 28.3291 24.8838C28.2588 26.3196 27.3427 27.5644 25.8784 28.2133L25.8502 28.2255L16.0798 32.3005C15.7599 32.434 15.4226 32.4997 15.0869 32.4997L15.0866 32.5ZM15.2905 24.3466L15.29 29.5958L24.7645 25.6444C25.235 25.4324 25.5255 25.0972 25.5428 24.7464C25.5586 24.422 25.3343 24.1026 24.9267 23.87L21.2798 21.8488L15.2905 24.3466ZM15.2911 18.5292V21.3121L18.1561 20.1172L15.2911 18.5292ZM15.2905 15.3284L21.451 18.7429L24.7648 17.3609C25.2353 17.149 25.5258 16.8137 25.543 16.4629C25.5591 16.1371 25.3326 15.8166 24.9222 15.584L15.7007 10.3548C15.5602 10.2752 15.3893 10.2981 15.2914 10.3367L15.2908 15.3284H15.2905Z" fill="url(#paint0_linear_4012_15022)"/>
<defs>
<linearGradient id="paint0_linear_4012_15022" x1="12.8077" y1="18.9636" x2="27.5005" y2="24.8914" gradientUnits="userSpaceOnUse">
<stop offset="0.13" stop-color="#8437FA"/>
<stop offset="0.95" stop-color="#2FC0E0"/>
</linearGradient>
</defs>
</svg>
