<svg width="40" height="40" viewBox="0 0 40 40" fill="none" xmlns="http://www.w3.org/2000/svg">
<path d="M20 40C31.0457 40 40 31.0457 40 20C40 8.95431 31.0457 0 20 0C8.95431 0 0 8.95431 0 20C0 31.0457 8.95431 40 20 40Z" fill="#EEB60C"/>
<path d="M12.8776 10.7933L19.9208 6.69922L26.9639 10.7933L24.3757 12.3149L19.9208 9.72667L15.4659 12.3149L12.8776 10.7933ZM26.9639 15.9698L24.3757 14.4482L19.9208 17.0365L15.4659 14.4482L12.8776 15.9698V18.9973L17.3325 21.5855V26.762L19.9208 28.2835L22.509 26.762V21.5855L26.9639 18.9973V15.9698ZM26.9639 24.1737V21.1463L24.3757 22.6678V25.6953L26.9639 24.1737ZM28.7992 25.2404L24.3443 27.8286V30.8561L31.3874 26.762V18.558L28.7992 20.0796V25.2404ZM26.211 13.3816L28.7992 14.9031V17.9306L31.3874 16.409V13.3816L28.7992 11.86L26.211 13.3816ZM17.3325 28.9267V31.9541L19.9208 33.4757L22.509 31.9541V28.9267L19.9208 30.4326L17.3325 28.9267ZM12.8776 24.1737L15.4659 25.6953V22.6678L12.8776 21.1463V24.1737ZM17.3325 13.3816L19.9208 14.9031L22.509 13.3816L19.9208 11.86L17.3325 13.3816ZM11.0423 14.9031L13.6306 13.3816L11.0423 11.86L8.4541 13.3816V16.409L11.0423 17.9306V14.9031ZM11.0423 20.0639L8.4541 18.5424V26.7463L15.4972 30.8404V27.8129L11.0423 25.2247V20.0639Z" fill="white"/>
</svg>
