<svg width="40" height="40" viewBox="0 0 40 40" fill="none" xmlns="http://www.w3.org/2000/svg">
<path d="M39.4043 24.8372C36.7376 35.5533 25.8827 42.0802 15.169 39.3973C4.45528 36.7457 -2.07021 25.8884 0.596459 15.1724C3.26313 4.45626 14.118 -2.07066 24.8317 0.596591C35.5455 3.26385 42.071 14.1211 39.4043 24.8372Z" fill="#F7931A"/>
<path d="M28.8177 17.1514C29.2098 14.4841 27.1863 13.0564 24.4255 12.0993L25.3196 8.49065L23.1236 7.94151L22.2451 11.456C21.6647 11.3148 21.0687 11.1736 20.4883 11.0481L21.3667 7.51789L19.1706 6.96875L18.2765 10.5774C17.8059 10.4676 17.3353 10.3577 16.8804 10.2479V10.2322L13.853 9.47911L13.2726 11.8169C13.2726 11.8169 14.9039 12.1934 14.8726 12.2091C15.7667 12.4288 15.9236 13.025 15.8922 13.48L14.8726 17.5907C14.9353 17.6064 15.0138 17.6221 15.1079 17.6691C15.0294 17.6535 14.951 17.6378 14.8726 17.6064L13.4294 23.3802C13.3196 23.6469 13.0373 24.0549 12.4255 23.898C12.4412 23.9293 10.8255 23.5057 10.8255 23.5057L9.74316 26.0161L12.5981 26.7221C13.1314 26.8476 13.649 26.9888 14.1667 27.1301L13.2569 30.7701L15.453 31.3192L16.3471 27.7106C16.9432 27.8675 17.5236 28.0244 18.0883 28.1656L17.1941 31.7585L19.3902 32.3077L20.3 28.6676C24.049 29.3737 26.8569 29.0913 28.0334 25.7023C28.9902 22.9723 27.9863 21.4033 26.0098 20.3835C27.453 20.054 28.5353 19.1126 28.8177 17.1514ZM23.7981 24.1961C23.1236 26.9261 18.5275 25.4513 17.0373 25.0747L18.2451 20.2423C19.7353 20.6188 24.5196 21.3405 23.7981 24.1961ZM24.4883 17.12C23.8765 19.599 20.049 18.3438 18.8098 18.03L19.9079 13.6526C21.1314 13.9507 25.1314 14.5312 24.4883 17.12Z" fill="white"/>
</svg>
