<svg width="40" height="40" viewBox="0 0 40 40" fill="none" xmlns="http://www.w3.org/2000/svg">
<path d="M20 40C31.0457 40 40 31.0457 40 20C40 8.9543 31.0457 0 20 0C8.9543 0 0 8.9543 0 20C0 31.0457 8.9543 40 20 40Z" fill="#F8FF52"/>
<path fill-rule="evenodd" clip-rule="evenodd" d="M29.1752 10.7666H10.8252V29.2249H29.1669V22.7833H26.1252C25.0752 25.1333 22.7169 26.7749 20.0085 26.7749C16.2835 26.7749 13.2669 23.7083 13.2669 19.9833C13.2669 16.2583 16.2835 13.2249 20.0085 13.2249C22.7669 13.2249 25.1252 14.9166 26.1752 17.3166H29.1669V10.7666H29.1752Z" fill="black"/>
</svg>
