<svg width="40" height="40" viewBox="0 0 40 40" fill="none" xmlns="http://www.w3.org/2000/svg">
<path d="M20 40C31.0457 40 40 31.0457 40 20C40 8.95431 31.0457 0 20 0C8.95431 0 0 8.95431 0 20C0 31.0457 8.95431 40 20 40Z" fill="black"/>
<path d="M20.0052 7.1377L8.86328 13.5706V26.4334L20.0052 32.8632L31.1394 26.4334V13.5706L20.0052 7.1377ZM27.8405 24.5275L20.0052 29.0514L12.1652 24.5275V15.4718L20.0052 10.9479L27.8405 15.4718V24.5275Z" fill="white"/>
<path d="M25.2006 23.0054L20.0006 26.0062L14.7959 23.0054V16.9991L20.0006 13.9937L25.2006 16.9991L23.0359 18.2493L20.0006 16.494L16.9653 18.2493V21.7505L20.0006 23.5058L23.0359 21.7505L25.2006 23.0054Z" fill="white"/>
</svg>
