<svg width="40" height="40" viewBox="0 0 40 40" fill="none" xmlns="http://www.w3.org/2000/svg">
<path d="M20 40C31.0457 40 40 31.0457 40 20C40 8.9543 31.0457 0 20 0C8.9543 0 0 8.9543 0 20C0 31.0457 8.9543 40 20 40Z" fill="#1F2126"/>
<path d="M27.4393 8.28135V17.0829C27.4361 20.3282 24.8049 22.9595 21.5596 22.9626V14.1657C21.5596 10.9173 24.1908 8.28291 27.4393 8.27979V8.28135Z" fill="#01E385"/>
<path d="M18.4465 17.0312V25.8328C18.4465 29.0828 15.8121 31.7188 12.5605 31.7188V22.9172C12.5605 19.6672 15.1949 17.0312 18.4465 17.0312Z" fill="#01E385"/>
</svg>
