<svg width="40" height="40" viewBox="0 0 40 40" fill="none" xmlns="http://www.w3.org/2000/svg">
<path d="M20 40C31.0457 40 40 31.0457 40 20C40 8.9543 31.0457 0 20 0C8.9543 0 0 8.9543 0 20C0 31.0457 8.9543 40 20 40Z" fill="white"/>
<path d="M25.9331 14.9997V14.9747L19.9747 6.70801L14.1414 14.958V14.9747L11.0664 28.0247V28.0413L19.9164 33.2663L19.9747 33.2997L28.9164 28.058H28.9331L25.9331 14.9997ZM21.3164 28.0997L19.9747 32.3413L18.6997 28.0997H21.3164ZM18.1997 28.0997L19.6081 32.5913L12.0747 28.0997H18.1997ZM25.5831 22.2163L24.3497 20.083L25.6831 15.858L28.1747 26.6663L25.5914 22.208L25.5831 22.2163ZM20.1914 12.8913V7.74134L25.4664 15.0747L24.0414 19.5497L20.1914 12.8913ZM21.9164 27.6663L24.1581 20.608L25.2164 22.433L28.2414 27.658H21.9081L21.9164 27.6663ZM27.9497 28.0997L20.3497 32.583L21.7831 28.0913H27.9581L27.9497 28.0997ZM23.8747 20.108L21.4664 27.6663H18.5164L16.1331 20.0413L19.9747 13.3747L23.8664 20.108H23.8747ZM18.0664 27.6663H11.7747L15.8664 20.6247L18.0664 27.6663ZM19.7581 12.883L15.9497 19.4913L14.5664 15.083L19.7497 7.75801V12.883H19.7581ZM11.8664 26.583L14.3414 15.858L15.6497 20.0163L11.8664 26.583Z" fill="black"/>
</svg>
