<svg width="40" height="40" viewBox="0 0 40 40" fill="none" xmlns="http://www.w3.org/2000/svg">
<path d="M20 40C31.0457 40 40 31.0457 40 20C40 8.95431 31.0457 0 20 0C8.95431 0 0 8.95431 0 20C0 31.0457 8.95431 40 20 40Z" fill="white"/>
<path d="M19.6671 6.6665L11.667 18.6579L19.6671 14.365V6.6665Z" fill="#61B54D"/>
<path d="M19.6671 15.8237L11.9502 20.0389L19.6671 24.249V15.8237Z" fill="#61B54D"/>
<path d="M19.6671 20.6931L11.9502 20.0391L19.6671 24.2491V20.6931Z" fill="#3B8028"/>
<path d="M19.6671 25.7072L11.667 21.3467L19.6671 33.333V25.7072Z" fill="#61B54D"/>
<path d="M19.666 6.6665L27.6661 18.6579L19.666 14.365V6.6665Z" fill="#3B8028"/>
<path d="M19.666 15.8237L27.3829 20.0389L19.666 24.249V15.8237Z" fill="#3B8028"/>
<path d="M19.666 20.6931L27.3829 20.0391L19.666 24.2491V20.6931Z" fill="#306523"/>
<path d="M19.666 25.7072L27.6661 21.3467L19.666 33.333V25.7072Z" fill="#3B8028"/>
</svg>
