<svg width="40" height="40" viewBox="0 0 40 40" fill="none" xmlns="http://www.w3.org/2000/svg">
<path d="M20 40C31.0457 40 40 31.0457 40 20C40 8.95431 31.0457 0 20 0C8.95431 0 0 8.95431 0 20C0 31.0457 8.95431 40 20 40Z" fill="#E2E2E2"/>
<path d="M20 6.36377V25.2014L28.3733 20.2524L20 6.36377Z" fill="#343434"/>
<path d="M20.0003 6.36377L11.627 20.2524L20.0003 25.1998V6.36377Z" fill="#8C8C8C"/>
<path d="M20 26.7861V33.6363L28.3733 21.8418L20 26.7861Z" fill="#3C3C3B"/>
<path d="M20.0003 33.6363V26.7861L11.627 21.8418L20.0003 33.6363Z" fill="#8C8C8C"/>
<path d="M20 25.2017L28.3733 20.2542L20 16.4487V25.2017Z" fill="#141414"/>
<path d="M11.627 20.2523L20.0003 25.1997V16.4468L11.627 20.2523Z" fill="#393939"/>
</svg>
