<svg width="40" height="40" viewBox="0 0 40 40" fill="none" xmlns="http://www.w3.org/2000/svg">
<path d="M20 40C31.0457 40 40 31.0457 40 20C40 8.95431 31.0457 0 20 0C8.95431 0 0 8.95431 0 20C0 31.0457 8.95431 40 20 40Z" fill="#0529E9"/>
<path d="M19.0555 9.30658C19.5857 9.02736 20.392 9.02736 20.9222 9.30658L26.3292 12.1489C26.6477 12.3168 26.8233 12.5662 26.8547 12.825H26.8594V27.1089C26.8531 27.3897 26.6759 27.6705 26.3277 27.8525L20.9206 30.6948C20.3904 30.974 19.5841 30.974 19.0539 30.6948L13.6469 27.8525C13.3018 27.6705 13.1355 27.3897 13.1277 27.1089C13.1277 27.0807 13.1277 27.0587 13.1277 27.0399V12.9176C13.1277 12.9019 13.1277 12.8862 13.1277 12.8705V12.825H13.1308C13.1543 12.5646 13.3222 12.3199 13.6484 12.1489L19.0555 9.30658ZM26.0092 20.7936L20.9222 23.4666C20.392 23.7458 19.5857 23.7458 19.0555 23.4666L13.9794 20.7999V27.0807L19.0555 29.7348C19.3426 29.887 19.639 30.036 19.9308 30.0548H19.9888C20.2916 30.058 20.5865 29.9042 20.8845 29.7599L26.0092 27.0587V20.7952V20.7936ZM12.2492 26.7968C12.2492 27.3442 12.3135 27.7034 12.4406 27.9576C12.5457 28.1678 12.7041 28.3278 12.9912 28.5238L13.0069 28.5348C13.0696 28.5772 13.1402 28.6211 13.2249 28.6744L13.3253 28.7356L13.6328 28.9207L13.192 29.6454L12.8484 29.4383L12.7904 29.4038C12.6916 29.3427 12.6084 29.2909 12.5316 29.2391C11.7096 28.6885 11.4037 28.0878 11.3975 26.8376V26.7999H12.2492V26.7968ZM19.5622 16.9646C19.523 16.9787 19.4853 16.9929 19.4524 17.0117L14.0453 19.854C14.0453 19.854 14.0343 19.8603 14.0296 19.8634L14.0249 19.8666L14.0328 19.8713L14.0453 19.8776L19.4524 22.7199C19.4853 22.7372 19.523 22.7529 19.5622 22.767V16.9678V16.9646ZM20.4139 16.9646V22.7638C20.4531 22.7497 20.4908 22.7356 20.5237 22.7168L25.9308 19.8744C25.9308 19.8744 25.9418 19.8681 25.9465 19.865L25.9512 19.8619L25.9433 19.8572L25.9308 19.8509L20.5237 17.0085C20.4908 16.9913 20.4531 16.9756 20.4139 16.9615V16.9646ZM26.0092 13.8368L21.159 16.3858L26.0092 18.9348V13.8368ZM13.9794 13.843V18.9301L18.8186 16.3874L13.9794 13.8446V13.843ZM20.5237 10.0564C20.2429 9.90893 19.7331 9.90893 19.4524 10.0564L14.0453 12.8987C14.0453 12.8987 14.0343 12.905 14.0296 12.9081L14.0249 12.9113L14.0328 12.916L14.0453 12.9223L19.4524 15.7646C19.7331 15.9121 20.2429 15.9121 20.5237 15.7646L25.9308 12.9223C25.9308 12.9223 25.9418 12.916 25.9465 12.9129L25.9512 12.9097L25.9433 12.905L25.9308 12.8987L20.5237 10.0564ZM26.8077 10.367L27.1512 10.574L27.2092 10.6101C27.308 10.6713 27.3912 10.7231 27.468 10.7748C28.29 11.3254 28.5959 11.9262 28.6022 13.1764V13.214H27.7504C27.7504 12.6666 27.6861 12.3074 27.559 12.0532C27.4539 11.843 27.2955 11.6831 27.0084 11.487L26.9928 11.476C26.93 11.4336 26.8594 11.3897 26.7747 11.3364L26.6743 11.2752L26.3669 11.0901L26.8077 10.3654V10.367Z" fill="white"/>
</svg>
