<svg width="40" height="40" viewBox="0 0 40 40" fill="none" xmlns="http://www.w3.org/2000/svg">
<path d="M20 40C31.0457 40 40 31.0457 40 20C40 8.95431 31.0457 0 20 0C8.95431 0 0 8.95431 0 20C0 31.0457 8.95431 40 20 40Z" fill="url(#paint0_linear_4012_14838)"/>
<path d="M25.5576 10.3042C23.2626 10.3042 21.3897 12.1771 21.3285 14.472V19.123C20.905 19.123 20.483 19.1842 19.9999 19.1842C19.5168 19.1842 19.0932 19.1842 18.6713 19.2454V14.4736C18.6713 12.1787 16.7387 10.3058 14.3826 10.3654C12.1474 10.3654 10.3356 12.2383 10.2744 14.4736V25.5889C10.3356 27.8838 12.207 29.7567 14.563 29.6971C16.8579 29.6375 18.6713 27.8242 18.6713 25.5889V20.9379C19.0948 20.9379 19.5168 20.8783 19.9999 20.8783C20.483 20.8783 20.9066 20.8783 21.3285 20.8187V25.5309C21.3897 27.8258 23.2611 29.6987 25.6172 29.6391C27.9121 29.5795 29.7254 27.7662 29.7254 25.5309V14.4767C29.7254 12.1818 27.8525 10.3089 25.5576 10.3089V10.3042ZM14.5034 11.9952C15.8932 11.9952 16.9803 13.0822 16.9803 14.472V19.3646C15.7725 19.5466 14.5646 19.9089 13.4164 20.392C12.9332 20.6336 12.4501 20.8752 12.0266 21.2375V14.472C12.0266 13.1434 13.1136 11.9952 14.5034 11.9952ZM16.9803 25.5873C16.9803 26.9771 15.8932 28.0642 14.5034 28.0642C13.1136 28.0642 12.0266 26.9771 12.0266 25.5873V24.5003C12.0266 23.534 12.8125 22.5677 14.1411 22.0234C15.0477 21.5999 16.014 21.3583 17.0399 21.1779L16.9787 25.5873H16.9803ZM25.5576 28.0642C24.1677 28.0642 23.0807 26.9771 23.0807 25.5873V20.6948C24.2885 20.5128 25.4964 20.1505 26.6446 19.6673C27.1277 19.4258 27.6109 19.1842 28.0344 18.8218V25.5873C28.0344 26.9771 26.8862 28.0642 25.5576 28.0642ZM25.9199 18.0971C25.0132 18.5207 24.047 18.7622 23.0211 18.9426V14.472C23.0211 13.0822 24.1081 11.9952 25.4979 11.9952C26.8877 11.9952 27.9748 13.0822 27.9748 14.472V15.5591C28.0344 16.5866 27.2501 17.4916 25.9215 18.0956L25.9199 18.0971Z" fill="white"/>
<defs>
<linearGradient id="paint0_linear_4012_14838" x1="34.1427" y1="5.85725" x2="5.85725" y2="34.1427" gradientUnits="userSpaceOnUse">
<stop stop-color="#80E3A0"/>
<stop offset="1" stop-color="#61A7E1"/>
</linearGradient>
</defs>
</svg>
