<svg width="40" height="40" viewBox="0 0 40 40" fill="none" xmlns="http://www.w3.org/2000/svg">
<path d="M20 40C31.0457 40 40 31.0457 40 20C40 8.95431 31.0457 0 20 0C8.95431 0 0 8.95431 0 20C0 31.0457 8.95431 40 20 40Z" fill="#181F25"/>
<path d="M22.7549 7.74316V13.6428L27.9298 10.6969L22.7549 7.74316Z" fill="#80F7B4"/>
<path opacity="0.9" d="M27.9277 10.6968V16.5964L33.1026 13.6427L27.9277 10.6968Z" fill="#80F7B4"/>
<path opacity="0.8" d="M22.7549 13.6426V19.5422L27.9298 16.5963L22.7549 13.6426Z" fill="#80F7B4"/>
<path opacity="0.8" d="M27.9277 16.5962V22.4958L33.1026 19.5421L27.9277 16.5962Z" fill="#80F7B4"/>
<path opacity="0.8" d="M22.7549 19.5405V25.4401L27.9298 22.4943L22.7549 19.5405Z" fill="#80F7B4"/>
<path d="M27.9277 22.4941V28.3937L33.1026 25.44L27.9277 22.4941Z" fill="#80F7B4"/>
<path opacity="0.4" d="M9.38086 13.4434V19.343L14.5558 16.3892L9.38086 13.4434Z" fill="#80F7B4"/>
<path opacity="0.2" d="M15.9092 15.6362V21.5358L21.0747 18.59L15.9092 15.6362Z" fill="#80F7B4"/>
<path opacity="0.3" d="M12.0723 19.3682V25.2678L17.2472 22.314L12.0723 19.3682Z" fill="#80F7B4"/>
<path opacity="0.9" d="M15.4824 23.8184V29.718L20.6479 26.7642L15.4824 23.8184Z" fill="#80F7B4"/>
<path opacity="0.7" d="M22.7129 26.3579V32.2575L27.8784 29.3038L22.7129 26.3579Z" fill="#80F7B4"/>
<path opacity="0.9" d="M16.7695 12.7236V18.6232L21.935 15.6774L16.7695 12.7236Z" fill="#80F7B4"/>
<path opacity="0.8" d="M22.755 7.74316V13.6428L17.5801 10.6969L22.755 7.74316Z" fill="#80F7B4"/>
<path opacity="0.6" d="M16.7687 10.2495V16.1491L11.5938 13.1954L16.7687 10.2495Z" fill="#80F7B4"/>
<path opacity="0.6" d="M21.9435 13.1704V19.07L16.7686 16.1163L21.9435 13.1704Z" fill="#80F7B4"/>
<path opacity="0.95" d="M15.8839 15.6362V21.5358L10.709 18.59L15.8839 15.6362Z" fill="#80F7B4"/>
<path opacity="0.6" d="M22.7544 19.5405V25.4401L17.5889 22.4943L22.7544 19.5405Z" fill="#80F7B4"/>
<path opacity="0.55" d="M12.0714 20.9146V26.8142L6.89648 23.8604L12.0714 20.9146Z" fill="#80F7B4"/>
<path d="M33.1026 13.6426V19.5422L27.9277 16.5963L33.1026 13.6426Z" fill="#80F7B4"/>
<path opacity="0.95" d="M27.9278 16.5962V22.4958L22.7529 19.5421L27.9278 16.5962Z" fill="#80F7B4"/>
<path opacity="0.9" d="M33.1026 19.5405V25.4401L27.9277 22.4943L33.1026 19.5405Z" fill="#80F7B4"/>
<path opacity="0.7" d="M27.9278 22.4941V28.3937L22.7529 25.44L27.9278 22.4941Z" fill="#80F7B4"/>
<path opacity="0.4" d="M21.6095 24.9521V30.8518L16.4346 27.9059L21.6095 24.9521Z" fill="#80F7B4"/>
<path d="M27.9278 10.6968V16.5964L22.7529 13.6427L27.9278 10.6968Z" fill="#80F7B4"/>
</svg>
