<svg width="40" height="40" viewBox="0 0 40 40" fill="none" xmlns="http://www.w3.org/2000/svg">
<path d="M20 40C31.0457 40 40 31.0457 40 20C40 8.9543 31.0457 0 20 0C8.9543 0 0 8.9543 0 20C0 31.0457 8.9543 40 20 40Z" fill="#040404"/>
<path d="M19.3757 14.3334C19.3757 13.4334 20.109 12.7084 21.0007 12.7084H23.909V8.7417H21.0007C17.9257 8.7417 15.4174 11.25 15.4174 14.325C15.4174 17.4 15.584 15.9 15.9007 16.5834C13.509 17.6 11.9174 19.7417 11.534 22.4667C11.1007 25.4584 12.3007 28.6834 14.909 30.2417C17.234 31.7167 20.8757 31.6167 22.834 29.575V30.9334H26.884V15.95H21.0007C20.1007 15.95 19.3757 15.2167 19.3757 14.325V14.3334ZM22.9424 19.9167V23.675C22.9424 25.75 21.2507 27.4334 19.184 27.4334C17.1174 27.4334 15.4257 25.7417 15.4257 23.675C15.4257 21.6084 17.1174 19.9167 19.184 19.9167H22.9424Z" fill="#C8EC4D"/>
</svg>
