<svg width="40" height="40" viewBox="0 0 40 40" fill="none" xmlns="http://www.w3.org/2000/svg">
<path d="M20 40C31.0457 40 40 31.0457 40 20C40 8.95431 31.0457 0 20 0C8.95431 0 0 8.95431 0 20C0 31.0457 8.95431 40 20 40Z" fill="#18223E"/>
<path d="M31.6068 18.3878L30.9479 17.285L27.3432 11.227H27.3275L27.213 11.0137H25.8954L20.7754 20.0192L25.977 28.9745H27.2946L27.3275 28.9258L31.624 21.5674H28.973L26.6844 25.6333L23.4248 20.0035L26.6185 14.3737L28.9401 18.3737L31.6068 18.3894V18.3878Z" fill="#41E3AC"/>
<path d="M11.5726 16.9208L13.9758 12.822L13.1695 11.5216L12.6095 10.5992L8.49342 17.8589L8.37891 18.0565L9.03773 19.2094H19.3922L24.6111 10.2698L23.8864 9.01807L16.6424 9.03375H16.5279L15.375 9.01807L15.9836 10.171L16.5922 11.3239L21.3326 11.3083L18.073 16.9224H11.5711L11.5726 16.9208Z" fill="#41E3AC"/>
<path d="M16.6928 12.1807C16.5124 12.1807 16.3148 12.2136 16.1171 12.2795C15.9038 12.3454 15.6889 12.4442 15.4912 12.5587C14.9312 12.9038 14.5359 13.3979 14.4701 13.8591C14.4371 14.0724 14.4857 14.2544 14.6018 14.3862C14.6175 14.4191 14.6505 14.4348 14.6677 14.4677C14.6834 14.4834 14.7006 14.4834 14.7163 14.5007C14.7268 14.5111 14.7378 14.5221 14.7493 14.5336C14.7822 14.5493 14.7979 14.5665 14.8308 14.5822C15.1759 14.7469 15.7203 14.714 16.2473 14.4677L16.263 14.452C16.3116 14.4363 16.3618 14.4034 16.4105 14.3862C16.4591 14.3705 16.492 14.3375 16.5422 14.3046C16.5908 14.2716 16.641 14.2387 16.6897 14.2058C16.7383 14.1728 16.7712 14.1399 16.8214 14.1069L16.8544 14.0913C16.8873 14.0583 16.9203 14.0426 16.9532 14.0097C16.9637 13.9992 16.9746 13.9882 16.9861 13.9767C17.0191 13.9611 17.0348 13.9281 17.052 13.9109C17.0677 13.8952 17.085 13.8779 17.1006 13.845C17.1163 13.812 17.1493 13.7963 17.1665 13.7634L17.1995 13.7305C17.2152 13.6975 17.2481 13.6818 17.2654 13.6489L17.2983 13.616C17.314 13.583 17.3312 13.5673 17.3469 13.5344V13.5187L17.3626 13.4858C17.3955 13.4528 17.4112 13.4042 17.4285 13.3713C17.4457 13.3383 17.4614 13.2897 17.4771 13.2567L17.4928 13.2411C17.4928 13.2254 17.5085 13.2081 17.5085 13.2081C17.5085 13.1977 17.5137 13.1867 17.5242 13.1752C17.5242 13.1422 17.5399 13.1265 17.5399 13.0936C17.5399 13.0607 17.5555 13.0607 17.5555 13.045V12.7156C17.5555 12.6826 17.5399 12.6669 17.5226 12.634C17.5069 12.6011 17.4897 12.5854 17.474 12.5524C17.3595 12.3062 17.0457 12.1901 16.6834 12.1901L16.6928 12.1807Z" fill="#41E3AC"/>
<path d="M17.8946 13.382C17.8946 13.4149 17.8789 13.4306 17.8617 13.4635C17.8617 13.474 17.8564 13.485 17.846 13.4965C17.8303 13.5451 17.813 13.5781 17.7801 13.6283C17.5997 13.9734 17.3032 14.3028 16.9409 14.5663C16.8922 14.5992 16.842 14.6322 16.7934 14.6651C16.7448 14.6981 16.6946 14.731 16.646 14.7467H16.6303C16.6146 14.7624 16.5973 14.7624 16.5817 14.7796C16.5487 14.7953 16.533 14.8126 16.5001 14.8283H16.4844C16.4687 14.8283 16.4515 14.8439 16.4358 14.8439C16.4028 14.8596 16.3699 14.8769 16.3369 14.8769L16.304 14.8926H16.2883C16.2726 14.8926 16.2554 14.9083 16.2397 14.9083C16.2067 14.9239 16.1738 14.9239 16.1409 14.9412L16.1079 14.9569H16.0922C16.0593 14.9726 16.0264 14.9726 15.9934 14.9898C15.9777 14.9898 15.9605 15.0055 15.9275 15.0055H15.9118C15.8789 15.0055 15.846 15.0212 15.8303 15.0212C15.8146 15.0212 15.7817 15.0212 15.7644 15.0369H15.7487C15.733 15.0369 15.7158 15.0369 15.7001 15.0526H15.6515C15.6028 15.0526 15.5369 15.0683 15.4868 15.0683H15.2734C15.2405 15.0683 15.2075 15.0683 15.1746 15.0526C15.1589 15.0526 15.1417 15.0526 15.126 15.0369C15.093 15.0369 15.0601 15.0212 15.0271 15.0212C15.0115 15.0212 14.9942 15.0055 14.9785 15.0055L15.8836 16.4706L17.8256 16.4549L18.8295 14.6777L17.9244 13.1953C17.9244 13.211 17.9244 13.2283 17.9087 13.2439V13.2769C17.9087 13.2926 17.893 13.3098 17.893 13.3428C17.9087 13.3584 17.9087 13.3757 17.9087 13.3757L17.8946 13.382Z" fill="#41E3AC"/>
<path d="M28.2154 18.7331C28.3142 18.8806 28.3801 19.0625 28.4287 19.2759C28.4774 19.4892 28.5103 19.7198 28.5103 19.9504C28.5103 20.6092 28.297 21.2021 27.9346 21.4986C27.7699 21.6304 27.5895 21.6962 27.4076 21.6633C27.3746 21.6633 27.3417 21.6476 27.3087 21.6476C27.293 21.6476 27.2758 21.6319 27.2601 21.6319C27.2444 21.6319 27.2272 21.6162 27.2115 21.6162C27.1785 21.6006 27.1456 21.5833 27.1299 21.5676C26.8005 21.3543 26.5542 20.8759 26.4883 20.3002V20.2845C26.4883 20.2359 26.4727 20.1857 26.4727 20.1198V19.7904C26.4727 19.7417 26.4727 19.6915 26.4883 19.6429V19.61C26.4883 19.577 26.504 19.5284 26.504 19.4955V19.4468C26.504 19.4139 26.5197 19.381 26.5197 19.348C26.5197 19.3151 26.5354 19.2994 26.5354 19.2664C26.5511 19.2335 26.5511 19.2006 26.5683 19.1676C26.5683 19.1519 26.584 19.1347 26.584 19.119C26.5997 19.0861 26.5997 19.0531 26.617 19.0202L26.6327 18.9715C26.6483 18.9386 26.6656 18.9229 26.6656 18.89V18.8743L26.6813 18.8413C26.697 18.7927 26.7299 18.7598 26.7472 18.7268C26.7629 18.6939 26.7958 18.661 26.813 18.628L26.8287 18.6123C26.8392 18.6019 26.8502 18.5909 26.8617 18.5794C26.8721 18.5689 26.8774 18.5579 26.8774 18.5464L26.926 18.4978L26.9589 18.4649L26.9919 18.4319L27.0405 18.3833L27.0734 18.3676C27.0891 18.3519 27.1221 18.3347 27.1393 18.319C27.1498 18.319 27.1608 18.3138 27.1723 18.3033C27.188 18.3033 27.2052 18.2876 27.2052 18.2876C27.2052 18.2876 27.2209 18.2876 27.2209 18.2719H27.2366C27.2695 18.2719 27.2852 18.2562 27.3181 18.2562H27.417C27.7621 18.2406 28.0099 18.4366 28.2076 18.7504L28.2154 18.7331Z" fill="#41E3AC"/>
<path d="M26.553 18.3374C26.5373 18.3531 26.52 18.386 26.5043 18.4033C26.5043 18.419 26.4886 18.419 26.4886 18.4362C26.4557 18.4692 26.44 18.5178 26.4071 18.5507C26.1937 18.8801 26.0777 19.3084 26.0447 19.7523V20.1147V20.1805C26.0447 20.2135 26.0447 20.2464 26.0604 20.2794V20.3452C26.0604 20.3782 26.0761 20.4111 26.0761 20.4441V20.4927C26.0761 20.5084 26.0761 20.5256 26.0918 20.5413C26.0918 20.5743 26.1075 20.6072 26.1075 20.6402L26.1232 20.6731V20.6888C26.1232 20.7217 26.1388 20.7547 26.1561 20.7876C26.1561 20.8033 26.1718 20.8205 26.1718 20.8362V20.8519C26.1875 20.8849 26.1875 20.9005 26.2047 20.9335C26.2047 20.9492 26.2204 20.9664 26.2377 20.9994V21.0151C26.2377 21.0307 26.2534 21.048 26.2534 21.0637C26.269 21.0794 26.269 21.0966 26.269 21.0966C26.2847 21.1452 26.3177 21.1954 26.3506 21.2441L26.3663 21.2598C26.3992 21.3084 26.4149 21.3413 26.4479 21.3743C26.4479 21.39 26.4636 21.39 26.4636 21.4072L26.4792 21.4229C26.4949 21.4558 26.5279 21.4715 26.5451 21.5045C26.5608 21.5201 26.5608 21.5374 26.5781 21.5374C26.611 21.5703 26.6267 21.586 26.6439 21.619C26.6596 21.6347 26.6769 21.6347 26.6769 21.6519H24.9483L23.9443 19.9892L24.9326 18.2119H26.6612C26.6507 18.2224 26.6398 18.2334 26.6283 18.2449L26.6126 18.2605C26.5969 18.2762 26.5796 18.2935 26.5467 18.3264L26.553 18.3374Z" fill="#41E3AC"/>
<path d="M16.6928 27.8042C16.5124 27.8042 16.3148 27.7712 16.1171 27.7054C15.9038 27.6395 15.6889 27.5407 15.4912 27.4261C14.9312 27.081 14.5359 26.5869 14.4701 26.1258C14.4371 25.9124 14.4857 25.7305 14.6018 25.5987C14.6175 25.5658 14.6505 25.5501 14.6677 25.5171C14.6834 25.5014 14.7006 25.5014 14.7163 25.4842C14.7268 25.4737 14.7378 25.4627 14.7493 25.4512C14.7822 25.4356 14.7979 25.4183 14.8308 25.4026C15.1759 25.2379 15.7203 25.2708 16.2473 25.5171L16.263 25.5328C16.3116 25.5485 16.3618 25.5814 16.4105 25.5987C16.4591 25.6159 16.492 25.6473 16.5422 25.6803C16.5908 25.7132 16.641 25.7461 16.6897 25.7791C16.7383 25.812 16.7712 25.845 16.8214 25.8779L16.8544 25.8936C16.8873 25.9265 16.9203 25.9422 16.9532 25.9752C16.9637 25.9856 16.9746 25.9966 16.9861 26.0081C17.0191 26.0238 17.0348 26.0567 17.052 26.074C17.0677 26.0897 17.085 26.1069 17.1006 26.1399C17.1163 26.1728 17.1493 26.1885 17.1665 26.2214L17.1995 26.2544C17.2152 26.2873 17.2481 26.303 17.2654 26.3359L17.2983 26.3689C17.314 26.4018 17.3312 26.4175 17.3469 26.4505V26.4661L17.3626 26.4991C17.3955 26.532 17.4112 26.5807 17.4285 26.6136C17.4442 26.6465 17.4614 26.6952 17.4771 26.7281L17.4928 26.7438C17.4928 26.7595 17.5085 26.7767 17.5085 26.7767C17.5085 26.7872 17.5137 26.7982 17.5242 26.8097C17.5242 26.8426 17.5399 26.8583 17.5399 26.8912C17.5399 26.9242 17.5555 26.9242 17.5555 26.9399V27.2693C17.5555 27.3022 17.5399 27.3179 17.5226 27.3509C17.5069 27.3838 17.4897 27.3995 17.474 27.4324C17.3595 27.6787 17.0457 27.8105 16.6834 27.7948L16.6928 27.8042Z" fill="#41E3AC"/>
<path d="M17.8946 26.6008C17.8946 26.5679 17.8789 26.5522 17.8617 26.5193C17.8617 26.5088 17.8564 26.4978 17.846 26.4863C17.8303 26.4377 17.813 26.4048 17.7801 26.3546C17.5997 26.0095 17.3032 25.68 16.9409 25.4165C16.8922 25.3836 16.842 25.3506 16.7934 25.3177C16.7448 25.2848 16.6946 25.2518 16.646 25.2361H16.6303C16.6146 25.2204 16.5973 25.2204 16.5817 25.2032C16.5487 25.1875 16.533 25.1702 16.5001 25.1546H16.4844C16.4687 25.1546 16.4515 25.1389 16.4358 25.1389C16.4028 25.1232 16.3699 25.1059 16.3369 25.1059L16.304 25.0902H16.2883C16.2726 25.0902 16.2554 25.0746 16.2397 25.0746C16.2067 25.0589 16.1738 25.0589 16.1409 25.0416L16.1079 25.0259H16.0922C16.0593 25.0102 16.0264 25.0102 15.9934 24.993C15.9777 24.993 15.9605 24.9773 15.9275 24.9773H15.9118C15.8789 24.9773 15.846 24.9616 15.8303 24.9616C15.8146 24.9616 15.7817 24.9616 15.7644 24.9459H15.7487C15.733 24.9459 15.7158 24.9459 15.7001 24.9302H15.6515C15.6028 24.9302 15.5369 24.9146 15.4868 24.9146H15.2734C15.2405 24.9146 15.2075 24.9146 15.1746 24.9302C15.1589 24.9302 15.1417 24.9302 15.126 24.9459C15.093 24.9459 15.0601 24.9616 15.0271 24.9616C15.0115 24.9616 14.9942 24.9773 14.9785 24.9773L15.8836 23.5122L17.8256 23.5279L18.8295 25.3051L17.9244 26.7875C17.9244 26.7718 17.9244 26.7546 17.9087 26.7389V26.7059C17.9087 26.6902 17.893 26.673 17.893 26.6401C17.9087 26.6244 17.9087 26.6071 17.9087 26.6071L17.8946 26.6008Z" fill="#41E3AC"/>
<path d="M21.3342 28.6762L16.5938 28.6605L15.8691 30.0268L15.375 30.9648L16.6424 30.9491V30.9648L23.8864 30.9805L24.6111 29.7287L19.3922 20.7891L9.03773 20.7734L8.37891 21.9264L8.51067 22.1397H8.49498L12.6111 29.3836L13.9773 27.1609L11.5742 23.0778H18.0762L21.3358 28.6746L21.3342 28.6762Z" fill="#41E3AC"/>
</svg>
