<svg width="40" height="40" viewBox="0 0 40 40" fill="none" xmlns="http://www.w3.org/2000/svg">
<path d="M20 40C31.0457 40 40 31.0457 40 20C40 8.9543 31.0457 0 20 0C8.9543 0 0 8.9543 0 20C0 31.0457 8.9543 40 20 40Z" fill="black"/>
<path d="M26.058 29.3915H10.833V13.6582H14.3163V26.3415H26.058V29.3915Z" fill="white"/>
<path d="M26.0585 16.7084C27.7752 16.7084 29.1669 15.3417 29.1669 13.6584C29.1669 11.9751 27.7752 10.6084 26.0585 10.6084C24.3419 10.6084 22.9502 11.9751 22.9502 13.6584C22.9502 15.3417 24.3419 16.7084 26.0585 16.7084Z" fill="white"/>
</svg>
