<svg width="40" height="40" viewBox="0 0 40 40" fill="none" xmlns="http://www.w3.org/2000/svg">
<path fill-rule="evenodd" clip-rule="evenodd" d="M9.3 34.3375C4.9375 31.075 2.1 25.8625 2.1 20C2.1 10.125 10.125 2.1 20 2.1C28.1625 2.1 37.0625 6.975 39.2125 14.4375C36.8125 6.1 29.125 0 20 0C8.9625 0 0 8.9625 0 20C0 31.0375 8.9625 40 20 40C31.0375 40 40 31.0375 40 20V18.95H38.75C38.625 18.95 38.4375 18.95 38.2 18.9375C37.725 18.925 37.075 18.8875 36.3375 18.825C34.8375 18.7 33.125 18.4375 31.9625 17.975C30.0875 17.225 29.025 16.2375 27.825 15.075L27.75 15.0125C26.5375 13.85 25.175 12.5375 22.8125 11.425C20.4875 10.3375 17.9125 10.5125 16.025 10.9C15.0625 11.1 14.2375 11.3625 13.6625 11.5625C13.375 11.6625 13.1375 11.7625 12.975 11.825C12.025 12.225 11.1 12.7 10.175 13.1375C10.175 13.1375 12.0125 13.6375 12.9125 13.925C12.95 13.925 13 13.95 13.0625 13.975C13.2 14.0125 13.4 14.0875 13.625 14.1875C14.1 14.3875 14.725 14.675 15.35 15.075C16.325 15.7 17.1375 16.4875 17.475 17.4625C15.4 17.7375 13.4625 18.65 12 19.5C11.125 20.0125 10.3875 20.5375 9.875 20.925C9.625 21.125 9.4125 21.2875 9.275 21.4C9.15 21.5 7.2875 23.15 7.2875 23.15C7.2875 23.15 9.7 23.4 10.8875 23.65C11.675 23.8125 12.75 24.0625 13.8625 24.45C14.9875 24.8375 16.1125 25.35 17.05 26.0125C17.9875 26.675 18.675 27.425 19.0125 28.3C20 30.8375 19.025 33.3 17.075 34.675C15.15 36.05 12.2125 36.375 9.2875 34.3625L9.3 34.3375ZM16.125 37.475C16.9125 37.225 17.65 36.85 18.3125 36.375C20.9625 34.4875 22.3625 31.0375 20.9875 27.5125C20.45 26.125 19.4125 25.075 18.2625 24.2625C17.1125 23.4625 15.7875 22.875 14.5625 22.4375C13.7625 22.15 12.975 21.9375 12.3 21.775C12.55 21.6125 12.8 21.45 13.075 21.2875C14.7 20.3375 16.7375 19.4625 18.7 19.4625C21.65 19.4625 23.85 20.375 25.95 21.3375C26.1375 21.425 26.325 21.5125 26.525 21.6C28.4 22.475 30.3625 23.4 32.65 23.4C34.9375 23.4 36.6 22.775 37.7875 22.125C36.725 31 29.175 37.875 20.025 37.875C18.6875 37.875 17.4 37.725 16.15 37.4625L16.125 37.475ZM35.5 20.85C34.7125 21.1125 33.75 21.3125 32.6375 21.3125C30.85 21.3125 29.3 20.6 27.35 19.6875C27.175 19.6 27 19.525 26.825 19.4375C24.8625 18.525 22.6 17.5625 19.65 17.4C19.25 15.45 17.775 14.1125 16.5 13.3C16.3625 13.2125 16.2125 13.125 16.075 13.0375C16.2 13.0125 16.325 12.975 16.4625 12.95C18.175 12.6 20.2 12.5125 21.925 13.325C23.9625 14.2875 25.125 15.4 26.325 16.55L26.3625 16.5875C27.6 17.775 28.9 19.0125 31.1875 19.925C32.45 20.425 34.1 20.7 35.5 20.85Z" fill="url(#paint0_linear_4012_15027)"/>
<defs>
<linearGradient id="paint0_linear_4012_15027" x1="-0.3625" y1="20.375" x2="40.3625" y2="19.625" gradientUnits="userSpaceOnUse">
<stop stop-color="#29CCB9"/>
<stop offset="0.49" stop-color="#0091FF"/>
<stop offset="1" stop-color="#FF66B7"/>
</linearGradient>
</defs>
</svg>
