<svg width="40" height="40" viewBox="0 0 40 40" fill="none" xmlns="http://www.w3.org/2000/svg">
<path d="M20 40C31.0457 40 40 31.0457 40 20C40 8.95431 31.0457 0 20 0C8.95431 0 0 8.95431 0 20C0 31.0457 8.95431 40 20 40Z" fill="#313041"/>
<path d="M34.1141 20.0504C33.9494 12.1869 27.3957 5.96569 19.5102 6.23707C11.8129 6.49746 5.72039 12.9429 5.8851 20.6528C6.00275 26.3437 9.48667 31.1845 14.3855 33.3084C15.082 32.4237 15.6608 30.841 15.9447 29.9547C16.2286 29.2347 16.5345 28.5257 16.8545 27.8418C18.2835 28.3375 20.2082 27.8653 21.2702 26.7202L21.3173 26.6731C20.042 26.1179 18.2835 26.4018 17.1259 27.299C17.5149 26.4849 17.94 25.6928 18.3776 24.9257C19.7831 25.492 21.7314 25.1029 22.8294 24.0159L22.8765 23.9688C21.6482 23.3665 19.9133 23.5563 18.7212 24.3579C19.1573 23.6378 19.6059 22.9288 20.0796 22.2684C21.5431 22.7171 23.4678 22.1618 24.4718 20.9696L24.5078 20.9226C23.3157 20.4614 21.7565 20.7343 20.6475 21.5124C20.6835 21.4653 20.7306 21.4057 20.7651 21.3586C21.049 20.9931 21.3439 20.6261 21.6388 20.2731C23.3627 19.7884 24.8969 18.03 25.1447 16.212L25.1573 16.1414H25.1447C23.3612 16.4959 21.7094 18.2543 21.3784 20.1084C21.0945 20.4504 20.8122 20.7939 20.5408 21.1469C20.9894 19.9422 20.9063 18.4661 20.2569 17.4512L20.2208 17.4982C19.2404 18.7375 19.0867 20.7563 19.8427 22.1022C19.3941 22.739 18.958 23.3884 18.5439 24.0739C18.8043 22.7045 18.3667 21.1108 17.3988 20.2135L17.3753 20.2731C16.7384 21.7022 17.0804 23.6739 18.1314 24.7955C17.7188 25.5155 17.3282 26.259 16.9502 27.0277C17.1745 25.5986 16.6663 23.9469 15.6514 23.0606L15.6278 23.1202C15.049 24.6198 15.4976 26.6496 16.6192 27.7367C16.3714 28.2684 16.1345 28.7986 15.9102 29.3539C15.8506 29.2943 15.78 29.2598 15.6984 29.2237C15.4035 29.1406 15.002 28.9869 14.5533 28.7155C14.2584 28.5382 13.94 28.3971 13.62 28.2904C12.3447 27.8779 12.5345 27.2629 11.8726 26.0237C11.8255 25.9406 11.3063 25.3979 11.1871 25.2912C11.1635 25.2677 10.8216 25.0669 10.6553 24.7124C10.5016 24.3814 10.4075 24.0755 10.3839 23.779C10.3369 23.3775 10.1722 23.1186 9.78157 22.9759C7.90392 22.3265 8.74314 19.8951 8.81373 19.5751C8.87333 19.3037 8.62549 18.7014 8.54235 18.3704C8.5298 18.3343 8.51882 18.2873 8.50627 18.2167C8.37608 17.5673 8.67098 17.012 8.89529 16.7877C9.11961 16.5633 9.89922 16.1979 10.0639 15.9845C10.2286 15.7728 10.3478 15.5359 10.5125 15.3351C10.7369 15.0637 11.3973 14.532 12.3071 14.0488C12.8498 13.7539 12.9439 12.9979 13.1573 12.7626C13.5118 12.361 14.0545 12.361 14.4561 12.0065C14.6569 11.8292 14.9518 11.7351 15.1416 11.5453C16.0749 10.5884 17.3141 10.212 18.5424 9.97511C19.369 9.82138 20.2898 10.0582 21.1635 10.212C21.2937 10.2355 21.4114 10.259 21.529 10.2951C23.4773 10.3657 25.8145 10.7673 26.6647 11.5939C27.1965 12.1131 27.4553 12.6684 27.5745 13.0575C27.7157 13.4935 27.9055 13.9077 28.1408 14.2857L28.66 15.1359C28.991 15.6677 29.0961 16.3171 28.9549 16.9304C28.8718 17.2849 28.8373 17.6504 28.9314 17.8512C29.0961 18.1696 29.5918 18.6888 29.8882 18.9853C30.0294 19.1265 30.1957 19.2567 30.3604 19.3633C30.762 19.6112 31.518 20.1069 31.518 20.1429C31.518 20.2026 31.5776 20.4379 31.2467 20.7328C30.9157 21.0277 30.2788 21.4888 30.2788 21.4888C30.2788 21.4888 30.3149 21.7006 30.3965 21.8669C30.4906 22.0316 30.7039 22.292 30.6333 22.5163C30.5627 22.7406 30.1016 22.9288 30.2318 23.1767C30.362 23.4371 30.6929 23.5077 30.5973 23.7429C30.5031 23.9673 30.042 24.3688 30.089 24.5335C30.1361 24.6982 30.5141 26.281 29.6404 26.5524C28.991 26.7641 27.1965 26.8708 26.3588 26.9179C25.9933 26.9414 25.6733 27.1422 25.4976 27.4606C25.3675 27.6975 25.2373 28.0269 25.1792 28.4645C25.0145 29.5735 23.9165 32.1367 23.9165 32.1367C23.9165 32.1367 23.8804 32.2073 23.8333 32.3139C23.7392 32.5508 23.5965 32.9037 23.6216 33.0575C23.6341 33.1516 23.7627 33.3414 23.9525 33.5657C24.1063 33.7429 24.3541 33.8135 24.5784 33.7429C30.2333 31.7602 34.2475 26.3406 34.1173 20.0473L34.1141 20.0504Z" fill="#61D3C8"/>
</svg>
