<svg width="40" height="40" viewBox="0 0 40 40" fill="none" xmlns="http://www.w3.org/2000/svg">
<path d="M20 40C31.0457 40 40 31.0457 40 20C40 8.95431 31.0457 0 20 0C8.95431 0 0 8.95431 0 20C0 31.0457 8.95431 40 20 40Z" fill="black"/>
<path fill-rule="evenodd" clip-rule="evenodd" d="M16.1478 9.80371H10.2561C10.0051 9.80371 9.80273 10.0061 9.80273 10.257V16.1488C9.80273 16.3998 10.0051 16.6021 10.2561 16.6021H16.1478C16.3988 16.6021 16.6012 16.3998 16.6012 16.1488V10.257C16.6012 10.0061 16.3988 9.80371 16.1478 9.80371ZM22.9494 16.6006H17.0576C16.8067 16.6006 16.6043 16.8029 16.6043 17.0539V22.9457C16.6043 23.1967 16.8067 23.399 17.0576 23.399H22.9494C23.2004 23.399 23.4027 23.1967 23.4027 22.9457V17.0539C23.4027 16.8029 23.2004 16.6006 22.9494 16.6006ZM23.8529 9.80371H29.7447C29.9957 9.80371 30.198 10.0061 30.198 10.257V16.1488C30.198 16.3998 29.9957 16.6021 29.7447 16.6021H23.8529C23.6019 16.6021 23.3996 16.3998 23.3996 16.1488V10.257C23.3996 10.0061 23.6019 9.80371 23.8529 9.80371ZM16.1478 23.399H10.2561C10.0051 23.399 9.80273 23.6014 9.80273 23.8523V29.7441C9.80273 29.9951 10.0051 30.1974 10.2561 30.1974H16.1478C16.3988 30.1974 16.6012 29.9951 16.6012 29.7441V23.8523C16.6012 23.6014 16.3988 23.399 16.1478 23.399ZM23.8529 23.399H29.7447C29.9957 23.399 30.198 23.6014 30.198 23.8523V29.7441C30.198 29.9951 29.9957 30.1974 29.7447 30.1974H23.8529C23.6019 30.1974 23.3996 29.9951 23.3996 29.7441V23.8523C23.3996 23.6014 23.6019 23.399 23.8529 23.399Z" fill="white"/>
</svg>
