<svg width="40" height="40" viewBox="0 0 40 40" fill="none" xmlns="http://www.w3.org/2000/svg">
<path d="M20 40C31.0457 40 40 31.0457 40 20C40 8.95431 31.0457 0 20 0C8.95431 0 0 8.95431 0 20C0 31.0457 8.95431 40 20 40Z" fill="#E73431"/>
<path d="M11.7615 26.9583C10.2823 26.9583 9.06971 26.5975 8.12383 25.8759C7.19049 25.1418 6.72461 24.0971 6.72461 22.7449C6.72461 22.461 6.75598 22.1143 6.81716 21.7018C6.97873 20.7747 7.20932 19.6594 7.50735 18.3575C8.35284 14.8139 10.5348 13.043 14.0548 13.043C15.0117 13.043 15.8697 13.2108 16.6289 13.5449C17.3881 13.8665 17.9842 14.3559 18.4187 15.0132C18.8532 15.6579 19.0713 16.4312 19.0713 17.3332C19.0713 17.603 19.0399 17.9449 18.9787 18.3575C18.7921 19.5041 18.5677 20.6194 18.3074 21.7018C17.8728 23.4665 17.1199 24.7873 16.0501 25.6641C14.9803 26.5269 13.5513 26.9598 11.7599 26.9598L11.7615 26.9583ZM12.0219 24.1739C12.7183 24.1739 13.3081 23.9606 13.7944 23.5355C14.2917 23.1104 14.6462 22.4594 14.8579 21.5841C15.1434 20.3732 15.3615 19.3159 15.5105 18.4139C15.5607 18.1441 15.5858 17.8665 15.5858 17.5826C15.5858 16.4108 14.9944 15.8241 13.8132 15.8241C13.1168 15.8241 12.5207 16.0375 12.0234 16.4626C11.5387 16.8877 11.1905 17.5387 10.9787 18.4139C10.7544 19.2767 10.5317 20.3339 10.3074 21.5841C10.2572 21.8414 10.2321 22.1128 10.2321 22.3951C10.2321 23.581 10.8281 24.1739 12.0219 24.1739Z" fill="white"/>
<path d="M20.9642 26.7638C20.8277 26.7638 20.721 26.7183 20.6473 26.6289C20.5846 26.5254 20.5657 26.4093 20.5908 26.2806L23.165 13.7175C23.19 13.5763 23.2575 13.4603 23.3704 13.3693C23.4818 13.2799 23.601 13.2344 23.725 13.2344H28.6865C30.0669 13.2344 31.1728 13.5308 32.0057 14.1238C32.8512 14.7167 33.2748 15.5732 33.2748 16.6948C33.2748 17.0163 33.2371 17.352 33.1634 17.7003C32.8528 19.1826 32.2253 20.2775 31.2795 20.9865C30.3461 21.6955 29.0661 22.0501 27.4379 22.0501H24.9202L24.0622 26.2822C24.0371 26.4234 23.9697 26.5395 23.8567 26.6305C23.7453 26.7199 23.6261 26.7654 23.5022 26.7654H20.9657L20.9642 26.7638ZM27.5665 19.3818C28.0889 19.3818 28.5422 19.2344 28.9281 18.9379C29.3265 18.6414 29.5869 18.2163 29.7108 17.6626C29.7485 17.443 29.7673 17.2501 29.7673 17.0822C29.7673 16.7089 29.6622 16.425 29.4504 16.232C29.2387 16.0265 28.8779 15.923 28.3681 15.923H26.1297L25.4206 19.3818H27.565H27.5665Z" fill="white"/>
</svg>
