<svg width="40" height="40" viewBox="0 0 40 40" fill="none" xmlns="http://www.w3.org/2000/svg">
<path d="M20 40C31.0457 40 40 31.0457 40 20C40 8.9543 31.0457 0 20 0C8.9543 0 0 8.9543 0 20C0 31.0457 8.9543 40 20 40Z" fill="url(#paint0_linear_4012_14974)"/>
<path d="M19.5923 13.7248C19.4006 13.8415 19.234 14.0081 19.1256 14.2081C19.0173 14.4081 18.9506 14.6248 18.9506 14.8581L18.984 18.2915L18.9673 20.5998L19.009 24.0331C19.009 24.2581 18.9506 24.4831 18.834 24.6831C18.7256 24.8831 18.559 25.0415 18.3673 25.1665L16.0256 26.5581C15.834 26.6748 15.6173 26.7331 15.4006 26.7331C15.1756 26.7331 14.959 26.6831 14.7673 26.5831L12.4506 25.2665C12.259 25.1581 12.0923 24.9998 11.984 24.8081C11.8756 24.6165 11.8173 24.3915 11.8256 24.1748V21.5081C11.8256 21.2831 11.8923 21.0581 12.0006 20.8581C12.109 20.6581 12.2756 20.4998 12.4673 20.3748L14.7506 18.9998C14.9423 18.8831 15.159 18.8248 15.3756 18.8248C15.6006 18.8248 15.8173 18.8748 16.009 18.9748L17.509 19.8248L17.4923 17.4998L15.9923 16.6498C15.8006 16.5415 15.5756 16.4831 15.359 16.4831C15.134 16.4831 14.9173 16.5498 14.734 16.6748L10.459 19.1998C10.2673 19.3165 10.109 19.4831 9.9923 19.6831C9.88396 19.8831 9.8173 20.0998 9.8173 20.3331V25.3665C9.80896 25.5915 9.85896 25.8081 9.97563 25.9998C10.084 26.1915 10.2506 26.3498 10.4423 26.4581L14.784 28.9165C14.9756 29.0248 15.2006 29.0831 15.4173 29.0831C15.6423 29.0831 15.859 29.0165 16.0423 28.8915L20.3506 26.2998C20.5423 26.1831 20.7006 26.0165 20.8173 25.8165C20.9256 25.6165 20.9923 25.3998 20.9923 25.1665V21.7498L20.9673 19.4248V16.0081C20.9673 15.7831 21.0256 15.5581 21.134 15.3581C21.2423 15.1581 21.409 14.9998 21.6006 14.8748L23.884 13.4998C24.0756 13.3831 24.2923 13.3248 24.509 13.3248C24.734 13.3248 24.9506 13.3748 25.1423 13.4748L27.459 14.7915C27.6506 14.8998 27.8173 15.0581 27.9256 15.2498C28.034 15.4415 28.0923 15.6665 28.084 15.8831L28.1173 18.5665C28.1173 18.7915 28.059 19.0165 27.9423 19.2165C27.834 19.4165 27.6673 19.5748 27.4756 19.6998L25.1923 21.0748C25.0006 21.1915 24.784 21.2498 24.5673 21.2498C24.3423 21.2498 24.1256 21.1998 23.934 21.0998L22.434 20.2498L22.4506 22.5748L23.9506 23.4248C24.1423 23.5331 24.3673 23.5915 24.584 23.5915C24.809 23.5915 25.0256 23.5248 25.209 23.3998L29.5173 20.8081C29.709 20.6915 29.8756 20.5248 29.984 20.3248C30.0923 20.1248 30.159 19.9081 30.159 19.6748V14.6498C30.159 14.4248 30.1006 14.2081 29.9923 14.0165C29.884 13.8248 29.7256 13.6665 29.534 13.5498L25.1923 11.0915C25.0006 10.9831 24.7756 10.9248 24.559 10.9248C24.334 10.9248 24.1173 10.9915 23.934 11.1165L19.5673 13.7165L19.5923 13.7248Z" fill="white"/>
<defs>
<linearGradient id="paint0_linear_4012_14974" x1="0" y1="20" x2="40" y2="20" gradientUnits="userSpaceOnUse">
<stop stop-color="#8F38B9"/>
<stop offset="1" stop-color="#7448D6"/>
</linearGradient>
</defs>
</svg>
