<svg width="40" height="40" viewBox="0 0 40 40" fill="none" xmlns="http://www.w3.org/2000/svg">
<path d="M40 20C40 31.0463 31.0463 40 20 40C8.95373 40 0 31.0463 0 20C0 8.95373 8.95373 0 20 0H20.0031C31.0478 0.00156863 40 8.95529 40 20Z" fill="#2116E5"/>
<path d="M30.0687 18.552C30.0687 14.3873 26.3118 11.0132 21.6797 11.0132H9.93066V28.9865H16.6428V26.0783H21.7283L23.482 28.9818H30.064L27.3346 24.1112C29.0114 22.7324 30.0703 20.7559 30.0703 18.5536L30.0687 18.552ZM21.6734 19.9951H16.6397V16.9818H21.6734C22.6005 16.9818 23.3487 17.6563 23.3487 18.4877C23.3487 19.3191 22.5973 19.9951 21.6734 19.9951Z" fill="white"/>
</svg>
