<svg width="40" height="40" viewBox="0 0 40 40" fill="none" xmlns="http://www.w3.org/2000/svg">
<path d="M20 40C31.0457 40 40 31.0457 40 20C40 8.9543 31.0457 0 20 0C8.9543 0 0 8.9543 0 20C0 31.0457 8.9543 40 20 40Z" fill="#FFEED7"/>
<path d="M29.533 23.9249V10.9666C29.508 9.88327 28.6413 9.0166 27.558 9.0166H14.083C11.158 9.0666 8.83301 11.4499 8.83301 14.3749C8.83301 15.3499 9.09967 16.2166 9.50801 16.9416C9.85801 17.5666 10.3997 18.1333 10.9163 18.5666C11.0747 18.6999 10.9997 18.6499 11.458 18.9166C12.083 19.2916 12.808 19.4833 12.808 19.4833V27.2166C12.833 27.5916 12.858 27.9499 12.9663 28.2749C13.2663 29.3583 14.0247 30.1916 15.0497 30.5999C15.483 30.7583 15.9663 30.8666 16.483 30.8999L27.2247 30.9499C29.358 30.9499 31.1163 29.2166 31.1163 27.0583C31.1163 25.7833 30.4913 24.6249 29.5163 23.9166L29.533 23.9249Z" fill="#FFEEDA"/>
<path d="M29.808 27.1417C29.758 28.525 28.6163 29.6333 27.2413 29.6333L19.833 29.6083C20.4247 28.9333 20.783 28.0417 20.783 27.0667C20.783 25.55 19.8913 24.5 19.8913 24.5H27.2747C28.683 24.5 29.8413 25.6667 29.8413 27.0667L29.8163 27.15L29.808 27.1417Z" fill="#EBC28E"/>
<path d="M11.6242 17.4827C10.7575 16.6744 10.1658 15.6161 10.1658 14.3744V14.2411C10.2492 12.1327 11.9742 10.3994 14.0908 10.3494H27.5908C27.9408 10.3744 28.2158 10.6161 28.2158 10.9744V22.4161C28.5158 22.4661 28.6742 22.5244 28.9742 22.6077C29.2158 22.6911 29.5408 22.8744 29.5408 22.8744V10.9744C29.5158 9.89108 28.6492 9.02441 27.5658 9.02441H14.0908C11.1658 9.07441 8.84082 11.4577 8.84082 14.3827C8.84082 16.0827 9.62415 17.5494 10.8658 18.5494C10.9492 18.6327 11.0242 18.7077 11.2742 18.7077C11.6825 18.7077 11.9492 18.3827 11.9242 18.0577C11.9242 17.7577 11.8158 17.6494 11.6242 17.4911V17.4827Z" fill="#101010"/>
<path d="M27.2327 23.1663H16.6577C15.9577 23.1663 15.3827 23.7329 15.3827 24.4663V25.9829C15.4077 26.6829 16.0077 27.2829 16.7077 27.2829H17.4911V25.9829H16.7077V24.4913H17.1411C18.4661 24.4913 19.4661 25.7329 19.4661 27.0579C19.4661 28.2496 18.3827 29.7329 16.5994 29.6246C14.9994 29.5163 14.1411 28.1079 14.1411 27.0579V14.1579C14.1411 13.5913 13.6577 13.0996 13.0827 13.0996H12.0244V14.4246H12.8077V27.0829C12.7577 29.6496 14.6494 30.9496 16.5911 30.9496L27.2494 30.9746C29.3827 30.9746 31.1411 29.2413 31.1411 27.0829C31.1161 24.9163 29.3827 23.1579 27.2161 23.1579L27.2327 23.1663ZM29.8077 27.1413C29.7577 28.5246 28.6161 29.6329 27.2411 29.6329L19.8327 29.6079C20.4244 28.9329 20.7827 28.0413 20.7827 27.0663C20.7827 25.5496 19.8911 24.4996 19.8911 24.4996H27.2744C28.6827 24.4996 29.8411 25.6663 29.8411 27.0663L29.8161 27.1496L29.8077 27.1413Z" fill="#101010"/>
<path d="M24.3915 14.6413H16.4082V13.3413H24.3915C24.7415 13.3413 25.0415 13.6413 25.0415 13.9913C25.0415 14.3413 24.7749 14.6413 24.3915 14.6413Z" fill="#101010"/>
<path d="M24.3915 20.8665H16.4082V19.5415H24.3915C24.7415 19.5415 25.0415 19.8415 25.0415 20.1915C25.0415 20.5665 24.7749 20.8665 24.3915 20.8665Z" fill="#101010"/>
<path d="M25.7993 17.7581H16.416V16.4331H25.7993C26.1493 16.4331 26.4493 16.7331 26.4493 17.0831C26.4493 17.4581 26.1493 17.7581 25.7993 17.7581Z" fill="#101010"/>
</svg>
