<svg width="40" height="40" viewBox="0 0 40 40" fill="none" xmlns="http://www.w3.org/2000/svg">
<path d="M20 40C31.0457 40 40 31.0457 40 20C40 8.95431 31.0457 0 20 0C8.95431 0 0 8.95431 0 20C0 31.0457 8.95431 40 20 40Z" fill="#03214E"/>
<path d="M28.9991 10.7438C27.1495 8.28175 23.7177 7.639 21.0208 9.12565C19.0442 10.2156 17.0665 11.3056 15.0899 12.3956C13.2504 12.4271 11.4603 13.2552 10.2961 14.8037C9.56124 15.7847 9.14434 16.9387 9.16794 18.086C9.19266 19.2052 9.63765 20.3154 10.3849 21.2515C12.2649 23.6056 15.618 24.1753 18.2497 22.71L24.1031 19.4513C25.9246 19.4614 27.7147 18.6872 28.9092 17.1904C29.6564 16.2544 30.1014 15.1442 30.1261 14.025C30.1509 12.8777 29.734 11.7236 28.9979 10.7438H28.9991ZM23.103 11.9506C24.2143 11.345 25.6291 11.6068 26.391 12.6102C26.6944 13.0103 26.8663 13.48 26.8562 13.9474C26.8461 14.4037 26.6629 14.8565 26.355 15.2374C25.5808 16.1971 24.1975 16.4286 23.1131 15.8319L19.5656 13.8789C20.7443 13.2361 21.9242 12.5934 23.103 11.9506ZM16.1832 19.8918C15.0989 20.4885 13.7167 20.257 12.9413 19.2974C12.6334 18.9164 12.4503 18.4636 12.4402 18.0074C12.4301 17.5399 12.602 17.0702 12.9054 16.6702C13.6673 15.6667 15.082 15.4049 16.1933 16.0105C17.3721 16.6533 18.552 17.2961 19.7308 17.9388L16.1832 19.8918Z" fill="#C7E351"/>
<path d="M29.081 18.8973C27.2314 16.4353 23.7996 15.7936 21.1039 17.2803C19.1273 18.3703 17.1496 19.4602 15.173 20.5502C13.3335 20.5817 11.5434 21.4099 10.3792 22.9583C9.64209 23.9393 9.22632 25.0922 9.25104 26.2395C9.27576 27.3587 9.72075 28.4689 10.468 29.405C12.348 31.7591 15.7011 32.3288 18.3328 30.8635L24.1862 27.6048C26.0077 27.6149 27.7978 26.8407 28.9923 25.3439C29.7395 24.4079 30.1845 23.2977 30.2092 22.1785C30.234 21.0312 29.8171 19.8771 29.081 18.8973ZM23.1861 20.1041C24.2974 19.4985 25.7122 19.7603 26.4741 20.7637C26.7775 21.1638 26.9494 21.6335 26.9393 22.1009C26.9292 22.5572 26.746 23.01 26.4381 23.3909C25.6639 24.3506 24.2806 24.5821 23.1962 23.9854L19.6487 22.0324C20.8274 21.3896 22.0073 20.7469 23.1861 20.1041ZM16.2663 28.0464C15.182 28.6431 13.7998 28.4116 13.0244 27.452C12.7165 27.071 12.5334 26.6182 12.5233 26.162C12.5132 25.6945 12.6851 25.2248 12.9885 24.8248C13.7504 23.8213 15.1651 23.5595 16.2764 24.1652C17.4552 24.8079 18.6351 25.4507 19.8139 26.0934L16.2663 28.0464Z" fill="#74DD54"/>
</svg>
