<svg width="40" height="40" viewBox="0 0 40 40" fill="none" xmlns="http://www.w3.org/2000/svg">
<path d="M40 20C40 8.9543 31.0457 -1.35705e-06 20 -8.74228e-07C8.9543 -3.91405e-07 -1.35705e-06 8.9543 -8.74228e-07 20C-3.91405e-07 31.0457 8.95431 40 20 40C31.0457 40 40 31.0457 40 20Z" fill="#BB2E31"/>
<path d="M28.4029 12.3578L9.40527 8.86133L19.4021 34.0174L33.3315 17.0464L28.4014 12.3578H28.4029ZM28.097 13.8982L31.0037 16.6605L23.0555 18.1005L28.097 13.8998V13.8982ZM21.3284 17.8119L12.9504 10.8645L26.6429 13.3837L21.3284 17.8119ZM20.7323 19.0402L19.3661 30.3327L12.0014 11.7978L20.7323 19.0386V19.0402ZM21.9966 19.6394L30.7982 18.0456L20.7025 30.3452L21.9966 19.6394Z" fill="white"/>
</svg>
