<svg width="40" height="40" viewBox="0 0 40 40" fill="none" xmlns="http://www.w3.org/2000/svg">
<path d="M20 40C31.0457 40 40 31.0457 40 20C40 8.9543 31.0457 0 20 0C8.9543 0 0 8.9543 0 20C0 31.0457 8.9543 40 20 40Z" fill="#235542"/>
<path d="M25.5078 24.35V27.0083H14.5411C14.6911 25.2583 15.2578 24.025 17.2078 22.3L25.5078 15.2167V21.4333H28.4995V10H11.5078V15.7H14.4995V12.9917H23.5245L15.2661 20.0417L15.2495 20.0583C11.7911 23.125 11.5161 25.6 11.5161 28.5083V30H28.5078V24.35H25.5161H25.5078Z" fill="white"/>
</svg>
